%TF.GenerationSoftware,KiCad,Pcbnew,8.0.1*%
%TF.CreationDate,2025-02-04T12:10:19-05:00*%
%TF.ProjectId,diff_amp_breakout,64696666-5f61-46d7-905f-627265616b6f,rev?*%
%TF.SameCoordinates,Original*%
%TF.FileFunction,Paste,Top*%
%TF.FilePolarity,Positive*%
%FSLAX46Y46*%
G04 Gerber Fmt 4.6, Leading zero omitted, Abs format (unit mm)*
G04 Created by KiCad (PCBNEW 8.0.1) date 2025-02-04 12:10:19*
%MOMM*%
%LPD*%
G01*
G04 APERTURE LIST*
G04 Aperture macros list*
%AMRoundRect*
0 Rectangle with rounded corners*
0 $1 Rounding radius*
0 $2 $3 $4 $5 $6 $7 $8 $9 X,Y pos of 4 corners*
0 Add a 4 corners polygon primitive as box body*
4,1,4,$2,$3,$4,$5,$6,$7,$8,$9,$2,$3,0*
0 Add four circle primitives for the rounded corners*
1,1,$1+$1,$2,$3*
1,1,$1+$1,$4,$5*
1,1,$1+$1,$6,$7*
1,1,$1+$1,$8,$9*
0 Add four rect primitives between the rounded corners*
20,1,$1+$1,$2,$3,$4,$5,0*
20,1,$1+$1,$4,$5,$6,$7,0*
20,1,$1+$1,$6,$7,$8,$9,0*
20,1,$1+$1,$8,$9,$2,$3,0*%
G04 Aperture macros list end*
%ADD10RoundRect,0.125000X0.537500X0.125000X-0.537500X0.125000X-0.537500X-0.125000X0.537500X-0.125000X0*%
%ADD11RoundRect,0.160000X0.160000X-0.197500X0.160000X0.197500X-0.160000X0.197500X-0.160000X-0.197500X0*%
%ADD12RoundRect,0.160000X-0.197500X-0.160000X0.197500X-0.160000X0.197500X0.160000X-0.197500X0.160000X0*%
%ADD13R,0.750000X0.650000*%
%ADD14RoundRect,0.062500X0.187500X0.062500X-0.187500X0.062500X-0.187500X-0.062500X0.187500X-0.062500X0*%
%ADD15RoundRect,0.160000X0.197500X0.160000X-0.197500X0.160000X-0.197500X-0.160000X0.197500X-0.160000X0*%
%ADD16RoundRect,0.155000X-0.212500X-0.155000X0.212500X-0.155000X0.212500X0.155000X-0.212500X0.155000X0*%
%ADD17RoundRect,0.155000X0.155000X-0.212500X0.155000X0.212500X-0.155000X0.212500X-0.155000X-0.212500X0*%
%ADD18RoundRect,0.155000X-0.155000X0.212500X-0.155000X-0.212500X0.155000X-0.212500X0.155000X0.212500X0*%
%ADD19RoundRect,0.150000X-0.150000X0.825000X-0.150000X-0.825000X0.150000X-0.825000X0.150000X0.825000X0*%
%ADD20RoundRect,0.125000X0.125000X-0.537500X0.125000X0.537500X-0.125000X0.537500X-0.125000X-0.537500X0*%
%ADD21RoundRect,0.249999X-1.425001X0.450001X-1.425001X-0.450001X1.425001X-0.450001X1.425001X0.450001X0*%
G04 APERTURE END LIST*
D10*
%TO.C,RN2*%
X111373500Y-64475000D03*
X111373500Y-63825000D03*
X111373500Y-63175000D03*
X111373500Y-62525000D03*
X109098500Y-62525000D03*
X109098500Y-63175000D03*
X109098500Y-63825000D03*
X109098500Y-64475000D03*
%TD*%
D11*
%TO.C,R6*%
X110000000Y-61097500D03*
X110000000Y-59902500D03*
%TD*%
D12*
%TO.C,R5*%
X106902500Y-59750000D03*
X108097500Y-59750000D03*
%TD*%
D13*
%TO.C,U3*%
X113250000Y-56800000D03*
X113250000Y-56000000D03*
D14*
X114200000Y-57150000D03*
X114200000Y-56650000D03*
X114200000Y-56150000D03*
X114200000Y-55650000D03*
X112300000Y-55650000D03*
X112300000Y-56150000D03*
X112300000Y-56650000D03*
X112300000Y-57150000D03*
%TD*%
D12*
%TO.C,R4*%
X110152500Y-54500000D03*
X111347500Y-54500000D03*
%TD*%
%TO.C,R3*%
X112902500Y-54500000D03*
X114097500Y-54500000D03*
%TD*%
D15*
%TO.C,R2*%
X114097500Y-58400000D03*
X112902500Y-58400000D03*
%TD*%
D16*
%TO.C,C5*%
X115932500Y-54500000D03*
X117067500Y-54500000D03*
%TD*%
D17*
%TO.C,C4*%
X111000000Y-58317500D03*
X111000000Y-57182500D03*
%TD*%
%TO.C,C3*%
X115750000Y-58317500D03*
X115750000Y-57182500D03*
%TD*%
D16*
%TO.C,C2*%
X106932500Y-68750000D03*
X108067500Y-68750000D03*
%TD*%
D18*
%TO.C,C1*%
X116750000Y-57182500D03*
X116750000Y-58317500D03*
%TD*%
D19*
%TO.C,U1*%
X106807000Y-61787000D03*
X105537000Y-61787000D03*
X104267000Y-61787000D03*
X102997000Y-61787000D03*
X102997000Y-66737000D03*
X104267000Y-66737000D03*
X105537000Y-66737000D03*
X106807000Y-66737000D03*
%TD*%
D20*
%TO.C,RN1*%
X98339000Y-64891500D03*
X98989000Y-64891500D03*
X99639000Y-64891500D03*
X100289000Y-64891500D03*
X100289000Y-62616500D03*
X99639000Y-62616500D03*
X98989000Y-62616500D03*
X98339000Y-62616500D03*
%TD*%
D21*
%TO.C,R1*%
X93726000Y-61212000D03*
X93726000Y-67312000D03*
%TD*%
M02*
