M48
METRIC,TZ
T1C0.300
%
G90
G05
T1
X91500Y-54000
X93000Y-75000
X94500Y-54000
X96000Y-75000
X97500Y-54000
X99000Y-75000
X100500Y-54000
X101100Y-63200
X102000Y-57000
X102000Y-75000
X102200Y-63200
X103500Y-54000
X103500Y-72000
X104300Y-65500
X105000Y-57000
X105000Y-69000
X105000Y-75000
X106500Y-54000
X106500Y-60000
X106500Y-72000
X108000Y-57000
X108000Y-69000
X108000Y-75000
X109500Y-54000
X109500Y-60000
X109500Y-72000
X111000Y-57000
X111000Y-69000
X111000Y-75000
X112500Y-54000
X112500Y-60000
X112500Y-72000
X114000Y-57000
X114000Y-69000
X114000Y-75000
X115500Y-54000
X115500Y-60000
X115500Y-72000
X117000Y-57000
X117000Y-69000
X117000Y-75000
X118500Y-54000
X118500Y-60000
X118500Y-72000
X120000Y-57000
X120000Y-69000
X120000Y-75000
X121500Y-54000
X121500Y-60000
X121500Y-72000
X123000Y-57000
X123000Y-69000
X123000Y-75000
X124500Y-54000
X124500Y-60000
X124500Y-72000
X126000Y-57000
X126000Y-75000
X126800Y-69800
X127500Y-60000
X129000Y-69000
X130500Y-60000
X132000Y-69000
M30
