%TF.GenerationSoftware,KiCad,Pcbnew,8.0.1*%
%TF.CreationDate,2024-12-12T11:44:27-05:00*%
%TF.ProjectId,max9643_breakout,6d617839-3634-4335-9f62-7265616b6f75,rev?*%
%TF.SameCoordinates,Original*%
%TF.FileFunction,Legend,Top*%
%TF.FilePolarity,Positive*%
%FSLAX46Y46*%
G04 Gerber Fmt 4.6, Leading zero omitted, Abs format (unit mm)*
G04 Created by KiCad (PCBNEW 8.0.1) date 2024-12-12 11:44:27*
%MOMM*%
%LPD*%
G01*
G04 APERTURE LIST*
%ADD10C,0.150000*%
%ADD11C,0.120000*%
%ADD12C,0.127000*%
%ADD13C,0.200000*%
G04 APERTURE END LIST*
D10*
G36*
X105724764Y-71387500D02*
G01*
X105575471Y-71387500D01*
X105553183Y-70688354D01*
X105543719Y-70424572D01*
X105491207Y-70578140D01*
X105325427Y-71016250D01*
X105219792Y-71016250D01*
X105061950Y-70594931D01*
X105009438Y-70424572D01*
X105006079Y-70700261D01*
X104986235Y-71387500D01*
X104842131Y-71387500D01*
X104897086Y-70273752D01*
X105078131Y-70273752D01*
X105229256Y-70688354D01*
X105278410Y-70828183D01*
X105325427Y-70688354D01*
X105484490Y-70273752D01*
X105670725Y-70273752D01*
X105724764Y-71387500D01*
G37*
G36*
X106719443Y-71387500D02*
G01*
X106552747Y-71387500D01*
X106474590Y-71153026D01*
X106007475Y-71153026D01*
X105928401Y-71387500D01*
X105769644Y-71387500D01*
X105893903Y-71016250D01*
X106051439Y-71016250D01*
X106430931Y-71016250D01*
X106241032Y-70414802D01*
X106051439Y-71016250D01*
X105893903Y-71016250D01*
X106142419Y-70273752D01*
X106351857Y-70273752D01*
X106719443Y-71387500D01*
G37*
G36*
X107668326Y-71387500D02*
G01*
X107475375Y-71387500D01*
X107202128Y-70934124D01*
X106928271Y-71387500D01*
X106737761Y-71387500D01*
X107111147Y-70818414D01*
X106767681Y-70273752D01*
X106949031Y-70273752D01*
X107205486Y-70696292D01*
X107464078Y-70273752D01*
X107640239Y-70273752D01*
X107295856Y-70811392D01*
X107668326Y-71387500D01*
G37*
G36*
X108222161Y-70258748D02*
G01*
X108283684Y-70272352D01*
X108310685Y-70281690D01*
X108368922Y-70312010D01*
X108416301Y-70351886D01*
X108432807Y-70370228D01*
X108468327Y-70421176D01*
X108495305Y-70476929D01*
X108513407Y-70528986D01*
X108528863Y-70593940D01*
X108537879Y-70659384D01*
X108542000Y-70723112D01*
X108542716Y-70765596D01*
X108540831Y-70834879D01*
X108535177Y-70899809D01*
X108525754Y-70960385D01*
X108510370Y-71024285D01*
X108503332Y-71046781D01*
X108478159Y-71109589D01*
X108446949Y-71165781D01*
X108409702Y-71215356D01*
X108386400Y-71240038D01*
X108334517Y-71283484D01*
X108281652Y-71315958D01*
X108222944Y-71342152D01*
X108194975Y-71351779D01*
X108135689Y-71367407D01*
X108072014Y-71378569D01*
X108003950Y-71385267D01*
X107940795Y-71387465D01*
X107931498Y-71387500D01*
X107837770Y-71387500D01*
X107837770Y-71255608D01*
X107941878Y-71255608D01*
X108008032Y-71253462D01*
X108074050Y-71246142D01*
X108132998Y-71233627D01*
X108194250Y-71212142D01*
X108250182Y-71181454D01*
X108267637Y-71168597D01*
X108312377Y-71124147D01*
X108345848Y-71071514D01*
X108349459Y-71063878D01*
X108370212Y-71005416D01*
X108382158Y-70943071D01*
X108384874Y-70917027D01*
X108388232Y-70879474D01*
X108333948Y-70909590D01*
X108276747Y-70932130D01*
X108263668Y-70936261D01*
X108199889Y-70950870D01*
X108136478Y-70957110D01*
X108111017Y-70957632D01*
X108050051Y-70954154D01*
X107986305Y-70941307D01*
X107961418Y-70932903D01*
X107905855Y-70905358D01*
X107857235Y-70866365D01*
X107854562Y-70863599D01*
X107817315Y-70814903D01*
X107790448Y-70757964D01*
X107775108Y-70698371D01*
X107769160Y-70634083D01*
X107769077Y-70625157D01*
X107769914Y-70614166D01*
X107926308Y-70614166D01*
X107931699Y-70677553D01*
X107938825Y-70706978D01*
X107966583Y-70763447D01*
X107977294Y-70776587D01*
X108027450Y-70812939D01*
X108044766Y-70820245D01*
X108105567Y-70833707D01*
X108142768Y-70835511D01*
X108204181Y-70829876D01*
X108208408Y-70829099D01*
X108268327Y-70813164D01*
X108274354Y-70811086D01*
X108332081Y-70786686D01*
X108335720Y-70784830D01*
X108388232Y-70752468D01*
X108386622Y-70688760D01*
X108381132Y-70626670D01*
X108371746Y-70572950D01*
X108353356Y-70511421D01*
X108324729Y-70456934D01*
X108280937Y-70411997D01*
X108249624Y-70394652D01*
X108189756Y-70378910D01*
X108149485Y-70376334D01*
X108086896Y-70383838D01*
X108060642Y-70392210D01*
X108005744Y-70423809D01*
X107990116Y-70438005D01*
X107954012Y-70488867D01*
X107943405Y-70512805D01*
X107928712Y-70573150D01*
X107926308Y-70614166D01*
X107769914Y-70614166D01*
X107773763Y-70563615D01*
X107789290Y-70501170D01*
X107797470Y-70479832D01*
X107826638Y-70424125D01*
X107864455Y-70375080D01*
X107876849Y-70362290D01*
X107925527Y-70322511D01*
X107981802Y-70290797D01*
X107999275Y-70283217D01*
X108059542Y-70264438D01*
X108124747Y-70255232D01*
X108156507Y-70254213D01*
X108222161Y-70258748D01*
G37*
G36*
X109436034Y-70405643D02*
G01*
X109315744Y-70405643D01*
X109249827Y-70408457D01*
X109185077Y-70417945D01*
X109141416Y-70429457D01*
X109081535Y-70454034D01*
X109027363Y-70488667D01*
X109017768Y-70496624D01*
X108973804Y-70544480D01*
X108943125Y-70597525D01*
X108941442Y-70601343D01*
X108920834Y-70661807D01*
X108909347Y-70724051D01*
X108907859Y-70738119D01*
X108904501Y-70781777D01*
X108958851Y-70751661D01*
X109016237Y-70729121D01*
X109029370Y-70724991D01*
X109093567Y-70710382D01*
X109157155Y-70704141D01*
X109182632Y-70703620D01*
X109248313Y-70707701D01*
X109311158Y-70721225D01*
X109331620Y-70728349D01*
X109386964Y-70755826D01*
X109435498Y-70794600D01*
X109438171Y-70797348D01*
X109477315Y-70849057D01*
X109501980Y-70902983D01*
X109517538Y-70963197D01*
X109523466Y-71024238D01*
X109523656Y-71037927D01*
X109519021Y-71098876D01*
X109503660Y-71161019D01*
X109495568Y-71182336D01*
X109466700Y-71238043D01*
X109428716Y-71287088D01*
X109416189Y-71299877D01*
X109367219Y-71339389D01*
X109310068Y-71370837D01*
X109292236Y-71378340D01*
X109230628Y-71396922D01*
X109169198Y-71405666D01*
X109131341Y-71407039D01*
X109070058Y-71403576D01*
X109008964Y-71391898D01*
X108967088Y-71377730D01*
X108913069Y-71348478D01*
X108866608Y-71308847D01*
X108847714Y-71287055D01*
X108812548Y-71231954D01*
X108786795Y-71171791D01*
X108774747Y-71132571D01*
X108761706Y-71070872D01*
X108754098Y-71009684D01*
X108750403Y-70943135D01*
X108750017Y-70911837D01*
X108750091Y-70908784D01*
X108904501Y-70908784D01*
X108905991Y-70972683D01*
X108911075Y-71034982D01*
X108919766Y-71088913D01*
X108937650Y-71150441D01*
X108965867Y-71204928D01*
X109009515Y-71249340D01*
X109040971Y-71266599D01*
X109102318Y-71282342D01*
X109144164Y-71284918D01*
X109207434Y-71277558D01*
X109233618Y-71269347D01*
X109286591Y-71238955D01*
X109304143Y-71222941D01*
X109340089Y-71171833D01*
X109350549Y-71148142D01*
X109364979Y-71088417D01*
X109367341Y-71048002D01*
X109361950Y-70985291D01*
X109354823Y-70955800D01*
X109326797Y-70898936D01*
X109315744Y-70885886D01*
X109265484Y-70849057D01*
X109248272Y-70841617D01*
X109188009Y-70827617D01*
X109150881Y-70825741D01*
X109089128Y-70831644D01*
X109084935Y-70832458D01*
X109025068Y-70848341D01*
X109018989Y-70850471D01*
X108961298Y-70875175D01*
X108957623Y-70877032D01*
X108904501Y-70908784D01*
X108750091Y-70908784D01*
X108751563Y-70848453D01*
X108756199Y-70786529D01*
X108761008Y-70746057D01*
X108772554Y-70682181D01*
X108788837Y-70621531D01*
X108797950Y-70594626D01*
X108823871Y-70534720D01*
X108856220Y-70479489D01*
X108866643Y-70464567D01*
X108908283Y-70416014D01*
X108957871Y-70374006D01*
X108973499Y-70363206D01*
X109029320Y-70331850D01*
X109087466Y-70308451D01*
X109124319Y-70297260D01*
X109187176Y-70283876D01*
X109249955Y-70276530D01*
X109311043Y-70273844D01*
X109325209Y-70273752D01*
X109436034Y-70273752D01*
X109436034Y-70405643D01*
G37*
G36*
X110335458Y-71001596D02*
G01*
X110526884Y-71001596D01*
X110526884Y-71133487D01*
X110335458Y-71133487D01*
X110335458Y-71387500D01*
X110182501Y-71387500D01*
X110182501Y-71133487D01*
X109642419Y-71133487D01*
X109642419Y-71001596D01*
X109791713Y-71001596D01*
X110182501Y-71001596D01*
X110182501Y-70415718D01*
X109791713Y-71001596D01*
X109642419Y-71001596D01*
X110120830Y-70273752D01*
X110335458Y-70273752D01*
X110335458Y-71001596D01*
G37*
G36*
X111410737Y-71053803D02*
G01*
X111404952Y-71116222D01*
X111387596Y-71175252D01*
X111380512Y-71191495D01*
X111348547Y-71244555D01*
X111305012Y-71291539D01*
X111290448Y-71303846D01*
X111236491Y-71339466D01*
X111177651Y-71366442D01*
X111139323Y-71379562D01*
X111079508Y-71394052D01*
X111013790Y-71403175D01*
X110949597Y-71406797D01*
X110927137Y-71407039D01*
X110863633Y-71405665D01*
X110806847Y-71401543D01*
X110746132Y-71393941D01*
X110707318Y-71387500D01*
X110707318Y-71255608D01*
X110769260Y-71264903D01*
X110819975Y-71270263D01*
X110883595Y-71274074D01*
X110940875Y-71275148D01*
X111005258Y-71272729D01*
X111069403Y-71263928D01*
X111084673Y-71260493D01*
X111144941Y-71239606D01*
X111182065Y-71217751D01*
X111225760Y-71171662D01*
X111237020Y-71150279D01*
X111252723Y-71090944D01*
X111254422Y-71060825D01*
X111242744Y-70999287D01*
X111233661Y-70981751D01*
X111191265Y-70935695D01*
X111175654Y-70925270D01*
X111117512Y-70899269D01*
X111086505Y-70891076D01*
X111024928Y-70881695D01*
X110972627Y-70879474D01*
X110844705Y-70879474D01*
X110844705Y-70757353D01*
X110974459Y-70757353D01*
X111037032Y-70751568D01*
X111066660Y-70743920D01*
X111122531Y-70717244D01*
X111138101Y-70705451D01*
X111177155Y-70657111D01*
X111183592Y-70643780D01*
X111198475Y-70582872D01*
X111199467Y-70560127D01*
X111191739Y-70498847D01*
X111160344Y-70441808D01*
X111144513Y-70427625D01*
X111086552Y-70399241D01*
X111021150Y-70387564D01*
X110983007Y-70386104D01*
X110921724Y-70388861D01*
X110866076Y-70395874D01*
X110804023Y-70408086D01*
X110741828Y-70423971D01*
X110737543Y-70425183D01*
X110737543Y-70293292D01*
X110797463Y-70277265D01*
X110799520Y-70276805D01*
X110859586Y-70265530D01*
X110865771Y-70264593D01*
X110927326Y-70257312D01*
X110931411Y-70256960D01*
X110992412Y-70254215D01*
X110994303Y-70254213D01*
X111058160Y-70256960D01*
X111120554Y-70266139D01*
X111151229Y-70273752D01*
X111210093Y-70295760D01*
X111264802Y-70329623D01*
X111308927Y-70375422D01*
X111333496Y-70417855D01*
X111351600Y-70476706D01*
X111356699Y-70534787D01*
X111350854Y-70597854D01*
X111331148Y-70658261D01*
X111307240Y-70697819D01*
X111265036Y-70743314D01*
X111212615Y-70781338D01*
X111171990Y-70802538D01*
X111231443Y-70818267D01*
X111258086Y-70829710D01*
X111310372Y-70861554D01*
X111334717Y-70882222D01*
X111375253Y-70931508D01*
X111389672Y-70957632D01*
X111408248Y-71018609D01*
X111410737Y-71053803D01*
G37*
G36*
X112401753Y-71002512D02*
G01*
X112398650Y-71063880D01*
X112388189Y-71126219D01*
X112375497Y-71169818D01*
X112350330Y-71226914D01*
X112314099Y-71280175D01*
X112298866Y-71297130D01*
X112250137Y-71338520D01*
X112197041Y-71368791D01*
X112174607Y-71378340D01*
X112111445Y-71396922D01*
X112046701Y-71405666D01*
X112006079Y-71407039D01*
X111943570Y-71404385D01*
X111882041Y-71395337D01*
X111828087Y-71379867D01*
X111769383Y-71351500D01*
X111717899Y-71311509D01*
X111709019Y-71302320D01*
X111671519Y-71250952D01*
X111646325Y-71195019D01*
X111642158Y-71182030D01*
X111628716Y-71122356D01*
X111622127Y-71057443D01*
X111621397Y-71025715D01*
X111621397Y-70273752D01*
X111774049Y-70273752D01*
X111774049Y-71013808D01*
X111777178Y-71075708D01*
X111786566Y-71129518D01*
X111809701Y-71187596D01*
X111827172Y-71212561D01*
X111876661Y-71252039D01*
X111900750Y-71262936D01*
X111961403Y-71277211D01*
X112010964Y-71280033D01*
X112074586Y-71274478D01*
X112133381Y-71255277D01*
X112183592Y-71218316D01*
X112191093Y-71209813D01*
X112224119Y-71154791D01*
X112242247Y-71093062D01*
X112248874Y-71027972D01*
X112249101Y-71012281D01*
X112249101Y-70273752D01*
X112401753Y-70273752D01*
X112401753Y-71002512D01*
G37*
G36*
X113447112Y-71387500D02*
G01*
X113280416Y-71387500D01*
X113202259Y-71153026D01*
X112735144Y-71153026D01*
X112656071Y-71387500D01*
X112497313Y-71387500D01*
X112621572Y-71016250D01*
X112779108Y-71016250D01*
X113158600Y-71016250D01*
X112968702Y-70414802D01*
X112779108Y-71016250D01*
X112621572Y-71016250D01*
X112870088Y-70273752D01*
X113079527Y-70273752D01*
X113447112Y-71387500D01*
G37*
G36*
X114342873Y-70405643D02*
G01*
X114010703Y-70405643D01*
X114010703Y-71387500D01*
X113855914Y-71387500D01*
X113855914Y-70405643D01*
X113523743Y-70405643D01*
X113523743Y-70273752D01*
X114342873Y-70273752D01*
X114342873Y-70405643D01*
G37*
G36*
X115369303Y-71387500D02*
G01*
X115202608Y-71387500D01*
X115124450Y-71153026D01*
X114657336Y-71153026D01*
X114578262Y-71387500D01*
X114419504Y-71387500D01*
X114543763Y-71016250D01*
X114701299Y-71016250D01*
X115080792Y-71016250D01*
X114890893Y-70414802D01*
X114701299Y-71016250D01*
X114543763Y-71016250D01*
X114792280Y-70273752D01*
X115001718Y-70273752D01*
X115369303Y-71387500D01*
G37*
G36*
X116266896Y-70977172D02*
G01*
X115929230Y-70977172D01*
X115929230Y-71328881D01*
X115781769Y-71328881D01*
X115781769Y-70977172D01*
X115444103Y-70977172D01*
X115444103Y-70845280D01*
X115781769Y-70845280D01*
X115781769Y-70493571D01*
X115929230Y-70493571D01*
X115929230Y-70845280D01*
X116266896Y-70845280D01*
X116266896Y-70977172D01*
G37*
G36*
X105323789Y-72376146D02*
G01*
X105402937Y-72386784D01*
X105470359Y-72405932D01*
X105526055Y-72433590D01*
X105579187Y-72480131D01*
X105613997Y-72539970D01*
X105630486Y-72613105D01*
X105631952Y-72646083D01*
X105625855Y-72710669D01*
X105605491Y-72772401D01*
X105588599Y-72802093D01*
X105544405Y-72849437D01*
X105487690Y-72883391D01*
X105447548Y-72898874D01*
X105507789Y-72916256D01*
X105533644Y-72927878D01*
X105585134Y-72961357D01*
X105605390Y-72980390D01*
X105641729Y-73030241D01*
X105654239Y-73056716D01*
X105669981Y-73116083D01*
X105672557Y-73155940D01*
X105667367Y-73217710D01*
X105650170Y-73277583D01*
X105641111Y-73297295D01*
X105605794Y-73350667D01*
X105558804Y-73395720D01*
X105551657Y-73401099D01*
X105496492Y-73434316D01*
X105436896Y-73458149D01*
X105411828Y-73465518D01*
X105347657Y-73478913D01*
X105284308Y-73485761D01*
X105229256Y-73487500D01*
X104935554Y-73487500D01*
X104935554Y-72979474D01*
X105088511Y-72979474D01*
X105088511Y-73360493D01*
X105250017Y-73360493D01*
X105311478Y-73357478D01*
X105376552Y-73345230D01*
X105433050Y-73320876D01*
X105445717Y-73312255D01*
X105487425Y-73264093D01*
X105507053Y-73203714D01*
X105510136Y-73161435D01*
X105499141Y-73100635D01*
X105492123Y-73085415D01*
X105451968Y-73037400D01*
X105439610Y-73028323D01*
X105382571Y-73000208D01*
X105355957Y-72992297D01*
X105292919Y-72981591D01*
X105244827Y-72979474D01*
X105088511Y-72979474D01*
X104935554Y-72979474D01*
X104935554Y-72500758D01*
X105088511Y-72500758D01*
X105088511Y-72852468D01*
X105241468Y-72852468D01*
X105302911Y-72848175D01*
X105336113Y-72841477D01*
X105393185Y-72817835D01*
X105409080Y-72806978D01*
X105450819Y-72759563D01*
X105456402Y-72748970D01*
X105472144Y-72689207D01*
X105473194Y-72665928D01*
X105464071Y-72604730D01*
X105462814Y-72600898D01*
X105428394Y-72550054D01*
X105426788Y-72548691D01*
X105373021Y-72519017D01*
X105357178Y-72513886D01*
X105293542Y-72502605D01*
X105246659Y-72500758D01*
X105088511Y-72500758D01*
X104935554Y-72500758D01*
X104935554Y-72373752D01*
X105256734Y-72373752D01*
X105323789Y-72376146D01*
G37*
G36*
X105933592Y-72627765D02*
G01*
X106070368Y-72627765D01*
X106074642Y-72788354D01*
X106117406Y-72739099D01*
X106164525Y-72694115D01*
X106215875Y-72656478D01*
X106225157Y-72650968D01*
X106281013Y-72624922D01*
X106342008Y-72610271D01*
X106375061Y-72608225D01*
X106438010Y-72613759D01*
X106499112Y-72633213D01*
X106554938Y-72671257D01*
X106578087Y-72696763D01*
X106611178Y-72753376D01*
X106630699Y-72815133D01*
X106640140Y-72877999D01*
X106642453Y-72949104D01*
X106642201Y-72959935D01*
X106491076Y-72959935D01*
X106489431Y-72898618D01*
X106479222Y-72837647D01*
X106457798Y-72788660D01*
X106410777Y-72746971D01*
X106353689Y-72735232D01*
X106292934Y-72746528D01*
X106238404Y-72776581D01*
X106230347Y-72782554D01*
X106184248Y-72822919D01*
X106161959Y-72845751D01*
X106119787Y-72894245D01*
X106084717Y-72939174D01*
X106084717Y-73487500D01*
X105933592Y-73487500D01*
X105933592Y-72627765D01*
G37*
G36*
X107279012Y-72612175D02*
G01*
X107342581Y-72625369D01*
X107374014Y-72636313D01*
X107430714Y-72665123D01*
X107479000Y-72702931D01*
X107491250Y-72715387D01*
X107528483Y-72764532D01*
X107556833Y-72822210D01*
X107563302Y-72840256D01*
X107579116Y-72902662D01*
X107586558Y-72965366D01*
X107587726Y-73004204D01*
X107586810Y-73057021D01*
X107584368Y-73096711D01*
X106978951Y-73096711D01*
X106983569Y-73161130D01*
X106999803Y-73224113D01*
X107031550Y-73282312D01*
X107052834Y-73306760D01*
X107105362Y-73345400D01*
X107163497Y-73367940D01*
X107223808Y-73378244D01*
X107265631Y-73380033D01*
X107327150Y-73378017D01*
X107341346Y-73376980D01*
X107403275Y-73369791D01*
X107414314Y-73368126D01*
X107475443Y-73357162D01*
X107481481Y-73355914D01*
X107541320Y-73340954D01*
X107541320Y-73463075D01*
X107480587Y-73479783D01*
X107417609Y-73492473D01*
X107403323Y-73494827D01*
X107340103Y-73502734D01*
X107274968Y-73506610D01*
X107244260Y-73507039D01*
X107178005Y-73504087D01*
X107112082Y-73494022D01*
X107053445Y-73476814D01*
X106997675Y-73450324D01*
X106946268Y-73413003D01*
X106922470Y-73389192D01*
X106885428Y-73338076D01*
X106857153Y-73278495D01*
X106847060Y-73248142D01*
X106833154Y-73188242D01*
X106825021Y-73123148D01*
X106822636Y-73059464D01*
X106825738Y-72997686D01*
X106828684Y-72979474D01*
X106978951Y-72979474D01*
X107432327Y-72979474D01*
X107429523Y-72916210D01*
X107421031Y-72876892D01*
X107395069Y-72819014D01*
X107378593Y-72796903D01*
X107329926Y-72756197D01*
X107306847Y-72744391D01*
X107247933Y-72728124D01*
X107207318Y-72725462D01*
X107146754Y-72733482D01*
X107117864Y-72744085D01*
X107065611Y-72778304D01*
X107048255Y-72795987D01*
X107013570Y-72848238D01*
X107001238Y-72876282D01*
X106984691Y-72935343D01*
X106978951Y-72979474D01*
X106828684Y-72979474D01*
X106836200Y-72933007D01*
X106848892Y-72886357D01*
X106871933Y-72827824D01*
X106904452Y-72770810D01*
X106925218Y-72742864D01*
X106969876Y-72696741D01*
X107021992Y-72659082D01*
X107048560Y-72644556D01*
X107106077Y-72622417D01*
X107169174Y-72610496D01*
X107214340Y-72608225D01*
X107279012Y-72612175D01*
G37*
G36*
X108237180Y-72611556D02*
G01*
X108300645Y-72622518D01*
X108312517Y-72625628D01*
X108370525Y-72647304D01*
X108418763Y-72678140D01*
X108461159Y-72723434D01*
X108485319Y-72766678D01*
X108503423Y-72828549D01*
X108508522Y-72892158D01*
X108508522Y-73487500D01*
X108374494Y-73487500D01*
X108371135Y-73372095D01*
X108322397Y-73416521D01*
X108268651Y-73454288D01*
X108227948Y-73475287D01*
X108167898Y-73495845D01*
X108105329Y-73505923D01*
X108075601Y-73507039D01*
X108011031Y-73502880D01*
X107949206Y-73488110D01*
X107893668Y-73460681D01*
X107863110Y-73436209D01*
X107825027Y-73385112D01*
X107813346Y-73358356D01*
X107799346Y-73296296D01*
X107797470Y-73261270D01*
X107798189Y-73253942D01*
X107955617Y-73253942D01*
X107963250Y-73301570D01*
X107987979Y-73341870D01*
X108032859Y-73369958D01*
X108094844Y-73379993D01*
X108099720Y-73380033D01*
X108162500Y-73370179D01*
X108217873Y-73348892D01*
X108273159Y-73317346D01*
X108326339Y-73277582D01*
X108358312Y-73249668D01*
X108358312Y-73096711D01*
X108168414Y-73096711D01*
X108104658Y-73101124D01*
X108072243Y-73108007D01*
X108016228Y-73132317D01*
X108005992Y-73139759D01*
X107967829Y-73189218D01*
X107955665Y-73249468D01*
X107955617Y-73253942D01*
X107798189Y-73253942D01*
X107803500Y-73199789D01*
X107824698Y-73139108D01*
X107861159Y-73087411D01*
X107893946Y-73057937D01*
X107948099Y-73025747D01*
X108013777Y-73002754D01*
X108080700Y-72990179D01*
X108145086Y-72985006D01*
X108179710Y-72984359D01*
X108358312Y-72984359D01*
X108358312Y-72907117D01*
X108348904Y-72844748D01*
X108317943Y-72791283D01*
X108309159Y-72782248D01*
X108256540Y-72750108D01*
X108195718Y-72736884D01*
X108159865Y-72735232D01*
X108096428Y-72738153D01*
X108033808Y-72746919D01*
X108016067Y-72750497D01*
X107953156Y-72766308D01*
X107893063Y-72785385D01*
X107869521Y-72793850D01*
X107869521Y-72657074D01*
X107928394Y-72640169D01*
X107932719Y-72639061D01*
X107994060Y-72625642D01*
X108005992Y-72623490D01*
X108068626Y-72614382D01*
X108086898Y-72612500D01*
X108150439Y-72608492D01*
X108171772Y-72608225D01*
X108237180Y-72611556D01*
G37*
G36*
X109557240Y-73487500D02*
G01*
X109352076Y-73487500D01*
X108949991Y-73026186D01*
X108949991Y-73487500D01*
X108800697Y-73487500D01*
X108800697Y-72276055D01*
X108949991Y-72276055D01*
X108949991Y-73020385D01*
X109337421Y-72627765D01*
X109534952Y-72627765D01*
X109130425Y-73023743D01*
X109557240Y-73487500D01*
G37*
G36*
X110158953Y-72611652D02*
G01*
X110220669Y-72623209D01*
X110263407Y-72637229D01*
X110319460Y-72665229D01*
X110371486Y-72705300D01*
X110387971Y-72722103D01*
X110425614Y-72771785D01*
X110455195Y-72830536D01*
X110466128Y-72860711D01*
X110481598Y-72920479D01*
X110490647Y-72986019D01*
X110493300Y-73050610D01*
X110490527Y-73112291D01*
X110481072Y-73176283D01*
X110464907Y-73236235D01*
X110440278Y-73296041D01*
X110408521Y-73349063D01*
X110383391Y-73380643D01*
X110336349Y-73424879D01*
X110281547Y-73460348D01*
X110253637Y-73473761D01*
X110193473Y-73494040D01*
X110133194Y-73504407D01*
X110080225Y-73507039D01*
X110018863Y-73503612D01*
X109957024Y-73492055D01*
X109914139Y-73478035D01*
X109858233Y-73449985D01*
X109809582Y-73412966D01*
X109789576Y-73392855D01*
X109752080Y-73342829D01*
X109722445Y-73284035D01*
X109711418Y-73253942D01*
X109696122Y-73193892D01*
X109687175Y-73127926D01*
X109684551Y-73062822D01*
X109684796Y-73057327D01*
X109837203Y-73057327D01*
X109840125Y-73119342D01*
X109850760Y-73182883D01*
X109854911Y-73198377D01*
X109877861Y-73256918D01*
X109904980Y-73299127D01*
X109951181Y-73341750D01*
X109984054Y-73359883D01*
X110043359Y-73376707D01*
X110088773Y-73380033D01*
X110151055Y-73373469D01*
X110203567Y-73353777D01*
X110254097Y-73316100D01*
X110281725Y-73283251D01*
X110310855Y-73229005D01*
X110326299Y-73180669D01*
X110337061Y-73120525D01*
X110340648Y-73057327D01*
X110337726Y-72995215D01*
X110327091Y-72931938D01*
X110322941Y-72916582D01*
X110299904Y-72858279D01*
X110272566Y-72816137D01*
X110226246Y-72773633D01*
X110193187Y-72755687D01*
X110133842Y-72738607D01*
X110088773Y-72735232D01*
X110026720Y-72741872D01*
X109974284Y-72761793D01*
X109923754Y-72799322D01*
X109896127Y-72832318D01*
X109866900Y-72886414D01*
X109851247Y-72934900D01*
X109840289Y-72998495D01*
X109837203Y-73057327D01*
X109684796Y-73057327D01*
X109687294Y-73001392D01*
X109696648Y-72937813D01*
X109712639Y-72878419D01*
X109737412Y-72819028D01*
X109769139Y-72766334D01*
X109794155Y-72734926D01*
X109841344Y-72690493D01*
X109896092Y-72654927D01*
X109923909Y-72641503D01*
X109984259Y-72621225D01*
X110044634Y-72610858D01*
X110097627Y-72608225D01*
X110158953Y-72611652D01*
G37*
G36*
X111396999Y-73487500D02*
G01*
X111262971Y-73487500D01*
X111257780Y-73348892D01*
X111215663Y-73395485D01*
X111184508Y-73424912D01*
X111134634Y-73462367D01*
X111115204Y-73473761D01*
X111057067Y-73496848D01*
X111046205Y-73499406D01*
X110984647Y-73506853D01*
X110972627Y-73507039D01*
X110910154Y-73502154D01*
X110849634Y-73484981D01*
X110794513Y-73451397D01*
X110771737Y-73428881D01*
X110735995Y-73372060D01*
X110715146Y-73307615D01*
X110705614Y-73239747D01*
X110703960Y-73192271D01*
X110703960Y-72627765D01*
X110853253Y-72627765D01*
X110853253Y-73180975D01*
X110858512Y-73248623D01*
X110877943Y-73309857D01*
X110917680Y-73356511D01*
X110976117Y-73378283D01*
X111002852Y-73380033D01*
X111056280Y-73371789D01*
X111111235Y-73343396D01*
X111158976Y-73303154D01*
X111173211Y-73288747D01*
X111215273Y-73241429D01*
X111247400Y-73201735D01*
X111247400Y-72627765D01*
X111396999Y-72627765D01*
X111396999Y-73487500D01*
G37*
G36*
X112359621Y-73487500D02*
G01*
X112298254Y-73497781D01*
X112254902Y-73502459D01*
X112193529Y-73506162D01*
X112144993Y-73507039D01*
X112077997Y-73503518D01*
X112011054Y-73490872D01*
X111948014Y-73465651D01*
X111902887Y-73433461D01*
X111864368Y-73385671D01*
X111838455Y-73325419D01*
X111826004Y-73261401D01*
X111823203Y-73206926D01*
X111823203Y-72754771D01*
X111581707Y-72754771D01*
X111581707Y-72627765D01*
X111823203Y-72627765D01*
X111823203Y-72392681D01*
X111972496Y-72354213D01*
X111972496Y-72627765D01*
X112359621Y-72627765D01*
X112359621Y-72754771D01*
X111972496Y-72754771D01*
X111972496Y-73194713D01*
X111979408Y-73257940D01*
X112004945Y-73314991D01*
X112021650Y-73333932D01*
X112078282Y-73367022D01*
X112138367Y-73378907D01*
X112167280Y-73380033D01*
X112230471Y-73377667D01*
X112257344Y-73375453D01*
X112320337Y-73367320D01*
X112359621Y-73360493D01*
X112359621Y-73487500D01*
G37*
G36*
X114305931Y-73487500D02*
G01*
X113600985Y-73487500D01*
X113600985Y-73345839D01*
X113889497Y-73345839D01*
X113889497Y-72520298D01*
X113620830Y-72686383D01*
X113565875Y-72559377D01*
X113923080Y-72373752D01*
X114055277Y-72373752D01*
X114055277Y-73345839D01*
X114305931Y-73345839D01*
X114305931Y-73487500D01*
G37*
G36*
X115267027Y-73487500D02*
G01*
X114562081Y-73487500D01*
X114562081Y-73345839D01*
X114850593Y-73345839D01*
X114850593Y-72520298D01*
X114581926Y-72686383D01*
X114526971Y-72559377D01*
X114884176Y-72373752D01*
X115016372Y-72373752D01*
X115016372Y-73345839D01*
X115267027Y-73345839D01*
X115267027Y-73487500D01*
G37*
G36*
X116202477Y-72276055D02*
G01*
X115613241Y-73663354D01*
X115470664Y-73663354D01*
X116059900Y-72276055D01*
X116202477Y-72276055D01*
G37*
G36*
X117198682Y-73487500D02*
G01*
X116459237Y-73487500D01*
X116459237Y-73354387D01*
X116749581Y-73066791D01*
X116795522Y-73020752D01*
X116838398Y-72975629D01*
X116865596Y-72945280D01*
X116905209Y-72896203D01*
X116934900Y-72851552D01*
X116961531Y-72795510D01*
X116968483Y-72771563D01*
X116976623Y-72709160D01*
X116977032Y-72690352D01*
X116970137Y-72628665D01*
X116965736Y-72612194D01*
X116938495Y-72555860D01*
X116931542Y-72546859D01*
X116882606Y-72507640D01*
X116871397Y-72502285D01*
X116811004Y-72487384D01*
X116783164Y-72486104D01*
X116719073Y-72493282D01*
X116660751Y-72514815D01*
X116653410Y-72518771D01*
X116600821Y-72553623D01*
X116552392Y-72596928D01*
X116546249Y-72603340D01*
X116463817Y-72503506D01*
X116509748Y-72460120D01*
X116560225Y-72423155D01*
X116610057Y-72395123D01*
X116670150Y-72371831D01*
X116730352Y-72359047D01*
X116795861Y-72354253D01*
X116802704Y-72354213D01*
X116865582Y-72358479D01*
X116927245Y-72372517D01*
X116938869Y-72376500D01*
X116996037Y-72403672D01*
X117044809Y-72440614D01*
X117084575Y-72487172D01*
X117114113Y-72543196D01*
X117131644Y-72603575D01*
X117138323Y-72666103D01*
X117138538Y-72680277D01*
X117134263Y-72742101D01*
X117121441Y-72799345D01*
X117098277Y-72857324D01*
X117069539Y-72908339D01*
X117032952Y-72960158D01*
X116991662Y-73010097D01*
X116981917Y-73020996D01*
X116939599Y-73066090D01*
X116896055Y-73110217D01*
X116857048Y-73148307D01*
X116653410Y-73345839D01*
X117198682Y-73345839D01*
X117198682Y-73487500D01*
G37*
G36*
X118024223Y-73101596D02*
G01*
X118215648Y-73101596D01*
X118215648Y-73233487D01*
X118024223Y-73233487D01*
X118024223Y-73487500D01*
X117871266Y-73487500D01*
X117871266Y-73233487D01*
X117331184Y-73233487D01*
X117331184Y-73101596D01*
X117480478Y-73101596D01*
X117871266Y-73101596D01*
X117871266Y-72515718D01*
X117480478Y-73101596D01*
X117331184Y-73101596D01*
X117809595Y-72373752D01*
X118024223Y-72373752D01*
X118024223Y-73101596D01*
G37*
G36*
X119662911Y-72375851D02*
G01*
X119736569Y-72384378D01*
X119803697Y-72399464D01*
X119864295Y-72421110D01*
X119928395Y-72455743D01*
X119983092Y-72499821D01*
X119991294Y-72508086D01*
X120035286Y-72563348D01*
X120064994Y-72617041D01*
X120088381Y-72677682D01*
X120105447Y-72745269D01*
X120116192Y-72819803D01*
X120120237Y-72884432D01*
X120120743Y-72918414D01*
X120118677Y-72982297D01*
X120112479Y-73043963D01*
X120108225Y-73071676D01*
X120094409Y-73133861D01*
X120074866Y-73192190D01*
X120068230Y-73208147D01*
X120038848Y-73264626D01*
X120002221Y-73316142D01*
X119996789Y-73322636D01*
X119951499Y-73367720D01*
X119901360Y-73403867D01*
X119889628Y-73410868D01*
X119834605Y-73437915D01*
X119772730Y-73459519D01*
X119741861Y-73467655D01*
X119681362Y-73478953D01*
X119615307Y-73485562D01*
X119550436Y-73487500D01*
X119310162Y-73487500D01*
X119310162Y-72500758D01*
X119462814Y-72500758D01*
X119462814Y-73355608D01*
X119576997Y-73355608D01*
X119645471Y-73351854D01*
X119707210Y-73340592D01*
X119779052Y-73313897D01*
X119838920Y-73273855D01*
X119886815Y-73220465D01*
X119922735Y-73153728D01*
X119941818Y-73094915D01*
X119954166Y-73028595D01*
X119959779Y-72954767D01*
X119960153Y-72928489D01*
X119958366Y-72864754D01*
X119952188Y-72800736D01*
X119940296Y-72738580D01*
X119937561Y-72728210D01*
X119915623Y-72666970D01*
X119883432Y-72612740D01*
X119869783Y-72596318D01*
X119822038Y-72555196D01*
X119764096Y-72526283D01*
X119755600Y-72523351D01*
X119695856Y-72508723D01*
X119633732Y-72501839D01*
X119594399Y-72500758D01*
X119462814Y-72500758D01*
X119310162Y-72500758D01*
X119310162Y-72373752D01*
X119599284Y-72373752D01*
X119662911Y-72375851D01*
G37*
G36*
X121105652Y-72373752D02*
G01*
X121030242Y-73487500D01*
X120831795Y-73487500D01*
X120692882Y-73088773D01*
X120654108Y-72961156D01*
X120613808Y-73099153D01*
X120484970Y-73487500D01*
X120293545Y-73487500D01*
X120216303Y-72373752D01*
X120360406Y-72373752D01*
X120404370Y-73129073D01*
X120417192Y-73338206D01*
X120471231Y-73160825D01*
X120606786Y-72745001D01*
X120712421Y-72745001D01*
X120868736Y-73190744D01*
X120921249Y-73338206D01*
X120924607Y-73184028D01*
X120969181Y-72373752D01*
X121105652Y-72373752D01*
G37*
X92714285Y-62954819D02*
X92380952Y-62478628D01*
X92142857Y-62954819D02*
X92142857Y-61954819D01*
X92142857Y-61954819D02*
X92523809Y-61954819D01*
X92523809Y-61954819D02*
X92619047Y-62002438D01*
X92619047Y-62002438D02*
X92666666Y-62050057D01*
X92666666Y-62050057D02*
X92714285Y-62145295D01*
X92714285Y-62145295D02*
X92714285Y-62288152D01*
X92714285Y-62288152D02*
X92666666Y-62383390D01*
X92666666Y-62383390D02*
X92619047Y-62431009D01*
X92619047Y-62431009D02*
X92523809Y-62478628D01*
X92523809Y-62478628D02*
X92142857Y-62478628D01*
X93095238Y-62907200D02*
X93238095Y-62954819D01*
X93238095Y-62954819D02*
X93476190Y-62954819D01*
X93476190Y-62954819D02*
X93571428Y-62907200D01*
X93571428Y-62907200D02*
X93619047Y-62859580D01*
X93619047Y-62859580D02*
X93666666Y-62764342D01*
X93666666Y-62764342D02*
X93666666Y-62669104D01*
X93666666Y-62669104D02*
X93619047Y-62573866D01*
X93619047Y-62573866D02*
X93571428Y-62526247D01*
X93571428Y-62526247D02*
X93476190Y-62478628D01*
X93476190Y-62478628D02*
X93285714Y-62431009D01*
X93285714Y-62431009D02*
X93190476Y-62383390D01*
X93190476Y-62383390D02*
X93142857Y-62335771D01*
X93142857Y-62335771D02*
X93095238Y-62240533D01*
X93095238Y-62240533D02*
X93095238Y-62145295D01*
X93095238Y-62145295D02*
X93142857Y-62050057D01*
X93142857Y-62050057D02*
X93190476Y-62002438D01*
X93190476Y-62002438D02*
X93285714Y-61954819D01*
X93285714Y-61954819D02*
X93523809Y-61954819D01*
X93523809Y-61954819D02*
X93666666Y-62002438D01*
X94095238Y-62573866D02*
X94857143Y-62573866D01*
X94476190Y-62954819D02*
X94476190Y-62192914D01*
X124738095Y-55502438D02*
X124642857Y-55454819D01*
X124642857Y-55454819D02*
X124500000Y-55454819D01*
X124500000Y-55454819D02*
X124357143Y-55502438D01*
X124357143Y-55502438D02*
X124261905Y-55597676D01*
X124261905Y-55597676D02*
X124214286Y-55692914D01*
X124214286Y-55692914D02*
X124166667Y-55883390D01*
X124166667Y-55883390D02*
X124166667Y-56026247D01*
X124166667Y-56026247D02*
X124214286Y-56216723D01*
X124214286Y-56216723D02*
X124261905Y-56311961D01*
X124261905Y-56311961D02*
X124357143Y-56407200D01*
X124357143Y-56407200D02*
X124500000Y-56454819D01*
X124500000Y-56454819D02*
X124595238Y-56454819D01*
X124595238Y-56454819D02*
X124738095Y-56407200D01*
X124738095Y-56407200D02*
X124785714Y-56359580D01*
X124785714Y-56359580D02*
X124785714Y-56026247D01*
X124785714Y-56026247D02*
X124595238Y-56026247D01*
X125214286Y-56454819D02*
X125214286Y-55454819D01*
X125214286Y-55454819D02*
X125785714Y-56454819D01*
X125785714Y-56454819D02*
X125785714Y-55454819D01*
X126261905Y-56454819D02*
X126261905Y-55454819D01*
X126261905Y-55454819D02*
X126500000Y-55454819D01*
X126500000Y-55454819D02*
X126642857Y-55502438D01*
X126642857Y-55502438D02*
X126738095Y-55597676D01*
X126738095Y-55597676D02*
X126785714Y-55692914D01*
X126785714Y-55692914D02*
X126833333Y-55883390D01*
X126833333Y-55883390D02*
X126833333Y-56026247D01*
X126833333Y-56026247D02*
X126785714Y-56216723D01*
X126785714Y-56216723D02*
X126738095Y-56311961D01*
X126738095Y-56311961D02*
X126642857Y-56407200D01*
X126642857Y-56407200D02*
X126500000Y-56454819D01*
X126500000Y-56454819D02*
X126261905Y-56454819D01*
X124500000Y-72454819D02*
X124690476Y-72454819D01*
X124690476Y-72454819D02*
X124785714Y-72502438D01*
X124785714Y-72502438D02*
X124880952Y-72597676D01*
X124880952Y-72597676D02*
X124928571Y-72788152D01*
X124928571Y-72788152D02*
X124928571Y-73121485D01*
X124928571Y-73121485D02*
X124880952Y-73311961D01*
X124880952Y-73311961D02*
X124785714Y-73407200D01*
X124785714Y-73407200D02*
X124690476Y-73454819D01*
X124690476Y-73454819D02*
X124500000Y-73454819D01*
X124500000Y-73454819D02*
X124404762Y-73407200D01*
X124404762Y-73407200D02*
X124309524Y-73311961D01*
X124309524Y-73311961D02*
X124261905Y-73121485D01*
X124261905Y-73121485D02*
X124261905Y-72788152D01*
X124261905Y-72788152D02*
X124309524Y-72597676D01*
X124309524Y-72597676D02*
X124404762Y-72502438D01*
X124404762Y-72502438D02*
X124500000Y-72454819D01*
X125357143Y-72454819D02*
X125357143Y-73264342D01*
X125357143Y-73264342D02*
X125404762Y-73359580D01*
X125404762Y-73359580D02*
X125452381Y-73407200D01*
X125452381Y-73407200D02*
X125547619Y-73454819D01*
X125547619Y-73454819D02*
X125738095Y-73454819D01*
X125738095Y-73454819D02*
X125833333Y-73407200D01*
X125833333Y-73407200D02*
X125880952Y-73359580D01*
X125880952Y-73359580D02*
X125928571Y-73264342D01*
X125928571Y-73264342D02*
X125928571Y-72454819D01*
X126261905Y-72454819D02*
X126833333Y-72454819D01*
X126547619Y-73454819D02*
X126547619Y-72454819D01*
X109833333Y-64759580D02*
X109785714Y-64807200D01*
X109785714Y-64807200D02*
X109642857Y-64854819D01*
X109642857Y-64854819D02*
X109547619Y-64854819D01*
X109547619Y-64854819D02*
X109404762Y-64807200D01*
X109404762Y-64807200D02*
X109309524Y-64711961D01*
X109309524Y-64711961D02*
X109261905Y-64616723D01*
X109261905Y-64616723D02*
X109214286Y-64426247D01*
X109214286Y-64426247D02*
X109214286Y-64283390D01*
X109214286Y-64283390D02*
X109261905Y-64092914D01*
X109261905Y-64092914D02*
X109309524Y-63997676D01*
X109309524Y-63997676D02*
X109404762Y-63902438D01*
X109404762Y-63902438D02*
X109547619Y-63854819D01*
X109547619Y-63854819D02*
X109642857Y-63854819D01*
X109642857Y-63854819D02*
X109785714Y-63902438D01*
X109785714Y-63902438D02*
X109833333Y-63950057D01*
X110785714Y-64854819D02*
X110214286Y-64854819D01*
X110500000Y-64854819D02*
X110500000Y-63854819D01*
X110500000Y-63854819D02*
X110404762Y-63997676D01*
X110404762Y-63997676D02*
X110309524Y-64092914D01*
X110309524Y-64092914D02*
X110214286Y-64140533D01*
X104833333Y-60359580D02*
X104785714Y-60407200D01*
X104785714Y-60407200D02*
X104642857Y-60454819D01*
X104642857Y-60454819D02*
X104547619Y-60454819D01*
X104547619Y-60454819D02*
X104404762Y-60407200D01*
X104404762Y-60407200D02*
X104309524Y-60311961D01*
X104309524Y-60311961D02*
X104261905Y-60216723D01*
X104261905Y-60216723D02*
X104214286Y-60026247D01*
X104214286Y-60026247D02*
X104214286Y-59883390D01*
X104214286Y-59883390D02*
X104261905Y-59692914D01*
X104261905Y-59692914D02*
X104309524Y-59597676D01*
X104309524Y-59597676D02*
X104404762Y-59502438D01*
X104404762Y-59502438D02*
X104547619Y-59454819D01*
X104547619Y-59454819D02*
X104642857Y-59454819D01*
X104642857Y-59454819D02*
X104785714Y-59502438D01*
X104785714Y-59502438D02*
X104833333Y-59550057D01*
X105690476Y-59788152D02*
X105690476Y-60454819D01*
X105452381Y-59407200D02*
X105214286Y-60121485D01*
X105214286Y-60121485D02*
X105833333Y-60121485D01*
X98738095Y-66454819D02*
X98738095Y-67264342D01*
X98738095Y-67264342D02*
X98785714Y-67359580D01*
X98785714Y-67359580D02*
X98833333Y-67407200D01*
X98833333Y-67407200D02*
X98928571Y-67454819D01*
X98928571Y-67454819D02*
X99119047Y-67454819D01*
X99119047Y-67454819D02*
X99214285Y-67407200D01*
X99214285Y-67407200D02*
X99261904Y-67359580D01*
X99261904Y-67359580D02*
X99309523Y-67264342D01*
X99309523Y-67264342D02*
X99309523Y-66454819D01*
X100309523Y-67454819D02*
X99738095Y-67454819D01*
X100023809Y-67454819D02*
X100023809Y-66454819D01*
X100023809Y-66454819D02*
X99928571Y-66597676D01*
X99928571Y-66597676D02*
X99833333Y-66692914D01*
X99833333Y-66692914D02*
X99738095Y-66740533D01*
X92714285Y-66954819D02*
X92380952Y-66478628D01*
X92142857Y-66954819D02*
X92142857Y-65954819D01*
X92142857Y-65954819D02*
X92523809Y-65954819D01*
X92523809Y-65954819D02*
X92619047Y-66002438D01*
X92619047Y-66002438D02*
X92666666Y-66050057D01*
X92666666Y-66050057D02*
X92714285Y-66145295D01*
X92714285Y-66145295D02*
X92714285Y-66288152D01*
X92714285Y-66288152D02*
X92666666Y-66383390D01*
X92666666Y-66383390D02*
X92619047Y-66431009D01*
X92619047Y-66431009D02*
X92523809Y-66478628D01*
X92523809Y-66478628D02*
X92142857Y-66478628D01*
X93095238Y-66907200D02*
X93238095Y-66954819D01*
X93238095Y-66954819D02*
X93476190Y-66954819D01*
X93476190Y-66954819D02*
X93571428Y-66907200D01*
X93571428Y-66907200D02*
X93619047Y-66859580D01*
X93619047Y-66859580D02*
X93666666Y-66764342D01*
X93666666Y-66764342D02*
X93666666Y-66669104D01*
X93666666Y-66669104D02*
X93619047Y-66573866D01*
X93619047Y-66573866D02*
X93571428Y-66526247D01*
X93571428Y-66526247D02*
X93476190Y-66478628D01*
X93476190Y-66478628D02*
X93285714Y-66431009D01*
X93285714Y-66431009D02*
X93190476Y-66383390D01*
X93190476Y-66383390D02*
X93142857Y-66335771D01*
X93142857Y-66335771D02*
X93095238Y-66240533D01*
X93095238Y-66240533D02*
X93095238Y-66145295D01*
X93095238Y-66145295D02*
X93142857Y-66050057D01*
X93142857Y-66050057D02*
X93190476Y-66002438D01*
X93190476Y-66002438D02*
X93285714Y-65954819D01*
X93285714Y-65954819D02*
X93523809Y-65954819D01*
X93523809Y-65954819D02*
X93666666Y-66002438D01*
X94095238Y-66573866D02*
X94857143Y-66573866D01*
X124214286Y-64836366D02*
X124976191Y-64836366D01*
X124595238Y-65217319D02*
X124595238Y-64455414D01*
X125928571Y-64217319D02*
X125452381Y-64217319D01*
X125452381Y-64217319D02*
X125404762Y-64693509D01*
X125404762Y-64693509D02*
X125452381Y-64645890D01*
X125452381Y-64645890D02*
X125547619Y-64598271D01*
X125547619Y-64598271D02*
X125785714Y-64598271D01*
X125785714Y-64598271D02*
X125880952Y-64645890D01*
X125880952Y-64645890D02*
X125928571Y-64693509D01*
X125928571Y-64693509D02*
X125976190Y-64788747D01*
X125976190Y-64788747D02*
X125976190Y-65026842D01*
X125976190Y-65026842D02*
X125928571Y-65122080D01*
X125928571Y-65122080D02*
X125880952Y-65169700D01*
X125880952Y-65169700D02*
X125785714Y-65217319D01*
X125785714Y-65217319D02*
X125547619Y-65217319D01*
X125547619Y-65217319D02*
X125452381Y-65169700D01*
X125452381Y-65169700D02*
X125404762Y-65122080D01*
X126261905Y-64217319D02*
X126595238Y-65217319D01*
X126595238Y-65217319D02*
X126928571Y-64217319D01*
X104833333Y-58606640D02*
X104785714Y-58654260D01*
X104785714Y-58654260D02*
X104642857Y-58701879D01*
X104642857Y-58701879D02*
X104547619Y-58701879D01*
X104547619Y-58701879D02*
X104404762Y-58654260D01*
X104404762Y-58654260D02*
X104309524Y-58559021D01*
X104309524Y-58559021D02*
X104261905Y-58463783D01*
X104261905Y-58463783D02*
X104214286Y-58273307D01*
X104214286Y-58273307D02*
X104214286Y-58130450D01*
X104214286Y-58130450D02*
X104261905Y-57939974D01*
X104261905Y-57939974D02*
X104309524Y-57844736D01*
X104309524Y-57844736D02*
X104404762Y-57749498D01*
X104404762Y-57749498D02*
X104547619Y-57701879D01*
X104547619Y-57701879D02*
X104642857Y-57701879D01*
X104642857Y-57701879D02*
X104785714Y-57749498D01*
X104785714Y-57749498D02*
X104833333Y-57797117D01*
X105166667Y-57701879D02*
X105785714Y-57701879D01*
X105785714Y-57701879D02*
X105452381Y-58082831D01*
X105452381Y-58082831D02*
X105595238Y-58082831D01*
X105595238Y-58082831D02*
X105690476Y-58130450D01*
X105690476Y-58130450D02*
X105738095Y-58178069D01*
X105738095Y-58178069D02*
X105785714Y-58273307D01*
X105785714Y-58273307D02*
X105785714Y-58511402D01*
X105785714Y-58511402D02*
X105738095Y-58606640D01*
X105738095Y-58606640D02*
X105690476Y-58654260D01*
X105690476Y-58654260D02*
X105595238Y-58701879D01*
X105595238Y-58701879D02*
X105309524Y-58701879D01*
X105309524Y-58701879D02*
X105214286Y-58654260D01*
X105214286Y-58654260D02*
X105166667Y-58606640D01*
X107533333Y-64759580D02*
X107485714Y-64807200D01*
X107485714Y-64807200D02*
X107342857Y-64854819D01*
X107342857Y-64854819D02*
X107247619Y-64854819D01*
X107247619Y-64854819D02*
X107104762Y-64807200D01*
X107104762Y-64807200D02*
X107009524Y-64711961D01*
X107009524Y-64711961D02*
X106961905Y-64616723D01*
X106961905Y-64616723D02*
X106914286Y-64426247D01*
X106914286Y-64426247D02*
X106914286Y-64283390D01*
X106914286Y-64283390D02*
X106961905Y-64092914D01*
X106961905Y-64092914D02*
X107009524Y-63997676D01*
X107009524Y-63997676D02*
X107104762Y-63902438D01*
X107104762Y-63902438D02*
X107247619Y-63854819D01*
X107247619Y-63854819D02*
X107342857Y-63854819D01*
X107342857Y-63854819D02*
X107485714Y-63902438D01*
X107485714Y-63902438D02*
X107533333Y-63950057D01*
X107914286Y-63950057D02*
X107961905Y-63902438D01*
X107961905Y-63902438D02*
X108057143Y-63854819D01*
X108057143Y-63854819D02*
X108295238Y-63854819D01*
X108295238Y-63854819D02*
X108390476Y-63902438D01*
X108390476Y-63902438D02*
X108438095Y-63950057D01*
X108438095Y-63950057D02*
X108485714Y-64045295D01*
X108485714Y-64045295D02*
X108485714Y-64140533D01*
X108485714Y-64140533D02*
X108438095Y-64283390D01*
X108438095Y-64283390D02*
X107866667Y-64854819D01*
X107866667Y-64854819D02*
X108485714Y-64854819D01*
X100183353Y-58358110D02*
X100135734Y-58405730D01*
X100135734Y-58405730D02*
X99992877Y-58453349D01*
X99992877Y-58453349D02*
X99897639Y-58453349D01*
X99897639Y-58453349D02*
X99754782Y-58405730D01*
X99754782Y-58405730D02*
X99659544Y-58310491D01*
X99659544Y-58310491D02*
X99611925Y-58215253D01*
X99611925Y-58215253D02*
X99564306Y-58024777D01*
X99564306Y-58024777D02*
X99564306Y-57881920D01*
X99564306Y-57881920D02*
X99611925Y-57691444D01*
X99611925Y-57691444D02*
X99659544Y-57596206D01*
X99659544Y-57596206D02*
X99754782Y-57500968D01*
X99754782Y-57500968D02*
X99897639Y-57453349D01*
X99897639Y-57453349D02*
X99992877Y-57453349D01*
X99992877Y-57453349D02*
X100135734Y-57500968D01*
X100135734Y-57500968D02*
X100183353Y-57548587D01*
X101088115Y-57453349D02*
X100611925Y-57453349D01*
X100611925Y-57453349D02*
X100564306Y-57929539D01*
X100564306Y-57929539D02*
X100611925Y-57881920D01*
X100611925Y-57881920D02*
X100707163Y-57834301D01*
X100707163Y-57834301D02*
X100945258Y-57834301D01*
X100945258Y-57834301D02*
X101040496Y-57881920D01*
X101040496Y-57881920D02*
X101088115Y-57929539D01*
X101088115Y-57929539D02*
X101135734Y-58024777D01*
X101135734Y-58024777D02*
X101135734Y-58262872D01*
X101135734Y-58262872D02*
X101088115Y-58358110D01*
X101088115Y-58358110D02*
X101040496Y-58405730D01*
X101040496Y-58405730D02*
X100945258Y-58453349D01*
X100945258Y-58453349D02*
X100707163Y-58453349D01*
X100707163Y-58453349D02*
X100611925Y-58405730D01*
X100611925Y-58405730D02*
X100564306Y-58358110D01*
D11*
%TO.C,J3*%
X91300000Y-56300000D02*
X95700000Y-56300000D01*
X91300000Y-60700000D02*
X91300000Y-56300000D01*
X95700000Y-56300000D02*
X95700000Y-60700000D01*
X95700000Y-60700000D02*
X91300000Y-60700000D01*
%TO.C,J2*%
X127800000Y-53800000D02*
X132200000Y-53800000D01*
X127800000Y-58200000D02*
X127800000Y-53800000D01*
X132200000Y-53800000D02*
X132200000Y-58200000D01*
X132200000Y-58200000D02*
X127800000Y-58200000D01*
%TO.C,J4*%
X127800000Y-70800000D02*
X132200000Y-70800000D01*
X127800000Y-75200000D02*
X127800000Y-70800000D01*
X132200000Y-70800000D02*
X132200000Y-75200000D01*
X132200000Y-75200000D02*
X127800000Y-75200000D01*
%TO.C,C1*%
X105565280Y-63299805D02*
X105565280Y-63068135D01*
X106285280Y-63299805D02*
X106285280Y-63068135D01*
%TO.C,C4*%
X102691965Y-59640000D02*
X102923635Y-59640000D01*
X102691965Y-60360000D02*
X102923635Y-60360000D01*
D12*
%TO.C,U1*%
X100093618Y-61716470D02*
X100093618Y-64816470D01*
X103193618Y-61716470D02*
X103193618Y-64816470D01*
D13*
X102718618Y-60821470D02*
G75*
G02*
X102518618Y-60821470I-100000J0D01*
G01*
X102518618Y-60821470D02*
G75*
G02*
X102718618Y-60821470I100000J0D01*
G01*
D11*
%TO.C,J5*%
X91300000Y-68300000D02*
X95700000Y-68300000D01*
X91300000Y-72700000D02*
X91300000Y-68300000D01*
X95700000Y-68300000D02*
X95700000Y-72700000D01*
X95700000Y-72700000D02*
X91300000Y-72700000D01*
%TO.C,J1*%
X127800000Y-62562500D02*
X132200000Y-62562500D01*
X127800000Y-66962500D02*
X127800000Y-62562500D01*
X132200000Y-62562500D02*
X132200000Y-66962500D01*
X132200000Y-66962500D02*
X127800000Y-66962500D01*
%TO.C,C3*%
X102691965Y-58138530D02*
X102923635Y-58138530D01*
X102691965Y-58858530D02*
X102923635Y-58858530D01*
%TO.C,C2*%
X104140000Y-63299805D02*
X104140000Y-63068135D01*
X104860000Y-63299805D02*
X104860000Y-63068135D01*
%TO.C,C5*%
X100391135Y-59640000D02*
X100159465Y-59640000D01*
X100391135Y-60360000D02*
X100159465Y-60360000D01*
%TD*%
M02*
