M48
; DRILL file {KiCad 9.0.0} date 2025-02-25T12:17:54-0500
; FORMAT={-:-/ absolute / metric / decimal}
; #@! TF.CreationDate,2025-02-25T12:17:54-05:00
; #@! TF.GenerationSoftware,Kicad,Pcbnew,9.0.0
; #@! TF.FileFunction,Plated,1,4,PTH
FMAT,2
METRIC
; #@! TA.AperFunction,Plated,PTH,ViaDrill
T1C0.150
; #@! TA.AperFunction,Plated,PTH,ViaDrill
T2C0.250
; #@! TA.AperFunction,Plated,PTH,ComponentDrill
T3C0.500
; #@! TA.AperFunction,Plated,PTH,ComponentDrill
T4C0.550
; #@! TA.AperFunction,Plated,PTH,ComponentDrill
T5C0.650
; #@! TA.AperFunction,Plated,PTH,ComponentDrill
T6C0.890
; #@! TA.AperFunction,Plated,PTH,ComponentDrill
T7C1.000
; #@! TA.AperFunction,Plated,PTH,ComponentDrill
T8C1.050
; #@! TA.AperFunction,Plated,PTH,ComponentDrill
T9C2.286
; #@! TA.AperFunction,Plated,PTH,ComponentDrill
T10C3.050
%
G90
G05
T1
X59.966Y-108.178
X60.566Y-129.178
X61.966Y-108.778
X61.966Y-109.578
X61.966Y-110.378
X62.766Y-108.778
X62.766Y-109.578
X62.766Y-110.378
X63.166Y-117.578
X63.366Y-127.178
X63.366Y-139.578
X63.566Y-108.778
X63.566Y-109.578
X63.566Y-110.378
X63.766Y-128.378
X64.366Y-108.778
X64.366Y-130.378
X64.766Y-139.578
X65.066Y-107.178
X65.166Y-108.778
X65.466Y-76.878
X65.766Y-141.778
X65.966Y-108.778
X66.366Y-120.178
X66.366Y-137.778
X66.566Y-100.278
X66.566Y-107.178
X67.716Y-76.878
X68.066Y-99.178
X68.366Y-124.578
X68.566Y-125.178
X68.566Y-126.178
X69.366Y-115.978
X69.366Y-122.378
X69.766Y-77.778
X69.766Y-105.978
X69.766Y-120.178
X69.966Y-114.778
X70.366Y-123.578
X71.366Y-112.178
X71.766Y-120.578
X71.766Y-128.178
X71.766Y-130.378
X71.966Y-131.378
X72.566Y-115.378
X73.166Y-128.178
X73.566Y-122.378
X73.766Y-130.578
X74.166Y-77.778
X74.566Y-144.378
X75.166Y-125.778
X75.566Y-122.178
X75.766Y-138.378
X76.366Y-112.178
X76.366Y-131.378
X76.516Y-76.828
X76.966Y-105.578
X76.966Y-143.778
X77.366Y-104.378
X77.766Y-143.178
X78.366Y-115.378
X78.666Y-76.828
X79.866Y-106.878
X79.966Y-125.778
X80.366Y-118.578
X80.816Y-76.828
X81.566Y-113.578
X81.566Y-115.178
X81.766Y-104.178
X82.166Y-135.178
X82.566Y-102.578
X82.766Y-140.178
X83.566Y-108.978
X86.366Y-113.778
X86.416Y-90.628
X86.566Y-121.378
X86.766Y-124.378
X86.966Y-112.178
X87.666Y-92.128
X87.666Y-93.078
X87.966Y-124.378
X89.766Y-140.978
X89.966Y-107.578
X90.366Y-106.178
X90.966Y-110.978
X91.166Y-112.178
X91.816Y-96.628
X92.166Y-132.178
X92.366Y-105.178
X93.366Y-109.778
X93.766Y-108.378
X93.766Y-144.378
X94.166Y-92.578
X94.359Y-94.971
X94.566Y-95.578
X94.566Y-137.378
X94.766Y-108.778
X95.166Y-143.978
X95.666Y-81.078
X95.666Y-83.578
X95.666Y-86.078
X95.766Y-140.178
X96.366Y-126.978
X96.766Y-144.978
X96.966Y-137.178
X97.366Y-121.178
X97.766Y-91.278
X98.116Y-97.305
X98.121Y-95.705
X98.466Y-81.078
X98.466Y-91.278
X98.966Y-126.178
X99.166Y-81.978
X99.166Y-132.778
X99.366Y-125.578
X99.766Y-137.178
X99.766Y-141.578
X100.366Y-145.378
X100.566Y-83.578
X100.666Y-86.078
X100.766Y-95.178
X101.966Y-95.378
X102.566Y-93.978
X102.566Y-123.178
X102.966Y-92.778
X103.766Y-93.378
X103.766Y-135.778
X104.566Y-96.778
X104.766Y-93.178
X104.766Y-137.978
X104.866Y-94.578
X104.916Y-95.428
X105.366Y-114.178
X105.566Y-132.378
X106.566Y-116.778
X106.766Y-115.978
X106.966Y-97.978
X109.166Y-142.778
X109.366Y-123.978
X110.861Y-75.335
X110.861Y-76.235
X110.861Y-77.135
X112.261Y-75.385
X112.261Y-76.285
X112.566Y-144.778
X112.766Y-120.378
X113.511Y-75.385
X113.511Y-76.285
X113.766Y-140.778
X114.566Y-114.378
X114.711Y-75.385
X114.711Y-76.285
X114.761Y-77.135
X114.766Y-134.778
X115.166Y-127.978
X115.566Y-140.178
X116.566Y-120.378
X116.966Y-139.378
X117.366Y-119.978
X118.566Y-124.578
X119.966Y-131.978
X120.566Y-128.378
X120.566Y-129.178
X120.766Y-105.778
X121.166Y-129.978
X121.766Y-139.178
X122.566Y-133.378
X122.966Y-129.378
X124.966Y-107.978
X125.366Y-99.578
X125.566Y-103.378
X127.566Y-89.378
X128.566Y-136.378
X128.966Y-91.278
X129.166Y-100.978
X130.566Y-91.778
X131.166Y-84.178
X131.166Y-106.578
X131.716Y-91.378
X131.766Y-111.578
X132.666Y-81.178
X133.166Y-91.578
X133.766Y-96.378
X133.966Y-93.578
X133.966Y-111.378
X134.366Y-81.178
X134.366Y-91.278
X134.966Y-94.378
X134.966Y-145.978
X135.366Y-79.578
X135.566Y-78.578
X135.766Y-83.378
X136.166Y-80.578
X136.366Y-152.178
X137.566Y-93.778
X137.566Y-95.978
X137.966Y-99.378
X138.166Y-91.778
X138.766Y-89.978
X138.766Y-90.778
X138.766Y-96.978
X138.866Y-94.878
X139.366Y-113.978
X139.966Y-91.178
X140.366Y-79.778
X140.366Y-118.178
X140.966Y-152.178
X141.366Y-79.778
X141.566Y-83.978
X141.566Y-85.678
X141.566Y-87.278
X142.366Y-79.778
X142.666Y-88.378
X142.716Y-82.928
X142.766Y-91.378
X142.766Y-95.578
X143.366Y-79.778
X143.966Y-96.578
X143.966Y-114.378
X143.966Y-151.778
X144.366Y-79.778
X144.366Y-82.978
X144.366Y-88.378
X144.566Y-104.378
X144.766Y-117.178
X145.166Y-110.178
X145.366Y-79.778
X145.966Y-152.178
X146.066Y-82.978
X146.066Y-88.378
X146.166Y-112.578
X146.366Y-79.778
X146.366Y-108.578
X147.066Y-84.028
X147.066Y-85.678
X147.366Y-79.778
X147.766Y-91.578
X147.966Y-108.578
X148.366Y-79.778
X148.566Y-94.378
X149.366Y-79.778
X149.616Y-97.828
X149.766Y-94.078
X150.366Y-80.178
X150.366Y-122.178
X150.366Y-122.978
X150.366Y-123.778
X150.366Y-124.578
X151.166Y-152.178
X151.366Y-104.778
X151.366Y-123.778
X151.366Y-124.578
X151.766Y-116.578
X152.166Y-123.778
X152.166Y-124.578
X152.566Y-92.678
X152.766Y-83.978
X152.766Y-84.778
X153.766Y-109.578
X153.766Y-119.178
X154.566Y-88.778
X155.166Y-104.778
X155.366Y-103.978
X157.366Y-120.978
X157.366Y-122.578
X157.566Y-118.978
T2
X70.366Y-118.978
X77.966Y-136.378
X80.166Y-116.578
X80.366Y-132.778
X81.766Y-131.178
X82.566Y-98.578
X86.166Y-141.978
X86.766Y-111.178
X90.966Y-137.978
X92.766Y-137.978
X118.366Y-127.578
X121.966Y-127.778
X124.766Y-104.978
X126.766Y-130.578
X138.566Y-109.378
X138.766Y-80.178
X138.766Y-81.178
X139.766Y-112.578
X141.366Y-108.778
X141.366Y-112.578
X142.766Y-108.778
X143.366Y-104.978
X144.166Y-110.178
X149.166Y-151.778
X150.766Y-98.378
X151.866Y-94.978
X151.966Y-96.378
X152.366Y-98.378
T5
X159.866Y-116.708
X159.866Y-117.978
T6
X56.116Y-128.728
X56.116Y-131.268
X56.196Y-145.728
X56.196Y-148.268
T7
X55.211Y-117.978
X57.751Y-117.978
X60.291Y-117.978
X122.866Y-79.838
X122.866Y-82.378
X122.866Y-84.918
X155.366Y-134.158
X155.366Y-136.698
X155.366Y-139.238
X155.366Y-141.778
T8
X52.446Y-88.818
X52.446Y-91.588
X52.446Y-94.358
X52.446Y-97.128
X55.286Y-87.433
X55.286Y-90.203
X55.286Y-92.973
X55.286Y-95.743
X55.286Y-98.513
T9
X53.166Y-111.978
X58.066Y-74.578
X61.766Y-85.478
X61.866Y-95.478
X65.616Y-150.478
X82.116Y-150.478
X82.166Y-144.378
X90.616Y-150.478
X98.616Y-150.478
X110.766Y-150.478
X116.766Y-150.378
X122.966Y-150.578
X126.616Y-139.978
X128.866Y-150.728
X132.366Y-139.978
X138.116Y-139.978
X144.116Y-139.978
X149.616Y-139.978
T10
X53.866Y-80.478
X53.866Y-105.468
T3
G00X163.241Y-100.978
M15
G01X163.891Y-100.978
M16
G05
G00X163.241Y-107.978
M15
G01X163.891Y-107.978
M16
G05
T4
G00X160.866Y-102.128
M15
G01X160.866Y-101.828
M16
G05
G00X160.866Y-107.128
M15
G01X160.866Y-106.828
M16
G05
M30
