M48
METRIC,TZ
T1C0.150
T2C0.250
T3C0.500
T4C0.550
T5C0.650
T6C0.890
T7C1.000
T8C1.050
T9C2.286
T10C3.050
%
G90
G05
T1
X59966Y-108178
X60566Y-129178
X61966Y-108778
X61966Y-109578
X61966Y-110378
X62766Y-108778
X62766Y-109578
X62766Y-110378
X63166Y-117578
X63366Y-127178
X63366Y-139578
X63566Y-108778
X63566Y-109578
X63566Y-110378
X63766Y-128378
X64366Y-108778
X64366Y-130378
X64766Y-139578
X65066Y-107178
X65166Y-108778
X65466Y-76878
X65766Y-141778
X65966Y-108778
X66366Y-120178
X66366Y-137778
X66566Y-100278
X66566Y-107178
X67716Y-76878
X68066Y-99178
X68366Y-124578
X68566Y-125178
X68566Y-126178
X69366Y-115978
X69366Y-122378
X69766Y-77778
X69766Y-105978
X69766Y-120178
X69966Y-114778
X70366Y-123578
X71366Y-112178
X71766Y-120578
X71766Y-128178
X71766Y-130378
X71966Y-131378
X72566Y-115378
X73166Y-128178
X73566Y-122378
X73766Y-130578
X74166Y-77778
X74566Y-144378
X75166Y-125778
X75566Y-122178
X75766Y-138378
X76366Y-112178
X76366Y-131378
X76516Y-76828
X76966Y-105578
X76966Y-143778
X77366Y-104378
X77766Y-143178
X78366Y-115378
X78666Y-76828
X79866Y-106878
X79966Y-125778
X80366Y-118578
X80816Y-76828
X81566Y-113578
X81566Y-115178
X81766Y-104178
X82166Y-135178
X82566Y-102578
X82766Y-140178
X83566Y-108978
X86366Y-113778
X86416Y-90628
X86566Y-121378
X86766Y-124378
X86966Y-112178
X87666Y-92128
X87666Y-93078
X87966Y-124378
X89766Y-140978
X89966Y-107578
X90366Y-106178
X90966Y-110978
X91166Y-112178
X91816Y-96628
X92166Y-132178
X92366Y-105178
X93366Y-109778
X93766Y-108378
X93766Y-144378
X94166Y-92578
X94359Y-94971
X94566Y-95578
X94566Y-137378
X94766Y-108778
X95166Y-143978
X95666Y-81078
X95666Y-83578
X95666Y-86078
X95766Y-140178
X96366Y-126978
X96766Y-144978
X96966Y-137178
X97366Y-121178
X97766Y-91278
X98116Y-97305
X98121Y-95705
X98466Y-81078
X98466Y-91278
X98966Y-126178
X99166Y-81978
X99166Y-132778
X99366Y-125578
X99766Y-137178
X99766Y-141578
X100366Y-145378
X100566Y-83578
X100666Y-86078
X100766Y-95178
X101966Y-95378
X102566Y-93978
X102566Y-123178
X102966Y-92778
X103766Y-93378
X103766Y-135778
X104566Y-96778
X104766Y-93178
X104766Y-137978
X104866Y-94578
X104916Y-95428
X105366Y-114178
X105566Y-132378
X106566Y-116778
X106766Y-115978
X106966Y-97978
X109166Y-142778
X109366Y-123978
X110861Y-75335
X110861Y-76235
X110861Y-77135
X112261Y-75385
X112261Y-76285
X112566Y-144778
X112766Y-120378
X113511Y-75385
X113511Y-76285
X113766Y-140778
X114566Y-114378
X114711Y-75385
X114711Y-76285
X114761Y-77135
X114766Y-134778
X115166Y-127978
X115566Y-140178
X116566Y-120378
X116966Y-139378
X117366Y-119978
X118566Y-124578
X119966Y-131978
X120566Y-128378
X120566Y-129178
X120766Y-105778
X121166Y-129978
X121766Y-139178
X122566Y-133378
X122966Y-129378
X124966Y-107978
X125366Y-99578
X125566Y-103378
X127566Y-89378
X128566Y-136378
X128966Y-91278
X129166Y-100978
X130566Y-91778
X131166Y-84178
X131166Y-106578
X131716Y-91378
X131766Y-111578
X132666Y-81178
X133166Y-91578
X133766Y-96378
X133966Y-93578
X133966Y-111378
X134366Y-81178
X134366Y-91278
X134966Y-94378
X134966Y-145978
X135366Y-79578
X135566Y-78578
X135766Y-83378
X136166Y-80578
X136366Y-152178
X137566Y-93778
X137566Y-95978
X137966Y-99378
X138166Y-91778
X138766Y-89978
X138766Y-90778
X138766Y-96978
X138866Y-94878
X139366Y-113978
X139966Y-91178
X140366Y-79778
X140366Y-118178
X140966Y-152178
X141366Y-79778
X141566Y-83978
X141566Y-85678
X141566Y-87278
X142366Y-79778
X142666Y-88378
X142716Y-82928
X142766Y-91378
X142766Y-95578
X143366Y-79778
X143966Y-96578
X143966Y-114378
X143966Y-151778
X144366Y-79778
X144366Y-82978
X144366Y-88378
X144566Y-104378
X144766Y-117178
X145166Y-110178
X145366Y-79778
X145966Y-152178
X146066Y-82978
X146066Y-88378
X146166Y-112578
X146366Y-79778
X146366Y-108578
X147066Y-84028
X147066Y-85678
X147366Y-79778
X147766Y-91578
X147966Y-108578
X148366Y-79778
X148566Y-94378
X149366Y-79778
X149616Y-97828
X149766Y-94078
X150366Y-80178
X150366Y-122178
X150366Y-122978
X150366Y-123778
X150366Y-124578
X151166Y-152178
X151366Y-104778
X151366Y-123778
X151366Y-124578
X151766Y-116578
X152166Y-123778
X152166Y-124578
X152566Y-92678
X152766Y-83978
X152766Y-84778
X153766Y-109578
X153766Y-119178
X154566Y-88778
X155166Y-104778
X155366Y-103978
X157366Y-120978
X157366Y-122578
X157566Y-118978
T2
X70366Y-118978
X77966Y-136378
X80166Y-116578
X80366Y-132778
X81766Y-131178
X82566Y-98578
X86166Y-141978
X86766Y-111178
X90966Y-137978
X92766Y-137978
X118366Y-127578
X121966Y-127778
X124766Y-104978
X126766Y-130578
X138566Y-109378
X138766Y-80178
X138766Y-81178
X139766Y-112578
X141366Y-108778
X141366Y-112578
X142766Y-108778
X143366Y-104978
X144166Y-110178
X149166Y-151778
X150766Y-98378
X151866Y-94978
X151966Y-96378
X152366Y-98378
T5
X159866Y-116708
X159866Y-117978
T6
X56116Y-128728
X56116Y-131268
X56196Y-145728
X56196Y-148268
T7
X55211Y-117978
X57751Y-117978
X60291Y-117978
X122866Y-79838
X122866Y-82378
X122866Y-84918
X155366Y-134158
X155366Y-136698
X155366Y-139238
X155366Y-141778
T8
X52446Y-88818
X52446Y-91588
X52446Y-94358
X52446Y-97128
X55286Y-87433
X55286Y-90203
X55286Y-92973
X55286Y-95743
X55286Y-98513
T9
X53166Y-111978
X58066Y-74578
X61766Y-85478
X61866Y-95478
X65616Y-150478
X82116Y-150478
X82166Y-144378
X90616Y-150478
X98616Y-150478
X110766Y-150478
X116766Y-150378
X122966Y-150578
X126616Y-139978
X128866Y-150728
X132366Y-139978
X138116Y-139978
X144116Y-139978
X149616Y-139978
T10
X53866Y-80478
X53866Y-105468
T3
G00X163241Y-100978
M15
G01X163891Y-100978
M16
G05
G00X163241Y-107978
M15
G01X163891Y-107978
M16
G05
T4
G00X160866Y-102128
M15
G01X160866Y-101828
M16
G05
G00X160866Y-107128
M15
G01X160866Y-106828
M16
G05
M30
