%TF.GenerationSoftware,KiCad,Pcbnew,9.0.0*%
%TF.CreationDate,2025-02-25T12:17:53-05:00*%
%TF.ProjectId,kicad_pulse_supply-rev-C,6b696361-645f-4707-956c-73655f737570,rev?*%
%TF.SameCoordinates,Original*%
%TF.FileFunction,Soldermask,Top*%
%TF.FilePolarity,Negative*%
%FSLAX46Y46*%
G04 Gerber Fmt 4.6, Leading zero omitted, Abs format (unit mm)*
G04 Created by KiCad (PCBNEW 9.0.0) date 2025-02-25 12:17:53*
%MOMM*%
%LPD*%
G01*
G04 APERTURE LIST*
G04 Aperture macros list*
%AMRoundRect*
0 Rectangle with rounded corners*
0 $1 Rounding radius*
0 $2 $3 $4 $5 $6 $7 $8 $9 X,Y pos of 4 corners*
0 Add a 4 corners polygon primitive as box body*
4,1,4,$2,$3,$4,$5,$6,$7,$8,$9,$2,$3,0*
0 Add four circle primitives for the rounded corners*
1,1,$1+$1,$2,$3*
1,1,$1+$1,$4,$5*
1,1,$1+$1,$6,$7*
1,1,$1+$1,$8,$9*
0 Add four rect primitives between the rounded corners*
20,1,$1+$1,$2,$3,$4,$5,0*
20,1,$1+$1,$4,$5,$6,$7,0*
20,1,$1+$1,$6,$7,$8,$9,0*
20,1,$1+$1,$8,$9,$2,$3,0*%
%AMOutline5P*
0 Free polygon, 5 corners , with rotation*
0 The origin of the aperture is its center*
0 number of corners: always 5*
0 $1 to $10 corner X, Y*
0 $11 Rotation angle, in degrees counterclockwise*
0 create outline with 5 corners*
4,1,5,$1,$2,$3,$4,$5,$6,$7,$8,$9,$10,$1,$2,$11*%
%AMOutline6P*
0 Free polygon, 6 corners , with rotation*
0 The origin of the aperture is its center*
0 number of corners: always 6*
0 $1 to $12 corner X, Y*
0 $13 Rotation angle, in degrees counterclockwise*
0 create outline with 6 corners*
4,1,6,$1,$2,$3,$4,$5,$6,$7,$8,$9,$10,$11,$12,$1,$2,$13*%
%AMOutline7P*
0 Free polygon, 7 corners , with rotation*
0 The origin of the aperture is its center*
0 number of corners: always 7*
0 $1 to $14 corner X, Y*
0 $15 Rotation angle, in degrees counterclockwise*
0 create outline with 7 corners*
4,1,7,$1,$2,$3,$4,$5,$6,$7,$8,$9,$10,$11,$12,$13,$14,$1,$2,$15*%
%AMOutline8P*
0 Free polygon, 8 corners , with rotation*
0 The origin of the aperture is its center*
0 number of corners: always 8*
0 $1 to $16 corner X, Y*
0 $17 Rotation angle, in degrees counterclockwise*
0 create outline with 8 corners*
4,1,8,$1,$2,$3,$4,$5,$6,$7,$8,$9,$10,$11,$12,$13,$14,$15,$16,$1,$2,$17*%
G04 Aperture macros list end*
%ADD10C,0.010000*%
%ADD11RoundRect,0.102000X-0.787500X0.787500X-0.787500X-0.787500X0.787500X-0.787500X0.787500X0.787500X0*%
%ADD12C,1.779000*%
%ADD13C,4.270000*%
%ADD14O,1.550000X0.890000*%
%ADD15RoundRect,0.250000X0.525000X-0.475000X0.525000X0.475000X-0.525000X0.475000X-0.525000X-0.475000X0*%
%ADD16O,0.950000X1.250000*%
%ADD17RoundRect,0.250000X0.525000X-0.500000X0.525000X0.500000X-0.525000X0.500000X-0.525000X-0.500000X0*%
%ADD18RoundRect,0.100000X0.575000X-0.100000X0.575000X0.100000X-0.575000X0.100000X-0.575000X-0.100000X0*%
%ADD19RoundRect,0.225000X-0.225000X-0.250000X0.225000X-0.250000X0.225000X0.250000X-0.225000X0.250000X0*%
%ADD20RoundRect,0.140000X0.140000X0.170000X-0.140000X0.170000X-0.140000X-0.170000X0.140000X-0.170000X0*%
%ADD21RoundRect,0.225000X0.250000X-0.225000X0.250000X0.225000X-0.250000X0.225000X-0.250000X-0.225000X0*%
%ADD22C,1.000000*%
%ADD23RoundRect,0.062500X-0.187500X-0.062500X0.187500X-0.062500X0.187500X0.062500X-0.187500X0.062500X0*%
%ADD24R,0.900000X1.600000*%
%ADD25RoundRect,0.200000X-0.200000X-0.275000X0.200000X-0.275000X0.200000X0.275000X-0.200000X0.275000X0*%
%ADD26RoundRect,0.160000X-0.160000X0.197500X-0.160000X-0.197500X0.160000X-0.197500X0.160000X0.197500X0*%
%ADD27RoundRect,0.218750X-0.256250X0.218750X-0.256250X-0.218750X0.256250X-0.218750X0.256250X0.218750X0*%
%ADD28RoundRect,0.100000X0.100000X-0.430000X0.100000X0.430000X-0.100000X0.430000X-0.100000X-0.430000X0*%
%ADD29RoundRect,0.225000X0.225000X0.250000X-0.225000X0.250000X-0.225000X-0.250000X0.225000X-0.250000X0*%
%ADD30RoundRect,0.200000X-0.250000X-0.200000X0.250000X-0.200000X0.250000X0.200000X-0.250000X0.200000X0*%
%ADD31C,3.048000*%
%ADD32RoundRect,0.140000X-0.140000X-0.170000X0.140000X-0.170000X0.140000X0.170000X-0.140000X0.170000X0*%
%ADD33RoundRect,0.225000X-0.250000X0.225000X-0.250000X-0.225000X0.250000X-0.225000X0.250000X0.225000X0*%
%ADD34RoundRect,0.150000X-0.825000X-0.150000X0.825000X-0.150000X0.825000X0.150000X-0.825000X0.150000X0*%
%ADD35R,1.498600X3.810000*%
%ADD36RoundRect,0.200000X0.275000X-0.200000X0.275000X0.200000X-0.275000X0.200000X-0.275000X-0.200000X0*%
%ADD37RoundRect,0.135000X0.135000X0.185000X-0.135000X0.185000X-0.135000X-0.185000X0.135000X-0.185000X0*%
%ADD38RoundRect,0.249999X0.710001X3.000001X-0.710001X3.000001X-0.710001X-3.000001X0.710001X-3.000001X0*%
%ADD39R,0.800000X0.400000*%
%ADD40R,0.400000X0.800000*%
%ADD41Outline5P,-0.600000X0.204000X-0.204000X0.600000X0.600000X0.600000X0.600000X-0.600000X-0.600000X-0.600000X0.000000*%
%ADD42R,1.200000X1.200000*%
%ADD43R,0.800000X0.800000*%
%ADD44RoundRect,0.200000X-0.275000X0.200000X-0.275000X-0.200000X0.275000X-0.200000X0.275000X0.200000X0*%
%ADD45RoundRect,0.250000X0.325000X0.650000X-0.325000X0.650000X-0.325000X-0.650000X0.325000X-0.650000X0*%
%ADD46RoundRect,0.250000X0.300000X-0.300000X0.300000X0.300000X-0.300000X0.300000X-0.300000X-0.300000X0*%
%ADD47R,0.310000X0.850000*%
%ADD48R,2.950000X0.654000*%
%ADD49R,2.200000X0.850000*%
%ADD50RoundRect,0.250000X0.475000X-0.250000X0.475000X0.250000X-0.475000X0.250000X-0.475000X-0.250000X0*%
%ADD51R,1.700000X1.700000*%
%ADD52O,1.700000X1.700000*%
%ADD53R,0.900000X1.000000*%
%ADD54R,1.700000X0.550000*%
%ADD55RoundRect,0.250000X0.550000X-1.500000X0.550000X1.500000X-0.550000X1.500000X-0.550000X-1.500000X0*%
%ADD56RoundRect,0.140000X0.170000X-0.140000X0.170000X0.140000X-0.170000X0.140000X-0.170000X-0.140000X0*%
%ADD57RoundRect,0.200000X0.200000X0.275000X-0.200000X0.275000X-0.200000X-0.275000X0.200000X-0.275000X0*%
%ADD58RoundRect,0.250000X-0.300000X0.300000X-0.300000X-0.300000X0.300000X-0.300000X0.300000X0.300000X0*%
%ADD59RoundRect,0.160000X-0.197500X-0.160000X0.197500X-0.160000X0.197500X0.160000X-0.197500X0.160000X0*%
%ADD60R,0.320000X0.690000*%
%ADD61R,1.600000X1.000000*%
%ADD62RoundRect,0.100000X-0.712500X-0.100000X0.712500X-0.100000X0.712500X0.100000X-0.712500X0.100000X0*%
%ADD63RoundRect,0.125000X0.125000X-0.125000X0.125000X0.125000X-0.125000X0.125000X-0.125000X-0.125000X0*%
%ADD64C,3.000000*%
%ADD65C,1.524000*%
%ADD66RoundRect,0.250000X-0.325000X-0.650000X0.325000X-0.650000X0.325000X0.650000X-0.325000X0.650000X0*%
%ADD67RoundRect,0.155000X-0.212500X-0.155000X0.212500X-0.155000X0.212500X0.155000X-0.212500X0.155000X0*%
%ADD68RoundRect,0.135000X-0.135000X-0.185000X0.135000X-0.185000X0.135000X0.185000X-0.135000X0.185000X0*%
%ADD69RoundRect,0.112500X0.112500X-0.187500X0.112500X0.187500X-0.112500X0.187500X-0.112500X-0.187500X0*%
%ADD70RoundRect,0.100000X0.430000X0.100000X-0.430000X0.100000X-0.430000X-0.100000X0.430000X-0.100000X0*%
%ADD71RoundRect,0.218750X0.256250X-0.218750X0.256250X0.218750X-0.256250X0.218750X-0.256250X-0.218750X0*%
%ADD72RoundRect,0.375000X0.625000X0.375000X-0.625000X0.375000X-0.625000X-0.375000X0.625000X-0.375000X0*%
%ADD73RoundRect,0.500000X0.500000X1.400000X-0.500000X1.400000X-0.500000X-1.400000X0.500000X-1.400000X0*%
%ADD74RoundRect,0.100000X-0.430000X-0.100000X0.430000X-0.100000X0.430000X0.100000X-0.430000X0.100000X0*%
%ADD75RoundRect,0.112500X-0.187500X-0.112500X0.187500X-0.112500X0.187500X0.112500X-0.187500X0.112500X0*%
%ADD76C,3.200000*%
%ADD77R,2.540000X6.350000*%
%ADD78RoundRect,0.150000X-0.150000X0.825000X-0.150000X-0.825000X0.150000X-0.825000X0.150000X0.825000X0*%
%ADD79RoundRect,0.160000X0.160000X-0.197500X0.160000X0.197500X-0.160000X0.197500X-0.160000X-0.197500X0*%
%ADD80RoundRect,0.250000X0.312500X0.625000X-0.312500X0.625000X-0.312500X-0.625000X0.312500X-0.625000X0*%
%ADD81R,1.900000X1.300000*%
%ADD82R,1.900000X2.000000*%
%ADD83RoundRect,0.250000X0.625000X-0.312500X0.625000X0.312500X-0.625000X0.312500X-0.625000X-0.312500X0*%
%ADD84RoundRect,0.155000X-0.155000X0.212500X-0.155000X-0.212500X0.155000X-0.212500X0.155000X0.212500X0*%
%ADD85R,1.000000X1.000000*%
%ADD86O,1.000000X1.000000*%
%ADD87RoundRect,0.150000X0.150000X-0.512500X0.150000X0.512500X-0.150000X0.512500X-0.150000X-0.512500X0*%
%ADD88RoundRect,0.250000X-0.300000X-0.625000X0.300000X-0.625000X0.300000X0.625000X-0.300000X0.625000X0*%
%ADD89C,0.900000*%
%ADD90RoundRect,0.102000X-0.700000X0.600000X-0.700000X-0.600000X0.700000X-0.600000X0.700000X0.600000X0*%
%ADD91R,1.100000X1.750000*%
%ADD92RoundRect,0.250000X-0.625000X0.300000X-0.625000X-0.300000X0.625000X-0.300000X0.625000X0.300000X0*%
%ADD93RoundRect,0.200000X0.200000X-0.250000X0.200000X0.250000X-0.200000X0.250000X-0.200000X-0.250000X0*%
%ADD94RoundRect,0.100000X-0.100000X0.430000X-0.100000X-0.430000X0.100000X-0.430000X0.100000X0.430000X0*%
G04 APERTURE END LIST*
D10*
%TO.C,U15*%
X95984000Y-92634000D02*
X95990000Y-92634000D01*
X95996000Y-92636000D01*
X96002000Y-92637000D01*
X96008000Y-92639000D01*
X96014000Y-92641000D01*
X96020000Y-92643000D01*
X96025000Y-92646000D01*
X96031000Y-92649000D01*
X96036000Y-92652000D01*
X96042000Y-92656000D01*
X96047000Y-92660000D01*
X96051000Y-92664000D01*
X96056000Y-92668000D01*
X96060000Y-92673000D01*
X96064000Y-92677000D01*
X96068000Y-92682000D01*
X96072000Y-92688000D01*
X96075000Y-92693000D01*
X96078000Y-92699000D01*
X96081000Y-92704000D01*
X96083000Y-92710000D01*
X96085000Y-92716000D01*
X96087000Y-92722000D01*
X96088000Y-92728000D01*
X96090000Y-92734000D01*
X96090000Y-92740000D01*
X96091000Y-92747000D01*
X96091000Y-92753000D01*
X96091000Y-92903000D01*
X96091000Y-92909000D01*
X96090000Y-92916000D01*
X96090000Y-92922000D01*
X96088000Y-92928000D01*
X96087000Y-92934000D01*
X96085000Y-92940000D01*
X96083000Y-92946000D01*
X96081000Y-92952000D01*
X96078000Y-92957000D01*
X96075000Y-92963000D01*
X96072000Y-92968000D01*
X96068000Y-92974000D01*
X96064000Y-92979000D01*
X96060000Y-92983000D01*
X96056000Y-92988000D01*
X96051000Y-92992000D01*
X96047000Y-92996000D01*
X96042000Y-93000000D01*
X96036000Y-93004000D01*
X96031000Y-93007000D01*
X96025000Y-93010000D01*
X96020000Y-93013000D01*
X96014000Y-93015000D01*
X96008000Y-93017000D01*
X96002000Y-93019000D01*
X95996000Y-93020000D01*
X95990000Y-93022000D01*
X95984000Y-93022000D01*
X95977000Y-93023000D01*
X95971000Y-93023000D01*
X95471000Y-93023000D01*
X95465000Y-93023000D01*
X95458000Y-93022000D01*
X95452000Y-93022000D01*
X95446000Y-93020000D01*
X95440000Y-93019000D01*
X95434000Y-93017000D01*
X95428000Y-93015000D01*
X95422000Y-93013000D01*
X95417000Y-93010000D01*
X95411000Y-93007000D01*
X95406000Y-93004000D01*
X95400000Y-93000000D01*
X95395000Y-92996000D01*
X95391000Y-92992000D01*
X95386000Y-92988000D01*
X95382000Y-92983000D01*
X95378000Y-92979000D01*
X95374000Y-92974000D01*
X95370000Y-92968000D01*
X95367000Y-92963000D01*
X95364000Y-92957000D01*
X95361000Y-92952000D01*
X95359000Y-92946000D01*
X95357000Y-92940000D01*
X95355000Y-92934000D01*
X95354000Y-92928000D01*
X95352000Y-92922000D01*
X95352000Y-92916000D01*
X95351000Y-92909000D01*
X95351000Y-92903000D01*
X95351000Y-92753000D01*
X95351000Y-92747000D01*
X95352000Y-92740000D01*
X95352000Y-92734000D01*
X95354000Y-92728000D01*
X95355000Y-92722000D01*
X95357000Y-92716000D01*
X95359000Y-92710000D01*
X95361000Y-92704000D01*
X95364000Y-92699000D01*
X95367000Y-92693000D01*
X95370000Y-92688000D01*
X95374000Y-92682000D01*
X95378000Y-92677000D01*
X95382000Y-92673000D01*
X95386000Y-92668000D01*
X95391000Y-92664000D01*
X95395000Y-92660000D01*
X95400000Y-92656000D01*
X95406000Y-92652000D01*
X95411000Y-92649000D01*
X95417000Y-92646000D01*
X95422000Y-92643000D01*
X95428000Y-92641000D01*
X95434000Y-92639000D01*
X95440000Y-92637000D01*
X95446000Y-92636000D01*
X95452000Y-92634000D01*
X95458000Y-92634000D01*
X95465000Y-92633000D01*
X95471000Y-92633000D01*
X95971000Y-92633000D01*
X95977000Y-92633000D01*
X95984000Y-92634000D01*
G36*
X95984000Y-92634000D02*
G01*
X95990000Y-92634000D01*
X95996000Y-92636000D01*
X96002000Y-92637000D01*
X96008000Y-92639000D01*
X96014000Y-92641000D01*
X96020000Y-92643000D01*
X96025000Y-92646000D01*
X96031000Y-92649000D01*
X96036000Y-92652000D01*
X96042000Y-92656000D01*
X96047000Y-92660000D01*
X96051000Y-92664000D01*
X96056000Y-92668000D01*
X96060000Y-92673000D01*
X96064000Y-92677000D01*
X96068000Y-92682000D01*
X96072000Y-92688000D01*
X96075000Y-92693000D01*
X96078000Y-92699000D01*
X96081000Y-92704000D01*
X96083000Y-92710000D01*
X96085000Y-92716000D01*
X96087000Y-92722000D01*
X96088000Y-92728000D01*
X96090000Y-92734000D01*
X96090000Y-92740000D01*
X96091000Y-92747000D01*
X96091000Y-92753000D01*
X96091000Y-92903000D01*
X96091000Y-92909000D01*
X96090000Y-92916000D01*
X96090000Y-92922000D01*
X96088000Y-92928000D01*
X96087000Y-92934000D01*
X96085000Y-92940000D01*
X96083000Y-92946000D01*
X96081000Y-92952000D01*
X96078000Y-92957000D01*
X96075000Y-92963000D01*
X96072000Y-92968000D01*
X96068000Y-92974000D01*
X96064000Y-92979000D01*
X96060000Y-92983000D01*
X96056000Y-92988000D01*
X96051000Y-92992000D01*
X96047000Y-92996000D01*
X96042000Y-93000000D01*
X96036000Y-93004000D01*
X96031000Y-93007000D01*
X96025000Y-93010000D01*
X96020000Y-93013000D01*
X96014000Y-93015000D01*
X96008000Y-93017000D01*
X96002000Y-93019000D01*
X95996000Y-93020000D01*
X95990000Y-93022000D01*
X95984000Y-93022000D01*
X95977000Y-93023000D01*
X95971000Y-93023000D01*
X95471000Y-93023000D01*
X95465000Y-93023000D01*
X95458000Y-93022000D01*
X95452000Y-93022000D01*
X95446000Y-93020000D01*
X95440000Y-93019000D01*
X95434000Y-93017000D01*
X95428000Y-93015000D01*
X95422000Y-93013000D01*
X95417000Y-93010000D01*
X95411000Y-93007000D01*
X95406000Y-93004000D01*
X95400000Y-93000000D01*
X95395000Y-92996000D01*
X95391000Y-92992000D01*
X95386000Y-92988000D01*
X95382000Y-92983000D01*
X95378000Y-92979000D01*
X95374000Y-92974000D01*
X95370000Y-92968000D01*
X95367000Y-92963000D01*
X95364000Y-92957000D01*
X95361000Y-92952000D01*
X95359000Y-92946000D01*
X95357000Y-92940000D01*
X95355000Y-92934000D01*
X95354000Y-92928000D01*
X95352000Y-92922000D01*
X95352000Y-92916000D01*
X95351000Y-92909000D01*
X95351000Y-92903000D01*
X95351000Y-92753000D01*
X95351000Y-92747000D01*
X95352000Y-92740000D01*
X95352000Y-92734000D01*
X95354000Y-92728000D01*
X95355000Y-92722000D01*
X95357000Y-92716000D01*
X95359000Y-92710000D01*
X95361000Y-92704000D01*
X95364000Y-92699000D01*
X95367000Y-92693000D01*
X95370000Y-92688000D01*
X95374000Y-92682000D01*
X95378000Y-92677000D01*
X95382000Y-92673000D01*
X95386000Y-92668000D01*
X95391000Y-92664000D01*
X95395000Y-92660000D01*
X95400000Y-92656000D01*
X95406000Y-92652000D01*
X95411000Y-92649000D01*
X95417000Y-92646000D01*
X95422000Y-92643000D01*
X95428000Y-92641000D01*
X95434000Y-92639000D01*
X95440000Y-92637000D01*
X95446000Y-92636000D01*
X95452000Y-92634000D01*
X95458000Y-92634000D01*
X95465000Y-92633000D01*
X95471000Y-92633000D01*
X95971000Y-92633000D01*
X95977000Y-92633000D01*
X95984000Y-92634000D01*
G37*
X95984000Y-94134000D02*
X95990000Y-94134000D01*
X95996000Y-94136000D01*
X96002000Y-94137000D01*
X96008000Y-94139000D01*
X96014000Y-94141000D01*
X96020000Y-94143000D01*
X96025000Y-94146000D01*
X96031000Y-94149000D01*
X96036000Y-94152000D01*
X96042000Y-94156000D01*
X96047000Y-94160000D01*
X96051000Y-94164000D01*
X96056000Y-94168000D01*
X96060000Y-94173000D01*
X96064000Y-94177000D01*
X96068000Y-94182000D01*
X96072000Y-94188000D01*
X96075000Y-94193000D01*
X96078000Y-94199000D01*
X96081000Y-94204000D01*
X96083000Y-94210000D01*
X96085000Y-94216000D01*
X96087000Y-94222000D01*
X96088000Y-94228000D01*
X96090000Y-94234000D01*
X96090000Y-94240000D01*
X96091000Y-94247000D01*
X96091000Y-94253000D01*
X96091000Y-94403000D01*
X96091000Y-94409000D01*
X96090000Y-94416000D01*
X96090000Y-94422000D01*
X96088000Y-94428000D01*
X96087000Y-94434000D01*
X96085000Y-94440000D01*
X96083000Y-94446000D01*
X96081000Y-94452000D01*
X96078000Y-94457000D01*
X96075000Y-94463000D01*
X96072000Y-94468000D01*
X96068000Y-94474000D01*
X96064000Y-94479000D01*
X96060000Y-94483000D01*
X96056000Y-94488000D01*
X96051000Y-94492000D01*
X96047000Y-94496000D01*
X96042000Y-94500000D01*
X96036000Y-94504000D01*
X96031000Y-94507000D01*
X96025000Y-94510000D01*
X96020000Y-94513000D01*
X96014000Y-94515000D01*
X96008000Y-94517000D01*
X96002000Y-94519000D01*
X95996000Y-94520000D01*
X95990000Y-94522000D01*
X95984000Y-94522000D01*
X95977000Y-94523000D01*
X95971000Y-94523000D01*
X95471000Y-94523000D01*
X95465000Y-94523000D01*
X95458000Y-94522000D01*
X95452000Y-94522000D01*
X95446000Y-94520000D01*
X95440000Y-94519000D01*
X95434000Y-94517000D01*
X95428000Y-94515000D01*
X95422000Y-94513000D01*
X95417000Y-94510000D01*
X95411000Y-94507000D01*
X95406000Y-94504000D01*
X95400000Y-94500000D01*
X95395000Y-94496000D01*
X95391000Y-94492000D01*
X95386000Y-94488000D01*
X95382000Y-94483000D01*
X95378000Y-94479000D01*
X95374000Y-94474000D01*
X95370000Y-94468000D01*
X95367000Y-94463000D01*
X95364000Y-94457000D01*
X95361000Y-94452000D01*
X95359000Y-94446000D01*
X95357000Y-94440000D01*
X95355000Y-94434000D01*
X95354000Y-94428000D01*
X95352000Y-94422000D01*
X95352000Y-94416000D01*
X95351000Y-94409000D01*
X95351000Y-94403000D01*
X95351000Y-94253000D01*
X95351000Y-94247000D01*
X95352000Y-94240000D01*
X95352000Y-94234000D01*
X95354000Y-94228000D01*
X95355000Y-94222000D01*
X95357000Y-94216000D01*
X95359000Y-94210000D01*
X95361000Y-94204000D01*
X95364000Y-94199000D01*
X95367000Y-94193000D01*
X95370000Y-94188000D01*
X95374000Y-94182000D01*
X95378000Y-94177000D01*
X95382000Y-94173000D01*
X95386000Y-94168000D01*
X95391000Y-94164000D01*
X95395000Y-94160000D01*
X95400000Y-94156000D01*
X95406000Y-94152000D01*
X95411000Y-94149000D01*
X95417000Y-94146000D01*
X95422000Y-94143000D01*
X95428000Y-94141000D01*
X95434000Y-94139000D01*
X95440000Y-94137000D01*
X95446000Y-94136000D01*
X95452000Y-94134000D01*
X95458000Y-94134000D01*
X95465000Y-94133000D01*
X95471000Y-94133000D01*
X95971000Y-94133000D01*
X95977000Y-94133000D01*
X95984000Y-94134000D01*
G36*
X95984000Y-94134000D02*
G01*
X95990000Y-94134000D01*
X95996000Y-94136000D01*
X96002000Y-94137000D01*
X96008000Y-94139000D01*
X96014000Y-94141000D01*
X96020000Y-94143000D01*
X96025000Y-94146000D01*
X96031000Y-94149000D01*
X96036000Y-94152000D01*
X96042000Y-94156000D01*
X96047000Y-94160000D01*
X96051000Y-94164000D01*
X96056000Y-94168000D01*
X96060000Y-94173000D01*
X96064000Y-94177000D01*
X96068000Y-94182000D01*
X96072000Y-94188000D01*
X96075000Y-94193000D01*
X96078000Y-94199000D01*
X96081000Y-94204000D01*
X96083000Y-94210000D01*
X96085000Y-94216000D01*
X96087000Y-94222000D01*
X96088000Y-94228000D01*
X96090000Y-94234000D01*
X96090000Y-94240000D01*
X96091000Y-94247000D01*
X96091000Y-94253000D01*
X96091000Y-94403000D01*
X96091000Y-94409000D01*
X96090000Y-94416000D01*
X96090000Y-94422000D01*
X96088000Y-94428000D01*
X96087000Y-94434000D01*
X96085000Y-94440000D01*
X96083000Y-94446000D01*
X96081000Y-94452000D01*
X96078000Y-94457000D01*
X96075000Y-94463000D01*
X96072000Y-94468000D01*
X96068000Y-94474000D01*
X96064000Y-94479000D01*
X96060000Y-94483000D01*
X96056000Y-94488000D01*
X96051000Y-94492000D01*
X96047000Y-94496000D01*
X96042000Y-94500000D01*
X96036000Y-94504000D01*
X96031000Y-94507000D01*
X96025000Y-94510000D01*
X96020000Y-94513000D01*
X96014000Y-94515000D01*
X96008000Y-94517000D01*
X96002000Y-94519000D01*
X95996000Y-94520000D01*
X95990000Y-94522000D01*
X95984000Y-94522000D01*
X95977000Y-94523000D01*
X95971000Y-94523000D01*
X95471000Y-94523000D01*
X95465000Y-94523000D01*
X95458000Y-94522000D01*
X95452000Y-94522000D01*
X95446000Y-94520000D01*
X95440000Y-94519000D01*
X95434000Y-94517000D01*
X95428000Y-94515000D01*
X95422000Y-94513000D01*
X95417000Y-94510000D01*
X95411000Y-94507000D01*
X95406000Y-94504000D01*
X95400000Y-94500000D01*
X95395000Y-94496000D01*
X95391000Y-94492000D01*
X95386000Y-94488000D01*
X95382000Y-94483000D01*
X95378000Y-94479000D01*
X95374000Y-94474000D01*
X95370000Y-94468000D01*
X95367000Y-94463000D01*
X95364000Y-94457000D01*
X95361000Y-94452000D01*
X95359000Y-94446000D01*
X95357000Y-94440000D01*
X95355000Y-94434000D01*
X95354000Y-94428000D01*
X95352000Y-94422000D01*
X95352000Y-94416000D01*
X95351000Y-94409000D01*
X95351000Y-94403000D01*
X95351000Y-94253000D01*
X95351000Y-94247000D01*
X95352000Y-94240000D01*
X95352000Y-94234000D01*
X95354000Y-94228000D01*
X95355000Y-94222000D01*
X95357000Y-94216000D01*
X95359000Y-94210000D01*
X95361000Y-94204000D01*
X95364000Y-94199000D01*
X95367000Y-94193000D01*
X95370000Y-94188000D01*
X95374000Y-94182000D01*
X95378000Y-94177000D01*
X95382000Y-94173000D01*
X95386000Y-94168000D01*
X95391000Y-94164000D01*
X95395000Y-94160000D01*
X95400000Y-94156000D01*
X95406000Y-94152000D01*
X95411000Y-94149000D01*
X95417000Y-94146000D01*
X95422000Y-94143000D01*
X95428000Y-94141000D01*
X95434000Y-94139000D01*
X95440000Y-94137000D01*
X95446000Y-94136000D01*
X95452000Y-94134000D01*
X95458000Y-94134000D01*
X95465000Y-94133000D01*
X95471000Y-94133000D01*
X95971000Y-94133000D01*
X95977000Y-94133000D01*
X95984000Y-94134000D01*
G37*
X95984000Y-93634000D02*
X95990000Y-93634000D01*
X95996000Y-93636000D01*
X96002000Y-93637000D01*
X96008000Y-93639000D01*
X96014000Y-93641000D01*
X96020000Y-93643000D01*
X96025000Y-93646000D01*
X96031000Y-93649000D01*
X96036000Y-93652000D01*
X96042000Y-93656000D01*
X96047000Y-93660000D01*
X96051000Y-93664000D01*
X96056000Y-93668000D01*
X96060000Y-93673000D01*
X96064000Y-93677000D01*
X96068000Y-93682000D01*
X96072000Y-93688000D01*
X96075000Y-93693000D01*
X96078000Y-93699000D01*
X96081000Y-93704000D01*
X96083000Y-93710000D01*
X96085000Y-93716000D01*
X96087000Y-93722000D01*
X96088000Y-93728000D01*
X96090000Y-93734000D01*
X96090000Y-93740000D01*
X96091000Y-93747000D01*
X96091000Y-93753000D01*
X96091000Y-93903000D01*
X96091000Y-93909000D01*
X96090000Y-93916000D01*
X96090000Y-93922000D01*
X96088000Y-93928000D01*
X96087000Y-93934000D01*
X96085000Y-93940000D01*
X96083000Y-93946000D01*
X96081000Y-93952000D01*
X96078000Y-93957000D01*
X96075000Y-93963000D01*
X96072000Y-93968000D01*
X96068000Y-93974000D01*
X96064000Y-93979000D01*
X96060000Y-93983000D01*
X96056000Y-93988000D01*
X96051000Y-93992000D01*
X96047000Y-93996000D01*
X96042000Y-94000000D01*
X96036000Y-94004000D01*
X96031000Y-94007000D01*
X96025000Y-94010000D01*
X96020000Y-94013000D01*
X96014000Y-94015000D01*
X96008000Y-94017000D01*
X96002000Y-94019000D01*
X95996000Y-94020000D01*
X95990000Y-94022000D01*
X95984000Y-94022000D01*
X95977000Y-94023000D01*
X95971000Y-94023000D01*
X95471000Y-94023000D01*
X95465000Y-94023000D01*
X95458000Y-94022000D01*
X95452000Y-94022000D01*
X95446000Y-94020000D01*
X95440000Y-94019000D01*
X95434000Y-94017000D01*
X95428000Y-94015000D01*
X95422000Y-94013000D01*
X95417000Y-94010000D01*
X95411000Y-94007000D01*
X95406000Y-94004000D01*
X95400000Y-94000000D01*
X95395000Y-93996000D01*
X95391000Y-93992000D01*
X95386000Y-93988000D01*
X95382000Y-93983000D01*
X95378000Y-93979000D01*
X95374000Y-93974000D01*
X95370000Y-93968000D01*
X95367000Y-93963000D01*
X95364000Y-93957000D01*
X95361000Y-93952000D01*
X95359000Y-93946000D01*
X95357000Y-93940000D01*
X95355000Y-93934000D01*
X95354000Y-93928000D01*
X95352000Y-93922000D01*
X95352000Y-93916000D01*
X95351000Y-93909000D01*
X95351000Y-93903000D01*
X95351000Y-93753000D01*
X95351000Y-93747000D01*
X95352000Y-93740000D01*
X95352000Y-93734000D01*
X95354000Y-93728000D01*
X95355000Y-93722000D01*
X95357000Y-93716000D01*
X95359000Y-93710000D01*
X95361000Y-93704000D01*
X95364000Y-93699000D01*
X95367000Y-93693000D01*
X95370000Y-93688000D01*
X95374000Y-93682000D01*
X95378000Y-93677000D01*
X95382000Y-93673000D01*
X95386000Y-93668000D01*
X95391000Y-93664000D01*
X95395000Y-93660000D01*
X95400000Y-93656000D01*
X95406000Y-93652000D01*
X95411000Y-93649000D01*
X95417000Y-93646000D01*
X95422000Y-93643000D01*
X95428000Y-93641000D01*
X95434000Y-93639000D01*
X95440000Y-93637000D01*
X95446000Y-93636000D01*
X95452000Y-93634000D01*
X95458000Y-93634000D01*
X95465000Y-93633000D01*
X95471000Y-93633000D01*
X95971000Y-93633000D01*
X95977000Y-93633000D01*
X95984000Y-93634000D01*
G36*
X95984000Y-93634000D02*
G01*
X95990000Y-93634000D01*
X95996000Y-93636000D01*
X96002000Y-93637000D01*
X96008000Y-93639000D01*
X96014000Y-93641000D01*
X96020000Y-93643000D01*
X96025000Y-93646000D01*
X96031000Y-93649000D01*
X96036000Y-93652000D01*
X96042000Y-93656000D01*
X96047000Y-93660000D01*
X96051000Y-93664000D01*
X96056000Y-93668000D01*
X96060000Y-93673000D01*
X96064000Y-93677000D01*
X96068000Y-93682000D01*
X96072000Y-93688000D01*
X96075000Y-93693000D01*
X96078000Y-93699000D01*
X96081000Y-93704000D01*
X96083000Y-93710000D01*
X96085000Y-93716000D01*
X96087000Y-93722000D01*
X96088000Y-93728000D01*
X96090000Y-93734000D01*
X96090000Y-93740000D01*
X96091000Y-93747000D01*
X96091000Y-93753000D01*
X96091000Y-93903000D01*
X96091000Y-93909000D01*
X96090000Y-93916000D01*
X96090000Y-93922000D01*
X96088000Y-93928000D01*
X96087000Y-93934000D01*
X96085000Y-93940000D01*
X96083000Y-93946000D01*
X96081000Y-93952000D01*
X96078000Y-93957000D01*
X96075000Y-93963000D01*
X96072000Y-93968000D01*
X96068000Y-93974000D01*
X96064000Y-93979000D01*
X96060000Y-93983000D01*
X96056000Y-93988000D01*
X96051000Y-93992000D01*
X96047000Y-93996000D01*
X96042000Y-94000000D01*
X96036000Y-94004000D01*
X96031000Y-94007000D01*
X96025000Y-94010000D01*
X96020000Y-94013000D01*
X96014000Y-94015000D01*
X96008000Y-94017000D01*
X96002000Y-94019000D01*
X95996000Y-94020000D01*
X95990000Y-94022000D01*
X95984000Y-94022000D01*
X95977000Y-94023000D01*
X95971000Y-94023000D01*
X95471000Y-94023000D01*
X95465000Y-94023000D01*
X95458000Y-94022000D01*
X95452000Y-94022000D01*
X95446000Y-94020000D01*
X95440000Y-94019000D01*
X95434000Y-94017000D01*
X95428000Y-94015000D01*
X95422000Y-94013000D01*
X95417000Y-94010000D01*
X95411000Y-94007000D01*
X95406000Y-94004000D01*
X95400000Y-94000000D01*
X95395000Y-93996000D01*
X95391000Y-93992000D01*
X95386000Y-93988000D01*
X95382000Y-93983000D01*
X95378000Y-93979000D01*
X95374000Y-93974000D01*
X95370000Y-93968000D01*
X95367000Y-93963000D01*
X95364000Y-93957000D01*
X95361000Y-93952000D01*
X95359000Y-93946000D01*
X95357000Y-93940000D01*
X95355000Y-93934000D01*
X95354000Y-93928000D01*
X95352000Y-93922000D01*
X95352000Y-93916000D01*
X95351000Y-93909000D01*
X95351000Y-93903000D01*
X95351000Y-93753000D01*
X95351000Y-93747000D01*
X95352000Y-93740000D01*
X95352000Y-93734000D01*
X95354000Y-93728000D01*
X95355000Y-93722000D01*
X95357000Y-93716000D01*
X95359000Y-93710000D01*
X95361000Y-93704000D01*
X95364000Y-93699000D01*
X95367000Y-93693000D01*
X95370000Y-93688000D01*
X95374000Y-93682000D01*
X95378000Y-93677000D01*
X95382000Y-93673000D01*
X95386000Y-93668000D01*
X95391000Y-93664000D01*
X95395000Y-93660000D01*
X95400000Y-93656000D01*
X95406000Y-93652000D01*
X95411000Y-93649000D01*
X95417000Y-93646000D01*
X95422000Y-93643000D01*
X95428000Y-93641000D01*
X95434000Y-93639000D01*
X95440000Y-93637000D01*
X95446000Y-93636000D01*
X95452000Y-93634000D01*
X95458000Y-93634000D01*
X95465000Y-93633000D01*
X95471000Y-93633000D01*
X95971000Y-93633000D01*
X95977000Y-93633000D01*
X95984000Y-93634000D01*
G37*
X96169000Y-91809000D02*
X96175000Y-91809000D01*
X96181000Y-91811000D01*
X96187000Y-91812000D01*
X96193000Y-91814000D01*
X96199000Y-91816000D01*
X96205000Y-91818000D01*
X96210000Y-91821000D01*
X96216000Y-91824000D01*
X96221000Y-91827000D01*
X96227000Y-91831000D01*
X96232000Y-91835000D01*
X96236000Y-91839000D01*
X96241000Y-91843000D01*
X96245000Y-91848000D01*
X96249000Y-91852000D01*
X96253000Y-91857000D01*
X96257000Y-91863000D01*
X96260000Y-91868000D01*
X96263000Y-91874000D01*
X96266000Y-91879000D01*
X96268000Y-91885000D01*
X96270000Y-91891000D01*
X96272000Y-91897000D01*
X96273000Y-91903000D01*
X96275000Y-91909000D01*
X96275000Y-91915000D01*
X96276000Y-91922000D01*
X96276000Y-91928000D01*
X96276000Y-92478000D01*
X96276000Y-92484000D01*
X96275000Y-92491000D01*
X96275000Y-92497000D01*
X96273000Y-92503000D01*
X96272000Y-92509000D01*
X96270000Y-92515000D01*
X96268000Y-92521000D01*
X96266000Y-92527000D01*
X96263000Y-92532000D01*
X96260000Y-92538000D01*
X96257000Y-92543000D01*
X96253000Y-92549000D01*
X96249000Y-92554000D01*
X96245000Y-92558000D01*
X96241000Y-92563000D01*
X96236000Y-92567000D01*
X96232000Y-92571000D01*
X96227000Y-92575000D01*
X96221000Y-92579000D01*
X96216000Y-92582000D01*
X96210000Y-92585000D01*
X96205000Y-92588000D01*
X96199000Y-92590000D01*
X96193000Y-92592000D01*
X96187000Y-92594000D01*
X96181000Y-92595000D01*
X96175000Y-92597000D01*
X96169000Y-92597000D01*
X96162000Y-92598000D01*
X96156000Y-92598000D01*
X96006000Y-92598000D01*
X96000000Y-92598000D01*
X95993000Y-92597000D01*
X95987000Y-92597000D01*
X95981000Y-92595000D01*
X95975000Y-92594000D01*
X95969000Y-92592000D01*
X95963000Y-92590000D01*
X95957000Y-92588000D01*
X95952000Y-92585000D01*
X95946000Y-92582000D01*
X95941000Y-92579000D01*
X95935000Y-92575000D01*
X95930000Y-92571000D01*
X95926000Y-92567000D01*
X95921000Y-92563000D01*
X95917000Y-92558000D01*
X95913000Y-92554000D01*
X95909000Y-92549000D01*
X95905000Y-92543000D01*
X95902000Y-92538000D01*
X95899000Y-92532000D01*
X95896000Y-92527000D01*
X95894000Y-92521000D01*
X95892000Y-92515000D01*
X95890000Y-92509000D01*
X95889000Y-92503000D01*
X95887000Y-92497000D01*
X95887000Y-92491000D01*
X95886000Y-92484000D01*
X95886000Y-92478000D01*
X95886000Y-91928000D01*
X95886000Y-91922000D01*
X95887000Y-91915000D01*
X95887000Y-91909000D01*
X95889000Y-91903000D01*
X95890000Y-91897000D01*
X95892000Y-91891000D01*
X95894000Y-91885000D01*
X95896000Y-91879000D01*
X95899000Y-91874000D01*
X95902000Y-91868000D01*
X95905000Y-91863000D01*
X95909000Y-91857000D01*
X95913000Y-91852000D01*
X95917000Y-91848000D01*
X95921000Y-91843000D01*
X95926000Y-91839000D01*
X95930000Y-91835000D01*
X95935000Y-91831000D01*
X95941000Y-91827000D01*
X95946000Y-91824000D01*
X95952000Y-91821000D01*
X95957000Y-91818000D01*
X95963000Y-91816000D01*
X95969000Y-91814000D01*
X95975000Y-91812000D01*
X95981000Y-91811000D01*
X95987000Y-91809000D01*
X95993000Y-91809000D01*
X96000000Y-91808000D01*
X96006000Y-91808000D01*
X96156000Y-91808000D01*
X96162000Y-91808000D01*
X96169000Y-91809000D01*
G36*
X96169000Y-91809000D02*
G01*
X96175000Y-91809000D01*
X96181000Y-91811000D01*
X96187000Y-91812000D01*
X96193000Y-91814000D01*
X96199000Y-91816000D01*
X96205000Y-91818000D01*
X96210000Y-91821000D01*
X96216000Y-91824000D01*
X96221000Y-91827000D01*
X96227000Y-91831000D01*
X96232000Y-91835000D01*
X96236000Y-91839000D01*
X96241000Y-91843000D01*
X96245000Y-91848000D01*
X96249000Y-91852000D01*
X96253000Y-91857000D01*
X96257000Y-91863000D01*
X96260000Y-91868000D01*
X96263000Y-91874000D01*
X96266000Y-91879000D01*
X96268000Y-91885000D01*
X96270000Y-91891000D01*
X96272000Y-91897000D01*
X96273000Y-91903000D01*
X96275000Y-91909000D01*
X96275000Y-91915000D01*
X96276000Y-91922000D01*
X96276000Y-91928000D01*
X96276000Y-92478000D01*
X96276000Y-92484000D01*
X96275000Y-92491000D01*
X96275000Y-92497000D01*
X96273000Y-92503000D01*
X96272000Y-92509000D01*
X96270000Y-92515000D01*
X96268000Y-92521000D01*
X96266000Y-92527000D01*
X96263000Y-92532000D01*
X96260000Y-92538000D01*
X96257000Y-92543000D01*
X96253000Y-92549000D01*
X96249000Y-92554000D01*
X96245000Y-92558000D01*
X96241000Y-92563000D01*
X96236000Y-92567000D01*
X96232000Y-92571000D01*
X96227000Y-92575000D01*
X96221000Y-92579000D01*
X96216000Y-92582000D01*
X96210000Y-92585000D01*
X96205000Y-92588000D01*
X96199000Y-92590000D01*
X96193000Y-92592000D01*
X96187000Y-92594000D01*
X96181000Y-92595000D01*
X96175000Y-92597000D01*
X96169000Y-92597000D01*
X96162000Y-92598000D01*
X96156000Y-92598000D01*
X96006000Y-92598000D01*
X96000000Y-92598000D01*
X95993000Y-92597000D01*
X95987000Y-92597000D01*
X95981000Y-92595000D01*
X95975000Y-92594000D01*
X95969000Y-92592000D01*
X95963000Y-92590000D01*
X95957000Y-92588000D01*
X95952000Y-92585000D01*
X95946000Y-92582000D01*
X95941000Y-92579000D01*
X95935000Y-92575000D01*
X95930000Y-92571000D01*
X95926000Y-92567000D01*
X95921000Y-92563000D01*
X95917000Y-92558000D01*
X95913000Y-92554000D01*
X95909000Y-92549000D01*
X95905000Y-92543000D01*
X95902000Y-92538000D01*
X95899000Y-92532000D01*
X95896000Y-92527000D01*
X95894000Y-92521000D01*
X95892000Y-92515000D01*
X95890000Y-92509000D01*
X95889000Y-92503000D01*
X95887000Y-92497000D01*
X95887000Y-92491000D01*
X95886000Y-92484000D01*
X95886000Y-92478000D01*
X95886000Y-91928000D01*
X95886000Y-91922000D01*
X95887000Y-91915000D01*
X95887000Y-91909000D01*
X95889000Y-91903000D01*
X95890000Y-91897000D01*
X95892000Y-91891000D01*
X95894000Y-91885000D01*
X95896000Y-91879000D01*
X95899000Y-91874000D01*
X95902000Y-91868000D01*
X95905000Y-91863000D01*
X95909000Y-91857000D01*
X95913000Y-91852000D01*
X95917000Y-91848000D01*
X95921000Y-91843000D01*
X95926000Y-91839000D01*
X95930000Y-91835000D01*
X95935000Y-91831000D01*
X95941000Y-91827000D01*
X95946000Y-91824000D01*
X95952000Y-91821000D01*
X95957000Y-91818000D01*
X95963000Y-91816000D01*
X95969000Y-91814000D01*
X95975000Y-91812000D01*
X95981000Y-91811000D01*
X95987000Y-91809000D01*
X95993000Y-91809000D01*
X96000000Y-91808000D01*
X96006000Y-91808000D01*
X96156000Y-91808000D01*
X96162000Y-91808000D01*
X96169000Y-91809000D01*
G37*
X96169000Y-94559000D02*
X96175000Y-94559000D01*
X96181000Y-94561000D01*
X96187000Y-94562000D01*
X96193000Y-94564000D01*
X96199000Y-94566000D01*
X96205000Y-94568000D01*
X96210000Y-94571000D01*
X96216000Y-94574000D01*
X96221000Y-94577000D01*
X96227000Y-94581000D01*
X96232000Y-94585000D01*
X96236000Y-94589000D01*
X96241000Y-94593000D01*
X96245000Y-94598000D01*
X96249000Y-94602000D01*
X96253000Y-94607000D01*
X96257000Y-94613000D01*
X96260000Y-94618000D01*
X96263000Y-94624000D01*
X96266000Y-94629000D01*
X96268000Y-94635000D01*
X96270000Y-94641000D01*
X96272000Y-94647000D01*
X96273000Y-94653000D01*
X96275000Y-94659000D01*
X96275000Y-94665000D01*
X96276000Y-94672000D01*
X96276000Y-94678000D01*
X96276000Y-95228000D01*
X96276000Y-95234000D01*
X96275000Y-95241000D01*
X96275000Y-95247000D01*
X96273000Y-95253000D01*
X96272000Y-95259000D01*
X96270000Y-95265000D01*
X96268000Y-95271000D01*
X96266000Y-95277000D01*
X96263000Y-95282000D01*
X96260000Y-95288000D01*
X96257000Y-95293000D01*
X96253000Y-95299000D01*
X96249000Y-95304000D01*
X96245000Y-95308000D01*
X96241000Y-95313000D01*
X96236000Y-95317000D01*
X96232000Y-95321000D01*
X96227000Y-95325000D01*
X96221000Y-95329000D01*
X96216000Y-95332000D01*
X96210000Y-95335000D01*
X96205000Y-95338000D01*
X96199000Y-95340000D01*
X96193000Y-95342000D01*
X96187000Y-95344000D01*
X96181000Y-95345000D01*
X96175000Y-95347000D01*
X96169000Y-95347000D01*
X96162000Y-95348000D01*
X96156000Y-95348000D01*
X96006000Y-95348000D01*
X96000000Y-95348000D01*
X95993000Y-95347000D01*
X95987000Y-95347000D01*
X95981000Y-95345000D01*
X95975000Y-95344000D01*
X95969000Y-95342000D01*
X95963000Y-95340000D01*
X95957000Y-95338000D01*
X95952000Y-95335000D01*
X95946000Y-95332000D01*
X95941000Y-95329000D01*
X95935000Y-95325000D01*
X95930000Y-95321000D01*
X95926000Y-95317000D01*
X95921000Y-95313000D01*
X95917000Y-95308000D01*
X95913000Y-95304000D01*
X95909000Y-95299000D01*
X95905000Y-95293000D01*
X95902000Y-95288000D01*
X95899000Y-95282000D01*
X95896000Y-95277000D01*
X95894000Y-95271000D01*
X95892000Y-95265000D01*
X95890000Y-95259000D01*
X95889000Y-95253000D01*
X95887000Y-95247000D01*
X95887000Y-95241000D01*
X95886000Y-95234000D01*
X95886000Y-95228000D01*
X95886000Y-94678000D01*
X95886000Y-94672000D01*
X95887000Y-94665000D01*
X95887000Y-94659000D01*
X95889000Y-94653000D01*
X95890000Y-94647000D01*
X95892000Y-94641000D01*
X95894000Y-94635000D01*
X95896000Y-94629000D01*
X95899000Y-94624000D01*
X95902000Y-94618000D01*
X95905000Y-94613000D01*
X95909000Y-94607000D01*
X95913000Y-94602000D01*
X95917000Y-94598000D01*
X95921000Y-94593000D01*
X95926000Y-94589000D01*
X95930000Y-94585000D01*
X95935000Y-94581000D01*
X95941000Y-94577000D01*
X95946000Y-94574000D01*
X95952000Y-94571000D01*
X95957000Y-94568000D01*
X95963000Y-94566000D01*
X95969000Y-94564000D01*
X95975000Y-94562000D01*
X95981000Y-94561000D01*
X95987000Y-94559000D01*
X95993000Y-94559000D01*
X96000000Y-94558000D01*
X96006000Y-94558000D01*
X96156000Y-94558000D01*
X96162000Y-94558000D01*
X96169000Y-94559000D01*
G36*
X96169000Y-94559000D02*
G01*
X96175000Y-94559000D01*
X96181000Y-94561000D01*
X96187000Y-94562000D01*
X96193000Y-94564000D01*
X96199000Y-94566000D01*
X96205000Y-94568000D01*
X96210000Y-94571000D01*
X96216000Y-94574000D01*
X96221000Y-94577000D01*
X96227000Y-94581000D01*
X96232000Y-94585000D01*
X96236000Y-94589000D01*
X96241000Y-94593000D01*
X96245000Y-94598000D01*
X96249000Y-94602000D01*
X96253000Y-94607000D01*
X96257000Y-94613000D01*
X96260000Y-94618000D01*
X96263000Y-94624000D01*
X96266000Y-94629000D01*
X96268000Y-94635000D01*
X96270000Y-94641000D01*
X96272000Y-94647000D01*
X96273000Y-94653000D01*
X96275000Y-94659000D01*
X96275000Y-94665000D01*
X96276000Y-94672000D01*
X96276000Y-94678000D01*
X96276000Y-95228000D01*
X96276000Y-95234000D01*
X96275000Y-95241000D01*
X96275000Y-95247000D01*
X96273000Y-95253000D01*
X96272000Y-95259000D01*
X96270000Y-95265000D01*
X96268000Y-95271000D01*
X96266000Y-95277000D01*
X96263000Y-95282000D01*
X96260000Y-95288000D01*
X96257000Y-95293000D01*
X96253000Y-95299000D01*
X96249000Y-95304000D01*
X96245000Y-95308000D01*
X96241000Y-95313000D01*
X96236000Y-95317000D01*
X96232000Y-95321000D01*
X96227000Y-95325000D01*
X96221000Y-95329000D01*
X96216000Y-95332000D01*
X96210000Y-95335000D01*
X96205000Y-95338000D01*
X96199000Y-95340000D01*
X96193000Y-95342000D01*
X96187000Y-95344000D01*
X96181000Y-95345000D01*
X96175000Y-95347000D01*
X96169000Y-95347000D01*
X96162000Y-95348000D01*
X96156000Y-95348000D01*
X96006000Y-95348000D01*
X96000000Y-95348000D01*
X95993000Y-95347000D01*
X95987000Y-95347000D01*
X95981000Y-95345000D01*
X95975000Y-95344000D01*
X95969000Y-95342000D01*
X95963000Y-95340000D01*
X95957000Y-95338000D01*
X95952000Y-95335000D01*
X95946000Y-95332000D01*
X95941000Y-95329000D01*
X95935000Y-95325000D01*
X95930000Y-95321000D01*
X95926000Y-95317000D01*
X95921000Y-95313000D01*
X95917000Y-95308000D01*
X95913000Y-95304000D01*
X95909000Y-95299000D01*
X95905000Y-95293000D01*
X95902000Y-95288000D01*
X95899000Y-95282000D01*
X95896000Y-95277000D01*
X95894000Y-95271000D01*
X95892000Y-95265000D01*
X95890000Y-95259000D01*
X95889000Y-95253000D01*
X95887000Y-95247000D01*
X95887000Y-95241000D01*
X95886000Y-95234000D01*
X95886000Y-95228000D01*
X95886000Y-94678000D01*
X95886000Y-94672000D01*
X95887000Y-94665000D01*
X95887000Y-94659000D01*
X95889000Y-94653000D01*
X95890000Y-94647000D01*
X95892000Y-94641000D01*
X95894000Y-94635000D01*
X95896000Y-94629000D01*
X95899000Y-94624000D01*
X95902000Y-94618000D01*
X95905000Y-94613000D01*
X95909000Y-94607000D01*
X95913000Y-94602000D01*
X95917000Y-94598000D01*
X95921000Y-94593000D01*
X95926000Y-94589000D01*
X95930000Y-94585000D01*
X95935000Y-94581000D01*
X95941000Y-94577000D01*
X95946000Y-94574000D01*
X95952000Y-94571000D01*
X95957000Y-94568000D01*
X95963000Y-94566000D01*
X95969000Y-94564000D01*
X95975000Y-94562000D01*
X95981000Y-94561000D01*
X95987000Y-94559000D01*
X95993000Y-94559000D01*
X96000000Y-94558000D01*
X96006000Y-94558000D01*
X96156000Y-94558000D01*
X96162000Y-94558000D01*
X96169000Y-94559000D01*
G37*
X95984000Y-93134000D02*
X95990000Y-93134000D01*
X95996000Y-93136000D01*
X96002000Y-93137000D01*
X96008000Y-93139000D01*
X96014000Y-93141000D01*
X96020000Y-93143000D01*
X96025000Y-93146000D01*
X96031000Y-93149000D01*
X96036000Y-93152000D01*
X96042000Y-93156000D01*
X96047000Y-93160000D01*
X96051000Y-93164000D01*
X96056000Y-93168000D01*
X96060000Y-93173000D01*
X96064000Y-93177000D01*
X96068000Y-93182000D01*
X96072000Y-93188000D01*
X96075000Y-93193000D01*
X96078000Y-93199000D01*
X96081000Y-93204000D01*
X96083000Y-93210000D01*
X96085000Y-93216000D01*
X96087000Y-93222000D01*
X96088000Y-93228000D01*
X96090000Y-93234000D01*
X96090000Y-93240000D01*
X96091000Y-93247000D01*
X96091000Y-93253000D01*
X96091000Y-93403000D01*
X96091000Y-93409000D01*
X96090000Y-93416000D01*
X96090000Y-93422000D01*
X96088000Y-93428000D01*
X96087000Y-93434000D01*
X96085000Y-93440000D01*
X96083000Y-93446000D01*
X96081000Y-93452000D01*
X96078000Y-93457000D01*
X96075000Y-93463000D01*
X96072000Y-93468000D01*
X96068000Y-93474000D01*
X96064000Y-93479000D01*
X96060000Y-93483000D01*
X96056000Y-93488000D01*
X96051000Y-93492000D01*
X96047000Y-93496000D01*
X96042000Y-93500000D01*
X96036000Y-93504000D01*
X96031000Y-93507000D01*
X96025000Y-93510000D01*
X96020000Y-93513000D01*
X96014000Y-93515000D01*
X96008000Y-93517000D01*
X96002000Y-93519000D01*
X95996000Y-93520000D01*
X95990000Y-93522000D01*
X95984000Y-93522000D01*
X95977000Y-93523000D01*
X95971000Y-93523000D01*
X95471000Y-93523000D01*
X95465000Y-93523000D01*
X95458000Y-93522000D01*
X95452000Y-93522000D01*
X95446000Y-93520000D01*
X95440000Y-93519000D01*
X95434000Y-93517000D01*
X95428000Y-93515000D01*
X95422000Y-93513000D01*
X95417000Y-93510000D01*
X95411000Y-93507000D01*
X95406000Y-93504000D01*
X95400000Y-93500000D01*
X95395000Y-93496000D01*
X95391000Y-93492000D01*
X95386000Y-93488000D01*
X95382000Y-93483000D01*
X95378000Y-93479000D01*
X95374000Y-93474000D01*
X95370000Y-93468000D01*
X95367000Y-93463000D01*
X95364000Y-93457000D01*
X95361000Y-93452000D01*
X95359000Y-93446000D01*
X95357000Y-93440000D01*
X95355000Y-93434000D01*
X95354000Y-93428000D01*
X95352000Y-93422000D01*
X95352000Y-93416000D01*
X95351000Y-93409000D01*
X95351000Y-93403000D01*
X95351000Y-93253000D01*
X95351000Y-93247000D01*
X95352000Y-93240000D01*
X95352000Y-93234000D01*
X95354000Y-93228000D01*
X95355000Y-93222000D01*
X95357000Y-93216000D01*
X95359000Y-93210000D01*
X95361000Y-93204000D01*
X95364000Y-93199000D01*
X95367000Y-93193000D01*
X95370000Y-93188000D01*
X95374000Y-93182000D01*
X95378000Y-93177000D01*
X95382000Y-93173000D01*
X95386000Y-93168000D01*
X95391000Y-93164000D01*
X95395000Y-93160000D01*
X95400000Y-93156000D01*
X95406000Y-93152000D01*
X95411000Y-93149000D01*
X95417000Y-93146000D01*
X95422000Y-93143000D01*
X95428000Y-93141000D01*
X95434000Y-93139000D01*
X95440000Y-93137000D01*
X95446000Y-93136000D01*
X95452000Y-93134000D01*
X95458000Y-93134000D01*
X95465000Y-93133000D01*
X95471000Y-93133000D01*
X95971000Y-93133000D01*
X95977000Y-93133000D01*
X95984000Y-93134000D01*
G36*
X95984000Y-93134000D02*
G01*
X95990000Y-93134000D01*
X95996000Y-93136000D01*
X96002000Y-93137000D01*
X96008000Y-93139000D01*
X96014000Y-93141000D01*
X96020000Y-93143000D01*
X96025000Y-93146000D01*
X96031000Y-93149000D01*
X96036000Y-93152000D01*
X96042000Y-93156000D01*
X96047000Y-93160000D01*
X96051000Y-93164000D01*
X96056000Y-93168000D01*
X96060000Y-93173000D01*
X96064000Y-93177000D01*
X96068000Y-93182000D01*
X96072000Y-93188000D01*
X96075000Y-93193000D01*
X96078000Y-93199000D01*
X96081000Y-93204000D01*
X96083000Y-93210000D01*
X96085000Y-93216000D01*
X96087000Y-93222000D01*
X96088000Y-93228000D01*
X96090000Y-93234000D01*
X96090000Y-93240000D01*
X96091000Y-93247000D01*
X96091000Y-93253000D01*
X96091000Y-93403000D01*
X96091000Y-93409000D01*
X96090000Y-93416000D01*
X96090000Y-93422000D01*
X96088000Y-93428000D01*
X96087000Y-93434000D01*
X96085000Y-93440000D01*
X96083000Y-93446000D01*
X96081000Y-93452000D01*
X96078000Y-93457000D01*
X96075000Y-93463000D01*
X96072000Y-93468000D01*
X96068000Y-93474000D01*
X96064000Y-93479000D01*
X96060000Y-93483000D01*
X96056000Y-93488000D01*
X96051000Y-93492000D01*
X96047000Y-93496000D01*
X96042000Y-93500000D01*
X96036000Y-93504000D01*
X96031000Y-93507000D01*
X96025000Y-93510000D01*
X96020000Y-93513000D01*
X96014000Y-93515000D01*
X96008000Y-93517000D01*
X96002000Y-93519000D01*
X95996000Y-93520000D01*
X95990000Y-93522000D01*
X95984000Y-93522000D01*
X95977000Y-93523000D01*
X95971000Y-93523000D01*
X95471000Y-93523000D01*
X95465000Y-93523000D01*
X95458000Y-93522000D01*
X95452000Y-93522000D01*
X95446000Y-93520000D01*
X95440000Y-93519000D01*
X95434000Y-93517000D01*
X95428000Y-93515000D01*
X95422000Y-93513000D01*
X95417000Y-93510000D01*
X95411000Y-93507000D01*
X95406000Y-93504000D01*
X95400000Y-93500000D01*
X95395000Y-93496000D01*
X95391000Y-93492000D01*
X95386000Y-93488000D01*
X95382000Y-93483000D01*
X95378000Y-93479000D01*
X95374000Y-93474000D01*
X95370000Y-93468000D01*
X95367000Y-93463000D01*
X95364000Y-93457000D01*
X95361000Y-93452000D01*
X95359000Y-93446000D01*
X95357000Y-93440000D01*
X95355000Y-93434000D01*
X95354000Y-93428000D01*
X95352000Y-93422000D01*
X95352000Y-93416000D01*
X95351000Y-93409000D01*
X95351000Y-93403000D01*
X95351000Y-93253000D01*
X95351000Y-93247000D01*
X95352000Y-93240000D01*
X95352000Y-93234000D01*
X95354000Y-93228000D01*
X95355000Y-93222000D01*
X95357000Y-93216000D01*
X95359000Y-93210000D01*
X95361000Y-93204000D01*
X95364000Y-93199000D01*
X95367000Y-93193000D01*
X95370000Y-93188000D01*
X95374000Y-93182000D01*
X95378000Y-93177000D01*
X95382000Y-93173000D01*
X95386000Y-93168000D01*
X95391000Y-93164000D01*
X95395000Y-93160000D01*
X95400000Y-93156000D01*
X95406000Y-93152000D01*
X95411000Y-93149000D01*
X95417000Y-93146000D01*
X95422000Y-93143000D01*
X95428000Y-93141000D01*
X95434000Y-93139000D01*
X95440000Y-93137000D01*
X95446000Y-93136000D01*
X95452000Y-93134000D01*
X95458000Y-93134000D01*
X95465000Y-93133000D01*
X95471000Y-93133000D01*
X95971000Y-93133000D01*
X95977000Y-93133000D01*
X95984000Y-93134000D01*
G37*
X96669000Y-91809000D02*
X96675000Y-91809000D01*
X96681000Y-91811000D01*
X96687000Y-91812000D01*
X96693000Y-91814000D01*
X96699000Y-91816000D01*
X96705000Y-91818000D01*
X96710000Y-91821000D01*
X96716000Y-91824000D01*
X96721000Y-91827000D01*
X96727000Y-91831000D01*
X96732000Y-91835000D01*
X96736000Y-91839000D01*
X96741000Y-91843000D01*
X96745000Y-91848000D01*
X96749000Y-91852000D01*
X96753000Y-91857000D01*
X96757000Y-91863000D01*
X96760000Y-91868000D01*
X96763000Y-91874000D01*
X96766000Y-91879000D01*
X96768000Y-91885000D01*
X96770000Y-91891000D01*
X96772000Y-91897000D01*
X96773000Y-91903000D01*
X96775000Y-91909000D01*
X96775000Y-91915000D01*
X96776000Y-91922000D01*
X96776000Y-91928000D01*
X96776000Y-92428000D01*
X96776000Y-92434000D01*
X96775000Y-92441000D01*
X96775000Y-92447000D01*
X96773000Y-92453000D01*
X96772000Y-92459000D01*
X96770000Y-92465000D01*
X96768000Y-92471000D01*
X96766000Y-92477000D01*
X96763000Y-92482000D01*
X96760000Y-92488000D01*
X96757000Y-92493000D01*
X96753000Y-92499000D01*
X96749000Y-92504000D01*
X96745000Y-92508000D01*
X96741000Y-92513000D01*
X96736000Y-92517000D01*
X96732000Y-92521000D01*
X96727000Y-92525000D01*
X96721000Y-92529000D01*
X96716000Y-92532000D01*
X96710000Y-92535000D01*
X96705000Y-92538000D01*
X96699000Y-92540000D01*
X96693000Y-92542000D01*
X96687000Y-92544000D01*
X96681000Y-92545000D01*
X96675000Y-92547000D01*
X96669000Y-92547000D01*
X96662000Y-92548000D01*
X96656000Y-92548000D01*
X96506000Y-92548000D01*
X96500000Y-92548000D01*
X96493000Y-92547000D01*
X96487000Y-92547000D01*
X96481000Y-92545000D01*
X96475000Y-92544000D01*
X96469000Y-92542000D01*
X96463000Y-92540000D01*
X96457000Y-92538000D01*
X96452000Y-92535000D01*
X96446000Y-92532000D01*
X96441000Y-92529000D01*
X96435000Y-92525000D01*
X96430000Y-92521000D01*
X96426000Y-92517000D01*
X96421000Y-92513000D01*
X96417000Y-92508000D01*
X96413000Y-92504000D01*
X96409000Y-92499000D01*
X96405000Y-92493000D01*
X96402000Y-92488000D01*
X96399000Y-92482000D01*
X96396000Y-92477000D01*
X96394000Y-92471000D01*
X96392000Y-92465000D01*
X96390000Y-92459000D01*
X96389000Y-92453000D01*
X96387000Y-92447000D01*
X96387000Y-92441000D01*
X96386000Y-92434000D01*
X96386000Y-92428000D01*
X96386000Y-91928000D01*
X96386000Y-91922000D01*
X96387000Y-91915000D01*
X96387000Y-91909000D01*
X96389000Y-91903000D01*
X96390000Y-91897000D01*
X96392000Y-91891000D01*
X96394000Y-91885000D01*
X96396000Y-91879000D01*
X96399000Y-91874000D01*
X96402000Y-91868000D01*
X96405000Y-91863000D01*
X96409000Y-91857000D01*
X96413000Y-91852000D01*
X96417000Y-91848000D01*
X96421000Y-91843000D01*
X96426000Y-91839000D01*
X96430000Y-91835000D01*
X96435000Y-91831000D01*
X96441000Y-91827000D01*
X96446000Y-91824000D01*
X96452000Y-91821000D01*
X96457000Y-91818000D01*
X96463000Y-91816000D01*
X96469000Y-91814000D01*
X96475000Y-91812000D01*
X96481000Y-91811000D01*
X96487000Y-91809000D01*
X96493000Y-91809000D01*
X96500000Y-91808000D01*
X96506000Y-91808000D01*
X96656000Y-91808000D01*
X96662000Y-91808000D01*
X96669000Y-91809000D01*
G36*
X96669000Y-91809000D02*
G01*
X96675000Y-91809000D01*
X96681000Y-91811000D01*
X96687000Y-91812000D01*
X96693000Y-91814000D01*
X96699000Y-91816000D01*
X96705000Y-91818000D01*
X96710000Y-91821000D01*
X96716000Y-91824000D01*
X96721000Y-91827000D01*
X96727000Y-91831000D01*
X96732000Y-91835000D01*
X96736000Y-91839000D01*
X96741000Y-91843000D01*
X96745000Y-91848000D01*
X96749000Y-91852000D01*
X96753000Y-91857000D01*
X96757000Y-91863000D01*
X96760000Y-91868000D01*
X96763000Y-91874000D01*
X96766000Y-91879000D01*
X96768000Y-91885000D01*
X96770000Y-91891000D01*
X96772000Y-91897000D01*
X96773000Y-91903000D01*
X96775000Y-91909000D01*
X96775000Y-91915000D01*
X96776000Y-91922000D01*
X96776000Y-91928000D01*
X96776000Y-92428000D01*
X96776000Y-92434000D01*
X96775000Y-92441000D01*
X96775000Y-92447000D01*
X96773000Y-92453000D01*
X96772000Y-92459000D01*
X96770000Y-92465000D01*
X96768000Y-92471000D01*
X96766000Y-92477000D01*
X96763000Y-92482000D01*
X96760000Y-92488000D01*
X96757000Y-92493000D01*
X96753000Y-92499000D01*
X96749000Y-92504000D01*
X96745000Y-92508000D01*
X96741000Y-92513000D01*
X96736000Y-92517000D01*
X96732000Y-92521000D01*
X96727000Y-92525000D01*
X96721000Y-92529000D01*
X96716000Y-92532000D01*
X96710000Y-92535000D01*
X96705000Y-92538000D01*
X96699000Y-92540000D01*
X96693000Y-92542000D01*
X96687000Y-92544000D01*
X96681000Y-92545000D01*
X96675000Y-92547000D01*
X96669000Y-92547000D01*
X96662000Y-92548000D01*
X96656000Y-92548000D01*
X96506000Y-92548000D01*
X96500000Y-92548000D01*
X96493000Y-92547000D01*
X96487000Y-92547000D01*
X96481000Y-92545000D01*
X96475000Y-92544000D01*
X96469000Y-92542000D01*
X96463000Y-92540000D01*
X96457000Y-92538000D01*
X96452000Y-92535000D01*
X96446000Y-92532000D01*
X96441000Y-92529000D01*
X96435000Y-92525000D01*
X96430000Y-92521000D01*
X96426000Y-92517000D01*
X96421000Y-92513000D01*
X96417000Y-92508000D01*
X96413000Y-92504000D01*
X96409000Y-92499000D01*
X96405000Y-92493000D01*
X96402000Y-92488000D01*
X96399000Y-92482000D01*
X96396000Y-92477000D01*
X96394000Y-92471000D01*
X96392000Y-92465000D01*
X96390000Y-92459000D01*
X96389000Y-92453000D01*
X96387000Y-92447000D01*
X96387000Y-92441000D01*
X96386000Y-92434000D01*
X96386000Y-92428000D01*
X96386000Y-91928000D01*
X96386000Y-91922000D01*
X96387000Y-91915000D01*
X96387000Y-91909000D01*
X96389000Y-91903000D01*
X96390000Y-91897000D01*
X96392000Y-91891000D01*
X96394000Y-91885000D01*
X96396000Y-91879000D01*
X96399000Y-91874000D01*
X96402000Y-91868000D01*
X96405000Y-91863000D01*
X96409000Y-91857000D01*
X96413000Y-91852000D01*
X96417000Y-91848000D01*
X96421000Y-91843000D01*
X96426000Y-91839000D01*
X96430000Y-91835000D01*
X96435000Y-91831000D01*
X96441000Y-91827000D01*
X96446000Y-91824000D01*
X96452000Y-91821000D01*
X96457000Y-91818000D01*
X96463000Y-91816000D01*
X96469000Y-91814000D01*
X96475000Y-91812000D01*
X96481000Y-91811000D01*
X96487000Y-91809000D01*
X96493000Y-91809000D01*
X96500000Y-91808000D01*
X96506000Y-91808000D01*
X96656000Y-91808000D01*
X96662000Y-91808000D01*
X96669000Y-91809000D01*
G37*
X96669000Y-94609000D02*
X96675000Y-94609000D01*
X96681000Y-94611000D01*
X96687000Y-94612000D01*
X96693000Y-94614000D01*
X96699000Y-94616000D01*
X96705000Y-94618000D01*
X96710000Y-94621000D01*
X96716000Y-94624000D01*
X96721000Y-94627000D01*
X96727000Y-94631000D01*
X96732000Y-94635000D01*
X96736000Y-94639000D01*
X96741000Y-94643000D01*
X96745000Y-94648000D01*
X96749000Y-94652000D01*
X96753000Y-94657000D01*
X96757000Y-94663000D01*
X96760000Y-94668000D01*
X96763000Y-94674000D01*
X96766000Y-94679000D01*
X96768000Y-94685000D01*
X96770000Y-94691000D01*
X96772000Y-94697000D01*
X96773000Y-94703000D01*
X96775000Y-94709000D01*
X96775000Y-94715000D01*
X96776000Y-94722000D01*
X96776000Y-94728000D01*
X96776000Y-95228000D01*
X96776000Y-95234000D01*
X96775000Y-95241000D01*
X96775000Y-95247000D01*
X96773000Y-95253000D01*
X96772000Y-95259000D01*
X96770000Y-95265000D01*
X96768000Y-95271000D01*
X96766000Y-95277000D01*
X96763000Y-95282000D01*
X96760000Y-95288000D01*
X96757000Y-95293000D01*
X96753000Y-95299000D01*
X96749000Y-95304000D01*
X96745000Y-95308000D01*
X96741000Y-95313000D01*
X96736000Y-95317000D01*
X96732000Y-95321000D01*
X96727000Y-95325000D01*
X96721000Y-95329000D01*
X96716000Y-95332000D01*
X96710000Y-95335000D01*
X96705000Y-95338000D01*
X96699000Y-95340000D01*
X96693000Y-95342000D01*
X96687000Y-95344000D01*
X96681000Y-95345000D01*
X96675000Y-95347000D01*
X96669000Y-95347000D01*
X96662000Y-95348000D01*
X96656000Y-95348000D01*
X96506000Y-95348000D01*
X96500000Y-95348000D01*
X96493000Y-95347000D01*
X96487000Y-95347000D01*
X96481000Y-95345000D01*
X96475000Y-95344000D01*
X96469000Y-95342000D01*
X96463000Y-95340000D01*
X96457000Y-95338000D01*
X96452000Y-95335000D01*
X96446000Y-95332000D01*
X96441000Y-95329000D01*
X96435000Y-95325000D01*
X96430000Y-95321000D01*
X96426000Y-95317000D01*
X96421000Y-95313000D01*
X96417000Y-95308000D01*
X96413000Y-95304000D01*
X96409000Y-95299000D01*
X96405000Y-95293000D01*
X96402000Y-95288000D01*
X96399000Y-95282000D01*
X96396000Y-95277000D01*
X96394000Y-95271000D01*
X96392000Y-95265000D01*
X96390000Y-95259000D01*
X96389000Y-95253000D01*
X96387000Y-95247000D01*
X96387000Y-95241000D01*
X96386000Y-95234000D01*
X96386000Y-95228000D01*
X96386000Y-94728000D01*
X96386000Y-94722000D01*
X96387000Y-94715000D01*
X96387000Y-94709000D01*
X96389000Y-94703000D01*
X96390000Y-94697000D01*
X96392000Y-94691000D01*
X96394000Y-94685000D01*
X96396000Y-94679000D01*
X96399000Y-94674000D01*
X96402000Y-94668000D01*
X96405000Y-94663000D01*
X96409000Y-94657000D01*
X96413000Y-94652000D01*
X96417000Y-94648000D01*
X96421000Y-94643000D01*
X96426000Y-94639000D01*
X96430000Y-94635000D01*
X96435000Y-94631000D01*
X96441000Y-94627000D01*
X96446000Y-94624000D01*
X96452000Y-94621000D01*
X96457000Y-94618000D01*
X96463000Y-94616000D01*
X96469000Y-94614000D01*
X96475000Y-94612000D01*
X96481000Y-94611000D01*
X96487000Y-94609000D01*
X96493000Y-94609000D01*
X96500000Y-94608000D01*
X96506000Y-94608000D01*
X96656000Y-94608000D01*
X96662000Y-94608000D01*
X96669000Y-94609000D01*
G36*
X96669000Y-94609000D02*
G01*
X96675000Y-94609000D01*
X96681000Y-94611000D01*
X96687000Y-94612000D01*
X96693000Y-94614000D01*
X96699000Y-94616000D01*
X96705000Y-94618000D01*
X96710000Y-94621000D01*
X96716000Y-94624000D01*
X96721000Y-94627000D01*
X96727000Y-94631000D01*
X96732000Y-94635000D01*
X96736000Y-94639000D01*
X96741000Y-94643000D01*
X96745000Y-94648000D01*
X96749000Y-94652000D01*
X96753000Y-94657000D01*
X96757000Y-94663000D01*
X96760000Y-94668000D01*
X96763000Y-94674000D01*
X96766000Y-94679000D01*
X96768000Y-94685000D01*
X96770000Y-94691000D01*
X96772000Y-94697000D01*
X96773000Y-94703000D01*
X96775000Y-94709000D01*
X96775000Y-94715000D01*
X96776000Y-94722000D01*
X96776000Y-94728000D01*
X96776000Y-95228000D01*
X96776000Y-95234000D01*
X96775000Y-95241000D01*
X96775000Y-95247000D01*
X96773000Y-95253000D01*
X96772000Y-95259000D01*
X96770000Y-95265000D01*
X96768000Y-95271000D01*
X96766000Y-95277000D01*
X96763000Y-95282000D01*
X96760000Y-95288000D01*
X96757000Y-95293000D01*
X96753000Y-95299000D01*
X96749000Y-95304000D01*
X96745000Y-95308000D01*
X96741000Y-95313000D01*
X96736000Y-95317000D01*
X96732000Y-95321000D01*
X96727000Y-95325000D01*
X96721000Y-95329000D01*
X96716000Y-95332000D01*
X96710000Y-95335000D01*
X96705000Y-95338000D01*
X96699000Y-95340000D01*
X96693000Y-95342000D01*
X96687000Y-95344000D01*
X96681000Y-95345000D01*
X96675000Y-95347000D01*
X96669000Y-95347000D01*
X96662000Y-95348000D01*
X96656000Y-95348000D01*
X96506000Y-95348000D01*
X96500000Y-95348000D01*
X96493000Y-95347000D01*
X96487000Y-95347000D01*
X96481000Y-95345000D01*
X96475000Y-95344000D01*
X96469000Y-95342000D01*
X96463000Y-95340000D01*
X96457000Y-95338000D01*
X96452000Y-95335000D01*
X96446000Y-95332000D01*
X96441000Y-95329000D01*
X96435000Y-95325000D01*
X96430000Y-95321000D01*
X96426000Y-95317000D01*
X96421000Y-95313000D01*
X96417000Y-95308000D01*
X96413000Y-95304000D01*
X96409000Y-95299000D01*
X96405000Y-95293000D01*
X96402000Y-95288000D01*
X96399000Y-95282000D01*
X96396000Y-95277000D01*
X96394000Y-95271000D01*
X96392000Y-95265000D01*
X96390000Y-95259000D01*
X96389000Y-95253000D01*
X96387000Y-95247000D01*
X96387000Y-95241000D01*
X96386000Y-95234000D01*
X96386000Y-95228000D01*
X96386000Y-94728000D01*
X96386000Y-94722000D01*
X96387000Y-94715000D01*
X96387000Y-94709000D01*
X96389000Y-94703000D01*
X96390000Y-94697000D01*
X96392000Y-94691000D01*
X96394000Y-94685000D01*
X96396000Y-94679000D01*
X96399000Y-94674000D01*
X96402000Y-94668000D01*
X96405000Y-94663000D01*
X96409000Y-94657000D01*
X96413000Y-94652000D01*
X96417000Y-94648000D01*
X96421000Y-94643000D01*
X96426000Y-94639000D01*
X96430000Y-94635000D01*
X96435000Y-94631000D01*
X96441000Y-94627000D01*
X96446000Y-94624000D01*
X96452000Y-94621000D01*
X96457000Y-94618000D01*
X96463000Y-94616000D01*
X96469000Y-94614000D01*
X96475000Y-94612000D01*
X96481000Y-94611000D01*
X96487000Y-94609000D01*
X96493000Y-94609000D01*
X96500000Y-94608000D01*
X96506000Y-94608000D01*
X96656000Y-94608000D01*
X96662000Y-94608000D01*
X96669000Y-94609000D01*
G37*
X97169000Y-91809000D02*
X97175000Y-91809000D01*
X97181000Y-91811000D01*
X97187000Y-91812000D01*
X97193000Y-91814000D01*
X97199000Y-91816000D01*
X97205000Y-91818000D01*
X97210000Y-91821000D01*
X97216000Y-91824000D01*
X97221000Y-91827000D01*
X97227000Y-91831000D01*
X97232000Y-91835000D01*
X97236000Y-91839000D01*
X97241000Y-91843000D01*
X97245000Y-91848000D01*
X97249000Y-91852000D01*
X97253000Y-91857000D01*
X97257000Y-91863000D01*
X97260000Y-91868000D01*
X97263000Y-91874000D01*
X97266000Y-91879000D01*
X97268000Y-91885000D01*
X97270000Y-91891000D01*
X97272000Y-91897000D01*
X97273000Y-91903000D01*
X97275000Y-91909000D01*
X97275000Y-91915000D01*
X97276000Y-91922000D01*
X97276000Y-91928000D01*
X97276000Y-95228000D01*
X97276000Y-95234000D01*
X97275000Y-95241000D01*
X97275000Y-95247000D01*
X97273000Y-95253000D01*
X97272000Y-95259000D01*
X97270000Y-95265000D01*
X97268000Y-95271000D01*
X97266000Y-95277000D01*
X97263000Y-95282000D01*
X97260000Y-95288000D01*
X97257000Y-95293000D01*
X97253000Y-95299000D01*
X97249000Y-95304000D01*
X97245000Y-95308000D01*
X97241000Y-95313000D01*
X97236000Y-95317000D01*
X97232000Y-95321000D01*
X97227000Y-95325000D01*
X97221000Y-95329000D01*
X97216000Y-95332000D01*
X97210000Y-95335000D01*
X97205000Y-95338000D01*
X97199000Y-95340000D01*
X97193000Y-95342000D01*
X97187000Y-95344000D01*
X97181000Y-95345000D01*
X97175000Y-95347000D01*
X97169000Y-95347000D01*
X97162000Y-95348000D01*
X97156000Y-95348000D01*
X97006000Y-95348000D01*
X97000000Y-95348000D01*
X96993000Y-95347000D01*
X96987000Y-95347000D01*
X96981000Y-95345000D01*
X96975000Y-95344000D01*
X96969000Y-95342000D01*
X96963000Y-95340000D01*
X96957000Y-95338000D01*
X96952000Y-95335000D01*
X96946000Y-95332000D01*
X96941000Y-95329000D01*
X96935000Y-95325000D01*
X96930000Y-95321000D01*
X96926000Y-95317000D01*
X96921000Y-95313000D01*
X96917000Y-95308000D01*
X96913000Y-95304000D01*
X96909000Y-95299000D01*
X96905000Y-95293000D01*
X96902000Y-95288000D01*
X96899000Y-95282000D01*
X96896000Y-95277000D01*
X96894000Y-95271000D01*
X96892000Y-95265000D01*
X96890000Y-95259000D01*
X96889000Y-95253000D01*
X96887000Y-95247000D01*
X96887000Y-95241000D01*
X96886000Y-95234000D01*
X96886000Y-95228000D01*
X96886000Y-91928000D01*
X96886000Y-91922000D01*
X96887000Y-91915000D01*
X96887000Y-91909000D01*
X96889000Y-91903000D01*
X96890000Y-91897000D01*
X96892000Y-91891000D01*
X96894000Y-91885000D01*
X96896000Y-91879000D01*
X96899000Y-91874000D01*
X96902000Y-91868000D01*
X96905000Y-91863000D01*
X96909000Y-91857000D01*
X96913000Y-91852000D01*
X96917000Y-91848000D01*
X96921000Y-91843000D01*
X96926000Y-91839000D01*
X96930000Y-91835000D01*
X96935000Y-91831000D01*
X96941000Y-91827000D01*
X96946000Y-91824000D01*
X96952000Y-91821000D01*
X96957000Y-91818000D01*
X96963000Y-91816000D01*
X96969000Y-91814000D01*
X96975000Y-91812000D01*
X96981000Y-91811000D01*
X96987000Y-91809000D01*
X96993000Y-91809000D01*
X97000000Y-91808000D01*
X97006000Y-91808000D01*
X97156000Y-91808000D01*
X97162000Y-91808000D01*
X97169000Y-91809000D01*
G36*
X97169000Y-91809000D02*
G01*
X97175000Y-91809000D01*
X97181000Y-91811000D01*
X97187000Y-91812000D01*
X97193000Y-91814000D01*
X97199000Y-91816000D01*
X97205000Y-91818000D01*
X97210000Y-91821000D01*
X97216000Y-91824000D01*
X97221000Y-91827000D01*
X97227000Y-91831000D01*
X97232000Y-91835000D01*
X97236000Y-91839000D01*
X97241000Y-91843000D01*
X97245000Y-91848000D01*
X97249000Y-91852000D01*
X97253000Y-91857000D01*
X97257000Y-91863000D01*
X97260000Y-91868000D01*
X97263000Y-91874000D01*
X97266000Y-91879000D01*
X97268000Y-91885000D01*
X97270000Y-91891000D01*
X97272000Y-91897000D01*
X97273000Y-91903000D01*
X97275000Y-91909000D01*
X97275000Y-91915000D01*
X97276000Y-91922000D01*
X97276000Y-91928000D01*
X97276000Y-95228000D01*
X97276000Y-95234000D01*
X97275000Y-95241000D01*
X97275000Y-95247000D01*
X97273000Y-95253000D01*
X97272000Y-95259000D01*
X97270000Y-95265000D01*
X97268000Y-95271000D01*
X97266000Y-95277000D01*
X97263000Y-95282000D01*
X97260000Y-95288000D01*
X97257000Y-95293000D01*
X97253000Y-95299000D01*
X97249000Y-95304000D01*
X97245000Y-95308000D01*
X97241000Y-95313000D01*
X97236000Y-95317000D01*
X97232000Y-95321000D01*
X97227000Y-95325000D01*
X97221000Y-95329000D01*
X97216000Y-95332000D01*
X97210000Y-95335000D01*
X97205000Y-95338000D01*
X97199000Y-95340000D01*
X97193000Y-95342000D01*
X97187000Y-95344000D01*
X97181000Y-95345000D01*
X97175000Y-95347000D01*
X97169000Y-95347000D01*
X97162000Y-95348000D01*
X97156000Y-95348000D01*
X97006000Y-95348000D01*
X97000000Y-95348000D01*
X96993000Y-95347000D01*
X96987000Y-95347000D01*
X96981000Y-95345000D01*
X96975000Y-95344000D01*
X96969000Y-95342000D01*
X96963000Y-95340000D01*
X96957000Y-95338000D01*
X96952000Y-95335000D01*
X96946000Y-95332000D01*
X96941000Y-95329000D01*
X96935000Y-95325000D01*
X96930000Y-95321000D01*
X96926000Y-95317000D01*
X96921000Y-95313000D01*
X96917000Y-95308000D01*
X96913000Y-95304000D01*
X96909000Y-95299000D01*
X96905000Y-95293000D01*
X96902000Y-95288000D01*
X96899000Y-95282000D01*
X96896000Y-95277000D01*
X96894000Y-95271000D01*
X96892000Y-95265000D01*
X96890000Y-95259000D01*
X96889000Y-95253000D01*
X96887000Y-95247000D01*
X96887000Y-95241000D01*
X96886000Y-95234000D01*
X96886000Y-95228000D01*
X96886000Y-91928000D01*
X96886000Y-91922000D01*
X96887000Y-91915000D01*
X96887000Y-91909000D01*
X96889000Y-91903000D01*
X96890000Y-91897000D01*
X96892000Y-91891000D01*
X96894000Y-91885000D01*
X96896000Y-91879000D01*
X96899000Y-91874000D01*
X96902000Y-91868000D01*
X96905000Y-91863000D01*
X96909000Y-91857000D01*
X96913000Y-91852000D01*
X96917000Y-91848000D01*
X96921000Y-91843000D01*
X96926000Y-91839000D01*
X96930000Y-91835000D01*
X96935000Y-91831000D01*
X96941000Y-91827000D01*
X96946000Y-91824000D01*
X96952000Y-91821000D01*
X96957000Y-91818000D01*
X96963000Y-91816000D01*
X96969000Y-91814000D01*
X96975000Y-91812000D01*
X96981000Y-91811000D01*
X96987000Y-91809000D01*
X96993000Y-91809000D01*
X97000000Y-91808000D01*
X97006000Y-91808000D01*
X97156000Y-91808000D01*
X97162000Y-91808000D01*
X97169000Y-91809000D01*
G37*
X97669000Y-91809000D02*
X97675000Y-91809000D01*
X97681000Y-91811000D01*
X97687000Y-91812000D01*
X97693000Y-91814000D01*
X97699000Y-91816000D01*
X97705000Y-91818000D01*
X97710000Y-91821000D01*
X97716000Y-91824000D01*
X97721000Y-91827000D01*
X97727000Y-91831000D01*
X97732000Y-91835000D01*
X97736000Y-91839000D01*
X97741000Y-91843000D01*
X97745000Y-91848000D01*
X97749000Y-91852000D01*
X97753000Y-91857000D01*
X97757000Y-91863000D01*
X97760000Y-91868000D01*
X97763000Y-91874000D01*
X97766000Y-91879000D01*
X97768000Y-91885000D01*
X97770000Y-91891000D01*
X97772000Y-91897000D01*
X97773000Y-91903000D01*
X97775000Y-91909000D01*
X97775000Y-91915000D01*
X97776000Y-91922000D01*
X97776000Y-91928000D01*
X97776000Y-95228000D01*
X97776000Y-95234000D01*
X97775000Y-95241000D01*
X97775000Y-95247000D01*
X97773000Y-95253000D01*
X97772000Y-95259000D01*
X97770000Y-95265000D01*
X97768000Y-95271000D01*
X97766000Y-95277000D01*
X97763000Y-95282000D01*
X97760000Y-95288000D01*
X97757000Y-95293000D01*
X97753000Y-95299000D01*
X97749000Y-95304000D01*
X97745000Y-95308000D01*
X97741000Y-95313000D01*
X97736000Y-95317000D01*
X97732000Y-95321000D01*
X97727000Y-95325000D01*
X97721000Y-95329000D01*
X97716000Y-95332000D01*
X97710000Y-95335000D01*
X97705000Y-95338000D01*
X97699000Y-95340000D01*
X97693000Y-95342000D01*
X97687000Y-95344000D01*
X97681000Y-95345000D01*
X97675000Y-95347000D01*
X97669000Y-95347000D01*
X97662000Y-95348000D01*
X97656000Y-95348000D01*
X97506000Y-95348000D01*
X97500000Y-95348000D01*
X97493000Y-95347000D01*
X97487000Y-95347000D01*
X97481000Y-95345000D01*
X97475000Y-95344000D01*
X97469000Y-95342000D01*
X97463000Y-95340000D01*
X97457000Y-95338000D01*
X97452000Y-95335000D01*
X97446000Y-95332000D01*
X97441000Y-95329000D01*
X97435000Y-95325000D01*
X97430000Y-95321000D01*
X97426000Y-95317000D01*
X97421000Y-95313000D01*
X97417000Y-95308000D01*
X97413000Y-95304000D01*
X97409000Y-95299000D01*
X97405000Y-95293000D01*
X97402000Y-95288000D01*
X97399000Y-95282000D01*
X97396000Y-95277000D01*
X97394000Y-95271000D01*
X97392000Y-95265000D01*
X97390000Y-95259000D01*
X97389000Y-95253000D01*
X97387000Y-95247000D01*
X97387000Y-95241000D01*
X97386000Y-95234000D01*
X97386000Y-95228000D01*
X97386000Y-91928000D01*
X97386000Y-91922000D01*
X97387000Y-91915000D01*
X97387000Y-91909000D01*
X97389000Y-91903000D01*
X97390000Y-91897000D01*
X97392000Y-91891000D01*
X97394000Y-91885000D01*
X97396000Y-91879000D01*
X97399000Y-91874000D01*
X97402000Y-91868000D01*
X97405000Y-91863000D01*
X97409000Y-91857000D01*
X97413000Y-91852000D01*
X97417000Y-91848000D01*
X97421000Y-91843000D01*
X97426000Y-91839000D01*
X97430000Y-91835000D01*
X97435000Y-91831000D01*
X97441000Y-91827000D01*
X97446000Y-91824000D01*
X97452000Y-91821000D01*
X97457000Y-91818000D01*
X97463000Y-91816000D01*
X97469000Y-91814000D01*
X97475000Y-91812000D01*
X97481000Y-91811000D01*
X97487000Y-91809000D01*
X97493000Y-91809000D01*
X97500000Y-91808000D01*
X97506000Y-91808000D01*
X97656000Y-91808000D01*
X97662000Y-91808000D01*
X97669000Y-91809000D01*
G36*
X97669000Y-91809000D02*
G01*
X97675000Y-91809000D01*
X97681000Y-91811000D01*
X97687000Y-91812000D01*
X97693000Y-91814000D01*
X97699000Y-91816000D01*
X97705000Y-91818000D01*
X97710000Y-91821000D01*
X97716000Y-91824000D01*
X97721000Y-91827000D01*
X97727000Y-91831000D01*
X97732000Y-91835000D01*
X97736000Y-91839000D01*
X97741000Y-91843000D01*
X97745000Y-91848000D01*
X97749000Y-91852000D01*
X97753000Y-91857000D01*
X97757000Y-91863000D01*
X97760000Y-91868000D01*
X97763000Y-91874000D01*
X97766000Y-91879000D01*
X97768000Y-91885000D01*
X97770000Y-91891000D01*
X97772000Y-91897000D01*
X97773000Y-91903000D01*
X97775000Y-91909000D01*
X97775000Y-91915000D01*
X97776000Y-91922000D01*
X97776000Y-91928000D01*
X97776000Y-95228000D01*
X97776000Y-95234000D01*
X97775000Y-95241000D01*
X97775000Y-95247000D01*
X97773000Y-95253000D01*
X97772000Y-95259000D01*
X97770000Y-95265000D01*
X97768000Y-95271000D01*
X97766000Y-95277000D01*
X97763000Y-95282000D01*
X97760000Y-95288000D01*
X97757000Y-95293000D01*
X97753000Y-95299000D01*
X97749000Y-95304000D01*
X97745000Y-95308000D01*
X97741000Y-95313000D01*
X97736000Y-95317000D01*
X97732000Y-95321000D01*
X97727000Y-95325000D01*
X97721000Y-95329000D01*
X97716000Y-95332000D01*
X97710000Y-95335000D01*
X97705000Y-95338000D01*
X97699000Y-95340000D01*
X97693000Y-95342000D01*
X97687000Y-95344000D01*
X97681000Y-95345000D01*
X97675000Y-95347000D01*
X97669000Y-95347000D01*
X97662000Y-95348000D01*
X97656000Y-95348000D01*
X97506000Y-95348000D01*
X97500000Y-95348000D01*
X97493000Y-95347000D01*
X97487000Y-95347000D01*
X97481000Y-95345000D01*
X97475000Y-95344000D01*
X97469000Y-95342000D01*
X97463000Y-95340000D01*
X97457000Y-95338000D01*
X97452000Y-95335000D01*
X97446000Y-95332000D01*
X97441000Y-95329000D01*
X97435000Y-95325000D01*
X97430000Y-95321000D01*
X97426000Y-95317000D01*
X97421000Y-95313000D01*
X97417000Y-95308000D01*
X97413000Y-95304000D01*
X97409000Y-95299000D01*
X97405000Y-95293000D01*
X97402000Y-95288000D01*
X97399000Y-95282000D01*
X97396000Y-95277000D01*
X97394000Y-95271000D01*
X97392000Y-95265000D01*
X97390000Y-95259000D01*
X97389000Y-95253000D01*
X97387000Y-95247000D01*
X97387000Y-95241000D01*
X97386000Y-95234000D01*
X97386000Y-95228000D01*
X97386000Y-91928000D01*
X97386000Y-91922000D01*
X97387000Y-91915000D01*
X97387000Y-91909000D01*
X97389000Y-91903000D01*
X97390000Y-91897000D01*
X97392000Y-91891000D01*
X97394000Y-91885000D01*
X97396000Y-91879000D01*
X97399000Y-91874000D01*
X97402000Y-91868000D01*
X97405000Y-91863000D01*
X97409000Y-91857000D01*
X97413000Y-91852000D01*
X97417000Y-91848000D01*
X97421000Y-91843000D01*
X97426000Y-91839000D01*
X97430000Y-91835000D01*
X97435000Y-91831000D01*
X97441000Y-91827000D01*
X97446000Y-91824000D01*
X97452000Y-91821000D01*
X97457000Y-91818000D01*
X97463000Y-91816000D01*
X97469000Y-91814000D01*
X97475000Y-91812000D01*
X97481000Y-91811000D01*
X97487000Y-91809000D01*
X97493000Y-91809000D01*
X97500000Y-91808000D01*
X97506000Y-91808000D01*
X97656000Y-91808000D01*
X97662000Y-91808000D01*
X97669000Y-91809000D01*
G37*
X98749000Y-91809000D02*
X98755000Y-91809000D01*
X98761000Y-91811000D01*
X98767000Y-91812000D01*
X98773000Y-91814000D01*
X98779000Y-91816000D01*
X98785000Y-91818000D01*
X98790000Y-91821000D01*
X98796000Y-91824000D01*
X98801000Y-91827000D01*
X98807000Y-91831000D01*
X98812000Y-91835000D01*
X98816000Y-91839000D01*
X98821000Y-91843000D01*
X98825000Y-91848000D01*
X98829000Y-91852000D01*
X98833000Y-91857000D01*
X98837000Y-91863000D01*
X98840000Y-91868000D01*
X98843000Y-91874000D01*
X98846000Y-91879000D01*
X98848000Y-91885000D01*
X98850000Y-91891000D01*
X98852000Y-91897000D01*
X98853000Y-91903000D01*
X98855000Y-91909000D01*
X98855000Y-91915000D01*
X98856000Y-91922000D01*
X98856000Y-91928000D01*
X98856000Y-95228000D01*
X98856000Y-95234000D01*
X98855000Y-95241000D01*
X98855000Y-95247000D01*
X98853000Y-95253000D01*
X98852000Y-95259000D01*
X98850000Y-95265000D01*
X98848000Y-95271000D01*
X98846000Y-95277000D01*
X98843000Y-95282000D01*
X98840000Y-95288000D01*
X98837000Y-95293000D01*
X98833000Y-95299000D01*
X98829000Y-95304000D01*
X98825000Y-95308000D01*
X98821000Y-95313000D01*
X98816000Y-95317000D01*
X98812000Y-95321000D01*
X98807000Y-95325000D01*
X98801000Y-95329000D01*
X98796000Y-95332000D01*
X98790000Y-95335000D01*
X98785000Y-95338000D01*
X98779000Y-95340000D01*
X98773000Y-95342000D01*
X98767000Y-95344000D01*
X98761000Y-95345000D01*
X98755000Y-95347000D01*
X98749000Y-95347000D01*
X98742000Y-95348000D01*
X98736000Y-95348000D01*
X98586000Y-95348000D01*
X98580000Y-95348000D01*
X98573000Y-95347000D01*
X98567000Y-95347000D01*
X98561000Y-95345000D01*
X98555000Y-95344000D01*
X98549000Y-95342000D01*
X98543000Y-95340000D01*
X98537000Y-95338000D01*
X98532000Y-95335000D01*
X98526000Y-95332000D01*
X98521000Y-95329000D01*
X98515000Y-95325000D01*
X98510000Y-95321000D01*
X98506000Y-95317000D01*
X98501000Y-95313000D01*
X98497000Y-95308000D01*
X98493000Y-95304000D01*
X98489000Y-95299000D01*
X98485000Y-95293000D01*
X98482000Y-95288000D01*
X98479000Y-95282000D01*
X98476000Y-95277000D01*
X98474000Y-95271000D01*
X98472000Y-95265000D01*
X98470000Y-95259000D01*
X98469000Y-95253000D01*
X98467000Y-95247000D01*
X98467000Y-95241000D01*
X98466000Y-95234000D01*
X98466000Y-95228000D01*
X98466000Y-91928000D01*
X98466000Y-91922000D01*
X98467000Y-91915000D01*
X98467000Y-91909000D01*
X98469000Y-91903000D01*
X98470000Y-91897000D01*
X98472000Y-91891000D01*
X98474000Y-91885000D01*
X98476000Y-91879000D01*
X98479000Y-91874000D01*
X98482000Y-91868000D01*
X98485000Y-91863000D01*
X98489000Y-91857000D01*
X98493000Y-91852000D01*
X98497000Y-91848000D01*
X98501000Y-91843000D01*
X98506000Y-91839000D01*
X98510000Y-91835000D01*
X98515000Y-91831000D01*
X98521000Y-91827000D01*
X98526000Y-91824000D01*
X98532000Y-91821000D01*
X98537000Y-91818000D01*
X98543000Y-91816000D01*
X98549000Y-91814000D01*
X98555000Y-91812000D01*
X98561000Y-91811000D01*
X98567000Y-91809000D01*
X98573000Y-91809000D01*
X98580000Y-91808000D01*
X98586000Y-91808000D01*
X98736000Y-91808000D01*
X98742000Y-91808000D01*
X98749000Y-91809000D01*
G36*
X98749000Y-91809000D02*
G01*
X98755000Y-91809000D01*
X98761000Y-91811000D01*
X98767000Y-91812000D01*
X98773000Y-91814000D01*
X98779000Y-91816000D01*
X98785000Y-91818000D01*
X98790000Y-91821000D01*
X98796000Y-91824000D01*
X98801000Y-91827000D01*
X98807000Y-91831000D01*
X98812000Y-91835000D01*
X98816000Y-91839000D01*
X98821000Y-91843000D01*
X98825000Y-91848000D01*
X98829000Y-91852000D01*
X98833000Y-91857000D01*
X98837000Y-91863000D01*
X98840000Y-91868000D01*
X98843000Y-91874000D01*
X98846000Y-91879000D01*
X98848000Y-91885000D01*
X98850000Y-91891000D01*
X98852000Y-91897000D01*
X98853000Y-91903000D01*
X98855000Y-91909000D01*
X98855000Y-91915000D01*
X98856000Y-91922000D01*
X98856000Y-91928000D01*
X98856000Y-95228000D01*
X98856000Y-95234000D01*
X98855000Y-95241000D01*
X98855000Y-95247000D01*
X98853000Y-95253000D01*
X98852000Y-95259000D01*
X98850000Y-95265000D01*
X98848000Y-95271000D01*
X98846000Y-95277000D01*
X98843000Y-95282000D01*
X98840000Y-95288000D01*
X98837000Y-95293000D01*
X98833000Y-95299000D01*
X98829000Y-95304000D01*
X98825000Y-95308000D01*
X98821000Y-95313000D01*
X98816000Y-95317000D01*
X98812000Y-95321000D01*
X98807000Y-95325000D01*
X98801000Y-95329000D01*
X98796000Y-95332000D01*
X98790000Y-95335000D01*
X98785000Y-95338000D01*
X98779000Y-95340000D01*
X98773000Y-95342000D01*
X98767000Y-95344000D01*
X98761000Y-95345000D01*
X98755000Y-95347000D01*
X98749000Y-95347000D01*
X98742000Y-95348000D01*
X98736000Y-95348000D01*
X98586000Y-95348000D01*
X98580000Y-95348000D01*
X98573000Y-95347000D01*
X98567000Y-95347000D01*
X98561000Y-95345000D01*
X98555000Y-95344000D01*
X98549000Y-95342000D01*
X98543000Y-95340000D01*
X98537000Y-95338000D01*
X98532000Y-95335000D01*
X98526000Y-95332000D01*
X98521000Y-95329000D01*
X98515000Y-95325000D01*
X98510000Y-95321000D01*
X98506000Y-95317000D01*
X98501000Y-95313000D01*
X98497000Y-95308000D01*
X98493000Y-95304000D01*
X98489000Y-95299000D01*
X98485000Y-95293000D01*
X98482000Y-95288000D01*
X98479000Y-95282000D01*
X98476000Y-95277000D01*
X98474000Y-95271000D01*
X98472000Y-95265000D01*
X98470000Y-95259000D01*
X98469000Y-95253000D01*
X98467000Y-95247000D01*
X98467000Y-95241000D01*
X98466000Y-95234000D01*
X98466000Y-95228000D01*
X98466000Y-91928000D01*
X98466000Y-91922000D01*
X98467000Y-91915000D01*
X98467000Y-91909000D01*
X98469000Y-91903000D01*
X98470000Y-91897000D01*
X98472000Y-91891000D01*
X98474000Y-91885000D01*
X98476000Y-91879000D01*
X98479000Y-91874000D01*
X98482000Y-91868000D01*
X98485000Y-91863000D01*
X98489000Y-91857000D01*
X98493000Y-91852000D01*
X98497000Y-91848000D01*
X98501000Y-91843000D01*
X98506000Y-91839000D01*
X98510000Y-91835000D01*
X98515000Y-91831000D01*
X98521000Y-91827000D01*
X98526000Y-91824000D01*
X98532000Y-91821000D01*
X98537000Y-91818000D01*
X98543000Y-91816000D01*
X98549000Y-91814000D01*
X98555000Y-91812000D01*
X98561000Y-91811000D01*
X98567000Y-91809000D01*
X98573000Y-91809000D01*
X98580000Y-91808000D01*
X98586000Y-91808000D01*
X98736000Y-91808000D01*
X98742000Y-91808000D01*
X98749000Y-91809000D01*
G37*
X99249000Y-91809000D02*
X99255000Y-91809000D01*
X99261000Y-91811000D01*
X99267000Y-91812000D01*
X99273000Y-91814000D01*
X99279000Y-91816000D01*
X99285000Y-91818000D01*
X99290000Y-91821000D01*
X99296000Y-91824000D01*
X99301000Y-91827000D01*
X99307000Y-91831000D01*
X99312000Y-91835000D01*
X99316000Y-91839000D01*
X99321000Y-91843000D01*
X99325000Y-91848000D01*
X99329000Y-91852000D01*
X99333000Y-91857000D01*
X99337000Y-91863000D01*
X99340000Y-91868000D01*
X99343000Y-91874000D01*
X99346000Y-91879000D01*
X99348000Y-91885000D01*
X99350000Y-91891000D01*
X99352000Y-91897000D01*
X99353000Y-91903000D01*
X99355000Y-91909000D01*
X99355000Y-91915000D01*
X99356000Y-91922000D01*
X99356000Y-91928000D01*
X99356000Y-95228000D01*
X99356000Y-95234000D01*
X99355000Y-95241000D01*
X99355000Y-95247000D01*
X99353000Y-95253000D01*
X99352000Y-95259000D01*
X99350000Y-95265000D01*
X99348000Y-95271000D01*
X99346000Y-95277000D01*
X99343000Y-95282000D01*
X99340000Y-95288000D01*
X99337000Y-95293000D01*
X99333000Y-95299000D01*
X99329000Y-95304000D01*
X99325000Y-95308000D01*
X99321000Y-95313000D01*
X99316000Y-95317000D01*
X99312000Y-95321000D01*
X99307000Y-95325000D01*
X99301000Y-95329000D01*
X99296000Y-95332000D01*
X99290000Y-95335000D01*
X99285000Y-95338000D01*
X99279000Y-95340000D01*
X99273000Y-95342000D01*
X99267000Y-95344000D01*
X99261000Y-95345000D01*
X99255000Y-95347000D01*
X99249000Y-95347000D01*
X99242000Y-95348000D01*
X99236000Y-95348000D01*
X99086000Y-95348000D01*
X99080000Y-95348000D01*
X99073000Y-95347000D01*
X99067000Y-95347000D01*
X99061000Y-95345000D01*
X99055000Y-95344000D01*
X99049000Y-95342000D01*
X99043000Y-95340000D01*
X99037000Y-95338000D01*
X99032000Y-95335000D01*
X99026000Y-95332000D01*
X99021000Y-95329000D01*
X99015000Y-95325000D01*
X99010000Y-95321000D01*
X99006000Y-95317000D01*
X99001000Y-95313000D01*
X98997000Y-95308000D01*
X98993000Y-95304000D01*
X98989000Y-95299000D01*
X98985000Y-95293000D01*
X98982000Y-95288000D01*
X98979000Y-95282000D01*
X98976000Y-95277000D01*
X98974000Y-95271000D01*
X98972000Y-95265000D01*
X98970000Y-95259000D01*
X98969000Y-95253000D01*
X98967000Y-95247000D01*
X98967000Y-95241000D01*
X98966000Y-95234000D01*
X98966000Y-95228000D01*
X98966000Y-91928000D01*
X98966000Y-91922000D01*
X98967000Y-91915000D01*
X98967000Y-91909000D01*
X98969000Y-91903000D01*
X98970000Y-91897000D01*
X98972000Y-91891000D01*
X98974000Y-91885000D01*
X98976000Y-91879000D01*
X98979000Y-91874000D01*
X98982000Y-91868000D01*
X98985000Y-91863000D01*
X98989000Y-91857000D01*
X98993000Y-91852000D01*
X98997000Y-91848000D01*
X99001000Y-91843000D01*
X99006000Y-91839000D01*
X99010000Y-91835000D01*
X99015000Y-91831000D01*
X99021000Y-91827000D01*
X99026000Y-91824000D01*
X99032000Y-91821000D01*
X99037000Y-91818000D01*
X99043000Y-91816000D01*
X99049000Y-91814000D01*
X99055000Y-91812000D01*
X99061000Y-91811000D01*
X99067000Y-91809000D01*
X99073000Y-91809000D01*
X99080000Y-91808000D01*
X99086000Y-91808000D01*
X99236000Y-91808000D01*
X99242000Y-91808000D01*
X99249000Y-91809000D01*
G36*
X99249000Y-91809000D02*
G01*
X99255000Y-91809000D01*
X99261000Y-91811000D01*
X99267000Y-91812000D01*
X99273000Y-91814000D01*
X99279000Y-91816000D01*
X99285000Y-91818000D01*
X99290000Y-91821000D01*
X99296000Y-91824000D01*
X99301000Y-91827000D01*
X99307000Y-91831000D01*
X99312000Y-91835000D01*
X99316000Y-91839000D01*
X99321000Y-91843000D01*
X99325000Y-91848000D01*
X99329000Y-91852000D01*
X99333000Y-91857000D01*
X99337000Y-91863000D01*
X99340000Y-91868000D01*
X99343000Y-91874000D01*
X99346000Y-91879000D01*
X99348000Y-91885000D01*
X99350000Y-91891000D01*
X99352000Y-91897000D01*
X99353000Y-91903000D01*
X99355000Y-91909000D01*
X99355000Y-91915000D01*
X99356000Y-91922000D01*
X99356000Y-91928000D01*
X99356000Y-95228000D01*
X99356000Y-95234000D01*
X99355000Y-95241000D01*
X99355000Y-95247000D01*
X99353000Y-95253000D01*
X99352000Y-95259000D01*
X99350000Y-95265000D01*
X99348000Y-95271000D01*
X99346000Y-95277000D01*
X99343000Y-95282000D01*
X99340000Y-95288000D01*
X99337000Y-95293000D01*
X99333000Y-95299000D01*
X99329000Y-95304000D01*
X99325000Y-95308000D01*
X99321000Y-95313000D01*
X99316000Y-95317000D01*
X99312000Y-95321000D01*
X99307000Y-95325000D01*
X99301000Y-95329000D01*
X99296000Y-95332000D01*
X99290000Y-95335000D01*
X99285000Y-95338000D01*
X99279000Y-95340000D01*
X99273000Y-95342000D01*
X99267000Y-95344000D01*
X99261000Y-95345000D01*
X99255000Y-95347000D01*
X99249000Y-95347000D01*
X99242000Y-95348000D01*
X99236000Y-95348000D01*
X99086000Y-95348000D01*
X99080000Y-95348000D01*
X99073000Y-95347000D01*
X99067000Y-95347000D01*
X99061000Y-95345000D01*
X99055000Y-95344000D01*
X99049000Y-95342000D01*
X99043000Y-95340000D01*
X99037000Y-95338000D01*
X99032000Y-95335000D01*
X99026000Y-95332000D01*
X99021000Y-95329000D01*
X99015000Y-95325000D01*
X99010000Y-95321000D01*
X99006000Y-95317000D01*
X99001000Y-95313000D01*
X98997000Y-95308000D01*
X98993000Y-95304000D01*
X98989000Y-95299000D01*
X98985000Y-95293000D01*
X98982000Y-95288000D01*
X98979000Y-95282000D01*
X98976000Y-95277000D01*
X98974000Y-95271000D01*
X98972000Y-95265000D01*
X98970000Y-95259000D01*
X98969000Y-95253000D01*
X98967000Y-95247000D01*
X98967000Y-95241000D01*
X98966000Y-95234000D01*
X98966000Y-95228000D01*
X98966000Y-91928000D01*
X98966000Y-91922000D01*
X98967000Y-91915000D01*
X98967000Y-91909000D01*
X98969000Y-91903000D01*
X98970000Y-91897000D01*
X98972000Y-91891000D01*
X98974000Y-91885000D01*
X98976000Y-91879000D01*
X98979000Y-91874000D01*
X98982000Y-91868000D01*
X98985000Y-91863000D01*
X98989000Y-91857000D01*
X98993000Y-91852000D01*
X98997000Y-91848000D01*
X99001000Y-91843000D01*
X99006000Y-91839000D01*
X99010000Y-91835000D01*
X99015000Y-91831000D01*
X99021000Y-91827000D01*
X99026000Y-91824000D01*
X99032000Y-91821000D01*
X99037000Y-91818000D01*
X99043000Y-91816000D01*
X99049000Y-91814000D01*
X99055000Y-91812000D01*
X99061000Y-91811000D01*
X99067000Y-91809000D01*
X99073000Y-91809000D01*
X99080000Y-91808000D01*
X99086000Y-91808000D01*
X99236000Y-91808000D01*
X99242000Y-91808000D01*
X99249000Y-91809000D01*
G37*
X99749000Y-91809000D02*
X99755000Y-91809000D01*
X99761000Y-91811000D01*
X99767000Y-91812000D01*
X99773000Y-91814000D01*
X99779000Y-91816000D01*
X99785000Y-91818000D01*
X99790000Y-91821000D01*
X99796000Y-91824000D01*
X99801000Y-91827000D01*
X99807000Y-91831000D01*
X99812000Y-91835000D01*
X99816000Y-91839000D01*
X99821000Y-91843000D01*
X99825000Y-91848000D01*
X99829000Y-91852000D01*
X99833000Y-91857000D01*
X99837000Y-91863000D01*
X99840000Y-91868000D01*
X99843000Y-91874000D01*
X99846000Y-91879000D01*
X99848000Y-91885000D01*
X99850000Y-91891000D01*
X99852000Y-91897000D01*
X99853000Y-91903000D01*
X99855000Y-91909000D01*
X99855000Y-91915000D01*
X99856000Y-91922000D01*
X99856000Y-91928000D01*
X99856000Y-92428000D01*
X99856000Y-92434000D01*
X99855000Y-92441000D01*
X99855000Y-92447000D01*
X99853000Y-92453000D01*
X99852000Y-92459000D01*
X99850000Y-92465000D01*
X99848000Y-92471000D01*
X99846000Y-92477000D01*
X99843000Y-92482000D01*
X99840000Y-92488000D01*
X99837000Y-92493000D01*
X99833000Y-92499000D01*
X99829000Y-92504000D01*
X99825000Y-92508000D01*
X99821000Y-92513000D01*
X99816000Y-92517000D01*
X99812000Y-92521000D01*
X99807000Y-92525000D01*
X99801000Y-92529000D01*
X99796000Y-92532000D01*
X99790000Y-92535000D01*
X99785000Y-92538000D01*
X99779000Y-92540000D01*
X99773000Y-92542000D01*
X99767000Y-92544000D01*
X99761000Y-92545000D01*
X99755000Y-92547000D01*
X99749000Y-92547000D01*
X99742000Y-92548000D01*
X99736000Y-92548000D01*
X99586000Y-92548000D01*
X99580000Y-92548000D01*
X99573000Y-92547000D01*
X99567000Y-92547000D01*
X99561000Y-92545000D01*
X99555000Y-92544000D01*
X99549000Y-92542000D01*
X99543000Y-92540000D01*
X99537000Y-92538000D01*
X99532000Y-92535000D01*
X99526000Y-92532000D01*
X99521000Y-92529000D01*
X99515000Y-92525000D01*
X99510000Y-92521000D01*
X99506000Y-92517000D01*
X99501000Y-92513000D01*
X99497000Y-92508000D01*
X99493000Y-92504000D01*
X99489000Y-92499000D01*
X99485000Y-92493000D01*
X99482000Y-92488000D01*
X99479000Y-92482000D01*
X99476000Y-92477000D01*
X99474000Y-92471000D01*
X99472000Y-92465000D01*
X99470000Y-92459000D01*
X99469000Y-92453000D01*
X99467000Y-92447000D01*
X99467000Y-92441000D01*
X99466000Y-92434000D01*
X99466000Y-92428000D01*
X99466000Y-91928000D01*
X99466000Y-91922000D01*
X99467000Y-91915000D01*
X99467000Y-91909000D01*
X99469000Y-91903000D01*
X99470000Y-91897000D01*
X99472000Y-91891000D01*
X99474000Y-91885000D01*
X99476000Y-91879000D01*
X99479000Y-91874000D01*
X99482000Y-91868000D01*
X99485000Y-91863000D01*
X99489000Y-91857000D01*
X99493000Y-91852000D01*
X99497000Y-91848000D01*
X99501000Y-91843000D01*
X99506000Y-91839000D01*
X99510000Y-91835000D01*
X99515000Y-91831000D01*
X99521000Y-91827000D01*
X99526000Y-91824000D01*
X99532000Y-91821000D01*
X99537000Y-91818000D01*
X99543000Y-91816000D01*
X99549000Y-91814000D01*
X99555000Y-91812000D01*
X99561000Y-91811000D01*
X99567000Y-91809000D01*
X99573000Y-91809000D01*
X99580000Y-91808000D01*
X99586000Y-91808000D01*
X99736000Y-91808000D01*
X99742000Y-91808000D01*
X99749000Y-91809000D01*
G36*
X99749000Y-91809000D02*
G01*
X99755000Y-91809000D01*
X99761000Y-91811000D01*
X99767000Y-91812000D01*
X99773000Y-91814000D01*
X99779000Y-91816000D01*
X99785000Y-91818000D01*
X99790000Y-91821000D01*
X99796000Y-91824000D01*
X99801000Y-91827000D01*
X99807000Y-91831000D01*
X99812000Y-91835000D01*
X99816000Y-91839000D01*
X99821000Y-91843000D01*
X99825000Y-91848000D01*
X99829000Y-91852000D01*
X99833000Y-91857000D01*
X99837000Y-91863000D01*
X99840000Y-91868000D01*
X99843000Y-91874000D01*
X99846000Y-91879000D01*
X99848000Y-91885000D01*
X99850000Y-91891000D01*
X99852000Y-91897000D01*
X99853000Y-91903000D01*
X99855000Y-91909000D01*
X99855000Y-91915000D01*
X99856000Y-91922000D01*
X99856000Y-91928000D01*
X99856000Y-92428000D01*
X99856000Y-92434000D01*
X99855000Y-92441000D01*
X99855000Y-92447000D01*
X99853000Y-92453000D01*
X99852000Y-92459000D01*
X99850000Y-92465000D01*
X99848000Y-92471000D01*
X99846000Y-92477000D01*
X99843000Y-92482000D01*
X99840000Y-92488000D01*
X99837000Y-92493000D01*
X99833000Y-92499000D01*
X99829000Y-92504000D01*
X99825000Y-92508000D01*
X99821000Y-92513000D01*
X99816000Y-92517000D01*
X99812000Y-92521000D01*
X99807000Y-92525000D01*
X99801000Y-92529000D01*
X99796000Y-92532000D01*
X99790000Y-92535000D01*
X99785000Y-92538000D01*
X99779000Y-92540000D01*
X99773000Y-92542000D01*
X99767000Y-92544000D01*
X99761000Y-92545000D01*
X99755000Y-92547000D01*
X99749000Y-92547000D01*
X99742000Y-92548000D01*
X99736000Y-92548000D01*
X99586000Y-92548000D01*
X99580000Y-92548000D01*
X99573000Y-92547000D01*
X99567000Y-92547000D01*
X99561000Y-92545000D01*
X99555000Y-92544000D01*
X99549000Y-92542000D01*
X99543000Y-92540000D01*
X99537000Y-92538000D01*
X99532000Y-92535000D01*
X99526000Y-92532000D01*
X99521000Y-92529000D01*
X99515000Y-92525000D01*
X99510000Y-92521000D01*
X99506000Y-92517000D01*
X99501000Y-92513000D01*
X99497000Y-92508000D01*
X99493000Y-92504000D01*
X99489000Y-92499000D01*
X99485000Y-92493000D01*
X99482000Y-92488000D01*
X99479000Y-92482000D01*
X99476000Y-92477000D01*
X99474000Y-92471000D01*
X99472000Y-92465000D01*
X99470000Y-92459000D01*
X99469000Y-92453000D01*
X99467000Y-92447000D01*
X99467000Y-92441000D01*
X99466000Y-92434000D01*
X99466000Y-92428000D01*
X99466000Y-91928000D01*
X99466000Y-91922000D01*
X99467000Y-91915000D01*
X99467000Y-91909000D01*
X99469000Y-91903000D01*
X99470000Y-91897000D01*
X99472000Y-91891000D01*
X99474000Y-91885000D01*
X99476000Y-91879000D01*
X99479000Y-91874000D01*
X99482000Y-91868000D01*
X99485000Y-91863000D01*
X99489000Y-91857000D01*
X99493000Y-91852000D01*
X99497000Y-91848000D01*
X99501000Y-91843000D01*
X99506000Y-91839000D01*
X99510000Y-91835000D01*
X99515000Y-91831000D01*
X99521000Y-91827000D01*
X99526000Y-91824000D01*
X99532000Y-91821000D01*
X99537000Y-91818000D01*
X99543000Y-91816000D01*
X99549000Y-91814000D01*
X99555000Y-91812000D01*
X99561000Y-91811000D01*
X99567000Y-91809000D01*
X99573000Y-91809000D01*
X99580000Y-91808000D01*
X99586000Y-91808000D01*
X99736000Y-91808000D01*
X99742000Y-91808000D01*
X99749000Y-91809000D01*
G37*
X99749000Y-94609000D02*
X99755000Y-94609000D01*
X99761000Y-94611000D01*
X99767000Y-94612000D01*
X99773000Y-94614000D01*
X99779000Y-94616000D01*
X99785000Y-94618000D01*
X99790000Y-94621000D01*
X99796000Y-94624000D01*
X99801000Y-94627000D01*
X99807000Y-94631000D01*
X99812000Y-94635000D01*
X99816000Y-94639000D01*
X99821000Y-94643000D01*
X99825000Y-94648000D01*
X99829000Y-94652000D01*
X99833000Y-94657000D01*
X99837000Y-94663000D01*
X99840000Y-94668000D01*
X99843000Y-94674000D01*
X99846000Y-94679000D01*
X99848000Y-94685000D01*
X99850000Y-94691000D01*
X99852000Y-94697000D01*
X99853000Y-94703000D01*
X99855000Y-94709000D01*
X99855000Y-94715000D01*
X99856000Y-94722000D01*
X99856000Y-94728000D01*
X99856000Y-95228000D01*
X99856000Y-95234000D01*
X99855000Y-95241000D01*
X99855000Y-95247000D01*
X99853000Y-95253000D01*
X99852000Y-95259000D01*
X99850000Y-95265000D01*
X99848000Y-95271000D01*
X99846000Y-95277000D01*
X99843000Y-95282000D01*
X99840000Y-95288000D01*
X99837000Y-95293000D01*
X99833000Y-95299000D01*
X99829000Y-95304000D01*
X99825000Y-95308000D01*
X99821000Y-95313000D01*
X99816000Y-95317000D01*
X99812000Y-95321000D01*
X99807000Y-95325000D01*
X99801000Y-95329000D01*
X99796000Y-95332000D01*
X99790000Y-95335000D01*
X99785000Y-95338000D01*
X99779000Y-95340000D01*
X99773000Y-95342000D01*
X99767000Y-95344000D01*
X99761000Y-95345000D01*
X99755000Y-95347000D01*
X99749000Y-95347000D01*
X99742000Y-95348000D01*
X99736000Y-95348000D01*
X99586000Y-95348000D01*
X99580000Y-95348000D01*
X99573000Y-95347000D01*
X99567000Y-95347000D01*
X99561000Y-95345000D01*
X99555000Y-95344000D01*
X99549000Y-95342000D01*
X99543000Y-95340000D01*
X99537000Y-95338000D01*
X99532000Y-95335000D01*
X99526000Y-95332000D01*
X99521000Y-95329000D01*
X99515000Y-95325000D01*
X99510000Y-95321000D01*
X99506000Y-95317000D01*
X99501000Y-95313000D01*
X99497000Y-95308000D01*
X99493000Y-95304000D01*
X99489000Y-95299000D01*
X99485000Y-95293000D01*
X99482000Y-95288000D01*
X99479000Y-95282000D01*
X99476000Y-95277000D01*
X99474000Y-95271000D01*
X99472000Y-95265000D01*
X99470000Y-95259000D01*
X99469000Y-95253000D01*
X99467000Y-95247000D01*
X99467000Y-95241000D01*
X99466000Y-95234000D01*
X99466000Y-95228000D01*
X99466000Y-94728000D01*
X99466000Y-94722000D01*
X99467000Y-94715000D01*
X99467000Y-94709000D01*
X99469000Y-94703000D01*
X99470000Y-94697000D01*
X99472000Y-94691000D01*
X99474000Y-94685000D01*
X99476000Y-94679000D01*
X99479000Y-94674000D01*
X99482000Y-94668000D01*
X99485000Y-94663000D01*
X99489000Y-94657000D01*
X99493000Y-94652000D01*
X99497000Y-94648000D01*
X99501000Y-94643000D01*
X99506000Y-94639000D01*
X99510000Y-94635000D01*
X99515000Y-94631000D01*
X99521000Y-94627000D01*
X99526000Y-94624000D01*
X99532000Y-94621000D01*
X99537000Y-94618000D01*
X99543000Y-94616000D01*
X99549000Y-94614000D01*
X99555000Y-94612000D01*
X99561000Y-94611000D01*
X99567000Y-94609000D01*
X99573000Y-94609000D01*
X99580000Y-94608000D01*
X99586000Y-94608000D01*
X99736000Y-94608000D01*
X99742000Y-94608000D01*
X99749000Y-94609000D01*
G36*
X99749000Y-94609000D02*
G01*
X99755000Y-94609000D01*
X99761000Y-94611000D01*
X99767000Y-94612000D01*
X99773000Y-94614000D01*
X99779000Y-94616000D01*
X99785000Y-94618000D01*
X99790000Y-94621000D01*
X99796000Y-94624000D01*
X99801000Y-94627000D01*
X99807000Y-94631000D01*
X99812000Y-94635000D01*
X99816000Y-94639000D01*
X99821000Y-94643000D01*
X99825000Y-94648000D01*
X99829000Y-94652000D01*
X99833000Y-94657000D01*
X99837000Y-94663000D01*
X99840000Y-94668000D01*
X99843000Y-94674000D01*
X99846000Y-94679000D01*
X99848000Y-94685000D01*
X99850000Y-94691000D01*
X99852000Y-94697000D01*
X99853000Y-94703000D01*
X99855000Y-94709000D01*
X99855000Y-94715000D01*
X99856000Y-94722000D01*
X99856000Y-94728000D01*
X99856000Y-95228000D01*
X99856000Y-95234000D01*
X99855000Y-95241000D01*
X99855000Y-95247000D01*
X99853000Y-95253000D01*
X99852000Y-95259000D01*
X99850000Y-95265000D01*
X99848000Y-95271000D01*
X99846000Y-95277000D01*
X99843000Y-95282000D01*
X99840000Y-95288000D01*
X99837000Y-95293000D01*
X99833000Y-95299000D01*
X99829000Y-95304000D01*
X99825000Y-95308000D01*
X99821000Y-95313000D01*
X99816000Y-95317000D01*
X99812000Y-95321000D01*
X99807000Y-95325000D01*
X99801000Y-95329000D01*
X99796000Y-95332000D01*
X99790000Y-95335000D01*
X99785000Y-95338000D01*
X99779000Y-95340000D01*
X99773000Y-95342000D01*
X99767000Y-95344000D01*
X99761000Y-95345000D01*
X99755000Y-95347000D01*
X99749000Y-95347000D01*
X99742000Y-95348000D01*
X99736000Y-95348000D01*
X99586000Y-95348000D01*
X99580000Y-95348000D01*
X99573000Y-95347000D01*
X99567000Y-95347000D01*
X99561000Y-95345000D01*
X99555000Y-95344000D01*
X99549000Y-95342000D01*
X99543000Y-95340000D01*
X99537000Y-95338000D01*
X99532000Y-95335000D01*
X99526000Y-95332000D01*
X99521000Y-95329000D01*
X99515000Y-95325000D01*
X99510000Y-95321000D01*
X99506000Y-95317000D01*
X99501000Y-95313000D01*
X99497000Y-95308000D01*
X99493000Y-95304000D01*
X99489000Y-95299000D01*
X99485000Y-95293000D01*
X99482000Y-95288000D01*
X99479000Y-95282000D01*
X99476000Y-95277000D01*
X99474000Y-95271000D01*
X99472000Y-95265000D01*
X99470000Y-95259000D01*
X99469000Y-95253000D01*
X99467000Y-95247000D01*
X99467000Y-95241000D01*
X99466000Y-95234000D01*
X99466000Y-95228000D01*
X99466000Y-94728000D01*
X99466000Y-94722000D01*
X99467000Y-94715000D01*
X99467000Y-94709000D01*
X99469000Y-94703000D01*
X99470000Y-94697000D01*
X99472000Y-94691000D01*
X99474000Y-94685000D01*
X99476000Y-94679000D01*
X99479000Y-94674000D01*
X99482000Y-94668000D01*
X99485000Y-94663000D01*
X99489000Y-94657000D01*
X99493000Y-94652000D01*
X99497000Y-94648000D01*
X99501000Y-94643000D01*
X99506000Y-94639000D01*
X99510000Y-94635000D01*
X99515000Y-94631000D01*
X99521000Y-94627000D01*
X99526000Y-94624000D01*
X99532000Y-94621000D01*
X99537000Y-94618000D01*
X99543000Y-94616000D01*
X99549000Y-94614000D01*
X99555000Y-94612000D01*
X99561000Y-94611000D01*
X99567000Y-94609000D01*
X99573000Y-94609000D01*
X99580000Y-94608000D01*
X99586000Y-94608000D01*
X99736000Y-94608000D01*
X99742000Y-94608000D01*
X99749000Y-94609000D01*
G37*
X100249000Y-91809000D02*
X100255000Y-91809000D01*
X100261000Y-91811000D01*
X100267000Y-91812000D01*
X100273000Y-91814000D01*
X100279000Y-91816000D01*
X100285000Y-91818000D01*
X100290000Y-91821000D01*
X100296000Y-91824000D01*
X100301000Y-91827000D01*
X100307000Y-91831000D01*
X100312000Y-91835000D01*
X100316000Y-91839000D01*
X100321000Y-91843000D01*
X100325000Y-91848000D01*
X100329000Y-91852000D01*
X100333000Y-91857000D01*
X100337000Y-91863000D01*
X100340000Y-91868000D01*
X100343000Y-91874000D01*
X100346000Y-91879000D01*
X100348000Y-91885000D01*
X100350000Y-91891000D01*
X100352000Y-91897000D01*
X100353000Y-91903000D01*
X100355000Y-91909000D01*
X100355000Y-91915000D01*
X100356000Y-91922000D01*
X100356000Y-91928000D01*
X100356000Y-92478000D01*
X100356000Y-92484000D01*
X100355000Y-92491000D01*
X100355000Y-92497000D01*
X100353000Y-92503000D01*
X100352000Y-92509000D01*
X100350000Y-92515000D01*
X100348000Y-92521000D01*
X100346000Y-92527000D01*
X100343000Y-92532000D01*
X100340000Y-92538000D01*
X100337000Y-92543000D01*
X100333000Y-92549000D01*
X100329000Y-92554000D01*
X100325000Y-92558000D01*
X100321000Y-92563000D01*
X100316000Y-92567000D01*
X100312000Y-92571000D01*
X100307000Y-92575000D01*
X100301000Y-92579000D01*
X100296000Y-92582000D01*
X100290000Y-92585000D01*
X100285000Y-92588000D01*
X100279000Y-92590000D01*
X100273000Y-92592000D01*
X100267000Y-92594000D01*
X100261000Y-92595000D01*
X100255000Y-92597000D01*
X100249000Y-92597000D01*
X100242000Y-92598000D01*
X100236000Y-92598000D01*
X100086000Y-92598000D01*
X100080000Y-92598000D01*
X100073000Y-92597000D01*
X100067000Y-92597000D01*
X100061000Y-92595000D01*
X100055000Y-92594000D01*
X100049000Y-92592000D01*
X100043000Y-92590000D01*
X100037000Y-92588000D01*
X100032000Y-92585000D01*
X100026000Y-92582000D01*
X100021000Y-92579000D01*
X100015000Y-92575000D01*
X100010000Y-92571000D01*
X100006000Y-92567000D01*
X100001000Y-92563000D01*
X99997000Y-92558000D01*
X99993000Y-92554000D01*
X99989000Y-92549000D01*
X99985000Y-92543000D01*
X99982000Y-92538000D01*
X99979000Y-92532000D01*
X99976000Y-92527000D01*
X99974000Y-92521000D01*
X99972000Y-92515000D01*
X99970000Y-92509000D01*
X99969000Y-92503000D01*
X99967000Y-92497000D01*
X99967000Y-92491000D01*
X99966000Y-92484000D01*
X99966000Y-92478000D01*
X99966000Y-91928000D01*
X99966000Y-91922000D01*
X99967000Y-91915000D01*
X99967000Y-91909000D01*
X99969000Y-91903000D01*
X99970000Y-91897000D01*
X99972000Y-91891000D01*
X99974000Y-91885000D01*
X99976000Y-91879000D01*
X99979000Y-91874000D01*
X99982000Y-91868000D01*
X99985000Y-91863000D01*
X99989000Y-91857000D01*
X99993000Y-91852000D01*
X99997000Y-91848000D01*
X100001000Y-91843000D01*
X100006000Y-91839000D01*
X100010000Y-91835000D01*
X100015000Y-91831000D01*
X100021000Y-91827000D01*
X100026000Y-91824000D01*
X100032000Y-91821000D01*
X100037000Y-91818000D01*
X100043000Y-91816000D01*
X100049000Y-91814000D01*
X100055000Y-91812000D01*
X100061000Y-91811000D01*
X100067000Y-91809000D01*
X100073000Y-91809000D01*
X100080000Y-91808000D01*
X100086000Y-91808000D01*
X100236000Y-91808000D01*
X100242000Y-91808000D01*
X100249000Y-91809000D01*
G36*
X100249000Y-91809000D02*
G01*
X100255000Y-91809000D01*
X100261000Y-91811000D01*
X100267000Y-91812000D01*
X100273000Y-91814000D01*
X100279000Y-91816000D01*
X100285000Y-91818000D01*
X100290000Y-91821000D01*
X100296000Y-91824000D01*
X100301000Y-91827000D01*
X100307000Y-91831000D01*
X100312000Y-91835000D01*
X100316000Y-91839000D01*
X100321000Y-91843000D01*
X100325000Y-91848000D01*
X100329000Y-91852000D01*
X100333000Y-91857000D01*
X100337000Y-91863000D01*
X100340000Y-91868000D01*
X100343000Y-91874000D01*
X100346000Y-91879000D01*
X100348000Y-91885000D01*
X100350000Y-91891000D01*
X100352000Y-91897000D01*
X100353000Y-91903000D01*
X100355000Y-91909000D01*
X100355000Y-91915000D01*
X100356000Y-91922000D01*
X100356000Y-91928000D01*
X100356000Y-92478000D01*
X100356000Y-92484000D01*
X100355000Y-92491000D01*
X100355000Y-92497000D01*
X100353000Y-92503000D01*
X100352000Y-92509000D01*
X100350000Y-92515000D01*
X100348000Y-92521000D01*
X100346000Y-92527000D01*
X100343000Y-92532000D01*
X100340000Y-92538000D01*
X100337000Y-92543000D01*
X100333000Y-92549000D01*
X100329000Y-92554000D01*
X100325000Y-92558000D01*
X100321000Y-92563000D01*
X100316000Y-92567000D01*
X100312000Y-92571000D01*
X100307000Y-92575000D01*
X100301000Y-92579000D01*
X100296000Y-92582000D01*
X100290000Y-92585000D01*
X100285000Y-92588000D01*
X100279000Y-92590000D01*
X100273000Y-92592000D01*
X100267000Y-92594000D01*
X100261000Y-92595000D01*
X100255000Y-92597000D01*
X100249000Y-92597000D01*
X100242000Y-92598000D01*
X100236000Y-92598000D01*
X100086000Y-92598000D01*
X100080000Y-92598000D01*
X100073000Y-92597000D01*
X100067000Y-92597000D01*
X100061000Y-92595000D01*
X100055000Y-92594000D01*
X100049000Y-92592000D01*
X100043000Y-92590000D01*
X100037000Y-92588000D01*
X100032000Y-92585000D01*
X100026000Y-92582000D01*
X100021000Y-92579000D01*
X100015000Y-92575000D01*
X100010000Y-92571000D01*
X100006000Y-92567000D01*
X100001000Y-92563000D01*
X99997000Y-92558000D01*
X99993000Y-92554000D01*
X99989000Y-92549000D01*
X99985000Y-92543000D01*
X99982000Y-92538000D01*
X99979000Y-92532000D01*
X99976000Y-92527000D01*
X99974000Y-92521000D01*
X99972000Y-92515000D01*
X99970000Y-92509000D01*
X99969000Y-92503000D01*
X99967000Y-92497000D01*
X99967000Y-92491000D01*
X99966000Y-92484000D01*
X99966000Y-92478000D01*
X99966000Y-91928000D01*
X99966000Y-91922000D01*
X99967000Y-91915000D01*
X99967000Y-91909000D01*
X99969000Y-91903000D01*
X99970000Y-91897000D01*
X99972000Y-91891000D01*
X99974000Y-91885000D01*
X99976000Y-91879000D01*
X99979000Y-91874000D01*
X99982000Y-91868000D01*
X99985000Y-91863000D01*
X99989000Y-91857000D01*
X99993000Y-91852000D01*
X99997000Y-91848000D01*
X100001000Y-91843000D01*
X100006000Y-91839000D01*
X100010000Y-91835000D01*
X100015000Y-91831000D01*
X100021000Y-91827000D01*
X100026000Y-91824000D01*
X100032000Y-91821000D01*
X100037000Y-91818000D01*
X100043000Y-91816000D01*
X100049000Y-91814000D01*
X100055000Y-91812000D01*
X100061000Y-91811000D01*
X100067000Y-91809000D01*
X100073000Y-91809000D01*
X100080000Y-91808000D01*
X100086000Y-91808000D01*
X100236000Y-91808000D01*
X100242000Y-91808000D01*
X100249000Y-91809000D01*
G37*
X100249000Y-94559000D02*
X100255000Y-94559000D01*
X100261000Y-94561000D01*
X100267000Y-94562000D01*
X100273000Y-94564000D01*
X100279000Y-94566000D01*
X100285000Y-94568000D01*
X100290000Y-94571000D01*
X100296000Y-94574000D01*
X100301000Y-94577000D01*
X100307000Y-94581000D01*
X100312000Y-94585000D01*
X100316000Y-94589000D01*
X100321000Y-94593000D01*
X100325000Y-94598000D01*
X100329000Y-94602000D01*
X100333000Y-94607000D01*
X100337000Y-94613000D01*
X100340000Y-94618000D01*
X100343000Y-94624000D01*
X100346000Y-94629000D01*
X100348000Y-94635000D01*
X100350000Y-94641000D01*
X100352000Y-94647000D01*
X100353000Y-94653000D01*
X100355000Y-94659000D01*
X100355000Y-94665000D01*
X100356000Y-94672000D01*
X100356000Y-94678000D01*
X100356000Y-95228000D01*
X100356000Y-95234000D01*
X100355000Y-95241000D01*
X100355000Y-95247000D01*
X100353000Y-95253000D01*
X100352000Y-95259000D01*
X100350000Y-95265000D01*
X100348000Y-95271000D01*
X100346000Y-95277000D01*
X100343000Y-95282000D01*
X100340000Y-95288000D01*
X100337000Y-95293000D01*
X100333000Y-95299000D01*
X100329000Y-95304000D01*
X100325000Y-95308000D01*
X100321000Y-95313000D01*
X100316000Y-95317000D01*
X100312000Y-95321000D01*
X100307000Y-95325000D01*
X100301000Y-95329000D01*
X100296000Y-95332000D01*
X100290000Y-95335000D01*
X100285000Y-95338000D01*
X100279000Y-95340000D01*
X100273000Y-95342000D01*
X100267000Y-95344000D01*
X100261000Y-95345000D01*
X100255000Y-95347000D01*
X100249000Y-95347000D01*
X100242000Y-95348000D01*
X100236000Y-95348000D01*
X100086000Y-95348000D01*
X100080000Y-95348000D01*
X100073000Y-95347000D01*
X100067000Y-95347000D01*
X100061000Y-95345000D01*
X100055000Y-95344000D01*
X100049000Y-95342000D01*
X100043000Y-95340000D01*
X100037000Y-95338000D01*
X100032000Y-95335000D01*
X100026000Y-95332000D01*
X100021000Y-95329000D01*
X100015000Y-95325000D01*
X100010000Y-95321000D01*
X100006000Y-95317000D01*
X100001000Y-95313000D01*
X99997000Y-95308000D01*
X99993000Y-95304000D01*
X99989000Y-95299000D01*
X99985000Y-95293000D01*
X99982000Y-95288000D01*
X99979000Y-95282000D01*
X99976000Y-95277000D01*
X99974000Y-95271000D01*
X99972000Y-95265000D01*
X99970000Y-95259000D01*
X99969000Y-95253000D01*
X99967000Y-95247000D01*
X99967000Y-95241000D01*
X99966000Y-95234000D01*
X99966000Y-95228000D01*
X99966000Y-94678000D01*
X99966000Y-94672000D01*
X99967000Y-94665000D01*
X99967000Y-94659000D01*
X99969000Y-94653000D01*
X99970000Y-94647000D01*
X99972000Y-94641000D01*
X99974000Y-94635000D01*
X99976000Y-94629000D01*
X99979000Y-94624000D01*
X99982000Y-94618000D01*
X99985000Y-94613000D01*
X99989000Y-94607000D01*
X99993000Y-94602000D01*
X99997000Y-94598000D01*
X100001000Y-94593000D01*
X100006000Y-94589000D01*
X100010000Y-94585000D01*
X100015000Y-94581000D01*
X100021000Y-94577000D01*
X100026000Y-94574000D01*
X100032000Y-94571000D01*
X100037000Y-94568000D01*
X100043000Y-94566000D01*
X100049000Y-94564000D01*
X100055000Y-94562000D01*
X100061000Y-94561000D01*
X100067000Y-94559000D01*
X100073000Y-94559000D01*
X100080000Y-94558000D01*
X100086000Y-94558000D01*
X100236000Y-94558000D01*
X100242000Y-94558000D01*
X100249000Y-94559000D01*
G36*
X100249000Y-94559000D02*
G01*
X100255000Y-94559000D01*
X100261000Y-94561000D01*
X100267000Y-94562000D01*
X100273000Y-94564000D01*
X100279000Y-94566000D01*
X100285000Y-94568000D01*
X100290000Y-94571000D01*
X100296000Y-94574000D01*
X100301000Y-94577000D01*
X100307000Y-94581000D01*
X100312000Y-94585000D01*
X100316000Y-94589000D01*
X100321000Y-94593000D01*
X100325000Y-94598000D01*
X100329000Y-94602000D01*
X100333000Y-94607000D01*
X100337000Y-94613000D01*
X100340000Y-94618000D01*
X100343000Y-94624000D01*
X100346000Y-94629000D01*
X100348000Y-94635000D01*
X100350000Y-94641000D01*
X100352000Y-94647000D01*
X100353000Y-94653000D01*
X100355000Y-94659000D01*
X100355000Y-94665000D01*
X100356000Y-94672000D01*
X100356000Y-94678000D01*
X100356000Y-95228000D01*
X100356000Y-95234000D01*
X100355000Y-95241000D01*
X100355000Y-95247000D01*
X100353000Y-95253000D01*
X100352000Y-95259000D01*
X100350000Y-95265000D01*
X100348000Y-95271000D01*
X100346000Y-95277000D01*
X100343000Y-95282000D01*
X100340000Y-95288000D01*
X100337000Y-95293000D01*
X100333000Y-95299000D01*
X100329000Y-95304000D01*
X100325000Y-95308000D01*
X100321000Y-95313000D01*
X100316000Y-95317000D01*
X100312000Y-95321000D01*
X100307000Y-95325000D01*
X100301000Y-95329000D01*
X100296000Y-95332000D01*
X100290000Y-95335000D01*
X100285000Y-95338000D01*
X100279000Y-95340000D01*
X100273000Y-95342000D01*
X100267000Y-95344000D01*
X100261000Y-95345000D01*
X100255000Y-95347000D01*
X100249000Y-95347000D01*
X100242000Y-95348000D01*
X100236000Y-95348000D01*
X100086000Y-95348000D01*
X100080000Y-95348000D01*
X100073000Y-95347000D01*
X100067000Y-95347000D01*
X100061000Y-95345000D01*
X100055000Y-95344000D01*
X100049000Y-95342000D01*
X100043000Y-95340000D01*
X100037000Y-95338000D01*
X100032000Y-95335000D01*
X100026000Y-95332000D01*
X100021000Y-95329000D01*
X100015000Y-95325000D01*
X100010000Y-95321000D01*
X100006000Y-95317000D01*
X100001000Y-95313000D01*
X99997000Y-95308000D01*
X99993000Y-95304000D01*
X99989000Y-95299000D01*
X99985000Y-95293000D01*
X99982000Y-95288000D01*
X99979000Y-95282000D01*
X99976000Y-95277000D01*
X99974000Y-95271000D01*
X99972000Y-95265000D01*
X99970000Y-95259000D01*
X99969000Y-95253000D01*
X99967000Y-95247000D01*
X99967000Y-95241000D01*
X99966000Y-95234000D01*
X99966000Y-95228000D01*
X99966000Y-94678000D01*
X99966000Y-94672000D01*
X99967000Y-94665000D01*
X99967000Y-94659000D01*
X99969000Y-94653000D01*
X99970000Y-94647000D01*
X99972000Y-94641000D01*
X99974000Y-94635000D01*
X99976000Y-94629000D01*
X99979000Y-94624000D01*
X99982000Y-94618000D01*
X99985000Y-94613000D01*
X99989000Y-94607000D01*
X99993000Y-94602000D01*
X99997000Y-94598000D01*
X100001000Y-94593000D01*
X100006000Y-94589000D01*
X100010000Y-94585000D01*
X100015000Y-94581000D01*
X100021000Y-94577000D01*
X100026000Y-94574000D01*
X100032000Y-94571000D01*
X100037000Y-94568000D01*
X100043000Y-94566000D01*
X100049000Y-94564000D01*
X100055000Y-94562000D01*
X100061000Y-94561000D01*
X100067000Y-94559000D01*
X100073000Y-94559000D01*
X100080000Y-94558000D01*
X100086000Y-94558000D01*
X100236000Y-94558000D01*
X100242000Y-94558000D01*
X100249000Y-94559000D01*
G37*
X100784000Y-93134000D02*
X100790000Y-93134000D01*
X100796000Y-93136000D01*
X100802000Y-93137000D01*
X100808000Y-93139000D01*
X100814000Y-93141000D01*
X100820000Y-93143000D01*
X100825000Y-93146000D01*
X100831000Y-93149000D01*
X100836000Y-93152000D01*
X100842000Y-93156000D01*
X100847000Y-93160000D01*
X100851000Y-93164000D01*
X100856000Y-93168000D01*
X100860000Y-93173000D01*
X100864000Y-93177000D01*
X100868000Y-93182000D01*
X100872000Y-93188000D01*
X100875000Y-93193000D01*
X100878000Y-93199000D01*
X100881000Y-93204000D01*
X100883000Y-93210000D01*
X100885000Y-93216000D01*
X100887000Y-93222000D01*
X100888000Y-93228000D01*
X100890000Y-93234000D01*
X100890000Y-93240000D01*
X100891000Y-93247000D01*
X100891000Y-93253000D01*
X100891000Y-93403000D01*
X100891000Y-93409000D01*
X100890000Y-93416000D01*
X100890000Y-93422000D01*
X100888000Y-93428000D01*
X100887000Y-93434000D01*
X100885000Y-93440000D01*
X100883000Y-93446000D01*
X100881000Y-93452000D01*
X100878000Y-93457000D01*
X100875000Y-93463000D01*
X100872000Y-93468000D01*
X100868000Y-93474000D01*
X100864000Y-93479000D01*
X100860000Y-93483000D01*
X100856000Y-93488000D01*
X100851000Y-93492000D01*
X100847000Y-93496000D01*
X100842000Y-93500000D01*
X100836000Y-93504000D01*
X100831000Y-93507000D01*
X100825000Y-93510000D01*
X100820000Y-93513000D01*
X100814000Y-93515000D01*
X100808000Y-93517000D01*
X100802000Y-93519000D01*
X100796000Y-93520000D01*
X100790000Y-93522000D01*
X100784000Y-93522000D01*
X100777000Y-93523000D01*
X100771000Y-93523000D01*
X100271000Y-93523000D01*
X100265000Y-93523000D01*
X100258000Y-93522000D01*
X100252000Y-93522000D01*
X100246000Y-93520000D01*
X100240000Y-93519000D01*
X100234000Y-93517000D01*
X100228000Y-93515000D01*
X100222000Y-93513000D01*
X100217000Y-93510000D01*
X100211000Y-93507000D01*
X100206000Y-93504000D01*
X100200000Y-93500000D01*
X100195000Y-93496000D01*
X100191000Y-93492000D01*
X100186000Y-93488000D01*
X100182000Y-93483000D01*
X100178000Y-93479000D01*
X100174000Y-93474000D01*
X100170000Y-93468000D01*
X100167000Y-93463000D01*
X100164000Y-93457000D01*
X100161000Y-93452000D01*
X100159000Y-93446000D01*
X100157000Y-93440000D01*
X100155000Y-93434000D01*
X100154000Y-93428000D01*
X100152000Y-93422000D01*
X100152000Y-93416000D01*
X100151000Y-93409000D01*
X100151000Y-93403000D01*
X100151000Y-93253000D01*
X100151000Y-93247000D01*
X100152000Y-93240000D01*
X100152000Y-93234000D01*
X100154000Y-93228000D01*
X100155000Y-93222000D01*
X100157000Y-93216000D01*
X100159000Y-93210000D01*
X100161000Y-93204000D01*
X100164000Y-93199000D01*
X100167000Y-93193000D01*
X100170000Y-93188000D01*
X100174000Y-93182000D01*
X100178000Y-93177000D01*
X100182000Y-93173000D01*
X100186000Y-93168000D01*
X100191000Y-93164000D01*
X100195000Y-93160000D01*
X100200000Y-93156000D01*
X100206000Y-93152000D01*
X100211000Y-93149000D01*
X100217000Y-93146000D01*
X100222000Y-93143000D01*
X100228000Y-93141000D01*
X100234000Y-93139000D01*
X100240000Y-93137000D01*
X100246000Y-93136000D01*
X100252000Y-93134000D01*
X100258000Y-93134000D01*
X100265000Y-93133000D01*
X100271000Y-93133000D01*
X100771000Y-93133000D01*
X100777000Y-93133000D01*
X100784000Y-93134000D01*
G36*
X100784000Y-93134000D02*
G01*
X100790000Y-93134000D01*
X100796000Y-93136000D01*
X100802000Y-93137000D01*
X100808000Y-93139000D01*
X100814000Y-93141000D01*
X100820000Y-93143000D01*
X100825000Y-93146000D01*
X100831000Y-93149000D01*
X100836000Y-93152000D01*
X100842000Y-93156000D01*
X100847000Y-93160000D01*
X100851000Y-93164000D01*
X100856000Y-93168000D01*
X100860000Y-93173000D01*
X100864000Y-93177000D01*
X100868000Y-93182000D01*
X100872000Y-93188000D01*
X100875000Y-93193000D01*
X100878000Y-93199000D01*
X100881000Y-93204000D01*
X100883000Y-93210000D01*
X100885000Y-93216000D01*
X100887000Y-93222000D01*
X100888000Y-93228000D01*
X100890000Y-93234000D01*
X100890000Y-93240000D01*
X100891000Y-93247000D01*
X100891000Y-93253000D01*
X100891000Y-93403000D01*
X100891000Y-93409000D01*
X100890000Y-93416000D01*
X100890000Y-93422000D01*
X100888000Y-93428000D01*
X100887000Y-93434000D01*
X100885000Y-93440000D01*
X100883000Y-93446000D01*
X100881000Y-93452000D01*
X100878000Y-93457000D01*
X100875000Y-93463000D01*
X100872000Y-93468000D01*
X100868000Y-93474000D01*
X100864000Y-93479000D01*
X100860000Y-93483000D01*
X100856000Y-93488000D01*
X100851000Y-93492000D01*
X100847000Y-93496000D01*
X100842000Y-93500000D01*
X100836000Y-93504000D01*
X100831000Y-93507000D01*
X100825000Y-93510000D01*
X100820000Y-93513000D01*
X100814000Y-93515000D01*
X100808000Y-93517000D01*
X100802000Y-93519000D01*
X100796000Y-93520000D01*
X100790000Y-93522000D01*
X100784000Y-93522000D01*
X100777000Y-93523000D01*
X100771000Y-93523000D01*
X100271000Y-93523000D01*
X100265000Y-93523000D01*
X100258000Y-93522000D01*
X100252000Y-93522000D01*
X100246000Y-93520000D01*
X100240000Y-93519000D01*
X100234000Y-93517000D01*
X100228000Y-93515000D01*
X100222000Y-93513000D01*
X100217000Y-93510000D01*
X100211000Y-93507000D01*
X100206000Y-93504000D01*
X100200000Y-93500000D01*
X100195000Y-93496000D01*
X100191000Y-93492000D01*
X100186000Y-93488000D01*
X100182000Y-93483000D01*
X100178000Y-93479000D01*
X100174000Y-93474000D01*
X100170000Y-93468000D01*
X100167000Y-93463000D01*
X100164000Y-93457000D01*
X100161000Y-93452000D01*
X100159000Y-93446000D01*
X100157000Y-93440000D01*
X100155000Y-93434000D01*
X100154000Y-93428000D01*
X100152000Y-93422000D01*
X100152000Y-93416000D01*
X100151000Y-93409000D01*
X100151000Y-93403000D01*
X100151000Y-93253000D01*
X100151000Y-93247000D01*
X100152000Y-93240000D01*
X100152000Y-93234000D01*
X100154000Y-93228000D01*
X100155000Y-93222000D01*
X100157000Y-93216000D01*
X100159000Y-93210000D01*
X100161000Y-93204000D01*
X100164000Y-93199000D01*
X100167000Y-93193000D01*
X100170000Y-93188000D01*
X100174000Y-93182000D01*
X100178000Y-93177000D01*
X100182000Y-93173000D01*
X100186000Y-93168000D01*
X100191000Y-93164000D01*
X100195000Y-93160000D01*
X100200000Y-93156000D01*
X100206000Y-93152000D01*
X100211000Y-93149000D01*
X100217000Y-93146000D01*
X100222000Y-93143000D01*
X100228000Y-93141000D01*
X100234000Y-93139000D01*
X100240000Y-93137000D01*
X100246000Y-93136000D01*
X100252000Y-93134000D01*
X100258000Y-93134000D01*
X100265000Y-93133000D01*
X100271000Y-93133000D01*
X100771000Y-93133000D01*
X100777000Y-93133000D01*
X100784000Y-93134000D01*
G37*
X100784000Y-92634000D02*
X100790000Y-92634000D01*
X100796000Y-92636000D01*
X100802000Y-92637000D01*
X100808000Y-92639000D01*
X100814000Y-92641000D01*
X100820000Y-92643000D01*
X100825000Y-92646000D01*
X100831000Y-92649000D01*
X100836000Y-92652000D01*
X100842000Y-92656000D01*
X100847000Y-92660000D01*
X100851000Y-92664000D01*
X100856000Y-92668000D01*
X100860000Y-92673000D01*
X100864000Y-92677000D01*
X100868000Y-92682000D01*
X100872000Y-92688000D01*
X100875000Y-92693000D01*
X100878000Y-92699000D01*
X100881000Y-92704000D01*
X100883000Y-92710000D01*
X100885000Y-92716000D01*
X100887000Y-92722000D01*
X100888000Y-92728000D01*
X100890000Y-92734000D01*
X100890000Y-92740000D01*
X100891000Y-92747000D01*
X100891000Y-92753000D01*
X100891000Y-92903000D01*
X100891000Y-92909000D01*
X100890000Y-92916000D01*
X100890000Y-92922000D01*
X100888000Y-92928000D01*
X100887000Y-92934000D01*
X100885000Y-92940000D01*
X100883000Y-92946000D01*
X100881000Y-92952000D01*
X100878000Y-92957000D01*
X100875000Y-92963000D01*
X100872000Y-92968000D01*
X100868000Y-92974000D01*
X100864000Y-92979000D01*
X100860000Y-92983000D01*
X100856000Y-92988000D01*
X100851000Y-92992000D01*
X100847000Y-92996000D01*
X100842000Y-93000000D01*
X100836000Y-93004000D01*
X100831000Y-93007000D01*
X100825000Y-93010000D01*
X100820000Y-93013000D01*
X100814000Y-93015000D01*
X100808000Y-93017000D01*
X100802000Y-93019000D01*
X100796000Y-93020000D01*
X100790000Y-93022000D01*
X100784000Y-93022000D01*
X100777000Y-93023000D01*
X100771000Y-93023000D01*
X100271000Y-93023000D01*
X100265000Y-93023000D01*
X100258000Y-93022000D01*
X100252000Y-93022000D01*
X100246000Y-93020000D01*
X100240000Y-93019000D01*
X100234000Y-93017000D01*
X100228000Y-93015000D01*
X100222000Y-93013000D01*
X100217000Y-93010000D01*
X100211000Y-93007000D01*
X100206000Y-93004000D01*
X100200000Y-93000000D01*
X100195000Y-92996000D01*
X100191000Y-92992000D01*
X100186000Y-92988000D01*
X100182000Y-92983000D01*
X100178000Y-92979000D01*
X100174000Y-92974000D01*
X100170000Y-92968000D01*
X100167000Y-92963000D01*
X100164000Y-92957000D01*
X100161000Y-92952000D01*
X100159000Y-92946000D01*
X100157000Y-92940000D01*
X100155000Y-92934000D01*
X100154000Y-92928000D01*
X100152000Y-92922000D01*
X100152000Y-92916000D01*
X100151000Y-92909000D01*
X100151000Y-92903000D01*
X100151000Y-92753000D01*
X100151000Y-92747000D01*
X100152000Y-92740000D01*
X100152000Y-92734000D01*
X100154000Y-92728000D01*
X100155000Y-92722000D01*
X100157000Y-92716000D01*
X100159000Y-92710000D01*
X100161000Y-92704000D01*
X100164000Y-92699000D01*
X100167000Y-92693000D01*
X100170000Y-92688000D01*
X100174000Y-92682000D01*
X100178000Y-92677000D01*
X100182000Y-92673000D01*
X100186000Y-92668000D01*
X100191000Y-92664000D01*
X100195000Y-92660000D01*
X100200000Y-92656000D01*
X100206000Y-92652000D01*
X100211000Y-92649000D01*
X100217000Y-92646000D01*
X100222000Y-92643000D01*
X100228000Y-92641000D01*
X100234000Y-92639000D01*
X100240000Y-92637000D01*
X100246000Y-92636000D01*
X100252000Y-92634000D01*
X100258000Y-92634000D01*
X100265000Y-92633000D01*
X100271000Y-92633000D01*
X100771000Y-92633000D01*
X100777000Y-92633000D01*
X100784000Y-92634000D01*
G36*
X100784000Y-92634000D02*
G01*
X100790000Y-92634000D01*
X100796000Y-92636000D01*
X100802000Y-92637000D01*
X100808000Y-92639000D01*
X100814000Y-92641000D01*
X100820000Y-92643000D01*
X100825000Y-92646000D01*
X100831000Y-92649000D01*
X100836000Y-92652000D01*
X100842000Y-92656000D01*
X100847000Y-92660000D01*
X100851000Y-92664000D01*
X100856000Y-92668000D01*
X100860000Y-92673000D01*
X100864000Y-92677000D01*
X100868000Y-92682000D01*
X100872000Y-92688000D01*
X100875000Y-92693000D01*
X100878000Y-92699000D01*
X100881000Y-92704000D01*
X100883000Y-92710000D01*
X100885000Y-92716000D01*
X100887000Y-92722000D01*
X100888000Y-92728000D01*
X100890000Y-92734000D01*
X100890000Y-92740000D01*
X100891000Y-92747000D01*
X100891000Y-92753000D01*
X100891000Y-92903000D01*
X100891000Y-92909000D01*
X100890000Y-92916000D01*
X100890000Y-92922000D01*
X100888000Y-92928000D01*
X100887000Y-92934000D01*
X100885000Y-92940000D01*
X100883000Y-92946000D01*
X100881000Y-92952000D01*
X100878000Y-92957000D01*
X100875000Y-92963000D01*
X100872000Y-92968000D01*
X100868000Y-92974000D01*
X100864000Y-92979000D01*
X100860000Y-92983000D01*
X100856000Y-92988000D01*
X100851000Y-92992000D01*
X100847000Y-92996000D01*
X100842000Y-93000000D01*
X100836000Y-93004000D01*
X100831000Y-93007000D01*
X100825000Y-93010000D01*
X100820000Y-93013000D01*
X100814000Y-93015000D01*
X100808000Y-93017000D01*
X100802000Y-93019000D01*
X100796000Y-93020000D01*
X100790000Y-93022000D01*
X100784000Y-93022000D01*
X100777000Y-93023000D01*
X100771000Y-93023000D01*
X100271000Y-93023000D01*
X100265000Y-93023000D01*
X100258000Y-93022000D01*
X100252000Y-93022000D01*
X100246000Y-93020000D01*
X100240000Y-93019000D01*
X100234000Y-93017000D01*
X100228000Y-93015000D01*
X100222000Y-93013000D01*
X100217000Y-93010000D01*
X100211000Y-93007000D01*
X100206000Y-93004000D01*
X100200000Y-93000000D01*
X100195000Y-92996000D01*
X100191000Y-92992000D01*
X100186000Y-92988000D01*
X100182000Y-92983000D01*
X100178000Y-92979000D01*
X100174000Y-92974000D01*
X100170000Y-92968000D01*
X100167000Y-92963000D01*
X100164000Y-92957000D01*
X100161000Y-92952000D01*
X100159000Y-92946000D01*
X100157000Y-92940000D01*
X100155000Y-92934000D01*
X100154000Y-92928000D01*
X100152000Y-92922000D01*
X100152000Y-92916000D01*
X100151000Y-92909000D01*
X100151000Y-92903000D01*
X100151000Y-92753000D01*
X100151000Y-92747000D01*
X100152000Y-92740000D01*
X100152000Y-92734000D01*
X100154000Y-92728000D01*
X100155000Y-92722000D01*
X100157000Y-92716000D01*
X100159000Y-92710000D01*
X100161000Y-92704000D01*
X100164000Y-92699000D01*
X100167000Y-92693000D01*
X100170000Y-92688000D01*
X100174000Y-92682000D01*
X100178000Y-92677000D01*
X100182000Y-92673000D01*
X100186000Y-92668000D01*
X100191000Y-92664000D01*
X100195000Y-92660000D01*
X100200000Y-92656000D01*
X100206000Y-92652000D01*
X100211000Y-92649000D01*
X100217000Y-92646000D01*
X100222000Y-92643000D01*
X100228000Y-92641000D01*
X100234000Y-92639000D01*
X100240000Y-92637000D01*
X100246000Y-92636000D01*
X100252000Y-92634000D01*
X100258000Y-92634000D01*
X100265000Y-92633000D01*
X100271000Y-92633000D01*
X100771000Y-92633000D01*
X100777000Y-92633000D01*
X100784000Y-92634000D01*
G37*
X100784000Y-94134000D02*
X100790000Y-94134000D01*
X100796000Y-94136000D01*
X100802000Y-94137000D01*
X100808000Y-94139000D01*
X100814000Y-94141000D01*
X100820000Y-94143000D01*
X100825000Y-94146000D01*
X100831000Y-94149000D01*
X100836000Y-94152000D01*
X100842000Y-94156000D01*
X100847000Y-94160000D01*
X100851000Y-94164000D01*
X100856000Y-94168000D01*
X100860000Y-94173000D01*
X100864000Y-94177000D01*
X100868000Y-94182000D01*
X100872000Y-94188000D01*
X100875000Y-94193000D01*
X100878000Y-94199000D01*
X100881000Y-94204000D01*
X100883000Y-94210000D01*
X100885000Y-94216000D01*
X100887000Y-94222000D01*
X100888000Y-94228000D01*
X100890000Y-94234000D01*
X100890000Y-94240000D01*
X100891000Y-94247000D01*
X100891000Y-94253000D01*
X100891000Y-94403000D01*
X100891000Y-94409000D01*
X100890000Y-94416000D01*
X100890000Y-94422000D01*
X100888000Y-94428000D01*
X100887000Y-94434000D01*
X100885000Y-94440000D01*
X100883000Y-94446000D01*
X100881000Y-94452000D01*
X100878000Y-94457000D01*
X100875000Y-94463000D01*
X100872000Y-94468000D01*
X100868000Y-94474000D01*
X100864000Y-94479000D01*
X100860000Y-94483000D01*
X100856000Y-94488000D01*
X100851000Y-94492000D01*
X100847000Y-94496000D01*
X100842000Y-94500000D01*
X100836000Y-94504000D01*
X100831000Y-94507000D01*
X100825000Y-94510000D01*
X100820000Y-94513000D01*
X100814000Y-94515000D01*
X100808000Y-94517000D01*
X100802000Y-94519000D01*
X100796000Y-94520000D01*
X100790000Y-94522000D01*
X100784000Y-94522000D01*
X100777000Y-94523000D01*
X100771000Y-94523000D01*
X100271000Y-94523000D01*
X100265000Y-94523000D01*
X100258000Y-94522000D01*
X100252000Y-94522000D01*
X100246000Y-94520000D01*
X100240000Y-94519000D01*
X100234000Y-94517000D01*
X100228000Y-94515000D01*
X100222000Y-94513000D01*
X100217000Y-94510000D01*
X100211000Y-94507000D01*
X100206000Y-94504000D01*
X100200000Y-94500000D01*
X100195000Y-94496000D01*
X100191000Y-94492000D01*
X100186000Y-94488000D01*
X100182000Y-94483000D01*
X100178000Y-94479000D01*
X100174000Y-94474000D01*
X100170000Y-94468000D01*
X100167000Y-94463000D01*
X100164000Y-94457000D01*
X100161000Y-94452000D01*
X100159000Y-94446000D01*
X100157000Y-94440000D01*
X100155000Y-94434000D01*
X100154000Y-94428000D01*
X100152000Y-94422000D01*
X100152000Y-94416000D01*
X100151000Y-94409000D01*
X100151000Y-94403000D01*
X100151000Y-94253000D01*
X100151000Y-94247000D01*
X100152000Y-94240000D01*
X100152000Y-94234000D01*
X100154000Y-94228000D01*
X100155000Y-94222000D01*
X100157000Y-94216000D01*
X100159000Y-94210000D01*
X100161000Y-94204000D01*
X100164000Y-94199000D01*
X100167000Y-94193000D01*
X100170000Y-94188000D01*
X100174000Y-94182000D01*
X100178000Y-94177000D01*
X100182000Y-94173000D01*
X100186000Y-94168000D01*
X100191000Y-94164000D01*
X100195000Y-94160000D01*
X100200000Y-94156000D01*
X100206000Y-94152000D01*
X100211000Y-94149000D01*
X100217000Y-94146000D01*
X100222000Y-94143000D01*
X100228000Y-94141000D01*
X100234000Y-94139000D01*
X100240000Y-94137000D01*
X100246000Y-94136000D01*
X100252000Y-94134000D01*
X100258000Y-94134000D01*
X100265000Y-94133000D01*
X100271000Y-94133000D01*
X100771000Y-94133000D01*
X100777000Y-94133000D01*
X100784000Y-94134000D01*
G36*
X100784000Y-94134000D02*
G01*
X100790000Y-94134000D01*
X100796000Y-94136000D01*
X100802000Y-94137000D01*
X100808000Y-94139000D01*
X100814000Y-94141000D01*
X100820000Y-94143000D01*
X100825000Y-94146000D01*
X100831000Y-94149000D01*
X100836000Y-94152000D01*
X100842000Y-94156000D01*
X100847000Y-94160000D01*
X100851000Y-94164000D01*
X100856000Y-94168000D01*
X100860000Y-94173000D01*
X100864000Y-94177000D01*
X100868000Y-94182000D01*
X100872000Y-94188000D01*
X100875000Y-94193000D01*
X100878000Y-94199000D01*
X100881000Y-94204000D01*
X100883000Y-94210000D01*
X100885000Y-94216000D01*
X100887000Y-94222000D01*
X100888000Y-94228000D01*
X100890000Y-94234000D01*
X100890000Y-94240000D01*
X100891000Y-94247000D01*
X100891000Y-94253000D01*
X100891000Y-94403000D01*
X100891000Y-94409000D01*
X100890000Y-94416000D01*
X100890000Y-94422000D01*
X100888000Y-94428000D01*
X100887000Y-94434000D01*
X100885000Y-94440000D01*
X100883000Y-94446000D01*
X100881000Y-94452000D01*
X100878000Y-94457000D01*
X100875000Y-94463000D01*
X100872000Y-94468000D01*
X100868000Y-94474000D01*
X100864000Y-94479000D01*
X100860000Y-94483000D01*
X100856000Y-94488000D01*
X100851000Y-94492000D01*
X100847000Y-94496000D01*
X100842000Y-94500000D01*
X100836000Y-94504000D01*
X100831000Y-94507000D01*
X100825000Y-94510000D01*
X100820000Y-94513000D01*
X100814000Y-94515000D01*
X100808000Y-94517000D01*
X100802000Y-94519000D01*
X100796000Y-94520000D01*
X100790000Y-94522000D01*
X100784000Y-94522000D01*
X100777000Y-94523000D01*
X100771000Y-94523000D01*
X100271000Y-94523000D01*
X100265000Y-94523000D01*
X100258000Y-94522000D01*
X100252000Y-94522000D01*
X100246000Y-94520000D01*
X100240000Y-94519000D01*
X100234000Y-94517000D01*
X100228000Y-94515000D01*
X100222000Y-94513000D01*
X100217000Y-94510000D01*
X100211000Y-94507000D01*
X100206000Y-94504000D01*
X100200000Y-94500000D01*
X100195000Y-94496000D01*
X100191000Y-94492000D01*
X100186000Y-94488000D01*
X100182000Y-94483000D01*
X100178000Y-94479000D01*
X100174000Y-94474000D01*
X100170000Y-94468000D01*
X100167000Y-94463000D01*
X100164000Y-94457000D01*
X100161000Y-94452000D01*
X100159000Y-94446000D01*
X100157000Y-94440000D01*
X100155000Y-94434000D01*
X100154000Y-94428000D01*
X100152000Y-94422000D01*
X100152000Y-94416000D01*
X100151000Y-94409000D01*
X100151000Y-94403000D01*
X100151000Y-94253000D01*
X100151000Y-94247000D01*
X100152000Y-94240000D01*
X100152000Y-94234000D01*
X100154000Y-94228000D01*
X100155000Y-94222000D01*
X100157000Y-94216000D01*
X100159000Y-94210000D01*
X100161000Y-94204000D01*
X100164000Y-94199000D01*
X100167000Y-94193000D01*
X100170000Y-94188000D01*
X100174000Y-94182000D01*
X100178000Y-94177000D01*
X100182000Y-94173000D01*
X100186000Y-94168000D01*
X100191000Y-94164000D01*
X100195000Y-94160000D01*
X100200000Y-94156000D01*
X100206000Y-94152000D01*
X100211000Y-94149000D01*
X100217000Y-94146000D01*
X100222000Y-94143000D01*
X100228000Y-94141000D01*
X100234000Y-94139000D01*
X100240000Y-94137000D01*
X100246000Y-94136000D01*
X100252000Y-94134000D01*
X100258000Y-94134000D01*
X100265000Y-94133000D01*
X100271000Y-94133000D01*
X100771000Y-94133000D01*
X100777000Y-94133000D01*
X100784000Y-94134000D01*
G37*
X100784000Y-93634000D02*
X100790000Y-93634000D01*
X100796000Y-93636000D01*
X100802000Y-93637000D01*
X100808000Y-93639000D01*
X100814000Y-93641000D01*
X100820000Y-93643000D01*
X100825000Y-93646000D01*
X100831000Y-93649000D01*
X100836000Y-93652000D01*
X100842000Y-93656000D01*
X100847000Y-93660000D01*
X100851000Y-93664000D01*
X100856000Y-93668000D01*
X100860000Y-93673000D01*
X100864000Y-93677000D01*
X100868000Y-93682000D01*
X100872000Y-93688000D01*
X100875000Y-93693000D01*
X100878000Y-93699000D01*
X100881000Y-93704000D01*
X100883000Y-93710000D01*
X100885000Y-93716000D01*
X100887000Y-93722000D01*
X100888000Y-93728000D01*
X100890000Y-93734000D01*
X100890000Y-93740000D01*
X100891000Y-93747000D01*
X100891000Y-93753000D01*
X100891000Y-93903000D01*
X100891000Y-93909000D01*
X100890000Y-93916000D01*
X100890000Y-93922000D01*
X100888000Y-93928000D01*
X100887000Y-93934000D01*
X100885000Y-93940000D01*
X100883000Y-93946000D01*
X100881000Y-93952000D01*
X100878000Y-93957000D01*
X100875000Y-93963000D01*
X100872000Y-93968000D01*
X100868000Y-93974000D01*
X100864000Y-93979000D01*
X100860000Y-93983000D01*
X100856000Y-93988000D01*
X100851000Y-93992000D01*
X100847000Y-93996000D01*
X100842000Y-94000000D01*
X100836000Y-94004000D01*
X100831000Y-94007000D01*
X100825000Y-94010000D01*
X100820000Y-94013000D01*
X100814000Y-94015000D01*
X100808000Y-94017000D01*
X100802000Y-94019000D01*
X100796000Y-94020000D01*
X100790000Y-94022000D01*
X100784000Y-94022000D01*
X100777000Y-94023000D01*
X100771000Y-94023000D01*
X100271000Y-94023000D01*
X100265000Y-94023000D01*
X100258000Y-94022000D01*
X100252000Y-94022000D01*
X100246000Y-94020000D01*
X100240000Y-94019000D01*
X100234000Y-94017000D01*
X100228000Y-94015000D01*
X100222000Y-94013000D01*
X100217000Y-94010000D01*
X100211000Y-94007000D01*
X100206000Y-94004000D01*
X100200000Y-94000000D01*
X100195000Y-93996000D01*
X100191000Y-93992000D01*
X100186000Y-93988000D01*
X100182000Y-93983000D01*
X100178000Y-93979000D01*
X100174000Y-93974000D01*
X100170000Y-93968000D01*
X100167000Y-93963000D01*
X100164000Y-93957000D01*
X100161000Y-93952000D01*
X100159000Y-93946000D01*
X100157000Y-93940000D01*
X100155000Y-93934000D01*
X100154000Y-93928000D01*
X100152000Y-93922000D01*
X100152000Y-93916000D01*
X100151000Y-93909000D01*
X100151000Y-93903000D01*
X100151000Y-93753000D01*
X100151000Y-93747000D01*
X100152000Y-93740000D01*
X100152000Y-93734000D01*
X100154000Y-93728000D01*
X100155000Y-93722000D01*
X100157000Y-93716000D01*
X100159000Y-93710000D01*
X100161000Y-93704000D01*
X100164000Y-93699000D01*
X100167000Y-93693000D01*
X100170000Y-93688000D01*
X100174000Y-93682000D01*
X100178000Y-93677000D01*
X100182000Y-93673000D01*
X100186000Y-93668000D01*
X100191000Y-93664000D01*
X100195000Y-93660000D01*
X100200000Y-93656000D01*
X100206000Y-93652000D01*
X100211000Y-93649000D01*
X100217000Y-93646000D01*
X100222000Y-93643000D01*
X100228000Y-93641000D01*
X100234000Y-93639000D01*
X100240000Y-93637000D01*
X100246000Y-93636000D01*
X100252000Y-93634000D01*
X100258000Y-93634000D01*
X100265000Y-93633000D01*
X100271000Y-93633000D01*
X100771000Y-93633000D01*
X100777000Y-93633000D01*
X100784000Y-93634000D01*
G36*
X100784000Y-93634000D02*
G01*
X100790000Y-93634000D01*
X100796000Y-93636000D01*
X100802000Y-93637000D01*
X100808000Y-93639000D01*
X100814000Y-93641000D01*
X100820000Y-93643000D01*
X100825000Y-93646000D01*
X100831000Y-93649000D01*
X100836000Y-93652000D01*
X100842000Y-93656000D01*
X100847000Y-93660000D01*
X100851000Y-93664000D01*
X100856000Y-93668000D01*
X100860000Y-93673000D01*
X100864000Y-93677000D01*
X100868000Y-93682000D01*
X100872000Y-93688000D01*
X100875000Y-93693000D01*
X100878000Y-93699000D01*
X100881000Y-93704000D01*
X100883000Y-93710000D01*
X100885000Y-93716000D01*
X100887000Y-93722000D01*
X100888000Y-93728000D01*
X100890000Y-93734000D01*
X100890000Y-93740000D01*
X100891000Y-93747000D01*
X100891000Y-93753000D01*
X100891000Y-93903000D01*
X100891000Y-93909000D01*
X100890000Y-93916000D01*
X100890000Y-93922000D01*
X100888000Y-93928000D01*
X100887000Y-93934000D01*
X100885000Y-93940000D01*
X100883000Y-93946000D01*
X100881000Y-93952000D01*
X100878000Y-93957000D01*
X100875000Y-93963000D01*
X100872000Y-93968000D01*
X100868000Y-93974000D01*
X100864000Y-93979000D01*
X100860000Y-93983000D01*
X100856000Y-93988000D01*
X100851000Y-93992000D01*
X100847000Y-93996000D01*
X100842000Y-94000000D01*
X100836000Y-94004000D01*
X100831000Y-94007000D01*
X100825000Y-94010000D01*
X100820000Y-94013000D01*
X100814000Y-94015000D01*
X100808000Y-94017000D01*
X100802000Y-94019000D01*
X100796000Y-94020000D01*
X100790000Y-94022000D01*
X100784000Y-94022000D01*
X100777000Y-94023000D01*
X100771000Y-94023000D01*
X100271000Y-94023000D01*
X100265000Y-94023000D01*
X100258000Y-94022000D01*
X100252000Y-94022000D01*
X100246000Y-94020000D01*
X100240000Y-94019000D01*
X100234000Y-94017000D01*
X100228000Y-94015000D01*
X100222000Y-94013000D01*
X100217000Y-94010000D01*
X100211000Y-94007000D01*
X100206000Y-94004000D01*
X100200000Y-94000000D01*
X100195000Y-93996000D01*
X100191000Y-93992000D01*
X100186000Y-93988000D01*
X100182000Y-93983000D01*
X100178000Y-93979000D01*
X100174000Y-93974000D01*
X100170000Y-93968000D01*
X100167000Y-93963000D01*
X100164000Y-93957000D01*
X100161000Y-93952000D01*
X100159000Y-93946000D01*
X100157000Y-93940000D01*
X100155000Y-93934000D01*
X100154000Y-93928000D01*
X100152000Y-93922000D01*
X100152000Y-93916000D01*
X100151000Y-93909000D01*
X100151000Y-93903000D01*
X100151000Y-93753000D01*
X100151000Y-93747000D01*
X100152000Y-93740000D01*
X100152000Y-93734000D01*
X100154000Y-93728000D01*
X100155000Y-93722000D01*
X100157000Y-93716000D01*
X100159000Y-93710000D01*
X100161000Y-93704000D01*
X100164000Y-93699000D01*
X100167000Y-93693000D01*
X100170000Y-93688000D01*
X100174000Y-93682000D01*
X100178000Y-93677000D01*
X100182000Y-93673000D01*
X100186000Y-93668000D01*
X100191000Y-93664000D01*
X100195000Y-93660000D01*
X100200000Y-93656000D01*
X100206000Y-93652000D01*
X100211000Y-93649000D01*
X100217000Y-93646000D01*
X100222000Y-93643000D01*
X100228000Y-93641000D01*
X100234000Y-93639000D01*
X100240000Y-93637000D01*
X100246000Y-93636000D01*
X100252000Y-93634000D01*
X100258000Y-93634000D01*
X100265000Y-93633000D01*
X100271000Y-93633000D01*
X100771000Y-93633000D01*
X100777000Y-93633000D01*
X100784000Y-93634000D01*
G37*
X98209000Y-91809000D02*
X98215000Y-91809000D01*
X98221000Y-91811000D01*
X98227000Y-91812000D01*
X98233000Y-91814000D01*
X98239000Y-91816000D01*
X98245000Y-91818000D01*
X98250000Y-91821000D01*
X98256000Y-91824000D01*
X98261000Y-91827000D01*
X98267000Y-91831000D01*
X98272000Y-91835000D01*
X98276000Y-91839000D01*
X98281000Y-91843000D01*
X98285000Y-91848000D01*
X98289000Y-91852000D01*
X98293000Y-91857000D01*
X98297000Y-91863000D01*
X98300000Y-91868000D01*
X98303000Y-91874000D01*
X98306000Y-91879000D01*
X98308000Y-91885000D01*
X98310000Y-91891000D01*
X98312000Y-91897000D01*
X98313000Y-91903000D01*
X98315000Y-91909000D01*
X98315000Y-91915000D01*
X98316000Y-91922000D01*
X98316000Y-91928000D01*
X98316000Y-92333000D01*
X98356000Y-92333000D01*
X98356000Y-94823000D01*
X98316000Y-94823000D01*
X98316000Y-95228000D01*
X98316000Y-95234000D01*
X98315000Y-95241000D01*
X98315000Y-95247000D01*
X98313000Y-95253000D01*
X98312000Y-95259000D01*
X98310000Y-95265000D01*
X98308000Y-95271000D01*
X98306000Y-95277000D01*
X98303000Y-95282000D01*
X98300000Y-95288000D01*
X98297000Y-95293000D01*
X98293000Y-95299000D01*
X98289000Y-95304000D01*
X98285000Y-95308000D01*
X98281000Y-95313000D01*
X98276000Y-95317000D01*
X98272000Y-95321000D01*
X98267000Y-95325000D01*
X98261000Y-95329000D01*
X98256000Y-95332000D01*
X98250000Y-95335000D01*
X98245000Y-95338000D01*
X98239000Y-95340000D01*
X98233000Y-95342000D01*
X98227000Y-95344000D01*
X98221000Y-95345000D01*
X98215000Y-95347000D01*
X98209000Y-95347000D01*
X98202000Y-95348000D01*
X98196000Y-95348000D01*
X98046000Y-95348000D01*
X98040000Y-95348000D01*
X98033000Y-95347000D01*
X98027000Y-95347000D01*
X98021000Y-95345000D01*
X98015000Y-95344000D01*
X98009000Y-95342000D01*
X98003000Y-95340000D01*
X97997000Y-95338000D01*
X97992000Y-95335000D01*
X97986000Y-95332000D01*
X97981000Y-95329000D01*
X97975000Y-95325000D01*
X97970000Y-95321000D01*
X97966000Y-95317000D01*
X97961000Y-95313000D01*
X97957000Y-95308000D01*
X97953000Y-95304000D01*
X97949000Y-95299000D01*
X97945000Y-95293000D01*
X97942000Y-95288000D01*
X97939000Y-95282000D01*
X97936000Y-95277000D01*
X97934000Y-95271000D01*
X97932000Y-95265000D01*
X97930000Y-95259000D01*
X97929000Y-95253000D01*
X97927000Y-95247000D01*
X97927000Y-95241000D01*
X97926000Y-95234000D01*
X97926000Y-95228000D01*
X97926000Y-94823000D01*
X97886000Y-94823000D01*
X97886000Y-92333000D01*
X97926000Y-92333000D01*
X97926000Y-91928000D01*
X97926000Y-91922000D01*
X97927000Y-91915000D01*
X97927000Y-91909000D01*
X97929000Y-91903000D01*
X97930000Y-91897000D01*
X97932000Y-91891000D01*
X97934000Y-91885000D01*
X97936000Y-91879000D01*
X97939000Y-91874000D01*
X97942000Y-91868000D01*
X97945000Y-91863000D01*
X97949000Y-91857000D01*
X97953000Y-91852000D01*
X97957000Y-91848000D01*
X97961000Y-91843000D01*
X97966000Y-91839000D01*
X97970000Y-91835000D01*
X97975000Y-91831000D01*
X97981000Y-91827000D01*
X97986000Y-91824000D01*
X97992000Y-91821000D01*
X97997000Y-91818000D01*
X98003000Y-91816000D01*
X98009000Y-91814000D01*
X98015000Y-91812000D01*
X98021000Y-91811000D01*
X98027000Y-91809000D01*
X98033000Y-91809000D01*
X98040000Y-91808000D01*
X98046000Y-91808000D01*
X98196000Y-91808000D01*
X98202000Y-91808000D01*
X98209000Y-91809000D01*
G36*
X98209000Y-91809000D02*
G01*
X98215000Y-91809000D01*
X98221000Y-91811000D01*
X98227000Y-91812000D01*
X98233000Y-91814000D01*
X98239000Y-91816000D01*
X98245000Y-91818000D01*
X98250000Y-91821000D01*
X98256000Y-91824000D01*
X98261000Y-91827000D01*
X98267000Y-91831000D01*
X98272000Y-91835000D01*
X98276000Y-91839000D01*
X98281000Y-91843000D01*
X98285000Y-91848000D01*
X98289000Y-91852000D01*
X98293000Y-91857000D01*
X98297000Y-91863000D01*
X98300000Y-91868000D01*
X98303000Y-91874000D01*
X98306000Y-91879000D01*
X98308000Y-91885000D01*
X98310000Y-91891000D01*
X98312000Y-91897000D01*
X98313000Y-91903000D01*
X98315000Y-91909000D01*
X98315000Y-91915000D01*
X98316000Y-91922000D01*
X98316000Y-91928000D01*
X98316000Y-92333000D01*
X98356000Y-92333000D01*
X98356000Y-94823000D01*
X98316000Y-94823000D01*
X98316000Y-95228000D01*
X98316000Y-95234000D01*
X98315000Y-95241000D01*
X98315000Y-95247000D01*
X98313000Y-95253000D01*
X98312000Y-95259000D01*
X98310000Y-95265000D01*
X98308000Y-95271000D01*
X98306000Y-95277000D01*
X98303000Y-95282000D01*
X98300000Y-95288000D01*
X98297000Y-95293000D01*
X98293000Y-95299000D01*
X98289000Y-95304000D01*
X98285000Y-95308000D01*
X98281000Y-95313000D01*
X98276000Y-95317000D01*
X98272000Y-95321000D01*
X98267000Y-95325000D01*
X98261000Y-95329000D01*
X98256000Y-95332000D01*
X98250000Y-95335000D01*
X98245000Y-95338000D01*
X98239000Y-95340000D01*
X98233000Y-95342000D01*
X98227000Y-95344000D01*
X98221000Y-95345000D01*
X98215000Y-95347000D01*
X98209000Y-95347000D01*
X98202000Y-95348000D01*
X98196000Y-95348000D01*
X98046000Y-95348000D01*
X98040000Y-95348000D01*
X98033000Y-95347000D01*
X98027000Y-95347000D01*
X98021000Y-95345000D01*
X98015000Y-95344000D01*
X98009000Y-95342000D01*
X98003000Y-95340000D01*
X97997000Y-95338000D01*
X97992000Y-95335000D01*
X97986000Y-95332000D01*
X97981000Y-95329000D01*
X97975000Y-95325000D01*
X97970000Y-95321000D01*
X97966000Y-95317000D01*
X97961000Y-95313000D01*
X97957000Y-95308000D01*
X97953000Y-95304000D01*
X97949000Y-95299000D01*
X97945000Y-95293000D01*
X97942000Y-95288000D01*
X97939000Y-95282000D01*
X97936000Y-95277000D01*
X97934000Y-95271000D01*
X97932000Y-95265000D01*
X97930000Y-95259000D01*
X97929000Y-95253000D01*
X97927000Y-95247000D01*
X97927000Y-95241000D01*
X97926000Y-95234000D01*
X97926000Y-95228000D01*
X97926000Y-94823000D01*
X97886000Y-94823000D01*
X97886000Y-92333000D01*
X97926000Y-92333000D01*
X97926000Y-91928000D01*
X97926000Y-91922000D01*
X97927000Y-91915000D01*
X97927000Y-91909000D01*
X97929000Y-91903000D01*
X97930000Y-91897000D01*
X97932000Y-91891000D01*
X97934000Y-91885000D01*
X97936000Y-91879000D01*
X97939000Y-91874000D01*
X97942000Y-91868000D01*
X97945000Y-91863000D01*
X97949000Y-91857000D01*
X97953000Y-91852000D01*
X97957000Y-91848000D01*
X97961000Y-91843000D01*
X97966000Y-91839000D01*
X97970000Y-91835000D01*
X97975000Y-91831000D01*
X97981000Y-91827000D01*
X97986000Y-91824000D01*
X97992000Y-91821000D01*
X97997000Y-91818000D01*
X98003000Y-91816000D01*
X98009000Y-91814000D01*
X98015000Y-91812000D01*
X98021000Y-91811000D01*
X98027000Y-91809000D01*
X98033000Y-91809000D01*
X98040000Y-91808000D01*
X98046000Y-91808000D01*
X98196000Y-91808000D01*
X98202000Y-91808000D01*
X98209000Y-91809000D01*
G37*
%TD*%
D11*
%TO.C,J7*%
X55286000Y-98513000D03*
D12*
X55286000Y-95743000D03*
X55286000Y-92973000D03*
X55286000Y-90203000D03*
X55286000Y-87433000D03*
X52446000Y-97128000D03*
X52446000Y-94358000D03*
X52446000Y-91588000D03*
X52446000Y-88818000D03*
D13*
X53866000Y-80478000D03*
X53866000Y-105468000D03*
%TD*%
D14*
%TO.C,J1*%
X163566000Y-100978000D03*
D15*
X163566000Y-101453000D03*
D16*
X160866000Y-101978000D03*
D17*
X163566000Y-103478000D03*
X163566000Y-105478000D03*
D16*
X160866000Y-106978000D03*
D15*
X163566000Y-107503000D03*
D14*
X163566000Y-107978000D03*
D18*
X160866000Y-103178000D03*
X160866000Y-103828000D03*
X160866000Y-104478000D03*
X160866000Y-105128000D03*
X160866000Y-105778000D03*
%TD*%
D19*
%TO.C,C64*%
X95841000Y-88328000D03*
X97391000Y-88328000D03*
%TD*%
D20*
%TO.C,C60*%
X89351000Y-93078000D03*
X88391000Y-93078000D03*
%TD*%
D21*
%TO.C,C77*%
X70966000Y-116953000D03*
X70966000Y-115403000D03*
%TD*%
D22*
%TO.C,TP4*%
X133616000Y-109628000D03*
%TD*%
D23*
%TO.C,U16*%
X122048500Y-129783000D03*
X122048500Y-130283000D03*
X122048500Y-130783000D03*
X122048500Y-131283000D03*
X123948500Y-131283000D03*
X123948500Y-130783000D03*
X123948500Y-130283000D03*
X123948500Y-129783000D03*
D24*
X122998500Y-130533000D03*
%TD*%
D19*
%TO.C,C41*%
X111841000Y-137478000D03*
X113391000Y-137478000D03*
%TD*%
D25*
%TO.C,R29*%
X106041000Y-133478000D03*
X107691000Y-133478000D03*
%TD*%
D26*
%TO.C,R52*%
X125616000Y-130630500D03*
X125616000Y-131825500D03*
%TD*%
D27*
%TO.C,D6*%
X152866000Y-149403000D03*
X152866000Y-150978000D03*
%TD*%
D22*
%TO.C,TP3*%
X154616000Y-125228000D03*
%TD*%
D25*
%TO.C,R35*%
X94541000Y-133728000D03*
X96191000Y-133728000D03*
%TD*%
D28*
%TO.C,RN2*%
X92136000Y-113078000D03*
X92786000Y-113078000D03*
X93446000Y-113078000D03*
X94096000Y-113078000D03*
X94096000Y-110878000D03*
X93446000Y-110878000D03*
X92786000Y-110878000D03*
X92136000Y-110878000D03*
%TD*%
D22*
%TO.C,TP45*%
X81066000Y-94678000D03*
%TD*%
D21*
%TO.C,C14*%
X142866000Y-111253000D03*
X142866000Y-109703000D03*
%TD*%
D25*
%TO.C,R21*%
X116791000Y-116178000D03*
X118441000Y-116178000D03*
%TD*%
D19*
%TO.C,C42*%
X89341000Y-132228000D03*
X90891000Y-132228000D03*
%TD*%
D29*
%TO.C,C40*%
X118641000Y-138228000D03*
X117091000Y-138228000D03*
%TD*%
D30*
%TO.C,D15*%
X101116000Y-132528000D03*
X101116000Y-134428000D03*
X103116000Y-133478000D03*
%TD*%
D31*
%TO.C,TP14*%
X149616000Y-139978000D03*
%TD*%
D25*
%TO.C,R31*%
X117041000Y-136478000D03*
X118691000Y-136478000D03*
%TD*%
D32*
%TO.C,C56*%
X99141000Y-97078000D03*
X100101000Y-97078000D03*
%TD*%
D31*
%TO.C,TP37*%
X128866000Y-150728000D03*
%TD*%
D29*
%TO.C,FB3*%
X114766000Y-124068000D03*
X113216000Y-124068000D03*
%TD*%
%TO.C,C43*%
X96141000Y-135478000D03*
X94591000Y-135478000D03*
%TD*%
D30*
%TO.C,D16*%
X106366000Y-139528000D03*
X106366000Y-141428000D03*
X108366000Y-140478000D03*
%TD*%
D33*
%TO.C,C5*%
X156366000Y-117565500D03*
X156366000Y-119115500D03*
%TD*%
D34*
%TO.C,U1*%
X144891000Y-99573000D03*
X144891000Y-100843000D03*
X144891000Y-102113000D03*
X144891000Y-103383000D03*
X149841000Y-103383000D03*
X149841000Y-102113000D03*
X149841000Y-100843000D03*
X149841000Y-99573000D03*
%TD*%
D20*
%TO.C,C54*%
X99621000Y-89578000D03*
X98661000Y-89578000D03*
%TD*%
D19*
%TO.C,C78*%
X61616000Y-130378000D03*
X63166000Y-130378000D03*
%TD*%
D25*
%TO.C,R34*%
X83541000Y-130728000D03*
X85191000Y-130728000D03*
%TD*%
D20*
%TO.C,C57*%
X97101000Y-97078000D03*
X96141000Y-97078000D03*
%TD*%
D19*
%TO.C,C38*%
X94616000Y-123728000D03*
X96166000Y-123728000D03*
%TD*%
D29*
%TO.C,C46*%
X79666000Y-141978000D03*
X78116000Y-141978000D03*
%TD*%
D33*
%TO.C,C10*%
X128966000Y-88703000D03*
X128966000Y-90253000D03*
%TD*%
D35*
%TO.C,C50*%
X112766000Y-86391600D03*
X112766000Y-79178000D03*
%TD*%
D21*
%TO.C,C13*%
X141366000Y-120253000D03*
X141366000Y-118703000D03*
%TD*%
D30*
%TO.C,D19*%
X62141000Y-136278000D03*
X62141000Y-138178000D03*
X64141000Y-137228000D03*
%TD*%
D25*
%TO.C,R32*%
X111791000Y-139478000D03*
X113441000Y-139478000D03*
%TD*%
D21*
%TO.C,C27*%
X66616000Y-102903000D03*
X66616000Y-101353000D03*
%TD*%
D32*
%TO.C,C63*%
X96661000Y-89578000D03*
X97621000Y-89578000D03*
%TD*%
D30*
%TO.C,D20*%
X67391000Y-143278000D03*
X67391000Y-145178000D03*
X69391000Y-144228000D03*
%TD*%
D29*
%TO.C,C74*%
X114766000Y-126578000D03*
X113216000Y-126578000D03*
%TD*%
D36*
%TO.C,R4*%
X142366000Y-103803000D03*
X142366000Y-102153000D03*
%TD*%
D29*
%TO.C,C37*%
X101416000Y-124478000D03*
X99866000Y-124478000D03*
%TD*%
D37*
%TO.C,R47*%
X92131000Y-94078000D03*
X91111000Y-94078000D03*
%TD*%
D29*
%TO.C,C75*%
X81341000Y-108178000D03*
X79791000Y-108178000D03*
%TD*%
D38*
%TO.C,L1*%
X100531000Y-102328000D03*
X95711000Y-102328000D03*
%TD*%
D39*
%TO.C,U3*%
X137366000Y-79728000D03*
X137366000Y-80578000D03*
X137366000Y-81428000D03*
X137366000Y-82278000D03*
X137366000Y-83128000D03*
X137366000Y-83978000D03*
X137366000Y-84828000D03*
X137366000Y-85678000D03*
X137366000Y-86528000D03*
X137366000Y-87378000D03*
X137366000Y-88228000D03*
X137366000Y-89078000D03*
X137366000Y-89928000D03*
X137366000Y-90778000D03*
X137366000Y-91628000D03*
D40*
X138416000Y-92678000D03*
X139266000Y-92678000D03*
X140116000Y-92678000D03*
X140966000Y-92678000D03*
X141816000Y-92678000D03*
X142666000Y-92678000D03*
X143516000Y-92678000D03*
X144366000Y-92678000D03*
X145216000Y-92678000D03*
X146066000Y-92678000D03*
X146916000Y-92678000D03*
X147766000Y-92678000D03*
X148616000Y-92678000D03*
X149466000Y-92678000D03*
X150316000Y-92678000D03*
D39*
X151366000Y-91628000D03*
X151366000Y-90778000D03*
X151366000Y-89928000D03*
X151366000Y-89078000D03*
X151366000Y-88228000D03*
X151366000Y-87378000D03*
X151366000Y-86528000D03*
X151366000Y-85678000D03*
X151366000Y-84828000D03*
X151366000Y-83978000D03*
X151366000Y-83128000D03*
X151366000Y-82278000D03*
X151366000Y-81428000D03*
X151366000Y-80578000D03*
X151366000Y-79728000D03*
D40*
X150316000Y-78678000D03*
X149466000Y-78678000D03*
X148616000Y-78678000D03*
X147766000Y-78678000D03*
X146916000Y-78678000D03*
X146066000Y-78678000D03*
X145216000Y-78678000D03*
X144366000Y-78678000D03*
X143516000Y-78678000D03*
X142666000Y-78678000D03*
X141816000Y-78678000D03*
X140966000Y-78678000D03*
X140116000Y-78678000D03*
X139266000Y-78678000D03*
X138416000Y-78678000D03*
D41*
X142716000Y-84028000D03*
D42*
X142716000Y-85678000D03*
X142716000Y-87328000D03*
X144366000Y-84028000D03*
X144366000Y-85678000D03*
X144366000Y-87328000D03*
X146016000Y-84028000D03*
X146016000Y-85678000D03*
X146016000Y-87328000D03*
D43*
X137366000Y-78678000D03*
X137366000Y-92678000D03*
X151366000Y-92678000D03*
X151366000Y-78678000D03*
%TD*%
D21*
%TO.C,C11*%
X132616000Y-83728000D03*
X132616000Y-82178000D03*
%TD*%
D25*
%TO.C,R25*%
X88816000Y-119728000D03*
X90466000Y-119728000D03*
%TD*%
D44*
%TO.C,R38*%
X92766000Y-134653000D03*
X92766000Y-136303000D03*
%TD*%
D19*
%TO.C,C45*%
X72866000Y-138728000D03*
X74416000Y-138728000D03*
%TD*%
D45*
%TO.C,C51*%
X102116000Y-86078000D03*
X99166000Y-86078000D03*
%TD*%
D25*
%TO.C,R8*%
X149041000Y-96478000D03*
X150691000Y-96478000D03*
%TD*%
D30*
%TO.C,D17*%
X78616000Y-129778000D03*
X78616000Y-131678000D03*
X80616000Y-130728000D03*
%TD*%
D22*
%TO.C,TP6*%
X156366000Y-96478000D03*
%TD*%
D45*
%TO.C,C52*%
X102116000Y-83578000D03*
X99166000Y-83578000D03*
%TD*%
D46*
%TO.C,D1*%
X151366000Y-109378000D03*
X151366000Y-106578000D03*
%TD*%
D44*
%TO.C,R33*%
X115266000Y-137453000D03*
X115266000Y-139103000D03*
%TD*%
D37*
%TO.C,R50*%
X91881000Y-90828000D03*
X90861000Y-90828000D03*
%TD*%
D36*
%TO.C,R5*%
X140866000Y-103803000D03*
X140866000Y-102153000D03*
%TD*%
D31*
%TO.C,TP12*%
X53166000Y-111978000D03*
%TD*%
D47*
%TO.C,Q2*%
X72296000Y-99583000D03*
D48*
X73616000Y-100778000D03*
D49*
X73991000Y-99583000D03*
%TD*%
D50*
%TO.C,C23*%
X71966000Y-81728000D03*
X71966000Y-79828000D03*
%TD*%
D19*
%TO.C,C7*%
X154591000Y-122478000D03*
X156141000Y-122478000D03*
%TD*%
%TO.C,C33*%
X111591000Y-114678000D03*
X113141000Y-114678000D03*
%TD*%
%TO.C,C29*%
X90991000Y-108578000D03*
X92541000Y-108578000D03*
%TD*%
D51*
%TO.C,J4*%
X155366000Y-141778000D03*
D52*
X155366000Y-139238000D03*
X155366000Y-136698000D03*
X155366000Y-134158000D03*
%TD*%
D30*
%TO.C,D18*%
X83866000Y-136778000D03*
X83866000Y-138678000D03*
X85866000Y-137728000D03*
%TD*%
D53*
%TO.C,SW2*%
X126566000Y-108828000D03*
X130666000Y-108828000D03*
X126566000Y-110428000D03*
X130666000Y-110428000D03*
D54*
X128616000Y-108203000D03*
%TD*%
D50*
%TO.C,C21*%
X65366000Y-81728000D03*
X65366000Y-79828000D03*
%TD*%
D55*
%TO.C,C69*%
X80916000Y-90528000D03*
X80916000Y-85128000D03*
%TD*%
D25*
%TO.C,R40*%
X78066000Y-140228000D03*
X79716000Y-140228000D03*
%TD*%
D50*
%TO.C,C24*%
X80866000Y-81778000D03*
X80866000Y-79878000D03*
%TD*%
D56*
%TO.C,C61*%
X94121000Y-91808000D03*
X94121000Y-90848000D03*
%TD*%
D57*
%TO.C,R15*%
X70691000Y-99128000D03*
X69041000Y-99128000D03*
%TD*%
D58*
%TO.C,D8*%
X143366000Y-117478000D03*
X143366000Y-120278000D03*
%TD*%
D53*
%TO.C,SW1*%
X126616000Y-100128000D03*
X130716000Y-100128000D03*
X126616000Y-101728000D03*
X130716000Y-101728000D03*
D54*
X128666000Y-99503000D03*
%TD*%
D59*
%TO.C,R54*%
X122768500Y-132478000D03*
X123963500Y-132478000D03*
%TD*%
D19*
%TO.C,C35*%
X111591000Y-117178000D03*
X113141000Y-117178000D03*
%TD*%
D31*
%TO.C,TP28*%
X138116000Y-139978000D03*
%TD*%
D36*
%TO.C,R12*%
X146366000Y-151015500D03*
X146366000Y-149365500D03*
%TD*%
D22*
%TO.C,TP40*%
X88616000Y-100978000D03*
%TD*%
D44*
%TO.C,R44*%
X136366000Y-149353000D03*
X136366000Y-151003000D03*
%TD*%
D20*
%TO.C,C59*%
X89331000Y-92078000D03*
X88371000Y-92078000D03*
%TD*%
D33*
%TO.C,C76*%
X81566000Y-116403000D03*
X81566000Y-117953000D03*
%TD*%
D60*
%TO.C,U5*%
X68216000Y-104648000D03*
X68866000Y-104648000D03*
X69516000Y-104648000D03*
X69516000Y-102608000D03*
X68866000Y-102608000D03*
X68216000Y-102608000D03*
D61*
X68866000Y-103628000D03*
%TD*%
D25*
%TO.C,R42*%
X72816000Y-143228000D03*
X74466000Y-143228000D03*
%TD*%
D62*
%TO.C,U11*%
X88166000Y-121478000D03*
X88166000Y-122128000D03*
X88166000Y-122778000D03*
X88166000Y-123428000D03*
X92391000Y-123428000D03*
X92391000Y-122778000D03*
X92391000Y-122128000D03*
X92391000Y-121478000D03*
%TD*%
D31*
%TO.C,TP22*%
X132366000Y-139978000D03*
%TD*%
D63*
%TO.C,D10*%
X62866000Y-81478000D03*
X62866000Y-79278000D03*
%TD*%
D64*
%TO.C,J6*%
X51036000Y-123648000D03*
X51036000Y-133808000D03*
D65*
X56116000Y-128728000D03*
X56116000Y-131268000D03*
%TD*%
D64*
%TO.C,J5*%
X51116000Y-140648000D03*
X51116000Y-150808000D03*
D65*
X56196000Y-145728000D03*
X56196000Y-148268000D03*
%TD*%
D44*
%TO.C,R30*%
X97966000Y-123653000D03*
X97966000Y-125303000D03*
%TD*%
D46*
%TO.C,D5*%
X156866000Y-115378000D03*
X156866000Y-112578000D03*
%TD*%
D66*
%TO.C,C66*%
X94166000Y-83578000D03*
X97116000Y-83578000D03*
%TD*%
D22*
%TO.C,TP1*%
X133616000Y-105128000D03*
%TD*%
D67*
%TO.C,C72*%
X118548500Y-129978000D03*
X119683500Y-129978000D03*
%TD*%
D36*
%TO.C,R7*%
X151366000Y-151015500D03*
X151366000Y-149365500D03*
%TD*%
D31*
%TO.C,TP13*%
X65616000Y-150478000D03*
%TD*%
D68*
%TO.C,R45*%
X103111000Y-94578000D03*
X104131000Y-94578000D03*
%TD*%
D69*
%TO.C,D4*%
X153866000Y-108528000D03*
X153866000Y-106428000D03*
%TD*%
D22*
%TO.C,TP41*%
X109121000Y-93078000D03*
%TD*%
D28*
%TO.C,RN6*%
X72386000Y-129328000D03*
X73036000Y-129328000D03*
X73696000Y-129328000D03*
X74346000Y-129328000D03*
X74346000Y-127128000D03*
X73696000Y-127128000D03*
X73036000Y-127128000D03*
X72386000Y-127128000D03*
%TD*%
D32*
%TO.C,C62*%
X96661000Y-90578000D03*
X97621000Y-90578000D03*
%TD*%
D70*
%TO.C,RN3*%
X79716000Y-114708000D03*
X79716000Y-114058000D03*
X79716000Y-113398000D03*
X79716000Y-112748000D03*
X77516000Y-112748000D03*
X77516000Y-113398000D03*
X77516000Y-114058000D03*
X77516000Y-114708000D03*
%TD*%
D22*
%TO.C,TP46*%
X116616000Y-125728000D03*
%TD*%
D37*
%TO.C,R49*%
X91891000Y-89828000D03*
X90871000Y-89828000D03*
%TD*%
D31*
%TO.C,TP30*%
X144116000Y-139978000D03*
%TD*%
D34*
%TO.C,U9*%
X61891000Y-124573000D03*
X61891000Y-125843000D03*
X61891000Y-127113000D03*
X61891000Y-128383000D03*
X66841000Y-128383000D03*
X66841000Y-127113000D03*
X66841000Y-125843000D03*
X66841000Y-124573000D03*
%TD*%
D71*
%TO.C,D21*%
X138366000Y-150965500D03*
X138366000Y-149390500D03*
%TD*%
D72*
%TO.C,U2*%
X152366000Y-122578000D03*
X152366000Y-120278000D03*
D73*
X146066000Y-120278000D03*
D72*
X152366000Y-117978000D03*
%TD*%
D44*
%TO.C,R6*%
X152366000Y-99328000D03*
X152366000Y-100978000D03*
%TD*%
D31*
%TO.C,TP9*%
X98616000Y-150478000D03*
%TD*%
D21*
%TO.C,C12*%
X134366000Y-83753000D03*
X134366000Y-82203000D03*
%TD*%
D19*
%TO.C,C44*%
X89341000Y-134728000D03*
X90891000Y-134728000D03*
%TD*%
D66*
%TO.C,C67*%
X94146000Y-81078000D03*
X97096000Y-81078000D03*
%TD*%
D74*
%TO.C,RN5*%
X67016000Y-116748000D03*
X67016000Y-117398000D03*
X67016000Y-118058000D03*
X67016000Y-118708000D03*
X69216000Y-118708000D03*
X69216000Y-118058000D03*
X69216000Y-117398000D03*
X69216000Y-116748000D03*
%TD*%
D19*
%TO.C,C31*%
X66816000Y-122478000D03*
X68366000Y-122478000D03*
%TD*%
D75*
%TO.C,D3*%
X139816000Y-96978000D03*
X141916000Y-96978000D03*
%TD*%
D21*
%TO.C,C15*%
X141366000Y-111253000D03*
X141366000Y-109703000D03*
%TD*%
D76*
%TO.C,H2*%
X104116000Y-75528000D03*
%TD*%
D22*
%TO.C,TP38*%
X104871000Y-99078000D03*
%TD*%
D36*
%TO.C,R10*%
X140866000Y-115803000D03*
X140866000Y-114153000D03*
%TD*%
D67*
%TO.C,C70*%
X118548500Y-128728000D03*
X119683500Y-128728000D03*
%TD*%
D19*
%TO.C,C47*%
X72866000Y-141228000D03*
X74416000Y-141228000D03*
%TD*%
D77*
%TO.C,JP1*%
X72116000Y-86378000D03*
X69093400Y-86378000D03*
X66070800Y-86378000D03*
%TD*%
D76*
%TO.C,H3*%
X104116000Y-151928000D03*
%TD*%
D33*
%TO.C,C68*%
X86416000Y-88053000D03*
X86416000Y-89603000D03*
%TD*%
D25*
%TO.C,R26*%
X99816000Y-122728000D03*
X101466000Y-122728000D03*
%TD*%
D78*
%TO.C,U8*%
X75521000Y-119003000D03*
X74251000Y-119003000D03*
X72981000Y-119003000D03*
X71711000Y-119003000D03*
X71711000Y-123953000D03*
X72981000Y-123953000D03*
X74251000Y-123953000D03*
X75521000Y-123953000D03*
%TD*%
D22*
%TO.C,TP39*%
X104871000Y-103078000D03*
%TD*%
D36*
%TO.C,R11*%
X141366000Y-150978000D03*
X141366000Y-149328000D03*
%TD*%
D44*
%TO.C,R3*%
X152866000Y-114153000D03*
X152866000Y-115803000D03*
%TD*%
D79*
%TO.C,R53*%
X121366000Y-133825500D03*
X121366000Y-132630500D03*
%TD*%
D30*
%TO.C,D12*%
X106116000Y-119228000D03*
X106116000Y-121128000D03*
X108116000Y-120178000D03*
%TD*%
D80*
%TO.C,R51*%
X89583500Y-85578000D03*
X86658500Y-85578000D03*
%TD*%
D30*
%TO.C,D13*%
X83891000Y-118778000D03*
X83891000Y-120678000D03*
X85891000Y-119728000D03*
%TD*%
D34*
%TO.C,U7*%
X83641000Y-110823000D03*
X83641000Y-112093000D03*
X83641000Y-113363000D03*
X83641000Y-114633000D03*
X88591000Y-114633000D03*
X88591000Y-113363000D03*
X88591000Y-112093000D03*
X88591000Y-110823000D03*
%TD*%
D29*
%TO.C,C53*%
X100416000Y-88328000D03*
X98866000Y-88328000D03*
%TD*%
D34*
%TO.C,U6*%
X83391000Y-104073000D03*
X83391000Y-105343000D03*
X83391000Y-106613000D03*
X83391000Y-107883000D03*
X88341000Y-107883000D03*
X88341000Y-106613000D03*
X88341000Y-105343000D03*
X88341000Y-104073000D03*
%TD*%
D50*
%TO.C,C19*%
X69866000Y-81728000D03*
X69866000Y-79828000D03*
%TD*%
D19*
%TO.C,C36*%
X94616000Y-121228000D03*
X96166000Y-121228000D03*
%TD*%
D44*
%TO.C,R24*%
X114966000Y-117153000D03*
X114966000Y-118803000D03*
%TD*%
D81*
%TO.C,RV1*%
X97716000Y-140228000D03*
D82*
X102816000Y-141378000D03*
D81*
X97716000Y-142528000D03*
%TD*%
D51*
%TO.C,JP2*%
X60291000Y-117978000D03*
D52*
X57751000Y-117978000D03*
X55211000Y-117978000D03*
%TD*%
D33*
%TO.C,C9*%
X131766000Y-88803000D03*
X131766000Y-90353000D03*
%TD*%
D62*
%TO.C,U13*%
X82891000Y-132478000D03*
X82891000Y-133128000D03*
X82891000Y-133778000D03*
X82891000Y-134428000D03*
X87116000Y-134428000D03*
X87116000Y-133778000D03*
X87116000Y-133128000D03*
X87116000Y-132478000D03*
%TD*%
D83*
%TO.C,R19*%
X65591000Y-112965500D03*
X65591000Y-110040500D03*
%TD*%
D70*
%TO.C,RN4*%
X74716000Y-114708000D03*
X74716000Y-114058000D03*
X74716000Y-113398000D03*
X74716000Y-112748000D03*
X72516000Y-112748000D03*
X72516000Y-113398000D03*
X72516000Y-114058000D03*
X72516000Y-114708000D03*
%TD*%
D50*
%TO.C,C22*%
X78616000Y-81728000D03*
X78616000Y-79828000D03*
%TD*%
D25*
%TO.C,R41*%
X62566000Y-140728000D03*
X64216000Y-140728000D03*
%TD*%
D33*
%TO.C,FB1*%
X64966000Y-101373000D03*
X64966000Y-102923000D03*
%TD*%
D25*
%TO.C,R37*%
X89291000Y-136728000D03*
X90941000Y-136728000D03*
%TD*%
D50*
%TO.C,C17*%
X76366000Y-81728000D03*
X76366000Y-79828000D03*
%TD*%
D31*
%TO.C,TP36*%
X122966000Y-150578000D03*
%TD*%
D25*
%TO.C,R39*%
X67066000Y-137228000D03*
X68716000Y-137228000D03*
%TD*%
D71*
%TO.C,F2*%
X158866000Y-114265500D03*
X158866000Y-112690500D03*
%TD*%
D25*
%TO.C,R20*%
X105791000Y-113178000D03*
X107441000Y-113178000D03*
%TD*%
D27*
%TO.C,D7*%
X142866000Y-149403000D03*
X142866000Y-150978000D03*
%TD*%
D32*
%TO.C,C48*%
X103161000Y-95828000D03*
X104121000Y-95828000D03*
%TD*%
D31*
%TO.C,TP8*%
X58066000Y-74578000D03*
%TD*%
D25*
%TO.C,R22*%
X101291000Y-116678000D03*
X102941000Y-116678000D03*
%TD*%
D21*
%TO.C,C2*%
X147866000Y-111115500D03*
X147866000Y-109565500D03*
%TD*%
%TO.C,C16*%
X139866000Y-111253000D03*
X139866000Y-109703000D03*
%TD*%
D30*
%TO.C,D11*%
X100866000Y-112228000D03*
X100866000Y-114128000D03*
X102866000Y-113178000D03*
%TD*%
D19*
%TO.C,C32*%
X82591000Y-101478000D03*
X84141000Y-101478000D03*
%TD*%
D32*
%TO.C,C58*%
X103141000Y-92078000D03*
X104101000Y-92078000D03*
%TD*%
D25*
%TO.C,R28*%
X94566000Y-125728000D03*
X96216000Y-125728000D03*
%TD*%
D27*
%TO.C,F1*%
X149346000Y-109553000D03*
X149346000Y-111128000D03*
%TD*%
D84*
%TO.C,C71*%
X125616000Y-128160500D03*
X125616000Y-129295500D03*
%TD*%
D31*
%TO.C,TP33*%
X82116000Y-150478000D03*
%TD*%
%TO.C,TP11*%
X61866000Y-95478000D03*
%TD*%
%TO.C,TP32*%
X116766000Y-150378000D03*
%TD*%
D30*
%TO.C,D14*%
X89141000Y-125778000D03*
X89141000Y-127678000D03*
X91141000Y-126728000D03*
%TD*%
D76*
%TO.C,H1*%
X71966000Y-75528000D03*
%TD*%
D25*
%TO.C,R27*%
X84316000Y-123228000D03*
X85966000Y-123228000D03*
%TD*%
D44*
%TO.C,R14*%
X71041000Y-102553000D03*
X71041000Y-104203000D03*
%TD*%
D31*
%TO.C,TP34*%
X90616000Y-150478000D03*
%TD*%
D44*
%TO.C,R43*%
X76166000Y-141153000D03*
X76166000Y-142803000D03*
%TD*%
D33*
%TO.C,C25*%
X65116000Y-104578000D03*
X65116000Y-106128000D03*
%TD*%
D62*
%TO.C,U10*%
X105141000Y-114928000D03*
X105141000Y-115578000D03*
X105141000Y-116228000D03*
X105141000Y-116878000D03*
X109366000Y-116878000D03*
X109366000Y-116228000D03*
X109366000Y-115578000D03*
X109366000Y-114928000D03*
%TD*%
D51*
%TO.C,J3*%
X122866000Y-84918000D03*
D52*
X122866000Y-82378000D03*
X122866000Y-79838000D03*
%TD*%
D27*
%TO.C,D9*%
X147866000Y-149403000D03*
X147866000Y-150978000D03*
%TD*%
D85*
%TO.C,J2*%
X159866000Y-116708000D03*
D86*
X159866000Y-117978000D03*
%TD*%
D19*
%TO.C,C30*%
X77841000Y-124728000D03*
X79391000Y-124728000D03*
%TD*%
D62*
%TO.C,U12*%
X105391000Y-135228000D03*
X105391000Y-135878000D03*
X105391000Y-136528000D03*
X105391000Y-137178000D03*
X109616000Y-137178000D03*
X109616000Y-136528000D03*
X109616000Y-135878000D03*
X109616000Y-135228000D03*
%TD*%
D25*
%TO.C,R36*%
X79041000Y-134228000D03*
X80691000Y-134228000D03*
%TD*%
D37*
%TO.C,R48*%
X92131000Y-93078000D03*
X91111000Y-93078000D03*
%TD*%
D22*
%TO.C,TP44*%
X88121000Y-79578000D03*
%TD*%
D19*
%TO.C,FB2*%
X82591000Y-99728000D03*
X84141000Y-99728000D03*
%TD*%
D33*
%TO.C,C8*%
X134366000Y-88703000D03*
X134366000Y-90253000D03*
%TD*%
D22*
%TO.C,TP42*%
X91621000Y-99078000D03*
%TD*%
D87*
%TO.C,U4*%
X142916000Y-115615500D03*
X143866000Y-115615500D03*
X144816000Y-115615500D03*
X144816000Y-113340500D03*
X142916000Y-113340500D03*
%TD*%
D21*
%TO.C,C1*%
X146366000Y-111115500D03*
X146366000Y-109565500D03*
%TD*%
D88*
%TO.C,R18*%
X68141000Y-109878000D03*
X69541000Y-109878000D03*
X69541000Y-112628000D03*
X68141000Y-112628000D03*
%TD*%
D50*
%TO.C,C18*%
X74116000Y-81728000D03*
X74116000Y-79828000D03*
%TD*%
D22*
%TO.C,TP7*%
X156366000Y-93728000D03*
%TD*%
D25*
%TO.C,R9*%
X149041000Y-94978000D03*
X150691000Y-94978000D03*
%TD*%
D89*
%TO.C,SW3*%
X158366000Y-82978000D03*
X158366000Y-89778000D03*
D90*
X156166000Y-83878000D03*
X156166000Y-88878000D03*
X160566000Y-86378000D03*
%TD*%
D31*
%TO.C,TP10*%
X61766000Y-85478000D03*
%TD*%
D91*
%TO.C,R16*%
X73641000Y-103128000D03*
X75041000Y-103128000D03*
X75041000Y-105878000D03*
X73641000Y-105878000D03*
%TD*%
D31*
%TO.C,TP35*%
X82166000Y-144378000D03*
%TD*%
D92*
%TO.C,R17*%
X74466000Y-108053000D03*
X74466000Y-109453000D03*
X71716000Y-109453000D03*
X71716000Y-108053000D03*
%TD*%
D25*
%TO.C,R23*%
X111541000Y-119178000D03*
X113191000Y-119178000D03*
%TD*%
D67*
%TO.C,C73*%
X118616000Y-131228000D03*
X119751000Y-131228000D03*
%TD*%
D25*
%TO.C,R13*%
X69041000Y-100878000D03*
X70691000Y-100878000D03*
%TD*%
D93*
%TO.C,Q1*%
X148916000Y-115478000D03*
X150816000Y-115478000D03*
X149866000Y-113478000D03*
%TD*%
D33*
%TO.C,C4*%
X154866000Y-117565500D03*
X154866000Y-119115500D03*
%TD*%
D62*
%TO.C,U14*%
X66416000Y-138978000D03*
X66416000Y-139628000D03*
X66416000Y-140278000D03*
X66416000Y-140928000D03*
X70641000Y-140928000D03*
X70641000Y-140278000D03*
X70641000Y-139628000D03*
X70641000Y-138978000D03*
%TD*%
D44*
%TO.C,R2*%
X154866000Y-114153000D03*
X154866000Y-115803000D03*
%TD*%
D31*
%TO.C,TP31*%
X110766000Y-150478000D03*
%TD*%
D20*
%TO.C,C55*%
X99621000Y-90578000D03*
X98661000Y-90578000D03*
%TD*%
D29*
%TO.C,C3*%
X128166000Y-103628000D03*
X126616000Y-103628000D03*
%TD*%
D57*
%TO.C,R1*%
X128216000Y-105128000D03*
X126566000Y-105128000D03*
%TD*%
D33*
%TO.C,C26*%
X66616000Y-104578000D03*
X66616000Y-106128000D03*
%TD*%
D29*
%TO.C,C34*%
X118391000Y-117928000D03*
X116841000Y-117928000D03*
%TD*%
D19*
%TO.C,C6*%
X154591000Y-120978000D03*
X156141000Y-120978000D03*
%TD*%
D76*
%TO.C,H4*%
X71966000Y-151928000D03*
%TD*%
D29*
%TO.C,C49*%
X93396000Y-95578000D03*
X91846000Y-95578000D03*
%TD*%
D19*
%TO.C,C39*%
X111841000Y-134978000D03*
X113391000Y-134978000D03*
%TD*%
D66*
%TO.C,C65*%
X94166000Y-86078000D03*
X97116000Y-86078000D03*
%TD*%
D68*
%TO.C,R46*%
X103111000Y-91078000D03*
X104131000Y-91078000D03*
%TD*%
D94*
%TO.C,RN1*%
X79846000Y-103378000D03*
X79196000Y-103378000D03*
X78536000Y-103378000D03*
X77886000Y-103378000D03*
X77886000Y-105578000D03*
X78536000Y-105578000D03*
X79196000Y-105578000D03*
X79846000Y-105578000D03*
%TD*%
D19*
%TO.C,C28*%
X90591000Y-103978000D03*
X92141000Y-103978000D03*
%TD*%
D31*
%TO.C,TP18*%
X126616000Y-139978000D03*
%TD*%
D75*
%TO.C,D2*%
X139816000Y-94978000D03*
X141916000Y-94978000D03*
%TD*%
D50*
%TO.C,C20*%
X67616000Y-81733000D03*
X67616000Y-79833000D03*
%TD*%
M02*
