%TF.GenerationSoftware,KiCad,Pcbnew,9.0.0*%
%TF.CreationDate,2025-02-25T12:17:53-05:00*%
%TF.ProjectId,kicad_pulse_supply-rev-C,6b696361-645f-4707-956c-73655f737570,rev?*%
%TF.SameCoordinates,Original*%
%TF.FileFunction,Soldermask,Bot*%
%TF.FilePolarity,Negative*%
%FSLAX46Y46*%
G04 Gerber Fmt 4.6, Leading zero omitted, Abs format (unit mm)*
G04 Created by KiCad (PCBNEW 9.0.0) date 2025-02-25 12:17:53*
%MOMM*%
%LPD*%
G01*
G04 APERTURE LIST*
%ADD10R,1.575000X1.575000*%
%ADD11C,1.575000*%
%ADD12C,4.066000*%
%ADD13O,1.550000X0.890000*%
%ADD14O,0.950000X1.250000*%
%ADD15C,3.048000*%
%ADD16R,1.700000X1.700000*%
%ADD17O,1.700000X1.700000*%
%ADD18C,3.000000*%
%ADD19C,1.524000*%
%ADD20C,3.200000*%
%ADD21R,1.000000X1.000000*%
%ADD22O,1.000000X1.000000*%
%ADD23C,0.900000*%
G04 APERTURE END LIST*
D10*
%TO.C,J7*%
X55286000Y-98513000D03*
D11*
X55286000Y-95743000D03*
X55286000Y-92973000D03*
X55286000Y-90203000D03*
X55286000Y-87433000D03*
X52446000Y-97128000D03*
X52446000Y-94358000D03*
X52446000Y-91588000D03*
X52446000Y-88818000D03*
D12*
X53866000Y-80478000D03*
X53866000Y-105468000D03*
%TD*%
D13*
%TO.C,J1*%
X163566000Y-100978000D03*
D14*
X160866000Y-101978000D03*
X160866000Y-106978000D03*
D13*
X163566000Y-107978000D03*
%TD*%
D15*
%TO.C,TP14*%
X149616000Y-139978000D03*
%TD*%
%TO.C,TP37*%
X128866000Y-150728000D03*
%TD*%
%TO.C,TP12*%
X53166000Y-111978000D03*
%TD*%
D16*
%TO.C,J4*%
X155366000Y-141778000D03*
D17*
X155366000Y-139238000D03*
X155366000Y-136698000D03*
X155366000Y-134158000D03*
%TD*%
D15*
%TO.C,TP28*%
X138116000Y-139978000D03*
%TD*%
%TO.C,TP22*%
X132366000Y-139978000D03*
%TD*%
D18*
%TO.C,J6*%
X51036000Y-123648000D03*
X51036000Y-133808000D03*
D19*
X56116000Y-128728000D03*
X56116000Y-131268000D03*
%TD*%
D18*
%TO.C,J5*%
X51116000Y-140648000D03*
X51116000Y-150808000D03*
D19*
X56196000Y-145728000D03*
X56196000Y-148268000D03*
%TD*%
D15*
%TO.C,TP13*%
X65616000Y-150478000D03*
%TD*%
%TO.C,TP30*%
X144116000Y-139978000D03*
%TD*%
%TO.C,TP9*%
X98616000Y-150478000D03*
%TD*%
D20*
%TO.C,H2*%
X104116000Y-75528000D03*
%TD*%
%TO.C,H3*%
X104116000Y-151928000D03*
%TD*%
D16*
%TO.C,JP2*%
X60291000Y-117978000D03*
D17*
X57751000Y-117978000D03*
X55211000Y-117978000D03*
%TD*%
D15*
%TO.C,TP36*%
X122966000Y-150578000D03*
%TD*%
%TO.C,TP8*%
X58066000Y-74578000D03*
%TD*%
%TO.C,TP33*%
X82116000Y-150478000D03*
%TD*%
%TO.C,TP11*%
X61866000Y-95478000D03*
%TD*%
%TO.C,TP32*%
X116766000Y-150378000D03*
%TD*%
D20*
%TO.C,H1*%
X71966000Y-75528000D03*
%TD*%
D15*
%TO.C,TP34*%
X90616000Y-150478000D03*
%TD*%
D16*
%TO.C,J3*%
X122866000Y-84918000D03*
D17*
X122866000Y-82378000D03*
X122866000Y-79838000D03*
%TD*%
D21*
%TO.C,J2*%
X159866000Y-116708000D03*
D22*
X159866000Y-117978000D03*
%TD*%
D23*
%TO.C,SW3*%
X158366000Y-82978000D03*
X158366000Y-89778000D03*
%TD*%
D15*
%TO.C,TP10*%
X61766000Y-85478000D03*
%TD*%
%TO.C,TP35*%
X82166000Y-144378000D03*
%TD*%
%TO.C,TP31*%
X110766000Y-150478000D03*
%TD*%
D20*
%TO.C,H4*%
X71966000Y-151928000D03*
%TD*%
D15*
%TO.C,TP18*%
X126616000Y-139978000D03*
%TD*%
M02*
