%TF.GenerationSoftware,KiCad,Pcbnew,8.0.1*%
%TF.CreationDate,2024-12-12T11:44:26-05:00*%
%TF.ProjectId,max9643_breakout,6d617839-3634-4335-9f62-7265616b6f75,rev?*%
%TF.SameCoordinates,Original*%
%TF.FileFunction,Copper,L2,Bot*%
%TF.FilePolarity,Positive*%
%FSLAX46Y46*%
G04 Gerber Fmt 4.6, Leading zero omitted, Abs format (unit mm)*
G04 Created by KiCad (PCBNEW 8.0.1) date 2024-12-12 11:44:26*
%MOMM*%
%LPD*%
G01*
G04 APERTURE LIST*
%TA.AperFunction,ViaPad*%
%ADD10C,0.700000*%
%TD*%
%TA.AperFunction,Conductor*%
%ADD11C,0.381000*%
%TD*%
%ADD12C,0.300000*%
G04 APERTURE END LIST*
D10*
%TO.N,GND*%
X120000000Y-69000000D03*
X129000000Y-69000000D03*
X109500000Y-72000000D03*
X99000000Y-75000000D03*
X105000000Y-57000000D03*
X96000000Y-75000000D03*
X111000000Y-75000000D03*
X112500000Y-60000000D03*
X97500000Y-54000000D03*
X118500000Y-72000000D03*
X115500000Y-54000000D03*
X124500000Y-72000000D03*
X93000000Y-75000000D03*
X124500000Y-54000000D03*
X103500000Y-72000000D03*
X105000000Y-75000000D03*
X112500000Y-54000000D03*
X117000000Y-57000000D03*
X102000000Y-75000000D03*
X124500000Y-60000000D03*
X123000000Y-75000000D03*
X120000000Y-57000000D03*
X127500000Y-60000000D03*
X117000000Y-75000000D03*
X106500000Y-60000000D03*
X117000000Y-69000000D03*
X103500000Y-54000000D03*
X115500000Y-72000000D03*
X102000000Y-57000000D03*
X120000000Y-75000000D03*
X100500000Y-54000000D03*
X123000000Y-57000000D03*
X102200000Y-63200000D03*
X91500000Y-54000000D03*
X105000000Y-69000000D03*
X115500000Y-60000000D03*
X101100000Y-63200000D03*
X121500000Y-72000000D03*
X123000000Y-69000000D03*
X108000000Y-57000000D03*
X108000000Y-69000000D03*
X121500000Y-54000000D03*
X94500000Y-54000000D03*
X109500000Y-60000000D03*
X132000000Y-69000000D03*
X126000000Y-57000000D03*
X109500000Y-54000000D03*
X114000000Y-75000000D03*
X118500000Y-60000000D03*
X121500000Y-60000000D03*
X114000000Y-57000000D03*
X111000000Y-69000000D03*
X106500000Y-54000000D03*
X114000000Y-69000000D03*
X126000000Y-75000000D03*
X118500000Y-54000000D03*
X130500000Y-60000000D03*
X112500000Y-72000000D03*
X106500000Y-72000000D03*
X111000000Y-57000000D03*
X108000000Y-75000000D03*
%TO.N,/OUT*%
X126800000Y-69800000D03*
X104300000Y-65500000D03*
%TD*%
D11*
%TO.N,/OUT*%
X126800000Y-69800000D02*
X126900000Y-69900000D01*
X124093792Y-67093792D02*
X126800000Y-69800000D01*
X104300000Y-65500000D02*
X120246036Y-65500000D01*
X124093791Y-67093793D02*
G75*
G03*
X120246036Y-65499990I-3847791J-3847807D01*
G01*
%TD*%
%TA.AperFunction,Conductor*%
%TO.N,GND*%
G36*
X130000733Y-52000008D02*
G01*
X130191077Y-52002343D01*
X130201681Y-52002930D01*
X130581224Y-52040312D01*
X130593249Y-52042096D01*
X130966527Y-52116345D01*
X130978329Y-52119301D01*
X131342544Y-52229785D01*
X131354002Y-52233885D01*
X131705627Y-52379532D01*
X131716626Y-52384734D01*
X132052282Y-52564147D01*
X132062713Y-52570399D01*
X132379169Y-52781849D01*
X132388942Y-52789097D01*
X132683148Y-53030544D01*
X132692165Y-53038717D01*
X132961282Y-53307834D01*
X132969455Y-53316851D01*
X133210902Y-53611057D01*
X133218150Y-53620830D01*
X133429600Y-53937286D01*
X133435856Y-53947724D01*
X133615264Y-54283372D01*
X133620467Y-54294372D01*
X133766114Y-54645997D01*
X133770214Y-54657455D01*
X133880698Y-55021670D01*
X133883654Y-55033474D01*
X133957902Y-55406744D01*
X133959688Y-55418781D01*
X133997068Y-55798304D01*
X133997656Y-55808937D01*
X133999991Y-55999266D01*
X134000000Y-56000787D01*
X134000000Y-72999212D01*
X133999991Y-73000733D01*
X133997656Y-73191062D01*
X133997068Y-73201695D01*
X133959688Y-73581218D01*
X133957902Y-73593255D01*
X133883654Y-73966525D01*
X133880698Y-73978329D01*
X133770214Y-74342544D01*
X133766114Y-74354002D01*
X133620467Y-74705627D01*
X133615264Y-74716627D01*
X133435856Y-75052275D01*
X133429600Y-75062713D01*
X133218150Y-75379169D01*
X133210902Y-75388942D01*
X132969455Y-75683148D01*
X132961282Y-75692165D01*
X132692165Y-75961282D01*
X132683148Y-75969455D01*
X132388942Y-76210902D01*
X132379169Y-76218150D01*
X132062713Y-76429600D01*
X132052275Y-76435856D01*
X131716627Y-76615264D01*
X131705627Y-76620467D01*
X131354002Y-76766114D01*
X131342544Y-76770214D01*
X130978329Y-76880698D01*
X130966525Y-76883654D01*
X130593255Y-76957902D01*
X130581218Y-76959688D01*
X130201695Y-76997068D01*
X130191062Y-76997656D01*
X130000734Y-76999991D01*
X129999213Y-77000000D01*
X93500787Y-77000000D01*
X93499266Y-76999991D01*
X93308937Y-76997656D01*
X93298304Y-76997068D01*
X92918781Y-76959688D01*
X92906744Y-76957902D01*
X92533474Y-76883654D01*
X92521670Y-76880698D01*
X92157455Y-76770214D01*
X92145997Y-76766114D01*
X91794372Y-76620467D01*
X91783372Y-76615264D01*
X91447724Y-76435856D01*
X91437286Y-76429600D01*
X91120830Y-76218150D01*
X91111057Y-76210902D01*
X90816851Y-75969455D01*
X90807834Y-75961282D01*
X90538717Y-75692165D01*
X90530544Y-75683148D01*
X90289097Y-75388942D01*
X90281849Y-75379169D01*
X90070399Y-75062713D01*
X90064143Y-75052275D01*
X89884735Y-74716627D01*
X89879532Y-74705627D01*
X89733885Y-74354002D01*
X89729785Y-74342544D01*
X89619301Y-73978329D01*
X89616345Y-73966525D01*
X89542097Y-73593255D01*
X89540311Y-73581218D01*
X89502930Y-73201681D01*
X89502343Y-73191075D01*
X89500009Y-73000732D01*
X89500000Y-72999212D01*
X89500000Y-65500000D01*
X103744750Y-65500000D01*
X103763271Y-65640682D01*
X103763670Y-65643708D01*
X103763671Y-65643712D01*
X103819137Y-65777622D01*
X103819138Y-65777624D01*
X103819139Y-65777625D01*
X103907379Y-65892621D01*
X104022375Y-65980861D01*
X104156291Y-66036330D01*
X104283280Y-66053048D01*
X104299999Y-66055250D01*
X104300000Y-66055250D01*
X104300001Y-66055250D01*
X104314977Y-66053278D01*
X104443709Y-66036330D01*
X104577625Y-65980861D01*
X104661340Y-65916623D01*
X104726509Y-65891430D01*
X104736826Y-65891000D01*
X120189816Y-65891000D01*
X120243607Y-65891000D01*
X120248475Y-65891095D01*
X120637443Y-65906381D01*
X120647116Y-65907142D01*
X121031292Y-65952614D01*
X121040866Y-65954130D01*
X121420300Y-66029606D01*
X121429731Y-66031870D01*
X121802053Y-66136878D01*
X121811282Y-66139876D01*
X122174222Y-66273772D01*
X122183217Y-66277498D01*
X122534516Y-66439450D01*
X122543180Y-66443866D01*
X122880687Y-66632880D01*
X122888989Y-66637967D01*
X123210616Y-66852871D01*
X123218490Y-66858591D01*
X123522280Y-67098080D01*
X123529677Y-67104398D01*
X123815719Y-67368812D01*
X123819229Y-67372187D01*
X126214638Y-69767596D01*
X126248123Y-69828919D01*
X126249896Y-69839091D01*
X126263670Y-69943707D01*
X126263671Y-69943712D01*
X126319137Y-70077622D01*
X126319138Y-70077624D01*
X126319139Y-70077625D01*
X126407379Y-70192621D01*
X126522375Y-70280861D01*
X126656291Y-70336330D01*
X126783280Y-70353048D01*
X126799999Y-70355250D01*
X126800000Y-70355250D01*
X126800001Y-70355250D01*
X126814977Y-70353278D01*
X126943709Y-70336330D01*
X127077625Y-70280861D01*
X127192621Y-70192621D01*
X127280861Y-70077625D01*
X127336330Y-69943709D01*
X127355250Y-69800000D01*
X127336330Y-69656291D01*
X127280861Y-69522375D01*
X127192621Y-69407379D01*
X127077625Y-69319139D01*
X127077624Y-69319138D01*
X127077622Y-69319137D01*
X126943712Y-69263671D01*
X126943710Y-69263670D01*
X126943709Y-69263670D01*
X126908688Y-69259059D01*
X126839091Y-69249896D01*
X126775194Y-69221629D01*
X126767596Y-69214638D01*
X124328402Y-66775443D01*
X124328257Y-66775315D01*
X124323154Y-66770212D01*
X124208221Y-66655280D01*
X123859710Y-66357624D01*
X123488919Y-66088229D01*
X123488916Y-66088227D01*
X123488909Y-66088222D01*
X123098152Y-65848765D01*
X123098141Y-65848759D01*
X123098140Y-65848758D01*
X123098136Y-65848756D01*
X122689768Y-65640682D01*
X122689754Y-65640676D01*
X122266346Y-65465293D01*
X122266341Y-65465291D01*
X122266335Y-65465289D01*
X121830445Y-65323658D01*
X121384787Y-65216663D01*
X121384781Y-65216662D01*
X120932116Y-65144965D01*
X120932100Y-65144963D01*
X120475204Y-65109002D01*
X120475192Y-65109001D01*
X120297513Y-65109000D01*
X120297512Y-65109000D01*
X120246039Y-65109000D01*
X120189821Y-65108999D01*
X120189820Y-65108999D01*
X120179833Y-65108999D01*
X120179821Y-65109000D01*
X104736826Y-65109000D01*
X104669787Y-65089315D01*
X104661349Y-65083383D01*
X104577625Y-65019139D01*
X104577624Y-65019138D01*
X104577622Y-65019137D01*
X104443712Y-64963671D01*
X104443710Y-64963670D01*
X104443709Y-64963670D01*
X104371854Y-64954210D01*
X104300001Y-64944750D01*
X104299999Y-64944750D01*
X104156291Y-64963670D01*
X104156287Y-64963671D01*
X104022377Y-65019137D01*
X103907379Y-65107379D01*
X103819137Y-65222377D01*
X103763671Y-65356287D01*
X103763670Y-65356291D01*
X103744750Y-65500000D01*
X89500000Y-65500000D01*
X89500000Y-56000787D01*
X89500009Y-55999267D01*
X89500039Y-55996784D01*
X89502343Y-55808922D01*
X89502930Y-55798320D01*
X89540312Y-55418772D01*
X89542097Y-55406744D01*
X89616345Y-55033474D01*
X89619301Y-55021670D01*
X89729785Y-54657455D01*
X89733885Y-54645997D01*
X89879532Y-54294372D01*
X89884730Y-54283380D01*
X90064152Y-53947708D01*
X90070390Y-53937300D01*
X90281852Y-53620825D01*
X90289091Y-53611064D01*
X90530555Y-53316838D01*
X90538707Y-53307844D01*
X90807844Y-53038707D01*
X90816838Y-53030555D01*
X91111064Y-52789091D01*
X91120825Y-52781852D01*
X91437300Y-52570390D01*
X91447708Y-52564152D01*
X91783380Y-52384730D01*
X91794363Y-52379535D01*
X92146004Y-52233882D01*
X92157447Y-52229787D01*
X92521677Y-52119299D01*
X92533468Y-52116346D01*
X92906753Y-52042095D01*
X92918772Y-52040312D01*
X93298320Y-52002930D01*
X93308922Y-52002343D01*
X93496784Y-52000039D01*
X93499267Y-52000009D01*
X93500787Y-52000000D01*
X129999213Y-52000000D01*
X130000733Y-52000008D01*
G37*
%TD.AperFunction*%
%TD*%
D12*
X120000000Y-69000000D03*
X129000000Y-69000000D03*
X109500000Y-72000000D03*
X99000000Y-75000000D03*
X105000000Y-57000000D03*
X96000000Y-75000000D03*
X111000000Y-75000000D03*
X112500000Y-60000000D03*
X97500000Y-54000000D03*
X118500000Y-72000000D03*
X115500000Y-54000000D03*
X124500000Y-72000000D03*
X93000000Y-75000000D03*
X124500000Y-54000000D03*
X103500000Y-72000000D03*
X105000000Y-75000000D03*
X112500000Y-54000000D03*
X117000000Y-57000000D03*
X102000000Y-75000000D03*
X124500000Y-60000000D03*
X123000000Y-75000000D03*
X120000000Y-57000000D03*
X127500000Y-60000000D03*
X117000000Y-75000000D03*
X106500000Y-60000000D03*
X117000000Y-69000000D03*
X103500000Y-54000000D03*
X115500000Y-72000000D03*
X102000000Y-57000000D03*
X120000000Y-75000000D03*
X100500000Y-54000000D03*
X123000000Y-57000000D03*
X102200000Y-63200000D03*
X91500000Y-54000000D03*
X105000000Y-69000000D03*
X115500000Y-60000000D03*
X101100000Y-63200000D03*
X121500000Y-72000000D03*
X123000000Y-69000000D03*
X108000000Y-57000000D03*
X108000000Y-69000000D03*
X121500000Y-54000000D03*
X94500000Y-54000000D03*
X109500000Y-60000000D03*
X132000000Y-69000000D03*
X126000000Y-57000000D03*
X109500000Y-54000000D03*
X114000000Y-75000000D03*
X118500000Y-60000000D03*
X121500000Y-60000000D03*
X114000000Y-57000000D03*
X111000000Y-69000000D03*
X106500000Y-54000000D03*
X114000000Y-69000000D03*
X126000000Y-75000000D03*
X118500000Y-54000000D03*
X130500000Y-60000000D03*
X112500000Y-72000000D03*
X106500000Y-72000000D03*
X111000000Y-57000000D03*
X108000000Y-75000000D03*
X126800000Y-69800000D03*
X104300000Y-65500000D03*
M02*
