%TF.GenerationSoftware,KiCad,Pcbnew,8.0.1*%
%TF.CreationDate,2025-02-04T12:10:18-05:00*%
%TF.ProjectId,diff_amp_breakout,64696666-5f61-46d7-905f-627265616b6f,rev?*%
%TF.SameCoordinates,Original*%
%TF.FileFunction,Legend,Top*%
%TF.FilePolarity,Positive*%
%FSLAX46Y46*%
G04 Gerber Fmt 4.6, Leading zero omitted, Abs format (unit mm)*
G04 Created by KiCad (PCBNEW 8.0.1) date 2025-02-04 12:10:18*
%MOMM*%
%LPD*%
G01*
G04 APERTURE LIST*
%ADD10C,0.150000*%
%ADD11C,0.100000*%
%ADD12C,0.120000*%
G04 APERTURE END LIST*
D10*
G36*
X100378984Y-72504089D02*
G01*
X100444036Y-72517306D01*
X100502521Y-72539902D01*
X100558921Y-72574206D01*
X100607679Y-72618041D01*
X100635939Y-72652559D01*
X100669424Y-72706758D01*
X100694230Y-72762667D01*
X100713669Y-72824896D01*
X100715318Y-72831467D01*
X100728010Y-72892988D01*
X100736548Y-72958711D01*
X100740651Y-73020659D01*
X100741574Y-73069299D01*
X100739865Y-73133444D01*
X100733725Y-73201922D01*
X100723121Y-73265249D01*
X100705853Y-73330333D01*
X100683928Y-73389138D01*
X100654864Y-73447396D01*
X100620852Y-73498201D01*
X100609683Y-73511989D01*
X100565670Y-73556775D01*
X100512061Y-73595759D01*
X100468022Y-73618234D01*
X100406012Y-73639443D01*
X100341340Y-73650864D01*
X100296747Y-73653039D01*
X100231911Y-73649223D01*
X100166860Y-73636209D01*
X100108374Y-73613960D01*
X100052017Y-73579799D01*
X100003388Y-73535936D01*
X99975262Y-73501303D01*
X99942125Y-73446720D01*
X99917509Y-73390525D01*
X99898142Y-73328069D01*
X99896494Y-73321479D01*
X99884097Y-73259591D01*
X99875757Y-73193452D01*
X99871750Y-73131094D01*
X99870848Y-73082121D01*
X99871083Y-73073267D01*
X100029911Y-73073267D01*
X100031715Y-73139847D01*
X100037126Y-73202314D01*
X100045176Y-73255534D01*
X100060699Y-73318483D01*
X100083841Y-73377821D01*
X100093720Y-73396889D01*
X100131577Y-73449249D01*
X100179205Y-73488480D01*
X100236983Y-73512981D01*
X100300717Y-73521116D01*
X100305295Y-73521148D01*
X100368702Y-73513500D01*
X100426576Y-73488484D01*
X100429859Y-73486343D01*
X100477715Y-73445051D01*
X100514124Y-73395110D01*
X100516260Y-73391394D01*
X100542523Y-73335177D01*
X100560841Y-73276070D01*
X100566330Y-73251565D01*
X100576376Y-73189798D01*
X100581786Y-73124940D01*
X100582816Y-73079984D01*
X100581012Y-73013962D01*
X100575601Y-72951908D01*
X100567551Y-72898939D01*
X100552322Y-72835742D01*
X100529048Y-72776136D01*
X100519008Y-72756973D01*
X100483516Y-72707063D01*
X100436194Y-72666839D01*
X100432912Y-72664771D01*
X100374599Y-72640271D01*
X100309949Y-72632136D01*
X100305295Y-72632104D01*
X100242174Y-72639818D01*
X100184605Y-72665054D01*
X100181342Y-72667214D01*
X100134020Y-72708277D01*
X100097974Y-72758142D01*
X100095857Y-72761858D01*
X100069953Y-72818191D01*
X100051654Y-72877617D01*
X100046092Y-72902297D01*
X100036232Y-72963978D01*
X100030923Y-73028579D01*
X100029911Y-73073267D01*
X99871083Y-73073267D01*
X99872528Y-73018690D01*
X99878563Y-72950812D01*
X99888986Y-72887858D01*
X99905958Y-72822919D01*
X99927859Y-72764137D01*
X99956839Y-72705963D01*
X99994365Y-72650649D01*
X100001823Y-72641568D01*
X100045938Y-72596608D01*
X100099411Y-72557517D01*
X100143179Y-72535017D01*
X100205003Y-72513808D01*
X100269575Y-72502388D01*
X100314149Y-72500213D01*
X100378984Y-72504089D01*
G37*
G36*
X101296163Y-72522371D02*
G01*
X101360584Y-72531119D01*
X101394313Y-72538376D01*
X101453502Y-72557286D01*
X101510370Y-72586104D01*
X101528952Y-72598520D01*
X101575150Y-72639259D01*
X101612233Y-72689348D01*
X101621153Y-72705377D01*
X101643490Y-72763198D01*
X101654002Y-72824979D01*
X101655653Y-72864745D01*
X101649951Y-72929163D01*
X101634340Y-72988802D01*
X101629702Y-73001521D01*
X101601769Y-73058080D01*
X101562850Y-73109145D01*
X101549712Y-73122727D01*
X101500818Y-73162811D01*
X101446829Y-73193909D01*
X101411410Y-73209433D01*
X101349828Y-73228379D01*
X101287146Y-73238779D01*
X101225276Y-73242581D01*
X101210825Y-73242711D01*
X101071607Y-73242711D01*
X101071607Y-73633500D01*
X100918650Y-73633500D01*
X100918650Y-72646758D01*
X101071607Y-72646758D01*
X101071607Y-73110820D01*
X101214184Y-73110820D01*
X101278068Y-73107099D01*
X101340633Y-73094018D01*
X101398593Y-73068437D01*
X101423011Y-73051286D01*
X101464902Y-73003141D01*
X101489404Y-72940565D01*
X101496518Y-72878634D01*
X101496590Y-72871157D01*
X101489672Y-72808206D01*
X101466085Y-72750461D01*
X101425759Y-72704766D01*
X101370425Y-72671740D01*
X101308601Y-72653613D01*
X101243579Y-72646985D01*
X101227922Y-72646758D01*
X101071607Y-72646758D01*
X100918650Y-72646758D01*
X100918650Y-72519752D01*
X101234639Y-72519752D01*
X101296163Y-72522371D01*
G37*
G36*
X102702539Y-73633500D02*
G01*
X102535843Y-73633500D01*
X102457685Y-73399026D01*
X101990571Y-73399026D01*
X101911497Y-73633500D01*
X101752739Y-73633500D01*
X101876998Y-73262250D01*
X102034534Y-73262250D01*
X102414027Y-73262250D01*
X102224128Y-72660802D01*
X102034534Y-73262250D01*
X101876998Y-73262250D01*
X102125515Y-72519752D01*
X102334953Y-72519752D01*
X102702539Y-73633500D01*
G37*
G36*
X103570822Y-73633500D02*
G01*
X102831377Y-73633500D01*
X102831377Y-73500387D01*
X103121720Y-73212791D01*
X103167661Y-73166752D01*
X103210537Y-73121629D01*
X103237736Y-73091280D01*
X103277349Y-73042203D01*
X103307040Y-72997552D01*
X103333670Y-72941510D01*
X103340623Y-72917563D01*
X103348762Y-72855160D01*
X103349172Y-72836352D01*
X103342277Y-72774665D01*
X103337875Y-72758194D01*
X103310634Y-72701860D01*
X103303681Y-72692859D01*
X103254745Y-72653640D01*
X103243536Y-72648285D01*
X103183143Y-72633384D01*
X103155304Y-72632104D01*
X103091212Y-72639282D01*
X103032890Y-72660815D01*
X103025550Y-72664771D01*
X102972961Y-72699623D01*
X102924531Y-72742928D01*
X102918388Y-72749340D01*
X102835956Y-72649506D01*
X102881887Y-72606120D01*
X102932364Y-72569155D01*
X102982197Y-72541123D01*
X103042289Y-72517831D01*
X103102491Y-72505047D01*
X103168000Y-72500253D01*
X103174843Y-72500213D01*
X103237721Y-72504479D01*
X103299384Y-72518517D01*
X103311009Y-72522500D01*
X103368177Y-72549672D01*
X103416949Y-72586614D01*
X103456715Y-72633172D01*
X103486253Y-72689196D01*
X103503784Y-72749575D01*
X103510462Y-72812103D01*
X103510677Y-72826277D01*
X103506403Y-72888101D01*
X103493580Y-72945345D01*
X103470417Y-73003324D01*
X103441678Y-73054339D01*
X103405091Y-73106158D01*
X103363801Y-73156097D01*
X103354056Y-73166996D01*
X103311738Y-73212090D01*
X103268195Y-73256217D01*
X103229187Y-73294307D01*
X103025550Y-73491839D01*
X103570822Y-73491839D01*
X103570822Y-73633500D01*
G37*
G36*
X104510546Y-73299803D02*
G01*
X104504761Y-73362222D01*
X104487405Y-73421252D01*
X104480321Y-73437495D01*
X104448356Y-73490555D01*
X104404821Y-73537539D01*
X104390257Y-73549846D01*
X104336300Y-73585466D01*
X104277460Y-73612442D01*
X104239131Y-73625562D01*
X104179317Y-73640052D01*
X104113599Y-73649175D01*
X104049406Y-73652797D01*
X104026945Y-73653039D01*
X103963442Y-73651665D01*
X103906656Y-73647543D01*
X103845940Y-73639941D01*
X103807127Y-73633500D01*
X103807127Y-73501608D01*
X103869069Y-73510903D01*
X103919784Y-73516263D01*
X103983404Y-73520074D01*
X104040684Y-73521148D01*
X104105067Y-73518729D01*
X104169212Y-73509928D01*
X104184482Y-73506493D01*
X104244750Y-73485606D01*
X104281874Y-73463751D01*
X104325569Y-73417662D01*
X104336829Y-73396279D01*
X104352531Y-73336944D01*
X104354231Y-73306825D01*
X104342553Y-73245287D01*
X104333470Y-73227751D01*
X104291074Y-73181695D01*
X104275463Y-73171270D01*
X104217321Y-73145269D01*
X104186314Y-73137076D01*
X104124737Y-73127695D01*
X104072436Y-73125474D01*
X103944513Y-73125474D01*
X103944513Y-73003353D01*
X104074267Y-73003353D01*
X104136841Y-72997568D01*
X104166469Y-72989920D01*
X104222340Y-72963244D01*
X104237910Y-72951451D01*
X104276964Y-72903111D01*
X104283400Y-72889780D01*
X104298284Y-72828872D01*
X104299276Y-72806127D01*
X104291548Y-72744847D01*
X104260153Y-72687808D01*
X104244322Y-72673625D01*
X104186360Y-72645241D01*
X104120959Y-72633564D01*
X104082816Y-72632104D01*
X104021533Y-72634861D01*
X103965885Y-72641874D01*
X103903832Y-72654086D01*
X103841637Y-72669971D01*
X103837352Y-72671183D01*
X103837352Y-72539292D01*
X103897272Y-72523265D01*
X103899329Y-72522805D01*
X103959394Y-72511530D01*
X103965579Y-72510593D01*
X104027135Y-72503312D01*
X104031220Y-72502960D01*
X104092221Y-72500215D01*
X104094112Y-72500213D01*
X104157968Y-72502960D01*
X104220363Y-72512139D01*
X104251038Y-72519752D01*
X104309902Y-72541760D01*
X104364611Y-72575623D01*
X104408736Y-72621422D01*
X104433304Y-72663855D01*
X104451409Y-72722706D01*
X104456508Y-72780787D01*
X104450663Y-72843854D01*
X104430957Y-72904261D01*
X104407048Y-72943819D01*
X104364845Y-72989314D01*
X104312423Y-73027338D01*
X104271799Y-73048538D01*
X104331252Y-73064267D01*
X104357894Y-73075710D01*
X104410181Y-73107554D01*
X104434526Y-73128222D01*
X104475062Y-73177508D01*
X104489480Y-73203632D01*
X104508057Y-73264609D01*
X104510546Y-73299803D01*
G37*
G36*
X105464620Y-73283011D02*
G01*
X105458674Y-73347619D01*
X105440837Y-73407490D01*
X105428594Y-73433526D01*
X105394839Y-73485471D01*
X105352114Y-73531168D01*
X105329370Y-73550152D01*
X105274441Y-73586066D01*
X105216939Y-73612957D01*
X105180382Y-73625867D01*
X105119778Y-73641337D01*
X105055927Y-73650385D01*
X104995063Y-73653039D01*
X104941330Y-73651818D01*
X104884238Y-73648459D01*
X104828673Y-73644185D01*
X104780435Y-73638384D01*
X104780435Y-73501608D01*
X104843570Y-73512175D01*
X104886375Y-73516568D01*
X104950061Y-73520142D01*
X105006970Y-73521148D01*
X105068351Y-73517659D01*
X105130618Y-73505272D01*
X105190064Y-73481321D01*
X105224041Y-73459476D01*
X105267042Y-73414816D01*
X105283270Y-73387120D01*
X105301577Y-73326950D01*
X105304030Y-73291865D01*
X105295156Y-73227978D01*
X105265231Y-73173424D01*
X105228926Y-73142877D01*
X105169535Y-73116282D01*
X105109404Y-73102734D01*
X105047237Y-73096895D01*
X105013076Y-73096165D01*
X104799974Y-73096165D01*
X104799974Y-72519752D01*
X105404475Y-72519752D01*
X105404475Y-72651643D01*
X104941024Y-72651643D01*
X104941024Y-72969159D01*
X105038721Y-72969159D01*
X105103701Y-72971527D01*
X105167170Y-72978632D01*
X105195953Y-72983508D01*
X105255196Y-72998795D01*
X105312798Y-73023372D01*
X105331813Y-73034189D01*
X105382747Y-73073397D01*
X105423350Y-73123472D01*
X105427983Y-73130970D01*
X105453028Y-73189824D01*
X105463725Y-73255149D01*
X105464620Y-73283011D01*
G37*
G36*
X106380225Y-72651643D02*
G01*
X106259936Y-72651643D01*
X106194018Y-72654457D01*
X106129268Y-72663945D01*
X106085607Y-72675457D01*
X106025726Y-72700034D01*
X105971554Y-72734667D01*
X105961959Y-72742624D01*
X105917996Y-72790480D01*
X105887316Y-72843525D01*
X105885633Y-72847343D01*
X105865025Y-72907807D01*
X105853538Y-72970051D01*
X105852050Y-72984119D01*
X105848692Y-73027777D01*
X105903043Y-72997661D01*
X105960428Y-72975121D01*
X105973561Y-72970991D01*
X106037758Y-72956382D01*
X106101347Y-72950141D01*
X106126823Y-72949620D01*
X106192505Y-72953701D01*
X106255350Y-72967225D01*
X106275811Y-72974349D01*
X106331155Y-73001826D01*
X106379689Y-73040600D01*
X106382362Y-73043348D01*
X106421507Y-73095057D01*
X106446171Y-73148983D01*
X106461730Y-73209197D01*
X106467657Y-73270238D01*
X106467847Y-73283927D01*
X106463212Y-73344876D01*
X106447851Y-73407019D01*
X106439759Y-73428336D01*
X106410892Y-73484043D01*
X106372908Y-73533088D01*
X106360381Y-73545877D01*
X106311410Y-73585389D01*
X106254259Y-73616837D01*
X106236427Y-73624340D01*
X106174819Y-73642922D01*
X106113389Y-73651666D01*
X106075532Y-73653039D01*
X106014249Y-73649576D01*
X105953155Y-73637898D01*
X105911279Y-73623730D01*
X105857260Y-73594478D01*
X105810800Y-73554847D01*
X105791905Y-73533055D01*
X105756739Y-73477954D01*
X105730986Y-73417791D01*
X105718938Y-73378571D01*
X105705897Y-73316872D01*
X105698290Y-73255684D01*
X105694595Y-73189135D01*
X105694208Y-73157837D01*
X105694282Y-73154784D01*
X105848692Y-73154784D01*
X105850182Y-73218683D01*
X105855266Y-73280982D01*
X105863957Y-73334913D01*
X105881841Y-73396441D01*
X105910058Y-73450928D01*
X105953707Y-73495340D01*
X105985162Y-73512599D01*
X106046509Y-73528342D01*
X106088355Y-73530918D01*
X106151626Y-73523558D01*
X106177809Y-73515347D01*
X106230782Y-73484955D01*
X106248334Y-73468941D01*
X106284281Y-73417833D01*
X106294740Y-73394142D01*
X106309171Y-73334417D01*
X106311532Y-73294002D01*
X106306141Y-73231291D01*
X106299015Y-73201800D01*
X106270989Y-73144936D01*
X106259936Y-73131886D01*
X106209675Y-73095057D01*
X106192464Y-73087617D01*
X106132200Y-73073617D01*
X106095072Y-73071741D01*
X106033319Y-73077644D01*
X106029126Y-73078458D01*
X105969259Y-73094341D01*
X105963181Y-73096471D01*
X105905489Y-73121175D01*
X105901815Y-73123032D01*
X105848692Y-73154784D01*
X105694282Y-73154784D01*
X105695754Y-73094453D01*
X105700391Y-73032529D01*
X105705199Y-72992057D01*
X105716745Y-72928181D01*
X105733028Y-72867531D01*
X105742141Y-72840626D01*
X105768062Y-72780720D01*
X105800411Y-72725489D01*
X105810834Y-72710567D01*
X105852475Y-72662014D01*
X105902063Y-72620006D01*
X105917690Y-72609206D01*
X105973511Y-72577850D01*
X106031657Y-72554451D01*
X106068510Y-72543260D01*
X106131368Y-72529876D01*
X106194146Y-72522530D01*
X106255234Y-72519844D01*
X106269400Y-72519752D01*
X106380225Y-72519752D01*
X106380225Y-72651643D01*
G37*
G36*
X107957242Y-72521851D02*
G01*
X108030900Y-72530378D01*
X108098028Y-72545464D01*
X108158626Y-72567110D01*
X108222726Y-72601743D01*
X108277423Y-72645821D01*
X108285625Y-72654086D01*
X108329617Y-72709348D01*
X108359325Y-72763041D01*
X108382711Y-72823682D01*
X108399777Y-72891269D01*
X108410523Y-72965803D01*
X108414568Y-73030432D01*
X108415073Y-73064414D01*
X108413008Y-73128297D01*
X108406810Y-73189963D01*
X108402556Y-73217676D01*
X108388740Y-73279861D01*
X108369197Y-73338190D01*
X108362561Y-73354147D01*
X108333179Y-73410626D01*
X108296551Y-73462142D01*
X108291120Y-73468636D01*
X108245830Y-73513720D01*
X108195691Y-73549867D01*
X108183959Y-73556868D01*
X108128936Y-73583915D01*
X108067061Y-73605519D01*
X108036192Y-73613655D01*
X107975692Y-73624953D01*
X107909637Y-73631562D01*
X107844766Y-73633500D01*
X107604493Y-73633500D01*
X107604493Y-72646758D01*
X107757144Y-72646758D01*
X107757144Y-73501608D01*
X107871328Y-73501608D01*
X107939802Y-73497854D01*
X108001541Y-73486592D01*
X108073383Y-73459897D01*
X108133251Y-73419855D01*
X108181145Y-73366465D01*
X108217066Y-73299728D01*
X108236149Y-73240915D01*
X108248497Y-73174595D01*
X108254110Y-73100767D01*
X108254484Y-73074489D01*
X108252697Y-73010754D01*
X108246519Y-72946736D01*
X108234627Y-72884580D01*
X108231891Y-72874210D01*
X108209954Y-72812970D01*
X108177763Y-72758740D01*
X108164114Y-72742318D01*
X108116369Y-72701196D01*
X108058426Y-72672283D01*
X108049930Y-72669351D01*
X107990187Y-72654723D01*
X107928062Y-72647839D01*
X107888730Y-72646758D01*
X107757144Y-72646758D01*
X107604493Y-72646758D01*
X107604493Y-72519752D01*
X107893615Y-72519752D01*
X107957242Y-72521851D01*
G37*
G36*
X108902949Y-72895886D02*
G01*
X108648020Y-72895886D01*
X108648020Y-72773765D01*
X109054074Y-72773765D01*
X109054074Y-73506493D01*
X109310834Y-73506493D01*
X109310834Y-73633500D01*
X108619627Y-73633500D01*
X108619627Y-73506493D01*
X108902949Y-73506493D01*
X108902949Y-72895886D01*
G37*
G36*
X108955155Y-72422055D02*
G01*
X109001562Y-72431214D01*
X109039114Y-72456249D01*
X109063844Y-72493496D01*
X109073003Y-72539292D01*
X109063844Y-72584782D01*
X109039114Y-72622334D01*
X109001562Y-72647674D01*
X108955155Y-72656528D01*
X108908749Y-72647674D01*
X108871502Y-72622334D01*
X108846467Y-72584782D01*
X108837614Y-72539292D01*
X108846467Y-72493496D01*
X108871502Y-72456249D01*
X108908749Y-72431214D01*
X108955155Y-72422055D01*
G37*
G36*
X110335433Y-72554557D02*
G01*
X110271875Y-72542455D01*
X110207261Y-72533654D01*
X110143485Y-72529620D01*
X110132711Y-72529522D01*
X110064129Y-72536735D01*
X110002050Y-72563382D01*
X109959285Y-72609664D01*
X109935833Y-72675581D01*
X109930906Y-72734686D01*
X109930906Y-72881232D01*
X110308871Y-72881232D01*
X110308871Y-73008238D01*
X109930906Y-73008238D01*
X109930906Y-73633500D01*
X109778864Y-73633500D01*
X109778864Y-73008238D01*
X109501649Y-73008238D01*
X109501649Y-72881232D01*
X109778864Y-72881232D01*
X109778864Y-72743540D01*
X109784474Y-72663612D01*
X109801304Y-72594342D01*
X109829354Y-72535728D01*
X109868624Y-72487772D01*
X109919113Y-72450472D01*
X109980823Y-72423830D01*
X110053752Y-72407844D01*
X110115812Y-72402849D01*
X110137901Y-72402516D01*
X110201602Y-72405005D01*
X110263330Y-72411588D01*
X110328696Y-72422285D01*
X110335433Y-72423581D01*
X110335433Y-72554557D01*
G37*
G36*
X111296528Y-72554557D02*
G01*
X111232971Y-72542455D01*
X111168356Y-72533654D01*
X111104581Y-72529620D01*
X111093807Y-72529522D01*
X111025225Y-72536735D01*
X110963146Y-72563382D01*
X110920380Y-72609664D01*
X110896928Y-72675581D01*
X110892001Y-72734686D01*
X110892001Y-72881232D01*
X111269967Y-72881232D01*
X111269967Y-73008238D01*
X110892001Y-73008238D01*
X110892001Y-73633500D01*
X110739960Y-73633500D01*
X110739960Y-73008238D01*
X110462744Y-73008238D01*
X110462744Y-72881232D01*
X110739960Y-72881232D01*
X110739960Y-72743540D01*
X110745570Y-72663612D01*
X110762400Y-72594342D01*
X110790450Y-72535728D01*
X110829719Y-72487772D01*
X110880209Y-72450472D01*
X110941918Y-72423830D01*
X111014848Y-72407844D01*
X111076908Y-72402849D01*
X111098997Y-72402516D01*
X111162697Y-72405005D01*
X111224426Y-72411588D01*
X111289792Y-72422285D01*
X111296528Y-72423581D01*
X111296528Y-72554557D01*
G37*
G36*
X111911968Y-72758175D02*
G01*
X111975537Y-72771369D01*
X112006970Y-72782313D01*
X112063670Y-72811123D01*
X112111956Y-72848931D01*
X112124206Y-72861387D01*
X112161439Y-72910532D01*
X112189789Y-72968210D01*
X112196258Y-72986256D01*
X112212072Y-73048662D01*
X112219514Y-73111366D01*
X112220682Y-73150204D01*
X112219766Y-73203021D01*
X112217324Y-73242711D01*
X111611907Y-73242711D01*
X111616525Y-73307130D01*
X111632759Y-73370113D01*
X111664506Y-73428312D01*
X111685790Y-73452760D01*
X111738318Y-73491400D01*
X111796453Y-73513940D01*
X111856764Y-73524244D01*
X111898587Y-73526033D01*
X111960106Y-73524017D01*
X111974302Y-73522980D01*
X112036231Y-73515791D01*
X112047270Y-73514126D01*
X112108399Y-73503162D01*
X112114437Y-73501914D01*
X112174276Y-73486954D01*
X112174276Y-73609075D01*
X112113543Y-73625783D01*
X112050565Y-73638473D01*
X112036279Y-73640827D01*
X111973059Y-73648734D01*
X111907924Y-73652610D01*
X111877216Y-73653039D01*
X111810961Y-73650087D01*
X111745038Y-73640022D01*
X111686401Y-73622814D01*
X111630631Y-73596324D01*
X111579224Y-73559003D01*
X111555426Y-73535192D01*
X111518384Y-73484076D01*
X111490109Y-73424495D01*
X111480016Y-73394142D01*
X111466110Y-73334242D01*
X111457977Y-73269148D01*
X111455592Y-73205464D01*
X111458694Y-73143686D01*
X111461640Y-73125474D01*
X111611907Y-73125474D01*
X112065283Y-73125474D01*
X112062479Y-73062210D01*
X112053987Y-73022892D01*
X112028025Y-72965014D01*
X112011549Y-72942903D01*
X111962882Y-72902197D01*
X111939803Y-72890391D01*
X111880889Y-72874124D01*
X111840274Y-72871462D01*
X111779710Y-72879482D01*
X111750820Y-72890085D01*
X111698567Y-72924304D01*
X111681211Y-72941987D01*
X111646526Y-72994238D01*
X111634194Y-73022282D01*
X111617647Y-73081343D01*
X111611907Y-73125474D01*
X111461640Y-73125474D01*
X111469156Y-73079007D01*
X111481848Y-73032357D01*
X111504889Y-72973824D01*
X111537408Y-72916810D01*
X111558174Y-72888864D01*
X111602832Y-72842741D01*
X111654948Y-72805082D01*
X111681516Y-72790556D01*
X111739033Y-72768417D01*
X111802130Y-72756496D01*
X111847296Y-72754225D01*
X111911968Y-72758175D01*
G37*
G36*
X112488739Y-72773765D02*
G01*
X112625515Y-72773765D01*
X112629789Y-72934354D01*
X112672553Y-72885099D01*
X112719673Y-72840115D01*
X112771022Y-72802478D01*
X112780304Y-72796968D01*
X112836160Y-72770922D01*
X112897155Y-72756271D01*
X112930208Y-72754225D01*
X112993158Y-72759759D01*
X113054260Y-72779213D01*
X113110085Y-72817257D01*
X113133235Y-72842763D01*
X113166326Y-72899376D01*
X113185846Y-72961133D01*
X113195288Y-73023999D01*
X113197600Y-73095104D01*
X113197348Y-73105935D01*
X113046223Y-73105935D01*
X113044578Y-73044618D01*
X113034369Y-72983647D01*
X113012945Y-72934660D01*
X112965924Y-72892971D01*
X112908837Y-72881232D01*
X112848081Y-72892528D01*
X112793551Y-72922581D01*
X112785494Y-72928554D01*
X112739395Y-72968919D01*
X112717106Y-72991751D01*
X112674935Y-73040245D01*
X112639864Y-73085174D01*
X112639864Y-73633500D01*
X112488739Y-73633500D01*
X112488739Y-72773765D01*
G37*
G36*
X113834159Y-72758175D02*
G01*
X113897728Y-72771369D01*
X113929161Y-72782313D01*
X113985862Y-72811123D01*
X114034147Y-72848931D01*
X114046398Y-72861387D01*
X114083630Y-72910532D01*
X114111981Y-72968210D01*
X114118449Y-72986256D01*
X114134263Y-73048662D01*
X114141705Y-73111366D01*
X114142874Y-73150204D01*
X114141958Y-73203021D01*
X114139515Y-73242711D01*
X113534098Y-73242711D01*
X113538716Y-73307130D01*
X113554950Y-73370113D01*
X113586697Y-73428312D01*
X113607982Y-73452760D01*
X113660509Y-73491400D01*
X113718644Y-73513940D01*
X113778956Y-73524244D01*
X113820778Y-73526033D01*
X113882297Y-73524017D01*
X113896494Y-73522980D01*
X113958422Y-73515791D01*
X113969461Y-73514126D01*
X114030590Y-73503162D01*
X114036628Y-73501914D01*
X114096467Y-73486954D01*
X114096467Y-73609075D01*
X114035735Y-73625783D01*
X113972756Y-73638473D01*
X113958470Y-73640827D01*
X113895250Y-73648734D01*
X113830115Y-73652610D01*
X113799407Y-73653039D01*
X113733153Y-73650087D01*
X113667229Y-73640022D01*
X113608592Y-73622814D01*
X113552822Y-73596324D01*
X113501416Y-73559003D01*
X113477617Y-73535192D01*
X113440575Y-73484076D01*
X113412300Y-73424495D01*
X113402207Y-73394142D01*
X113388301Y-73334242D01*
X113380168Y-73269148D01*
X113377783Y-73205464D01*
X113380885Y-73143686D01*
X113383831Y-73125474D01*
X113534098Y-73125474D01*
X113987474Y-73125474D01*
X113984670Y-73062210D01*
X113976178Y-73022892D01*
X113950216Y-72965014D01*
X113933741Y-72942903D01*
X113885074Y-72902197D01*
X113861994Y-72890391D01*
X113803080Y-72874124D01*
X113762465Y-72871462D01*
X113701902Y-72879482D01*
X113673011Y-72890085D01*
X113620758Y-72924304D01*
X113603402Y-72941987D01*
X113568717Y-72994238D01*
X113556385Y-73022282D01*
X113539838Y-73081343D01*
X113534098Y-73125474D01*
X113383831Y-73125474D01*
X113391347Y-73079007D01*
X113404039Y-73032357D01*
X113427080Y-72973824D01*
X113459599Y-72916810D01*
X113480365Y-72888864D01*
X113525023Y-72842741D01*
X113577139Y-72805082D01*
X113603707Y-72790556D01*
X113661224Y-72768417D01*
X113724321Y-72756496D01*
X113769487Y-72754225D01*
X113834159Y-72758175D01*
G37*
G36*
X114375820Y-72773765D02*
G01*
X114508933Y-72773765D01*
X114515039Y-72912372D01*
X114556512Y-72865779D01*
X114587701Y-72836352D01*
X114637822Y-72799054D01*
X114657005Y-72787809D01*
X114715061Y-72764423D01*
X114726003Y-72761858D01*
X114787505Y-72754412D01*
X114799276Y-72754225D01*
X114861768Y-72759148D01*
X114922355Y-72776456D01*
X114977608Y-72810302D01*
X115000471Y-72832994D01*
X115036535Y-72889976D01*
X115057573Y-72954515D01*
X115067190Y-73022426D01*
X115068859Y-73069909D01*
X115068859Y-73633500D01*
X114919260Y-73633500D01*
X114919260Y-73080595D01*
X114914787Y-73016803D01*
X114897966Y-72957691D01*
X114881403Y-72930080D01*
X114830991Y-72891965D01*
X114769051Y-72881232D01*
X114715318Y-72889475D01*
X114660974Y-72917868D01*
X114613628Y-72958297D01*
X114599302Y-72972823D01*
X114557241Y-73019818D01*
X114525114Y-73058918D01*
X114525114Y-73633500D01*
X114375820Y-73633500D01*
X114375820Y-72773765D01*
G37*
G36*
X116006752Y-73609075D02*
G01*
X115947599Y-73628462D01*
X115886767Y-73642048D01*
X115824486Y-73650291D01*
X115760372Y-73653039D01*
X115698745Y-73650296D01*
X115630853Y-73639763D01*
X115569573Y-73621330D01*
X115506436Y-73589841D01*
X115452298Y-73547599D01*
X115445299Y-73540687D01*
X115402354Y-73486581D01*
X115373939Y-73432320D01*
X115353274Y-73370783D01*
X115340358Y-73301968D01*
X115335514Y-73239063D01*
X115335084Y-73212486D01*
X115338185Y-73149517D01*
X115348758Y-73084659D01*
X115366836Y-73024419D01*
X115394442Y-72964427D01*
X115429175Y-72911304D01*
X115456289Y-72879705D01*
X115502514Y-72838460D01*
X115555093Y-72804944D01*
X115593676Y-72786893D01*
X115655944Y-72766986D01*
X115717020Y-72756809D01*
X115769836Y-72754225D01*
X115834561Y-72756820D01*
X115895011Y-72764606D01*
X115955590Y-72779102D01*
X116006752Y-72798189D01*
X116006752Y-72939850D01*
X115950347Y-72913441D01*
X115892874Y-72895275D01*
X115830206Y-72884317D01*
X115773195Y-72881232D01*
X115710405Y-72888380D01*
X115664506Y-72903824D01*
X115611012Y-72935176D01*
X115574747Y-72968243D01*
X115538355Y-73018026D01*
X115513687Y-73070825D01*
X115497689Y-73130985D01*
X115491595Y-73193429D01*
X115491399Y-73207601D01*
X115495037Y-73273616D01*
X115508103Y-73339652D01*
X115534161Y-73401946D01*
X115567420Y-73446654D01*
X115620687Y-73488514D01*
X115678467Y-73512932D01*
X115745569Y-73524792D01*
X115778385Y-73526033D01*
X115841903Y-73521897D01*
X115896232Y-73511378D01*
X115955858Y-73491672D01*
X116006752Y-73467414D01*
X116006752Y-73609075D01*
G37*
G36*
X116717446Y-72758175D02*
G01*
X116781015Y-72771369D01*
X116812448Y-72782313D01*
X116869148Y-72811123D01*
X116917434Y-72848931D01*
X116929684Y-72861387D01*
X116966917Y-72910532D01*
X116995267Y-72968210D01*
X117001736Y-72986256D01*
X117017550Y-73048662D01*
X117024992Y-73111366D01*
X117026160Y-73150204D01*
X117025244Y-73203021D01*
X117022802Y-73242711D01*
X116417385Y-73242711D01*
X116422003Y-73307130D01*
X116438237Y-73370113D01*
X116469984Y-73428312D01*
X116491269Y-73452760D01*
X116543796Y-73491400D01*
X116601931Y-73513940D01*
X116662242Y-73524244D01*
X116704065Y-73526033D01*
X116765584Y-73524017D01*
X116779780Y-73522980D01*
X116841709Y-73515791D01*
X116852748Y-73514126D01*
X116913877Y-73503162D01*
X116919915Y-73501914D01*
X116979754Y-73486954D01*
X116979754Y-73609075D01*
X116919021Y-73625783D01*
X116856043Y-73638473D01*
X116841757Y-73640827D01*
X116778537Y-73648734D01*
X116713402Y-73652610D01*
X116682694Y-73653039D01*
X116616439Y-73650087D01*
X116550516Y-73640022D01*
X116491879Y-73622814D01*
X116436109Y-73596324D01*
X116384702Y-73559003D01*
X116360904Y-73535192D01*
X116323862Y-73484076D01*
X116295587Y-73424495D01*
X116285494Y-73394142D01*
X116271588Y-73334242D01*
X116263455Y-73269148D01*
X116261070Y-73205464D01*
X116264172Y-73143686D01*
X116267118Y-73125474D01*
X116417385Y-73125474D01*
X116870761Y-73125474D01*
X116867957Y-73062210D01*
X116859465Y-73022892D01*
X116833503Y-72965014D01*
X116817027Y-72942903D01*
X116768360Y-72902197D01*
X116745281Y-72890391D01*
X116686367Y-72874124D01*
X116645752Y-72871462D01*
X116585188Y-72879482D01*
X116556298Y-72890085D01*
X116504045Y-72924304D01*
X116486689Y-72941987D01*
X116452004Y-72994238D01*
X116439672Y-73022282D01*
X116423125Y-73081343D01*
X116417385Y-73125474D01*
X116267118Y-73125474D01*
X116274634Y-73079007D01*
X116287326Y-73032357D01*
X116310367Y-72973824D01*
X116342886Y-72916810D01*
X116363652Y-72888864D01*
X116408310Y-72842741D01*
X116460426Y-72805082D01*
X116486994Y-72790556D01*
X116544511Y-72768417D01*
X116607608Y-72756496D01*
X116652774Y-72754225D01*
X116717446Y-72758175D01*
G37*
G36*
X119041164Y-73633500D02*
G01*
X118874468Y-73633500D01*
X118796310Y-73399026D01*
X118329196Y-73399026D01*
X118250122Y-73633500D01*
X118091364Y-73633500D01*
X118215623Y-73262250D01*
X118373160Y-73262250D01*
X118752652Y-73262250D01*
X118562753Y-72660802D01*
X118373160Y-73262250D01*
X118215623Y-73262250D01*
X118464140Y-72519752D01*
X118673578Y-72519752D01*
X119041164Y-73633500D01*
G37*
G36*
X119796180Y-73633500D02*
G01*
X119796180Y-73014954D01*
X119793496Y-72952272D01*
X119793127Y-72949009D01*
X119783662Y-72908404D01*
X119767176Y-72887338D01*
X119742751Y-72881232D01*
X119711000Y-72891612D01*
X119679859Y-72924890D01*
X119647902Y-72976949D01*
X119642917Y-72986256D01*
X119614867Y-73040877D01*
X119595290Y-73080289D01*
X119595290Y-73633500D01*
X119458514Y-73633500D01*
X119458514Y-73031441D01*
X119456650Y-72968681D01*
X119455461Y-72955115D01*
X119446302Y-72909625D01*
X119429510Y-72887338D01*
X119404475Y-72881232D01*
X119375471Y-72889780D01*
X119344941Y-72920616D01*
X119311246Y-72974551D01*
X119307389Y-72981676D01*
X119278719Y-73038229D01*
X119258540Y-73080289D01*
X119258540Y-73633500D01*
X119121153Y-73633500D01*
X119121153Y-72773765D01*
X119235337Y-72773765D01*
X119242359Y-72937407D01*
X119269741Y-72880783D01*
X119285712Y-72852533D01*
X119322130Y-72803066D01*
X119329065Y-72796052D01*
X119376692Y-72764300D01*
X119432868Y-72754225D01*
X119494082Y-72765827D01*
X119538503Y-72800631D01*
X119565523Y-72859708D01*
X119573966Y-72920644D01*
X119574529Y-72944124D01*
X119601252Y-72888757D01*
X119614829Y-72863219D01*
X119650273Y-72811497D01*
X119657266Y-72803684D01*
X119707642Y-72767048D01*
X119768901Y-72754238D01*
X119771145Y-72754225D01*
X119834432Y-72766205D01*
X119887726Y-72809234D01*
X119917705Y-72872554D01*
X119929601Y-72932452D01*
X119933566Y-73004574D01*
X119933566Y-73633500D01*
X119796180Y-73633500D01*
G37*
G36*
X120641399Y-72760244D02*
G01*
X120699319Y-72780052D01*
X120709953Y-72785672D01*
X120761244Y-72823300D01*
X120801011Y-72870361D01*
X120803376Y-72873904D01*
X120832878Y-72928150D01*
X120853785Y-72986685D01*
X120860162Y-73011291D01*
X120871697Y-73074131D01*
X120877594Y-73136336D01*
X120879091Y-73190504D01*
X120876531Y-73253764D01*
X120867682Y-73318557D01*
X120850648Y-73383149D01*
X120846729Y-73394142D01*
X120821768Y-73450289D01*
X120787872Y-73503641D01*
X120757886Y-73538245D01*
X120708568Y-73580144D01*
X120652399Y-73612570D01*
X120624163Y-73624340D01*
X120564385Y-73641829D01*
X120500916Y-73651245D01*
X120456551Y-73653039D01*
X120394899Y-73649433D01*
X120374424Y-73646628D01*
X120312658Y-73632030D01*
X120291687Y-73624951D01*
X120291687Y-73985209D01*
X120142394Y-73985209D01*
X120142394Y-73493365D01*
X120291687Y-73493365D01*
X120350379Y-73513830D01*
X120378393Y-73520842D01*
X120440352Y-73529934D01*
X120467847Y-73530918D01*
X120531872Y-73524349D01*
X120593266Y-73501642D01*
X120644405Y-73462716D01*
X120657746Y-73447875D01*
X120690952Y-73394498D01*
X120711346Y-73335861D01*
X120723152Y-73266690D01*
X120726439Y-73197526D01*
X120724226Y-73135608D01*
X120716364Y-73071436D01*
X120701606Y-73012080D01*
X120684918Y-72973128D01*
X120647888Y-72923624D01*
X120629964Y-72909319D01*
X120572662Y-72887567D01*
X120550279Y-72886116D01*
X120492577Y-72895275D01*
X120436048Y-72923182D01*
X120432127Y-72925806D01*
X120383355Y-72965591D01*
X120366181Y-72982287D01*
X120323129Y-73030007D01*
X120291687Y-73069604D01*
X120291687Y-73493365D01*
X120142394Y-73493365D01*
X120142394Y-72773765D01*
X120275506Y-72773765D01*
X120284971Y-72917563D01*
X120326067Y-72866359D01*
X120373202Y-72822225D01*
X120422357Y-72790862D01*
X120483608Y-72767141D01*
X120548790Y-72755513D01*
X120580199Y-72754225D01*
X120641399Y-72760244D01*
G37*
G36*
X100685703Y-74815146D02*
G01*
X100630238Y-74785769D01*
X100573371Y-74762820D01*
X100556865Y-74757444D01*
X100496825Y-74743461D01*
X100432110Y-74737308D01*
X100412762Y-74736989D01*
X100348648Y-74741454D01*
X100285393Y-74756368D01*
X100254004Y-74768740D01*
X100197303Y-74801548D01*
X100149018Y-74844408D01*
X100136767Y-74858500D01*
X100101748Y-74909313D01*
X100074086Y-74967987D01*
X100063800Y-74997718D01*
X100048358Y-75061073D01*
X100040464Y-75123448D01*
X100038460Y-75177542D01*
X100040457Y-75239759D01*
X100047269Y-75303377D01*
X100058915Y-75361945D01*
X100079562Y-75423898D01*
X100110250Y-75481600D01*
X100123334Y-75499942D01*
X100166419Y-75544279D01*
X100218737Y-75578448D01*
X100235381Y-75586343D01*
X100295380Y-75605715D01*
X100358635Y-75614831D01*
X100399023Y-75616263D01*
X100434133Y-75614736D01*
X100471991Y-75610157D01*
X100508322Y-75602830D01*
X100539768Y-75593670D01*
X100539768Y-75245014D01*
X100310485Y-75245014D01*
X100310485Y-75118008D01*
X100690893Y-75118008D01*
X100690893Y-75685872D01*
X100633612Y-75709105D01*
X100616705Y-75714876D01*
X100557056Y-75731420D01*
X100536715Y-75735942D01*
X100475807Y-75746360D01*
X100455504Y-75748765D01*
X100394213Y-75752834D01*
X100377652Y-75753039D01*
X100314696Y-75750189D01*
X100248936Y-75740338D01*
X100187589Y-75723451D01*
X100170046Y-75717013D01*
X100109868Y-75688133D01*
X100056111Y-75651027D01*
X100012814Y-75610157D01*
X99971852Y-75557348D01*
X99940749Y-75502203D01*
X99915490Y-75440260D01*
X99913285Y-75433691D01*
X99896608Y-75371639D01*
X99885389Y-75304323D01*
X99879999Y-75240066D01*
X99878786Y-75189143D01*
X99881190Y-75121805D01*
X99888403Y-75058092D01*
X99900424Y-74998004D01*
X99917254Y-74941542D01*
X99941528Y-74882546D01*
X99970728Y-74828864D01*
X100008950Y-74775447D01*
X100025942Y-74755918D01*
X100072412Y-74711953D01*
X100124427Y-74675084D01*
X100181987Y-74645311D01*
X100194165Y-74640207D01*
X100257575Y-74619116D01*
X100318009Y-74606813D01*
X100381630Y-74600838D01*
X100410930Y-74600213D01*
X100475720Y-74603135D01*
X100537588Y-74611900D01*
X100554728Y-74615478D01*
X100617567Y-74633528D01*
X100673917Y-74657637D01*
X100685703Y-74663716D01*
X100685703Y-74815146D01*
G37*
G36*
X101336989Y-74857556D02*
G01*
X101400454Y-74868518D01*
X101412326Y-74871628D01*
X101470333Y-74893304D01*
X101518571Y-74924140D01*
X101560968Y-74969434D01*
X101585128Y-75012678D01*
X101603232Y-75074549D01*
X101608331Y-75138158D01*
X101608331Y-75733500D01*
X101474302Y-75733500D01*
X101470944Y-75618095D01*
X101422205Y-75662521D01*
X101368460Y-75700288D01*
X101327757Y-75721287D01*
X101267707Y-75741845D01*
X101205138Y-75751923D01*
X101175410Y-75753039D01*
X101110840Y-75748880D01*
X101049015Y-75734110D01*
X100993477Y-75706681D01*
X100962919Y-75682209D01*
X100924836Y-75631112D01*
X100913154Y-75604356D01*
X100899155Y-75542296D01*
X100897279Y-75507270D01*
X100897998Y-75499942D01*
X101055426Y-75499942D01*
X101063058Y-75547570D01*
X101087788Y-75587870D01*
X101132668Y-75615958D01*
X101194653Y-75625993D01*
X101199529Y-75626033D01*
X101262308Y-75616179D01*
X101317682Y-75594892D01*
X101372968Y-75563346D01*
X101426148Y-75523582D01*
X101458121Y-75495668D01*
X101458121Y-75342711D01*
X101268222Y-75342711D01*
X101204466Y-75347124D01*
X101172052Y-75354007D01*
X101116037Y-75378317D01*
X101105801Y-75385759D01*
X101067638Y-75435218D01*
X101055474Y-75495468D01*
X101055426Y-75499942D01*
X100897998Y-75499942D01*
X100903308Y-75445789D01*
X100924507Y-75385108D01*
X100960968Y-75333411D01*
X100993755Y-75303937D01*
X101047908Y-75271747D01*
X101113586Y-75248754D01*
X101180509Y-75236179D01*
X101244895Y-75231006D01*
X101279519Y-75230359D01*
X101458121Y-75230359D01*
X101458121Y-75153117D01*
X101448713Y-75090748D01*
X101417752Y-75037283D01*
X101408967Y-75028248D01*
X101356349Y-74996108D01*
X101295527Y-74982884D01*
X101259674Y-74981232D01*
X101196236Y-74984153D01*
X101133617Y-74992919D01*
X101115876Y-74996497D01*
X101052964Y-75012308D01*
X100992872Y-75031385D01*
X100969330Y-75039850D01*
X100969330Y-74903074D01*
X101028203Y-74886169D01*
X101032528Y-74885061D01*
X101093869Y-74871642D01*
X101105801Y-74869490D01*
X101168434Y-74860382D01*
X101186706Y-74858500D01*
X101250248Y-74854492D01*
X101271581Y-74854225D01*
X101336989Y-74857556D01*
G37*
G36*
X102175279Y-74995886D02*
G01*
X101920351Y-74995886D01*
X101920351Y-74873765D01*
X102326405Y-74873765D01*
X102326405Y-75606493D01*
X102583165Y-75606493D01*
X102583165Y-75733500D01*
X101891958Y-75733500D01*
X101891958Y-75606493D01*
X102175279Y-75606493D01*
X102175279Y-74995886D01*
G37*
G36*
X102227486Y-74522055D02*
G01*
X102273892Y-74531214D01*
X102311445Y-74556249D01*
X102336174Y-74593496D01*
X102345333Y-74639292D01*
X102336174Y-74684782D01*
X102311445Y-74722334D01*
X102273892Y-74747674D01*
X102227486Y-74756528D01*
X102181080Y-74747674D01*
X102143833Y-74722334D01*
X102118798Y-74684782D01*
X102109944Y-74639292D01*
X102118798Y-74593496D01*
X102143833Y-74556249D01*
X102181080Y-74531214D01*
X102227486Y-74522055D01*
G37*
G36*
X102842673Y-74873765D02*
G01*
X102975785Y-74873765D01*
X102981891Y-75012372D01*
X103023365Y-74965779D01*
X103054554Y-74936352D01*
X103104674Y-74899054D01*
X103123857Y-74887809D01*
X103181914Y-74864423D01*
X103192856Y-74861858D01*
X103254358Y-74854412D01*
X103266129Y-74854225D01*
X103328621Y-74859148D01*
X103389208Y-74876456D01*
X103444461Y-74910302D01*
X103467324Y-74932994D01*
X103503388Y-74989976D01*
X103524425Y-75054515D01*
X103534042Y-75122426D01*
X103535712Y-75169909D01*
X103535712Y-75733500D01*
X103386113Y-75733500D01*
X103386113Y-75180595D01*
X103381640Y-75116803D01*
X103364818Y-75057691D01*
X103348256Y-75030080D01*
X103297844Y-74991965D01*
X103235904Y-74981232D01*
X103182170Y-74989475D01*
X103127826Y-75017868D01*
X103080481Y-75058297D01*
X103066155Y-75072823D01*
X103024094Y-75119818D01*
X102991966Y-75158918D01*
X102991966Y-75733500D01*
X102842673Y-75733500D01*
X102842673Y-74873765D01*
G37*
G36*
X104519095Y-75186396D02*
G01*
X103780565Y-75186396D01*
X103780565Y-75059389D01*
X104519095Y-75059389D01*
X104519095Y-75186396D01*
G37*
G36*
X104519095Y-75489257D02*
G01*
X103780565Y-75489257D01*
X103780565Y-75362250D01*
X104519095Y-75362250D01*
X104519095Y-75489257D01*
G37*
G36*
X105493013Y-75733500D02*
G01*
X104753568Y-75733500D01*
X104753568Y-75600387D01*
X105043912Y-75312791D01*
X105089853Y-75266752D01*
X105132729Y-75221629D01*
X105159927Y-75191280D01*
X105199540Y-75142203D01*
X105229231Y-75097552D01*
X105255861Y-75041510D01*
X105262814Y-75017563D01*
X105270954Y-74955160D01*
X105271363Y-74936352D01*
X105264468Y-74874665D01*
X105260066Y-74858194D01*
X105232825Y-74801860D01*
X105225872Y-74792859D01*
X105176937Y-74753640D01*
X105165728Y-74748285D01*
X105105335Y-74733384D01*
X105077495Y-74732104D01*
X105013404Y-74739282D01*
X104955081Y-74760815D01*
X104947741Y-74764771D01*
X104895152Y-74799623D01*
X104846722Y-74842928D01*
X104840579Y-74849340D01*
X104758147Y-74749506D01*
X104804079Y-74706120D01*
X104854555Y-74669155D01*
X104904388Y-74641123D01*
X104964480Y-74617831D01*
X105024683Y-74605047D01*
X105090192Y-74600253D01*
X105097034Y-74600213D01*
X105159913Y-74604479D01*
X105221576Y-74618517D01*
X105233200Y-74622500D01*
X105290368Y-74649672D01*
X105339140Y-74686614D01*
X105378906Y-74733172D01*
X105408444Y-74789196D01*
X105425975Y-74849575D01*
X105432654Y-74912103D01*
X105432868Y-74926277D01*
X105428594Y-74988101D01*
X105415771Y-75045345D01*
X105392608Y-75103324D01*
X105363870Y-75154339D01*
X105327282Y-75206158D01*
X105285993Y-75256097D01*
X105276248Y-75266996D01*
X105233930Y-75312090D01*
X105190386Y-75356217D01*
X105151378Y-75394307D01*
X104947741Y-75591839D01*
X105493013Y-75591839D01*
X105493013Y-75733500D01*
G37*
G36*
X106145995Y-74604978D02*
G01*
X106206717Y-74619275D01*
X106244670Y-74634101D01*
X106301123Y-74667733D01*
X106346883Y-74709600D01*
X106370761Y-74738821D01*
X106403977Y-74792026D01*
X106429164Y-74848221D01*
X106449582Y-74911869D01*
X106451361Y-74918644D01*
X106465086Y-74983141D01*
X106473515Y-75045824D01*
X106478396Y-75113544D01*
X106479754Y-75176931D01*
X106478151Y-75239938D01*
X106472516Y-75307445D01*
X106462824Y-75371378D01*
X106454109Y-75412015D01*
X106435457Y-75475306D01*
X106411557Y-75532753D01*
X106379207Y-75589195D01*
X106375951Y-75593976D01*
X106337028Y-75642026D01*
X106287655Y-75685310D01*
X106245892Y-75711518D01*
X106189193Y-75735157D01*
X106126146Y-75748984D01*
X106063320Y-75753039D01*
X105998047Y-75748273D01*
X105937325Y-75733977D01*
X105899372Y-75719150D01*
X105842869Y-75685620D01*
X105796973Y-75644024D01*
X105772976Y-75615042D01*
X105739898Y-75562010D01*
X105714711Y-75505911D01*
X105694174Y-75442298D01*
X105692376Y-75435523D01*
X105689292Y-75420869D01*
X105847165Y-75420869D01*
X105867971Y-75479259D01*
X105879527Y-75503606D01*
X105913760Y-75554382D01*
X105927155Y-75568636D01*
X105977635Y-75604930D01*
X105990658Y-75611073D01*
X106052434Y-75625317D01*
X106071869Y-75626033D01*
X106134337Y-75617145D01*
X106178114Y-75597945D01*
X106227155Y-75557502D01*
X106259020Y-75514292D01*
X106287083Y-75456296D01*
X106305870Y-75396483D01*
X106310616Y-75376294D01*
X106321593Y-75310821D01*
X106327204Y-75244392D01*
X106328629Y-75185480D01*
X106326492Y-75128998D01*
X106321912Y-75074044D01*
X105847165Y-75420869D01*
X105689292Y-75420869D01*
X105678799Y-75371003D01*
X105670460Y-75308258D01*
X105665632Y-75240438D01*
X105664288Y-75176931D01*
X105664327Y-75175405D01*
X105815414Y-75175405D01*
X105815719Y-75225780D01*
X105818772Y-75274323D01*
X106293519Y-74932383D01*
X106272569Y-74873730D01*
X106260852Y-74849646D01*
X106225476Y-74797306D01*
X106213835Y-74784921D01*
X106163944Y-74748534D01*
X106150942Y-74742484D01*
X106090679Y-74727949D01*
X106071869Y-74727219D01*
X106009648Y-74736299D01*
X105965928Y-74755918D01*
X105916791Y-74796844D01*
X105884718Y-74841097D01*
X105856874Y-74900238D01*
X105838168Y-74961043D01*
X105833427Y-74981537D01*
X105823171Y-75042187D01*
X105817173Y-75109114D01*
X105815414Y-75175405D01*
X105664327Y-75175405D01*
X105665910Y-75114039D01*
X105671612Y-75046569D01*
X105681420Y-74982577D01*
X105690239Y-74941847D01*
X105709154Y-74878264D01*
X105733077Y-74820704D01*
X105765178Y-74764343D01*
X105768397Y-74759581D01*
X105807182Y-74711394D01*
X105856569Y-74668124D01*
X105898456Y-74642039D01*
X105955256Y-74618226D01*
X106018189Y-74604297D01*
X106080722Y-74600213D01*
X106145995Y-74604978D01*
G37*
G36*
X108376300Y-75733500D02*
G01*
X107636855Y-75733500D01*
X107636855Y-75600387D01*
X107927198Y-75312791D01*
X107973139Y-75266752D01*
X108016015Y-75221629D01*
X108043214Y-75191280D01*
X108082827Y-75142203D01*
X108112518Y-75097552D01*
X108139148Y-75041510D01*
X108146101Y-75017563D01*
X108154240Y-74955160D01*
X108154650Y-74936352D01*
X108147755Y-74874665D01*
X108143353Y-74858194D01*
X108116112Y-74801860D01*
X108109159Y-74792859D01*
X108060223Y-74753640D01*
X108049015Y-74748285D01*
X107988621Y-74733384D01*
X107960782Y-74732104D01*
X107896690Y-74739282D01*
X107838368Y-74760815D01*
X107831028Y-74764771D01*
X107778439Y-74799623D01*
X107730009Y-74842928D01*
X107723866Y-74849340D01*
X107641434Y-74749506D01*
X107687365Y-74706120D01*
X107737842Y-74669155D01*
X107787675Y-74641123D01*
X107847767Y-74617831D01*
X107907969Y-74605047D01*
X107973478Y-74600253D01*
X107980321Y-74600213D01*
X108043199Y-74604479D01*
X108104862Y-74618517D01*
X108116487Y-74622500D01*
X108173655Y-74649672D01*
X108222427Y-74686614D01*
X108262193Y-74733172D01*
X108291731Y-74789196D01*
X108309262Y-74849575D01*
X108315940Y-74912103D01*
X108316155Y-74926277D01*
X108311881Y-74988101D01*
X108299058Y-75045345D01*
X108275895Y-75103324D01*
X108247157Y-75154339D01*
X108210569Y-75206158D01*
X108169279Y-75256097D01*
X108159534Y-75266996D01*
X108117216Y-75312090D01*
X108073673Y-75356217D01*
X108034665Y-75394307D01*
X107831028Y-75591839D01*
X108376300Y-75591839D01*
X108376300Y-75733500D01*
G37*
G36*
X109302286Y-74522055D02*
G01*
X108713050Y-75909354D01*
X108570473Y-75909354D01*
X109159709Y-74522055D01*
X109302286Y-74522055D01*
G37*
G36*
X110277120Y-75399803D02*
G01*
X110271335Y-75462222D01*
X110253979Y-75521252D01*
X110246895Y-75537495D01*
X110214930Y-75590555D01*
X110171394Y-75637539D01*
X110156830Y-75649846D01*
X110102874Y-75685466D01*
X110044033Y-75712442D01*
X110005705Y-75725562D01*
X109945891Y-75740052D01*
X109880173Y-75749175D01*
X109815979Y-75752797D01*
X109793519Y-75753039D01*
X109730016Y-75751665D01*
X109673229Y-75747543D01*
X109612514Y-75739941D01*
X109573700Y-75733500D01*
X109573700Y-75601608D01*
X109635643Y-75610903D01*
X109686357Y-75616263D01*
X109749978Y-75620074D01*
X109807258Y-75621148D01*
X109871641Y-75618729D01*
X109935786Y-75609928D01*
X109951056Y-75606493D01*
X110011323Y-75585606D01*
X110048448Y-75563751D01*
X110092143Y-75517662D01*
X110103402Y-75496279D01*
X110119105Y-75436944D01*
X110120804Y-75406825D01*
X110109127Y-75345287D01*
X110100044Y-75327751D01*
X110057647Y-75281695D01*
X110042036Y-75271270D01*
X109983895Y-75245269D01*
X109952887Y-75237076D01*
X109891310Y-75227695D01*
X109839009Y-75225474D01*
X109711087Y-75225474D01*
X109711087Y-75103353D01*
X109840841Y-75103353D01*
X109903415Y-75097568D01*
X109933043Y-75089920D01*
X109988913Y-75063244D01*
X110004484Y-75051451D01*
X110043538Y-75003111D01*
X110049974Y-74989780D01*
X110064858Y-74928872D01*
X110065850Y-74906127D01*
X110058122Y-74844847D01*
X110026727Y-74787808D01*
X110010895Y-74773625D01*
X109952934Y-74745241D01*
X109887532Y-74733564D01*
X109849390Y-74732104D01*
X109788106Y-74734861D01*
X109732458Y-74741874D01*
X109670405Y-74754086D01*
X109608210Y-74769971D01*
X109603926Y-74771183D01*
X109603926Y-74639292D01*
X109663845Y-74623265D01*
X109665902Y-74622805D01*
X109725968Y-74611530D01*
X109732153Y-74610593D01*
X109793709Y-74603312D01*
X109797793Y-74602960D01*
X109858794Y-74600215D01*
X109860686Y-74600213D01*
X109924542Y-74602960D01*
X109986937Y-74612139D01*
X110017612Y-74619752D01*
X110076475Y-74641760D01*
X110131185Y-74675623D01*
X110175309Y-74721422D01*
X110199878Y-74763855D01*
X110217983Y-74822706D01*
X110223081Y-74880787D01*
X110217237Y-74943854D01*
X110197530Y-75004261D01*
X110173622Y-75043819D01*
X110131419Y-75089314D01*
X110078997Y-75127338D01*
X110038372Y-75148538D01*
X110097826Y-75164267D01*
X110124468Y-75175710D01*
X110176755Y-75207554D01*
X110201099Y-75228222D01*
X110241635Y-75277508D01*
X110256054Y-75303632D01*
X110274631Y-75364609D01*
X110277120Y-75399803D01*
G37*
G36*
X111224477Y-74522055D02*
G01*
X110635241Y-75909354D01*
X110492664Y-75909354D01*
X111081900Y-74522055D01*
X111224477Y-74522055D01*
G37*
G36*
X112220682Y-75733500D02*
G01*
X111481237Y-75733500D01*
X111481237Y-75600387D01*
X111771581Y-75312791D01*
X111817522Y-75266752D01*
X111860398Y-75221629D01*
X111887596Y-75191280D01*
X111927209Y-75142203D01*
X111956900Y-75097552D01*
X111983531Y-75041510D01*
X111990483Y-75017563D01*
X111998623Y-74955160D01*
X111999032Y-74936352D01*
X111992137Y-74874665D01*
X111987736Y-74858194D01*
X111960495Y-74801860D01*
X111953542Y-74792859D01*
X111904606Y-74753640D01*
X111893397Y-74748285D01*
X111833004Y-74733384D01*
X111805164Y-74732104D01*
X111741073Y-74739282D01*
X111682751Y-74760815D01*
X111675410Y-74764771D01*
X111622821Y-74799623D01*
X111574392Y-74842928D01*
X111568249Y-74849340D01*
X111485817Y-74749506D01*
X111531748Y-74706120D01*
X111582225Y-74669155D01*
X111632057Y-74641123D01*
X111692150Y-74617831D01*
X111752352Y-74605047D01*
X111817861Y-74600253D01*
X111824704Y-74600213D01*
X111887582Y-74604479D01*
X111949245Y-74618517D01*
X111960869Y-74622500D01*
X112018037Y-74649672D01*
X112066809Y-74686614D01*
X112106575Y-74733172D01*
X112136113Y-74789196D01*
X112153644Y-74849575D01*
X112160323Y-74912103D01*
X112160538Y-74926277D01*
X112156263Y-74988101D01*
X112143441Y-75045345D01*
X112120277Y-75103324D01*
X112091539Y-75154339D01*
X112054952Y-75206158D01*
X112013662Y-75256097D01*
X112003917Y-75266996D01*
X111961599Y-75312090D01*
X111918055Y-75356217D01*
X111879048Y-75394307D01*
X111675410Y-75591839D01*
X112220682Y-75591839D01*
X112220682Y-75733500D01*
G37*
G36*
X112873665Y-74604978D02*
G01*
X112934387Y-74619275D01*
X112972340Y-74634101D01*
X113028793Y-74667733D01*
X113074552Y-74709600D01*
X113098430Y-74738821D01*
X113131646Y-74792026D01*
X113156834Y-74848221D01*
X113177251Y-74911869D01*
X113179030Y-74918644D01*
X113192755Y-74983141D01*
X113201185Y-75045824D01*
X113206065Y-75113544D01*
X113207423Y-75176931D01*
X113205821Y-75239938D01*
X113200186Y-75307445D01*
X113190493Y-75371378D01*
X113181778Y-75412015D01*
X113163126Y-75475306D01*
X113139226Y-75532753D01*
X113106876Y-75589195D01*
X113103620Y-75593976D01*
X113064698Y-75642026D01*
X113015324Y-75685310D01*
X112973561Y-75711518D01*
X112916863Y-75735157D01*
X112853815Y-75748984D01*
X112790989Y-75753039D01*
X112725716Y-75748273D01*
X112664994Y-75733977D01*
X112627041Y-75719150D01*
X112570538Y-75685620D01*
X112524642Y-75644024D01*
X112500646Y-75615042D01*
X112467567Y-75562010D01*
X112442380Y-75505911D01*
X112421843Y-75442298D01*
X112420046Y-75435523D01*
X112416962Y-75420869D01*
X112574834Y-75420869D01*
X112595640Y-75479259D01*
X112607197Y-75503606D01*
X112641429Y-75554382D01*
X112654824Y-75568636D01*
X112705304Y-75604930D01*
X112718327Y-75611073D01*
X112780103Y-75625317D01*
X112799538Y-75626033D01*
X112862006Y-75617145D01*
X112905784Y-75597945D01*
X112954824Y-75557502D01*
X112986689Y-75514292D01*
X113014752Y-75456296D01*
X113033539Y-75396483D01*
X113038285Y-75376294D01*
X113049262Y-75310821D01*
X113054873Y-75244392D01*
X113056298Y-75185480D01*
X113054161Y-75128998D01*
X113049581Y-75074044D01*
X112574834Y-75420869D01*
X112416962Y-75420869D01*
X112406468Y-75371003D01*
X112398129Y-75308258D01*
X112393302Y-75240438D01*
X112391958Y-75176931D01*
X112391997Y-75175405D01*
X112543083Y-75175405D01*
X112543388Y-75225780D01*
X112546441Y-75274323D01*
X113021188Y-74932383D01*
X113000238Y-74873730D01*
X112988521Y-74849646D01*
X112953146Y-74797306D01*
X112941504Y-74784921D01*
X112891613Y-74748534D01*
X112878612Y-74742484D01*
X112818348Y-74727949D01*
X112799538Y-74727219D01*
X112737317Y-74736299D01*
X112693598Y-74755918D01*
X112644460Y-74796844D01*
X112612387Y-74841097D01*
X112584543Y-74900238D01*
X112565838Y-74961043D01*
X112561096Y-74981537D01*
X112550840Y-75042187D01*
X112544842Y-75109114D01*
X112543083Y-75175405D01*
X112391997Y-75175405D01*
X112393580Y-75114039D01*
X112399282Y-75046569D01*
X112409089Y-74982577D01*
X112417908Y-74941847D01*
X112436823Y-74878264D01*
X112460746Y-74820704D01*
X112492847Y-74764343D01*
X112496066Y-74759581D01*
X112534851Y-74711394D01*
X112584239Y-74668124D01*
X112626125Y-74642039D01*
X112682925Y-74618226D01*
X112745858Y-74604297D01*
X112808392Y-74600213D01*
X112873665Y-74604978D01*
G37*
G36*
X114142874Y-75733500D02*
G01*
X113403428Y-75733500D01*
X113403428Y-75600387D01*
X113693772Y-75312791D01*
X113739713Y-75266752D01*
X113782589Y-75221629D01*
X113809787Y-75191280D01*
X113849400Y-75142203D01*
X113879091Y-75097552D01*
X113905722Y-75041510D01*
X113912675Y-75017563D01*
X113920814Y-74955160D01*
X113921223Y-74936352D01*
X113914328Y-74874665D01*
X113909927Y-74858194D01*
X113882686Y-74801860D01*
X113875733Y-74792859D01*
X113826797Y-74753640D01*
X113815588Y-74748285D01*
X113755195Y-74733384D01*
X113727355Y-74732104D01*
X113663264Y-74739282D01*
X113604942Y-74760815D01*
X113597601Y-74764771D01*
X113545013Y-74799623D01*
X113496583Y-74842928D01*
X113490440Y-74849340D01*
X113408008Y-74749506D01*
X113453939Y-74706120D01*
X113504416Y-74669155D01*
X113554248Y-74641123D01*
X113614341Y-74617831D01*
X113674543Y-74605047D01*
X113740052Y-74600253D01*
X113746895Y-74600213D01*
X113809773Y-74604479D01*
X113871436Y-74618517D01*
X113883060Y-74622500D01*
X113940228Y-74649672D01*
X113989001Y-74686614D01*
X114028766Y-74733172D01*
X114058304Y-74789196D01*
X114075836Y-74849575D01*
X114082514Y-74912103D01*
X114082729Y-74926277D01*
X114078454Y-74988101D01*
X114065632Y-75045345D01*
X114042469Y-75103324D01*
X114013730Y-75154339D01*
X113977143Y-75206158D01*
X113935853Y-75256097D01*
X113926108Y-75266996D01*
X113883790Y-75312090D01*
X113840246Y-75356217D01*
X113801239Y-75394307D01*
X113597601Y-75591839D01*
X114142874Y-75591839D01*
X114142874Y-75733500D01*
G37*
G36*
X115075576Y-75383011D02*
G01*
X115069630Y-75447619D01*
X115051793Y-75507490D01*
X115039550Y-75533526D01*
X115005795Y-75585471D01*
X114963070Y-75631168D01*
X114940326Y-75650152D01*
X114885397Y-75686066D01*
X114827895Y-75712957D01*
X114791338Y-75725867D01*
X114730734Y-75741337D01*
X114666883Y-75750385D01*
X114606019Y-75753039D01*
X114552286Y-75751818D01*
X114495194Y-75748459D01*
X114439629Y-75744185D01*
X114391391Y-75738384D01*
X114391391Y-75601608D01*
X114454526Y-75612175D01*
X114497331Y-75616568D01*
X114561017Y-75620142D01*
X114617926Y-75621148D01*
X114679307Y-75617659D01*
X114741574Y-75605272D01*
X114801020Y-75581321D01*
X114834997Y-75559476D01*
X114877998Y-75514816D01*
X114894226Y-75487120D01*
X114912533Y-75426950D01*
X114914986Y-75391865D01*
X114906112Y-75327978D01*
X114876187Y-75273424D01*
X114839882Y-75242877D01*
X114780491Y-75216282D01*
X114720360Y-75202734D01*
X114658193Y-75196895D01*
X114624032Y-75196165D01*
X114410930Y-75196165D01*
X114410930Y-74619752D01*
X115015431Y-74619752D01*
X115015431Y-74751643D01*
X114551980Y-74751643D01*
X114551980Y-75069159D01*
X114649677Y-75069159D01*
X114714657Y-75071527D01*
X114778126Y-75078632D01*
X114806909Y-75083508D01*
X114866152Y-75098795D01*
X114923754Y-75123372D01*
X114942769Y-75134189D01*
X114993703Y-75173397D01*
X115034306Y-75223472D01*
X115038939Y-75230970D01*
X115063984Y-75289824D01*
X115074681Y-75355149D01*
X115075576Y-75383011D01*
G37*
G36*
X116607103Y-74621851D02*
G01*
X116680760Y-74630378D01*
X116747888Y-74645464D01*
X116808487Y-74667110D01*
X116872586Y-74701743D01*
X116927283Y-74745821D01*
X116935485Y-74754086D01*
X116979478Y-74809348D01*
X117009185Y-74863041D01*
X117032572Y-74923682D01*
X117049638Y-74991269D01*
X117060383Y-75065803D01*
X117064428Y-75130432D01*
X117064934Y-75164414D01*
X117062868Y-75228297D01*
X117056670Y-75289963D01*
X117052416Y-75317676D01*
X117038600Y-75379861D01*
X117019057Y-75438190D01*
X117012422Y-75454147D01*
X116983039Y-75510626D01*
X116946412Y-75562142D01*
X116940981Y-75568636D01*
X116895690Y-75613720D01*
X116845552Y-75649867D01*
X116833819Y-75656868D01*
X116778796Y-75683915D01*
X116716921Y-75705519D01*
X116686052Y-75713655D01*
X116625553Y-75724953D01*
X116559498Y-75731562D01*
X116494627Y-75733500D01*
X116254353Y-75733500D01*
X116254353Y-74746758D01*
X116407005Y-74746758D01*
X116407005Y-75601608D01*
X116521188Y-75601608D01*
X116589662Y-75597854D01*
X116651401Y-75586592D01*
X116723243Y-75559897D01*
X116783111Y-75519855D01*
X116831006Y-75466465D01*
X116866927Y-75399728D01*
X116886010Y-75340915D01*
X116898357Y-75274595D01*
X116903970Y-75200767D01*
X116904344Y-75174489D01*
X116902557Y-75110754D01*
X116896380Y-75046736D01*
X116884488Y-74984580D01*
X116881752Y-74974210D01*
X116859814Y-74912970D01*
X116827624Y-74858740D01*
X116813974Y-74842318D01*
X116766229Y-74801196D01*
X116708287Y-74772283D01*
X116699791Y-74769351D01*
X116640047Y-74754723D01*
X116577923Y-74747839D01*
X116538591Y-74746758D01*
X116407005Y-74746758D01*
X116254353Y-74746758D01*
X116254353Y-74619752D01*
X116543475Y-74619752D01*
X116607103Y-74621851D01*
G37*
G36*
X118049843Y-74619752D02*
G01*
X117974433Y-75733500D01*
X117775986Y-75733500D01*
X117637073Y-75334773D01*
X117598299Y-75207156D01*
X117557999Y-75345153D01*
X117429161Y-75733500D01*
X117237736Y-75733500D01*
X117160494Y-74619752D01*
X117304597Y-74619752D01*
X117348561Y-75375073D01*
X117361384Y-75584206D01*
X117415422Y-75406825D01*
X117550977Y-74991001D01*
X117656612Y-74991001D01*
X117812928Y-75436744D01*
X117865440Y-75584206D01*
X117868798Y-75430028D01*
X117913372Y-74619752D01*
X118049843Y-74619752D01*
G37*
D11*
X109766666Y-66818633D02*
X109533333Y-66485300D01*
X109366666Y-66818633D02*
X109366666Y-66118633D01*
X109366666Y-66118633D02*
X109633333Y-66118633D01*
X109633333Y-66118633D02*
X109700000Y-66151966D01*
X109700000Y-66151966D02*
X109733333Y-66185300D01*
X109733333Y-66185300D02*
X109766666Y-66251966D01*
X109766666Y-66251966D02*
X109766666Y-66351966D01*
X109766666Y-66351966D02*
X109733333Y-66418633D01*
X109733333Y-66418633D02*
X109700000Y-66451966D01*
X109700000Y-66451966D02*
X109633333Y-66485300D01*
X109633333Y-66485300D02*
X109366666Y-66485300D01*
X110066666Y-66818633D02*
X110066666Y-66118633D01*
X110066666Y-66118633D02*
X110466666Y-66818633D01*
X110466666Y-66818633D02*
X110466666Y-66118633D01*
X110766666Y-66185300D02*
X110799999Y-66151966D01*
X110799999Y-66151966D02*
X110866666Y-66118633D01*
X110866666Y-66118633D02*
X111033333Y-66118633D01*
X111033333Y-66118633D02*
X111099999Y-66151966D01*
X111099999Y-66151966D02*
X111133333Y-66185300D01*
X111133333Y-66185300D02*
X111166666Y-66251966D01*
X111166666Y-66251966D02*
X111166666Y-66318633D01*
X111166666Y-66318633D02*
X111133333Y-66418633D01*
X111133333Y-66418633D02*
X110733333Y-66818633D01*
X110733333Y-66818633D02*
X111166666Y-66818633D01*
X111383333Y-61068633D02*
X111150000Y-60735300D01*
X110983333Y-61068633D02*
X110983333Y-60368633D01*
X110983333Y-60368633D02*
X111250000Y-60368633D01*
X111250000Y-60368633D02*
X111316667Y-60401966D01*
X111316667Y-60401966D02*
X111350000Y-60435300D01*
X111350000Y-60435300D02*
X111383333Y-60501966D01*
X111383333Y-60501966D02*
X111383333Y-60601966D01*
X111383333Y-60601966D02*
X111350000Y-60668633D01*
X111350000Y-60668633D02*
X111316667Y-60701966D01*
X111316667Y-60701966D02*
X111250000Y-60735300D01*
X111250000Y-60735300D02*
X110983333Y-60735300D01*
X111983333Y-60368633D02*
X111850000Y-60368633D01*
X111850000Y-60368633D02*
X111783333Y-60401966D01*
X111783333Y-60401966D02*
X111750000Y-60435300D01*
X111750000Y-60435300D02*
X111683333Y-60535300D01*
X111683333Y-60535300D02*
X111650000Y-60668633D01*
X111650000Y-60668633D02*
X111650000Y-60935300D01*
X111650000Y-60935300D02*
X111683333Y-61001966D01*
X111683333Y-61001966D02*
X111716667Y-61035300D01*
X111716667Y-61035300D02*
X111783333Y-61068633D01*
X111783333Y-61068633D02*
X111916667Y-61068633D01*
X111916667Y-61068633D02*
X111983333Y-61035300D01*
X111983333Y-61035300D02*
X112016667Y-61001966D01*
X112016667Y-61001966D02*
X112050000Y-60935300D01*
X112050000Y-60935300D02*
X112050000Y-60768633D01*
X112050000Y-60768633D02*
X112016667Y-60701966D01*
X112016667Y-60701966D02*
X111983333Y-60668633D01*
X111983333Y-60668633D02*
X111916667Y-60635300D01*
X111916667Y-60635300D02*
X111783333Y-60635300D01*
X111783333Y-60635300D02*
X111716667Y-60668633D01*
X111716667Y-60668633D02*
X111683333Y-60701966D01*
X111683333Y-60701966D02*
X111650000Y-60768633D01*
X107383333Y-58818633D02*
X107150000Y-58485300D01*
X106983333Y-58818633D02*
X106983333Y-58118633D01*
X106983333Y-58118633D02*
X107250000Y-58118633D01*
X107250000Y-58118633D02*
X107316667Y-58151966D01*
X107316667Y-58151966D02*
X107350000Y-58185300D01*
X107350000Y-58185300D02*
X107383333Y-58251966D01*
X107383333Y-58251966D02*
X107383333Y-58351966D01*
X107383333Y-58351966D02*
X107350000Y-58418633D01*
X107350000Y-58418633D02*
X107316667Y-58451966D01*
X107316667Y-58451966D02*
X107250000Y-58485300D01*
X107250000Y-58485300D02*
X106983333Y-58485300D01*
X108016667Y-58118633D02*
X107683333Y-58118633D01*
X107683333Y-58118633D02*
X107650000Y-58451966D01*
X107650000Y-58451966D02*
X107683333Y-58418633D01*
X107683333Y-58418633D02*
X107750000Y-58385300D01*
X107750000Y-58385300D02*
X107916667Y-58385300D01*
X107916667Y-58385300D02*
X107983333Y-58418633D01*
X107983333Y-58418633D02*
X108016667Y-58451966D01*
X108016667Y-58451966D02*
X108050000Y-58518633D01*
X108050000Y-58518633D02*
X108050000Y-58685300D01*
X108050000Y-58685300D02*
X108016667Y-58751966D01*
X108016667Y-58751966D02*
X107983333Y-58785300D01*
X107983333Y-58785300D02*
X107916667Y-58818633D01*
X107916667Y-58818633D02*
X107750000Y-58818633D01*
X107750000Y-58818633D02*
X107683333Y-58785300D01*
X107683333Y-58785300D02*
X107650000Y-58751966D01*
X109216666Y-55368633D02*
X109216666Y-55935300D01*
X109216666Y-55935300D02*
X109250000Y-56001966D01*
X109250000Y-56001966D02*
X109283333Y-56035300D01*
X109283333Y-56035300D02*
X109350000Y-56068633D01*
X109350000Y-56068633D02*
X109483333Y-56068633D01*
X109483333Y-56068633D02*
X109550000Y-56035300D01*
X109550000Y-56035300D02*
X109583333Y-56001966D01*
X109583333Y-56001966D02*
X109616666Y-55935300D01*
X109616666Y-55935300D02*
X109616666Y-55368633D01*
X109883333Y-55368633D02*
X110316666Y-55368633D01*
X110316666Y-55368633D02*
X110083333Y-55635300D01*
X110083333Y-55635300D02*
X110183333Y-55635300D01*
X110183333Y-55635300D02*
X110249999Y-55668633D01*
X110249999Y-55668633D02*
X110283333Y-55701966D01*
X110283333Y-55701966D02*
X110316666Y-55768633D01*
X110316666Y-55768633D02*
X110316666Y-55935300D01*
X110316666Y-55935300D02*
X110283333Y-56001966D01*
X110283333Y-56001966D02*
X110249999Y-56035300D01*
X110249999Y-56035300D02*
X110183333Y-56068633D01*
X110183333Y-56068633D02*
X109983333Y-56068633D01*
X109983333Y-56068633D02*
X109916666Y-56035300D01*
X109916666Y-56035300D02*
X109883333Y-56001966D01*
X110633333Y-53648633D02*
X110400000Y-53315300D01*
X110233333Y-53648633D02*
X110233333Y-52948633D01*
X110233333Y-52948633D02*
X110500000Y-52948633D01*
X110500000Y-52948633D02*
X110566667Y-52981966D01*
X110566667Y-52981966D02*
X110600000Y-53015300D01*
X110600000Y-53015300D02*
X110633333Y-53081966D01*
X110633333Y-53081966D02*
X110633333Y-53181966D01*
X110633333Y-53181966D02*
X110600000Y-53248633D01*
X110600000Y-53248633D02*
X110566667Y-53281966D01*
X110566667Y-53281966D02*
X110500000Y-53315300D01*
X110500000Y-53315300D02*
X110233333Y-53315300D01*
X111233333Y-53181966D02*
X111233333Y-53648633D01*
X111066667Y-52915300D02*
X110900000Y-53415300D01*
X110900000Y-53415300D02*
X111333333Y-53415300D01*
X113383333Y-53648633D02*
X113150000Y-53315300D01*
X112983333Y-53648633D02*
X112983333Y-52948633D01*
X112983333Y-52948633D02*
X113250000Y-52948633D01*
X113250000Y-52948633D02*
X113316667Y-52981966D01*
X113316667Y-52981966D02*
X113350000Y-53015300D01*
X113350000Y-53015300D02*
X113383333Y-53081966D01*
X113383333Y-53081966D02*
X113383333Y-53181966D01*
X113383333Y-53181966D02*
X113350000Y-53248633D01*
X113350000Y-53248633D02*
X113316667Y-53281966D01*
X113316667Y-53281966D02*
X113250000Y-53315300D01*
X113250000Y-53315300D02*
X112983333Y-53315300D01*
X113616667Y-52948633D02*
X114050000Y-52948633D01*
X114050000Y-52948633D02*
X113816667Y-53215300D01*
X113816667Y-53215300D02*
X113916667Y-53215300D01*
X113916667Y-53215300D02*
X113983333Y-53248633D01*
X113983333Y-53248633D02*
X114016667Y-53281966D01*
X114016667Y-53281966D02*
X114050000Y-53348633D01*
X114050000Y-53348633D02*
X114050000Y-53515300D01*
X114050000Y-53515300D02*
X114016667Y-53581966D01*
X114016667Y-53581966D02*
X113983333Y-53615300D01*
X113983333Y-53615300D02*
X113916667Y-53648633D01*
X113916667Y-53648633D02*
X113716667Y-53648633D01*
X113716667Y-53648633D02*
X113650000Y-53615300D01*
X113650000Y-53615300D02*
X113616667Y-53581966D01*
X113883333Y-60068633D02*
X113650000Y-59735300D01*
X113483333Y-60068633D02*
X113483333Y-59368633D01*
X113483333Y-59368633D02*
X113750000Y-59368633D01*
X113750000Y-59368633D02*
X113816667Y-59401966D01*
X113816667Y-59401966D02*
X113850000Y-59435300D01*
X113850000Y-59435300D02*
X113883333Y-59501966D01*
X113883333Y-59501966D02*
X113883333Y-59601966D01*
X113883333Y-59601966D02*
X113850000Y-59668633D01*
X113850000Y-59668633D02*
X113816667Y-59701966D01*
X113816667Y-59701966D02*
X113750000Y-59735300D01*
X113750000Y-59735300D02*
X113483333Y-59735300D01*
X114150000Y-59435300D02*
X114183333Y-59401966D01*
X114183333Y-59401966D02*
X114250000Y-59368633D01*
X114250000Y-59368633D02*
X114416667Y-59368633D01*
X114416667Y-59368633D02*
X114483333Y-59401966D01*
X114483333Y-59401966D02*
X114516667Y-59435300D01*
X114516667Y-59435300D02*
X114550000Y-59501966D01*
X114550000Y-59501966D02*
X114550000Y-59568633D01*
X114550000Y-59568633D02*
X114516667Y-59668633D01*
X114516667Y-59668633D02*
X114116667Y-60068633D01*
X114116667Y-60068633D02*
X114550000Y-60068633D01*
X118383333Y-54751966D02*
X118350000Y-54785300D01*
X118350000Y-54785300D02*
X118250000Y-54818633D01*
X118250000Y-54818633D02*
X118183333Y-54818633D01*
X118183333Y-54818633D02*
X118083333Y-54785300D01*
X118083333Y-54785300D02*
X118016667Y-54718633D01*
X118016667Y-54718633D02*
X117983333Y-54651966D01*
X117983333Y-54651966D02*
X117950000Y-54518633D01*
X117950000Y-54518633D02*
X117950000Y-54418633D01*
X117950000Y-54418633D02*
X117983333Y-54285300D01*
X117983333Y-54285300D02*
X118016667Y-54218633D01*
X118016667Y-54218633D02*
X118083333Y-54151966D01*
X118083333Y-54151966D02*
X118183333Y-54118633D01*
X118183333Y-54118633D02*
X118250000Y-54118633D01*
X118250000Y-54118633D02*
X118350000Y-54151966D01*
X118350000Y-54151966D02*
X118383333Y-54185300D01*
X119016667Y-54118633D02*
X118683333Y-54118633D01*
X118683333Y-54118633D02*
X118650000Y-54451966D01*
X118650000Y-54451966D02*
X118683333Y-54418633D01*
X118683333Y-54418633D02*
X118750000Y-54385300D01*
X118750000Y-54385300D02*
X118916667Y-54385300D01*
X118916667Y-54385300D02*
X118983333Y-54418633D01*
X118983333Y-54418633D02*
X119016667Y-54451966D01*
X119016667Y-54451966D02*
X119050000Y-54518633D01*
X119050000Y-54518633D02*
X119050000Y-54685300D01*
X119050000Y-54685300D02*
X119016667Y-54751966D01*
X119016667Y-54751966D02*
X118983333Y-54785300D01*
X118983333Y-54785300D02*
X118916667Y-54818633D01*
X118916667Y-54818633D02*
X118750000Y-54818633D01*
X118750000Y-54818633D02*
X118683333Y-54785300D01*
X118683333Y-54785300D02*
X118650000Y-54751966D01*
X109633333Y-57501966D02*
X109600000Y-57535300D01*
X109600000Y-57535300D02*
X109500000Y-57568633D01*
X109500000Y-57568633D02*
X109433333Y-57568633D01*
X109433333Y-57568633D02*
X109333333Y-57535300D01*
X109333333Y-57535300D02*
X109266667Y-57468633D01*
X109266667Y-57468633D02*
X109233333Y-57401966D01*
X109233333Y-57401966D02*
X109200000Y-57268633D01*
X109200000Y-57268633D02*
X109200000Y-57168633D01*
X109200000Y-57168633D02*
X109233333Y-57035300D01*
X109233333Y-57035300D02*
X109266667Y-56968633D01*
X109266667Y-56968633D02*
X109333333Y-56901966D01*
X109333333Y-56901966D02*
X109433333Y-56868633D01*
X109433333Y-56868633D02*
X109500000Y-56868633D01*
X109500000Y-56868633D02*
X109600000Y-56901966D01*
X109600000Y-56901966D02*
X109633333Y-56935300D01*
X110233333Y-57101966D02*
X110233333Y-57568633D01*
X110066667Y-56835300D02*
X109900000Y-57335300D01*
X109900000Y-57335300D02*
X110333333Y-57335300D01*
X116633333Y-60001966D02*
X116600000Y-60035300D01*
X116600000Y-60035300D02*
X116500000Y-60068633D01*
X116500000Y-60068633D02*
X116433333Y-60068633D01*
X116433333Y-60068633D02*
X116333333Y-60035300D01*
X116333333Y-60035300D02*
X116266667Y-59968633D01*
X116266667Y-59968633D02*
X116233333Y-59901966D01*
X116233333Y-59901966D02*
X116200000Y-59768633D01*
X116200000Y-59768633D02*
X116200000Y-59668633D01*
X116200000Y-59668633D02*
X116233333Y-59535300D01*
X116233333Y-59535300D02*
X116266667Y-59468633D01*
X116266667Y-59468633D02*
X116333333Y-59401966D01*
X116333333Y-59401966D02*
X116433333Y-59368633D01*
X116433333Y-59368633D02*
X116500000Y-59368633D01*
X116500000Y-59368633D02*
X116600000Y-59401966D01*
X116600000Y-59401966D02*
X116633333Y-59435300D01*
X116866667Y-59368633D02*
X117300000Y-59368633D01*
X117300000Y-59368633D02*
X117066667Y-59635300D01*
X117066667Y-59635300D02*
X117166667Y-59635300D01*
X117166667Y-59635300D02*
X117233333Y-59668633D01*
X117233333Y-59668633D02*
X117266667Y-59701966D01*
X117266667Y-59701966D02*
X117300000Y-59768633D01*
X117300000Y-59768633D02*
X117300000Y-59935300D01*
X117300000Y-59935300D02*
X117266667Y-60001966D01*
X117266667Y-60001966D02*
X117233333Y-60035300D01*
X117233333Y-60035300D02*
X117166667Y-60068633D01*
X117166667Y-60068633D02*
X116966667Y-60068633D01*
X116966667Y-60068633D02*
X116900000Y-60035300D01*
X116900000Y-60035300D02*
X116866667Y-60001966D01*
X106883333Y-70251966D02*
X106850000Y-70285300D01*
X106850000Y-70285300D02*
X106750000Y-70318633D01*
X106750000Y-70318633D02*
X106683333Y-70318633D01*
X106683333Y-70318633D02*
X106583333Y-70285300D01*
X106583333Y-70285300D02*
X106516667Y-70218633D01*
X106516667Y-70218633D02*
X106483333Y-70151966D01*
X106483333Y-70151966D02*
X106450000Y-70018633D01*
X106450000Y-70018633D02*
X106450000Y-69918633D01*
X106450000Y-69918633D02*
X106483333Y-69785300D01*
X106483333Y-69785300D02*
X106516667Y-69718633D01*
X106516667Y-69718633D02*
X106583333Y-69651966D01*
X106583333Y-69651966D02*
X106683333Y-69618633D01*
X106683333Y-69618633D02*
X106750000Y-69618633D01*
X106750000Y-69618633D02*
X106850000Y-69651966D01*
X106850000Y-69651966D02*
X106883333Y-69685300D01*
X107150000Y-69685300D02*
X107183333Y-69651966D01*
X107183333Y-69651966D02*
X107250000Y-69618633D01*
X107250000Y-69618633D02*
X107416667Y-69618633D01*
X107416667Y-69618633D02*
X107483333Y-69651966D01*
X107483333Y-69651966D02*
X107516667Y-69685300D01*
X107516667Y-69685300D02*
X107550000Y-69751966D01*
X107550000Y-69751966D02*
X107550000Y-69818633D01*
X107550000Y-69818633D02*
X107516667Y-69918633D01*
X107516667Y-69918633D02*
X107116667Y-70318633D01*
X107116667Y-70318633D02*
X107550000Y-70318633D01*
X118383333Y-60001966D02*
X118350000Y-60035300D01*
X118350000Y-60035300D02*
X118250000Y-60068633D01*
X118250000Y-60068633D02*
X118183333Y-60068633D01*
X118183333Y-60068633D02*
X118083333Y-60035300D01*
X118083333Y-60035300D02*
X118016667Y-59968633D01*
X118016667Y-59968633D02*
X117983333Y-59901966D01*
X117983333Y-59901966D02*
X117950000Y-59768633D01*
X117950000Y-59768633D02*
X117950000Y-59668633D01*
X117950000Y-59668633D02*
X117983333Y-59535300D01*
X117983333Y-59535300D02*
X118016667Y-59468633D01*
X118016667Y-59468633D02*
X118083333Y-59401966D01*
X118083333Y-59401966D02*
X118183333Y-59368633D01*
X118183333Y-59368633D02*
X118250000Y-59368633D01*
X118250000Y-59368633D02*
X118350000Y-59401966D01*
X118350000Y-59401966D02*
X118383333Y-59435300D01*
X119050000Y-60068633D02*
X118650000Y-60068633D01*
X118850000Y-60068633D02*
X118850000Y-59368633D01*
X118850000Y-59368633D02*
X118783333Y-59468633D01*
X118783333Y-59468633D02*
X118716667Y-59535300D01*
X118716667Y-59535300D02*
X118650000Y-59568633D01*
X102216666Y-68368633D02*
X102216666Y-68935300D01*
X102216666Y-68935300D02*
X102250000Y-69001966D01*
X102250000Y-69001966D02*
X102283333Y-69035300D01*
X102283333Y-69035300D02*
X102350000Y-69068633D01*
X102350000Y-69068633D02*
X102483333Y-69068633D01*
X102483333Y-69068633D02*
X102550000Y-69035300D01*
X102550000Y-69035300D02*
X102583333Y-69001966D01*
X102583333Y-69001966D02*
X102616666Y-68935300D01*
X102616666Y-68935300D02*
X102616666Y-68368633D01*
X103316666Y-69068633D02*
X102916666Y-69068633D01*
X103116666Y-69068633D02*
X103116666Y-68368633D01*
X103116666Y-68368633D02*
X103049999Y-68468633D01*
X103049999Y-68468633D02*
X102983333Y-68535300D01*
X102983333Y-68535300D02*
X102916666Y-68568633D01*
X97016666Y-61293633D02*
X96783333Y-60960300D01*
X96616666Y-61293633D02*
X96616666Y-60593633D01*
X96616666Y-60593633D02*
X96883333Y-60593633D01*
X96883333Y-60593633D02*
X96950000Y-60626966D01*
X96950000Y-60626966D02*
X96983333Y-60660300D01*
X96983333Y-60660300D02*
X97016666Y-60726966D01*
X97016666Y-60726966D02*
X97016666Y-60826966D01*
X97016666Y-60826966D02*
X96983333Y-60893633D01*
X96983333Y-60893633D02*
X96950000Y-60926966D01*
X96950000Y-60926966D02*
X96883333Y-60960300D01*
X96883333Y-60960300D02*
X96616666Y-60960300D01*
X97316666Y-61293633D02*
X97316666Y-60593633D01*
X97316666Y-60593633D02*
X97716666Y-61293633D01*
X97716666Y-61293633D02*
X97716666Y-60593633D01*
X98416666Y-61293633D02*
X98016666Y-61293633D01*
X98216666Y-61293633D02*
X98216666Y-60593633D01*
X98216666Y-60593633D02*
X98149999Y-60693633D01*
X98149999Y-60693633D02*
X98083333Y-60760300D01*
X98083333Y-60760300D02*
X98016666Y-60793633D01*
X96633333Y-67818633D02*
X96400000Y-67485300D01*
X96233333Y-67818633D02*
X96233333Y-67118633D01*
X96233333Y-67118633D02*
X96500000Y-67118633D01*
X96500000Y-67118633D02*
X96566667Y-67151966D01*
X96566667Y-67151966D02*
X96600000Y-67185300D01*
X96600000Y-67185300D02*
X96633333Y-67251966D01*
X96633333Y-67251966D02*
X96633333Y-67351966D01*
X96633333Y-67351966D02*
X96600000Y-67418633D01*
X96600000Y-67418633D02*
X96566667Y-67451966D01*
X96566667Y-67451966D02*
X96500000Y-67485300D01*
X96500000Y-67485300D02*
X96233333Y-67485300D01*
X97300000Y-67818633D02*
X96900000Y-67818633D01*
X97100000Y-67818633D02*
X97100000Y-67118633D01*
X97100000Y-67118633D02*
X97033333Y-67218633D01*
X97033333Y-67218633D02*
X96966667Y-67285300D01*
X96966667Y-67285300D02*
X96900000Y-67318633D01*
D10*
X92936096Y-54222819D02*
X92936096Y-53222819D01*
X93412286Y-54222819D02*
X93412286Y-53222819D01*
X93888476Y-54222819D02*
X93888476Y-53222819D01*
X93888476Y-53222819D02*
X94459904Y-54222819D01*
X94459904Y-54222819D02*
X94459904Y-53222819D01*
X124024095Y-63510438D02*
X123928857Y-63462819D01*
X123928857Y-63462819D02*
X123786000Y-63462819D01*
X123786000Y-63462819D02*
X123643143Y-63510438D01*
X123643143Y-63510438D02*
X123547905Y-63605676D01*
X123547905Y-63605676D02*
X123500286Y-63700914D01*
X123500286Y-63700914D02*
X123452667Y-63891390D01*
X123452667Y-63891390D02*
X123452667Y-64034247D01*
X123452667Y-64034247D02*
X123500286Y-64224723D01*
X123500286Y-64224723D02*
X123547905Y-64319961D01*
X123547905Y-64319961D02*
X123643143Y-64415200D01*
X123643143Y-64415200D02*
X123786000Y-64462819D01*
X123786000Y-64462819D02*
X123881238Y-64462819D01*
X123881238Y-64462819D02*
X124024095Y-64415200D01*
X124024095Y-64415200D02*
X124071714Y-64367580D01*
X124071714Y-64367580D02*
X124071714Y-64034247D01*
X124071714Y-64034247D02*
X123881238Y-64034247D01*
X124500286Y-64462819D02*
X124500286Y-63462819D01*
X124500286Y-63462819D02*
X125071714Y-64462819D01*
X125071714Y-64462819D02*
X125071714Y-63462819D01*
X125547905Y-64462819D02*
X125547905Y-63462819D01*
X125547905Y-63462819D02*
X125786000Y-63462819D01*
X125786000Y-63462819D02*
X125928857Y-63510438D01*
X125928857Y-63510438D02*
X126024095Y-63605676D01*
X126024095Y-63605676D02*
X126071714Y-63700914D01*
X126071714Y-63700914D02*
X126119333Y-63891390D01*
X126119333Y-63891390D02*
X126119333Y-64034247D01*
X126119333Y-64034247D02*
X126071714Y-64224723D01*
X126071714Y-64224723D02*
X126024095Y-64319961D01*
X126024095Y-64319961D02*
X125928857Y-64415200D01*
X125928857Y-64415200D02*
X125786000Y-64462819D01*
X125786000Y-64462819D02*
X125547905Y-64462819D01*
X92297429Y-75596819D02*
X92297429Y-74596819D01*
X92964095Y-74596819D02*
X93154571Y-74596819D01*
X93154571Y-74596819D02*
X93249809Y-74644438D01*
X93249809Y-74644438D02*
X93345047Y-74739676D01*
X93345047Y-74739676D02*
X93392666Y-74930152D01*
X93392666Y-74930152D02*
X93392666Y-75263485D01*
X93392666Y-75263485D02*
X93345047Y-75453961D01*
X93345047Y-75453961D02*
X93249809Y-75549200D01*
X93249809Y-75549200D02*
X93154571Y-75596819D01*
X93154571Y-75596819D02*
X92964095Y-75596819D01*
X92964095Y-75596819D02*
X92868857Y-75549200D01*
X92868857Y-75549200D02*
X92773619Y-75453961D01*
X92773619Y-75453961D02*
X92726000Y-75263485D01*
X92726000Y-75263485D02*
X92726000Y-74930152D01*
X92726000Y-74930152D02*
X92773619Y-74739676D01*
X92773619Y-74739676D02*
X92868857Y-74644438D01*
X92868857Y-74644438D02*
X92964095Y-74596819D01*
X93821238Y-74596819D02*
X93821238Y-75406342D01*
X93821238Y-75406342D02*
X93868857Y-75501580D01*
X93868857Y-75501580D02*
X93916476Y-75549200D01*
X93916476Y-75549200D02*
X94011714Y-75596819D01*
X94011714Y-75596819D02*
X94202190Y-75596819D01*
X94202190Y-75596819D02*
X94297428Y-75549200D01*
X94297428Y-75549200D02*
X94345047Y-75501580D01*
X94345047Y-75501580D02*
X94392666Y-75406342D01*
X94392666Y-75406342D02*
X94392666Y-74596819D01*
X94726000Y-74596819D02*
X95297428Y-74596819D01*
X95011714Y-75596819D02*
X95011714Y-74596819D01*
X123786000Y-71082819D02*
X123976476Y-71082819D01*
X123976476Y-71082819D02*
X124071714Y-71130438D01*
X124071714Y-71130438D02*
X124166952Y-71225676D01*
X124166952Y-71225676D02*
X124214571Y-71416152D01*
X124214571Y-71416152D02*
X124214571Y-71749485D01*
X124214571Y-71749485D02*
X124166952Y-71939961D01*
X124166952Y-71939961D02*
X124071714Y-72035200D01*
X124071714Y-72035200D02*
X123976476Y-72082819D01*
X123976476Y-72082819D02*
X123786000Y-72082819D01*
X123786000Y-72082819D02*
X123690762Y-72035200D01*
X123690762Y-72035200D02*
X123595524Y-71939961D01*
X123595524Y-71939961D02*
X123547905Y-71749485D01*
X123547905Y-71749485D02*
X123547905Y-71416152D01*
X123547905Y-71416152D02*
X123595524Y-71225676D01*
X123595524Y-71225676D02*
X123690762Y-71130438D01*
X123690762Y-71130438D02*
X123786000Y-71082819D01*
X124643143Y-71082819D02*
X124643143Y-71892342D01*
X124643143Y-71892342D02*
X124690762Y-71987580D01*
X124690762Y-71987580D02*
X124738381Y-72035200D01*
X124738381Y-72035200D02*
X124833619Y-72082819D01*
X124833619Y-72082819D02*
X125024095Y-72082819D01*
X125024095Y-72082819D02*
X125119333Y-72035200D01*
X125119333Y-72035200D02*
X125166952Y-71987580D01*
X125166952Y-71987580D02*
X125214571Y-71892342D01*
X125214571Y-71892342D02*
X125214571Y-71082819D01*
X125547905Y-71082819D02*
X126119333Y-71082819D01*
X125833619Y-72082819D02*
X125833619Y-71082819D01*
X123452667Y-56359319D02*
X123786000Y-57359319D01*
X123786000Y-57359319D02*
X124119333Y-56359319D01*
X124452667Y-57359319D02*
X124452667Y-56359319D01*
X124452667Y-56359319D02*
X124690762Y-56359319D01*
X124690762Y-56359319D02*
X124833619Y-56406938D01*
X124833619Y-56406938D02*
X124928857Y-56502176D01*
X124928857Y-56502176D02*
X124976476Y-56597414D01*
X124976476Y-56597414D02*
X125024095Y-56787890D01*
X125024095Y-56787890D02*
X125024095Y-56930747D01*
X125024095Y-56930747D02*
X124976476Y-57121223D01*
X124976476Y-57121223D02*
X124928857Y-57216461D01*
X124928857Y-57216461D02*
X124833619Y-57311700D01*
X124833619Y-57311700D02*
X124690762Y-57359319D01*
X124690762Y-57359319D02*
X124452667Y-57359319D01*
X125452667Y-57359319D02*
X125452667Y-56359319D01*
X125452667Y-56359319D02*
X125690762Y-56359319D01*
X125690762Y-56359319D02*
X125833619Y-56406938D01*
X125833619Y-56406938D02*
X125928857Y-56502176D01*
X125928857Y-56502176D02*
X125976476Y-56597414D01*
X125976476Y-56597414D02*
X126024095Y-56787890D01*
X126024095Y-56787890D02*
X126024095Y-56930747D01*
X126024095Y-56930747D02*
X125976476Y-57121223D01*
X125976476Y-57121223D02*
X125928857Y-57216461D01*
X125928857Y-57216461D02*
X125833619Y-57311700D01*
X125833619Y-57311700D02*
X125690762Y-57359319D01*
X125690762Y-57359319D02*
X125452667Y-57359319D01*
D12*
%TO.C,TP5*%
X119450000Y-58000000D02*
G75*
G02*
X118050000Y-58000000I-700000J0D01*
G01*
X118050000Y-58000000D02*
G75*
G02*
X119450000Y-58000000I700000J0D01*
G01*
%TO.C,TP4*%
X120700000Y-56250000D02*
G75*
G02*
X119300000Y-56250000I-700000J0D01*
G01*
X119300000Y-56250000D02*
G75*
G02*
X120700000Y-56250000I700000J0D01*
G01*
%TO.C,TP3*%
X99700000Y-59250000D02*
G75*
G02*
X98300000Y-59250000I-700000J0D01*
G01*
X98300000Y-59250000D02*
G75*
G02*
X99700000Y-59250000I700000J0D01*
G01*
%TO.C,TP2*%
X99575000Y-67675000D02*
G75*
G02*
X98175000Y-67675000I-700000J0D01*
G01*
X98175000Y-67675000D02*
G75*
G02*
X99575000Y-67675000I700000J0D01*
G01*
%TO.C,TP1*%
X105700000Y-59000000D02*
G75*
G02*
X104300000Y-59000000I-700000J0D01*
G01*
X104300000Y-59000000D02*
G75*
G02*
X105700000Y-59000000I700000J0D01*
G01*
%TO.C,RN2*%
X110236000Y-65060000D02*
X111036000Y-65060000D01*
X110236000Y-65060000D02*
X109436000Y-65060000D01*
X110236000Y-61940000D02*
X111036000Y-61940000D01*
X110236000Y-61940000D02*
X109436000Y-61940000D01*
X111776000Y-65315000D02*
X111296000Y-65315000D01*
X111536000Y-64985000D01*
X111776000Y-65315000D01*
G36*
X111776000Y-65315000D02*
G01*
X111296000Y-65315000D01*
X111536000Y-64985000D01*
X111776000Y-65315000D01*
G37*
%TO.C,R6*%
X109620000Y-60667621D02*
X109620000Y-60332379D01*
X110380000Y-60667621D02*
X110380000Y-60332379D01*
%TO.C,R5*%
X107332379Y-59370000D02*
X107667621Y-59370000D01*
X107332379Y-60130000D02*
X107667621Y-60130000D01*
%TO.C,U3*%
X114260000Y-57540000D02*
X112260000Y-57540000D01*
X114250000Y-55260000D02*
X112250000Y-55260000D01*
X114620000Y-57750000D02*
X114620000Y-57470000D01*
X114900000Y-57470000D01*
X114620000Y-57750000D01*
G36*
X114620000Y-57750000D02*
G01*
X114620000Y-57470000D01*
X114900000Y-57470000D01*
X114620000Y-57750000D01*
G37*
%TO.C,R4*%
X110582379Y-54120000D02*
X110917621Y-54120000D01*
X110582379Y-54880000D02*
X110917621Y-54880000D01*
%TO.C,R3*%
X113332379Y-54120000D02*
X113667621Y-54120000D01*
X113332379Y-54880000D02*
X113667621Y-54880000D01*
%TO.C,R2*%
X113667621Y-58780000D02*
X113332379Y-58780000D01*
X113667621Y-58020000D02*
X113332379Y-58020000D01*
%TO.C,C5*%
X116384165Y-54140000D02*
X116615835Y-54140000D01*
X116384165Y-54860000D02*
X116615835Y-54860000D01*
%TO.C,C4*%
X110640000Y-57865835D02*
X110640000Y-57634165D01*
X111360000Y-57865835D02*
X111360000Y-57634165D01*
%TO.C,C3*%
X115390000Y-57865835D02*
X115390000Y-57634165D01*
X116110000Y-57865835D02*
X116110000Y-57634165D01*
%TO.C,C2*%
X107384165Y-68390000D02*
X107615835Y-68390000D01*
X107384165Y-69110000D02*
X107615835Y-69110000D01*
%TO.C,C1*%
X117110000Y-57634165D02*
X117110000Y-57865835D01*
X116390000Y-57634165D02*
X116390000Y-57865835D01*
%TO.C,U1*%
X107462000Y-64262000D02*
X107462000Y-62312000D01*
X107462000Y-64262000D02*
X107462000Y-66212000D01*
X102342000Y-64262000D02*
X102342000Y-62312000D01*
X102342000Y-64262000D02*
X102342000Y-66212000D01*
X107697000Y-61802000D02*
X107367000Y-61562000D01*
X107697000Y-61322000D01*
X107697000Y-61802000D01*
G36*
X107697000Y-61802000D02*
G01*
X107367000Y-61562000D01*
X107697000Y-61322000D01*
X107697000Y-61802000D01*
G37*
%TO.C,RN1*%
X97754000Y-63754000D02*
X97754000Y-64554000D01*
X97754000Y-63754000D02*
X97754000Y-62954000D01*
X100874000Y-63754000D02*
X100874000Y-64554000D01*
X100874000Y-63754000D02*
X100874000Y-62954000D01*
X97829000Y-65054000D02*
X97499000Y-65294000D01*
X97499000Y-64814000D01*
X97829000Y-65054000D01*
G36*
X97829000Y-65054000D02*
G01*
X97499000Y-65294000D01*
X97499000Y-64814000D01*
X97829000Y-65054000D01*
G37*
%TO.C,R1*%
X95436000Y-62084936D02*
X95436000Y-66439064D01*
X92016000Y-62084936D02*
X92016000Y-66439064D01*
%TO.C,J3*%
X91526000Y-54950000D02*
X95926000Y-54950000D01*
X91526000Y-59350000D02*
X91526000Y-54950000D01*
X95926000Y-54950000D02*
X95926000Y-59350000D01*
X95926000Y-59350000D02*
X91526000Y-59350000D01*
%TO.C,J2*%
X127086000Y-61808000D02*
X131486000Y-61808000D01*
X127086000Y-66208000D02*
X127086000Y-61808000D01*
X131486000Y-61808000D02*
X131486000Y-66208000D01*
X131486000Y-66208000D02*
X127086000Y-66208000D01*
%TO.C,J4*%
X91500000Y-69428000D02*
X95900000Y-69428000D01*
X91500000Y-73828000D02*
X91500000Y-69428000D01*
X95900000Y-69428000D02*
X95900000Y-73828000D01*
X95900000Y-73828000D02*
X91500000Y-73828000D01*
%TO.C,J5*%
X127086000Y-69436500D02*
X131486000Y-69436500D01*
X127086000Y-73836500D02*
X127086000Y-69436500D01*
X131486000Y-69436500D02*
X131486000Y-73836500D01*
X131486000Y-73836500D02*
X127086000Y-73836500D01*
%TO.C,J1*%
X127086000Y-54704500D02*
X131486000Y-54704500D01*
X127086000Y-59104500D02*
X127086000Y-54704500D01*
X131486000Y-54704500D02*
X131486000Y-59104500D01*
X131486000Y-59104500D02*
X127086000Y-59104500D01*
%TD*%
M02*
