%TF.GenerationSoftware,KiCad,Pcbnew,8.0.1*%
%TF.CreationDate,2025-02-04T12:10:18-05:00*%
%TF.ProjectId,diff_amp_breakout,64696666-5f61-46d7-905f-627265616b6f,rev?*%
%TF.SameCoordinates,Original*%
%TF.FileFunction,Copper,L2,Bot*%
%TF.FilePolarity,Positive*%
%FSLAX46Y46*%
G04 Gerber Fmt 4.6, Leading zero omitted, Abs format (unit mm)*
G04 Created by KiCad (PCBNEW 8.0.1) date 2025-02-04 12:10:18*
%MOMM*%
%LPD*%
G01*
G04 APERTURE LIST*
%TA.AperFunction,ViaPad*%
%ADD10C,0.700000*%
%TD*%
%TA.AperFunction,Conductor*%
%ADD11C,0.381000*%
%TD*%
%TA.AperFunction,Conductor*%
%ADD12C,0.254000*%
%TD*%
%ADD13C,0.300000*%
G04 APERTURE END LIST*
D10*
%TO.N,GND*%
X96250000Y-62250000D03*
%TO.N,-3V3*%
X109750000Y-58750000D03*
X115000000Y-53500000D03*
%TO.N,GND*%
X109250000Y-68750000D03*
%TO.N,/EN*%
X111000000Y-56000000D03*
X112250000Y-59500000D03*
%TO.N,GND*%
X116500000Y-60750000D03*
X113250000Y-56250000D03*
X131000000Y-60500000D03*
X127750000Y-67500000D03*
X130750000Y-67500000D03*
X113000000Y-64250000D03*
X109000000Y-61250000D03*
X103000000Y-59250000D03*
X101750000Y-61250000D03*
%TO.N,/OUT*%
X125750000Y-70250000D03*
X113750000Y-63500000D03*
%TO.N,/IOUT*%
X93726000Y-65659000D03*
X96266000Y-63627000D03*
%TD*%
D11*
%TO.N,-3V3*%
X112000000Y-53500000D02*
X115000000Y-53500000D01*
X110167500Y-55332500D02*
X112000000Y-53500000D01*
X109750000Y-55750000D02*
X110000000Y-55500000D01*
X109750000Y-56250000D02*
X109750000Y-55750000D01*
X109750000Y-58750000D02*
X109750000Y-56250000D01*
X110000000Y-55500000D02*
X110167500Y-55332500D01*
D12*
%TO.N,/EN*%
X111250000Y-59500000D02*
X111000000Y-59250000D01*
X111000000Y-59250000D02*
X111000000Y-56000000D01*
X112250000Y-59500000D02*
X111250000Y-59500000D01*
D11*
%TO.N,/OUT*%
X120500000Y-70250000D02*
X125750000Y-70250000D01*
X113750000Y-63500000D02*
X120500000Y-70250000D01*
D12*
%TO.N,/IOUT*%
X93726000Y-65532000D02*
X93726000Y-65659000D01*
X94361000Y-64897000D02*
X93726000Y-65532000D01*
X96266000Y-63627000D02*
X95631000Y-63627000D01*
X95631000Y-63627000D02*
X94361000Y-64897000D01*
%TD*%
%TA.AperFunction,Conductor*%
%TO.N,GND*%
G36*
X130000733Y-52000008D02*
G01*
X130191077Y-52002343D01*
X130201681Y-52002930D01*
X130581224Y-52040312D01*
X130593249Y-52042096D01*
X130966527Y-52116345D01*
X130978329Y-52119301D01*
X131342544Y-52229785D01*
X131354002Y-52233885D01*
X131705627Y-52379532D01*
X131716626Y-52384734D01*
X132052282Y-52564147D01*
X132062713Y-52570399D01*
X132379169Y-52781849D01*
X132388942Y-52789097D01*
X132683148Y-53030544D01*
X132692165Y-53038717D01*
X132961282Y-53307834D01*
X132969455Y-53316851D01*
X133210902Y-53611057D01*
X133218150Y-53620830D01*
X133429600Y-53937286D01*
X133435856Y-53947724D01*
X133615264Y-54283372D01*
X133620467Y-54294372D01*
X133766114Y-54645997D01*
X133770214Y-54657455D01*
X133880698Y-55021670D01*
X133883654Y-55033474D01*
X133957902Y-55406744D01*
X133959688Y-55418781D01*
X133997068Y-55798304D01*
X133997656Y-55808937D01*
X133999991Y-55999266D01*
X134000000Y-56000787D01*
X134000000Y-72999212D01*
X133999991Y-73000733D01*
X133997656Y-73191062D01*
X133997068Y-73201695D01*
X133959688Y-73581218D01*
X133957902Y-73593255D01*
X133883654Y-73966525D01*
X133880698Y-73978329D01*
X133770214Y-74342544D01*
X133766114Y-74354002D01*
X133620467Y-74705627D01*
X133615264Y-74716627D01*
X133435856Y-75052275D01*
X133429600Y-75062713D01*
X133218150Y-75379169D01*
X133210902Y-75388942D01*
X132969455Y-75683148D01*
X132961282Y-75692165D01*
X132692165Y-75961282D01*
X132683148Y-75969455D01*
X132388942Y-76210902D01*
X132379169Y-76218150D01*
X132062713Y-76429600D01*
X132052275Y-76435856D01*
X131716627Y-76615264D01*
X131705627Y-76620467D01*
X131354002Y-76766114D01*
X131342544Y-76770214D01*
X130978329Y-76880698D01*
X130966525Y-76883654D01*
X130593255Y-76957902D01*
X130581218Y-76959688D01*
X130201695Y-76997068D01*
X130191062Y-76997656D01*
X130000734Y-76999991D01*
X129999213Y-77000000D01*
X93500787Y-77000000D01*
X93499266Y-76999991D01*
X93308937Y-76997656D01*
X93298304Y-76997068D01*
X92918781Y-76959688D01*
X92906744Y-76957902D01*
X92533474Y-76883654D01*
X92521670Y-76880698D01*
X92157455Y-76770214D01*
X92145997Y-76766114D01*
X91794372Y-76620467D01*
X91783372Y-76615264D01*
X91447724Y-76435856D01*
X91437286Y-76429600D01*
X91120830Y-76218150D01*
X91111057Y-76210902D01*
X90816851Y-75969455D01*
X90807834Y-75961282D01*
X90538717Y-75692165D01*
X90530544Y-75683148D01*
X90289097Y-75388942D01*
X90281849Y-75379169D01*
X90070399Y-75062713D01*
X90064143Y-75052275D01*
X89884735Y-74716627D01*
X89879532Y-74705627D01*
X89733885Y-74354002D01*
X89729785Y-74342544D01*
X89619301Y-73978329D01*
X89616345Y-73966525D01*
X89542097Y-73593255D01*
X89540311Y-73581218D01*
X89502930Y-73201681D01*
X89502343Y-73191075D01*
X89500009Y-73000732D01*
X89500000Y-72999212D01*
X89500000Y-65659000D01*
X93170750Y-65659000D01*
X93189670Y-65802708D01*
X93189671Y-65802712D01*
X93245137Y-65936622D01*
X93245138Y-65936624D01*
X93245139Y-65936625D01*
X93333379Y-66051621D01*
X93448375Y-66139861D01*
X93582291Y-66195330D01*
X93709280Y-66212048D01*
X93725999Y-66214250D01*
X93726000Y-66214250D01*
X93726001Y-66214250D01*
X93740977Y-66212278D01*
X93869709Y-66195330D01*
X94003625Y-66139861D01*
X94118621Y-66051621D01*
X94206861Y-65936625D01*
X94262330Y-65802709D01*
X94281250Y-65659000D01*
X94263742Y-65526018D01*
X94274507Y-65456985D01*
X94298994Y-65422159D01*
X94623065Y-65098090D01*
X95699777Y-64021377D01*
X95761098Y-63987894D01*
X95830790Y-63992878D01*
X95866192Y-64015633D01*
X95866930Y-64014673D01*
X95919463Y-64054983D01*
X95988375Y-64107861D01*
X96122291Y-64163330D01*
X96249280Y-64180048D01*
X96265999Y-64182250D01*
X96266000Y-64182250D01*
X96266001Y-64182250D01*
X96280977Y-64180278D01*
X96409709Y-64163330D01*
X96543625Y-64107861D01*
X96658621Y-64019621D01*
X96746861Y-63904625D01*
X96802330Y-63770709D01*
X96821250Y-63627000D01*
X96804530Y-63500000D01*
X113194750Y-63500000D01*
X113213670Y-63643708D01*
X113213671Y-63643712D01*
X113269137Y-63777622D01*
X113269138Y-63777624D01*
X113269139Y-63777625D01*
X113357379Y-63892621D01*
X113472375Y-63980861D01*
X113606291Y-64036330D01*
X113710907Y-64050103D01*
X113774804Y-64078370D01*
X113782403Y-64085361D01*
X120182781Y-70485738D01*
X120182791Y-70485749D01*
X120259921Y-70562879D01*
X120304500Y-70588616D01*
X120349080Y-70614354D01*
X120448524Y-70641001D01*
X120448527Y-70641001D01*
X120559072Y-70641001D01*
X120559088Y-70641000D01*
X125313174Y-70641000D01*
X125380213Y-70660685D01*
X125388650Y-70666616D01*
X125472375Y-70730861D01*
X125606291Y-70786330D01*
X125733280Y-70803048D01*
X125749999Y-70805250D01*
X125750000Y-70805250D01*
X125750001Y-70805250D01*
X125764977Y-70803278D01*
X125893709Y-70786330D01*
X126027625Y-70730861D01*
X126142621Y-70642621D01*
X126230861Y-70527625D01*
X126286330Y-70393709D01*
X126305250Y-70250000D01*
X126286330Y-70106291D01*
X126230861Y-69972375D01*
X126142621Y-69857379D01*
X126027625Y-69769139D01*
X126027624Y-69769138D01*
X126027622Y-69769137D01*
X125893712Y-69713671D01*
X125893710Y-69713670D01*
X125893709Y-69713670D01*
X125821854Y-69704210D01*
X125750001Y-69694750D01*
X125749999Y-69694750D01*
X125606291Y-69713670D01*
X125606287Y-69713671D01*
X125472377Y-69769137D01*
X125437434Y-69795950D01*
X125388659Y-69833376D01*
X125323491Y-69858570D01*
X125313174Y-69859000D01*
X120713319Y-69859000D01*
X120646280Y-69839315D01*
X120625638Y-69822681D01*
X114335361Y-63532403D01*
X114301876Y-63471080D01*
X114300103Y-63460907D01*
X114286330Y-63356292D01*
X114286328Y-63356287D01*
X114230862Y-63222377D01*
X114230861Y-63222376D01*
X114230861Y-63222375D01*
X114142621Y-63107379D01*
X114027625Y-63019139D01*
X114027624Y-63019138D01*
X114027622Y-63019137D01*
X113893712Y-62963671D01*
X113893710Y-62963670D01*
X113893709Y-62963670D01*
X113821854Y-62954210D01*
X113750001Y-62944750D01*
X113749999Y-62944750D01*
X113606291Y-62963670D01*
X113606287Y-62963671D01*
X113472377Y-63019137D01*
X113357379Y-63107379D01*
X113269137Y-63222377D01*
X113213671Y-63356287D01*
X113213670Y-63356291D01*
X113194750Y-63499999D01*
X113194750Y-63500000D01*
X96804530Y-63500000D01*
X96802330Y-63483291D01*
X96765350Y-63394013D01*
X96746862Y-63349377D01*
X96746861Y-63349376D01*
X96746861Y-63349375D01*
X96658621Y-63234379D01*
X96543625Y-63146139D01*
X96543624Y-63146138D01*
X96543622Y-63146137D01*
X96409712Y-63090671D01*
X96409710Y-63090670D01*
X96409709Y-63090670D01*
X96337854Y-63081210D01*
X96266001Y-63071750D01*
X96265999Y-63071750D01*
X96122291Y-63090670D01*
X96122287Y-63090671D01*
X95988376Y-63146138D01*
X95988374Y-63146139D01*
X95873379Y-63234377D01*
X95860635Y-63250987D01*
X95804207Y-63292190D01*
X95762260Y-63299500D01*
X95674116Y-63299500D01*
X95587884Y-63299500D01*
X95532354Y-63314379D01*
X95504589Y-63321819D01*
X95429911Y-63364934D01*
X95429908Y-63364936D01*
X94159910Y-64634935D01*
X93715565Y-65079278D01*
X93654242Y-65112763D01*
X93644071Y-65114536D01*
X93582291Y-65122670D01*
X93582287Y-65122671D01*
X93448377Y-65178137D01*
X93333379Y-65266379D01*
X93245137Y-65381377D01*
X93189671Y-65515287D01*
X93189670Y-65515291D01*
X93170750Y-65658999D01*
X93170750Y-65659000D01*
X89500000Y-65659000D01*
X89500000Y-58750000D01*
X109194750Y-58750000D01*
X109213670Y-58893708D01*
X109213671Y-58893712D01*
X109269137Y-59027622D01*
X109269138Y-59027624D01*
X109269139Y-59027625D01*
X109357379Y-59142621D01*
X109472375Y-59230861D01*
X109606291Y-59286330D01*
X109733280Y-59303048D01*
X109749999Y-59305250D01*
X109750000Y-59305250D01*
X109750001Y-59305250D01*
X109764977Y-59303278D01*
X109893709Y-59286330D01*
X110027625Y-59230861D01*
X110142621Y-59142621D01*
X110230861Y-59027625D01*
X110286330Y-58893709D01*
X110305250Y-58750000D01*
X110286330Y-58606291D01*
X110230861Y-58472375D01*
X110166623Y-58388659D01*
X110141430Y-58323491D01*
X110141000Y-58313174D01*
X110141000Y-55963320D01*
X110160685Y-55896281D01*
X110177313Y-55875644D01*
X110245853Y-55807104D01*
X110307172Y-55773622D01*
X110376864Y-55778606D01*
X110432798Y-55820477D01*
X110457215Y-55885941D01*
X110456470Y-55910973D01*
X110444750Y-55999997D01*
X110444750Y-56000000D01*
X110463670Y-56143708D01*
X110463671Y-56143712D01*
X110519138Y-56277623D01*
X110519139Y-56277625D01*
X110607377Y-56392620D01*
X110616496Y-56399617D01*
X110623984Y-56405362D01*
X110665188Y-56461789D01*
X110672500Y-56503739D01*
X110672500Y-59206884D01*
X110672500Y-59293116D01*
X110694819Y-59376410D01*
X110737935Y-59451090D01*
X110987935Y-59701090D01*
X111048910Y-59762065D01*
X111123590Y-59805181D01*
X111206884Y-59827500D01*
X111746260Y-59827500D01*
X111813299Y-59847185D01*
X111844635Y-59876013D01*
X111857379Y-59892622D01*
X111950668Y-59964204D01*
X111972375Y-59980861D01*
X112106291Y-60036330D01*
X112233280Y-60053048D01*
X112249999Y-60055250D01*
X112250000Y-60055250D01*
X112250001Y-60055250D01*
X112264977Y-60053278D01*
X112393709Y-60036330D01*
X112527625Y-59980861D01*
X112642621Y-59892621D01*
X112730861Y-59777625D01*
X112786330Y-59643709D01*
X112805250Y-59500000D01*
X112786330Y-59356291D01*
X112749350Y-59267013D01*
X112730862Y-59222377D01*
X112730861Y-59222376D01*
X112730861Y-59222375D01*
X112642621Y-59107379D01*
X112527625Y-59019139D01*
X112527624Y-59019138D01*
X112527622Y-59019137D01*
X112393712Y-58963671D01*
X112393710Y-58963670D01*
X112393709Y-58963670D01*
X112321854Y-58954210D01*
X112250001Y-58944750D01*
X112249999Y-58944750D01*
X112106291Y-58963670D01*
X112106287Y-58963671D01*
X111972376Y-59019138D01*
X111972374Y-59019139D01*
X111857379Y-59107377D01*
X111844635Y-59123987D01*
X111788207Y-59165190D01*
X111746260Y-59172500D01*
X111451500Y-59172500D01*
X111384461Y-59152815D01*
X111338706Y-59100011D01*
X111327500Y-59048500D01*
X111327500Y-56503739D01*
X111347185Y-56436700D01*
X111376014Y-56405363D01*
X111392621Y-56392621D01*
X111480861Y-56277625D01*
X111536330Y-56143709D01*
X111555250Y-56000000D01*
X111555153Y-55999267D01*
X111550421Y-55963320D01*
X111536330Y-55856291D01*
X111480861Y-55722375D01*
X111392621Y-55607379D01*
X111277625Y-55519139D01*
X111277624Y-55519138D01*
X111277622Y-55519137D01*
X111143712Y-55463671D01*
X111143710Y-55463670D01*
X111143709Y-55463670D01*
X111071854Y-55454210D01*
X111000001Y-55444750D01*
X110999998Y-55444750D01*
X110910973Y-55456470D01*
X110841938Y-55445704D01*
X110789682Y-55399324D01*
X110770797Y-55332055D01*
X110791278Y-55265255D01*
X110807102Y-55245855D01*
X112125639Y-53927319D01*
X112186962Y-53893834D01*
X112213320Y-53891000D01*
X114563174Y-53891000D01*
X114630213Y-53910685D01*
X114638650Y-53916616D01*
X114722375Y-53980861D01*
X114856291Y-54036330D01*
X114983280Y-54053048D01*
X114999999Y-54055250D01*
X115000000Y-54055250D01*
X115000001Y-54055250D01*
X115014977Y-54053278D01*
X115143709Y-54036330D01*
X115277625Y-53980861D01*
X115392621Y-53892621D01*
X115480861Y-53777625D01*
X115536330Y-53643709D01*
X115555250Y-53500000D01*
X115536330Y-53356291D01*
X115480861Y-53222375D01*
X115392621Y-53107379D01*
X115277625Y-53019139D01*
X115277624Y-53019138D01*
X115277622Y-53019137D01*
X115143712Y-52963671D01*
X115143710Y-52963670D01*
X115143709Y-52963670D01*
X115071854Y-52954210D01*
X115000001Y-52944750D01*
X114999999Y-52944750D01*
X114856291Y-52963670D01*
X114856287Y-52963671D01*
X114722377Y-53019137D01*
X114687434Y-53045950D01*
X114638659Y-53083376D01*
X114573491Y-53108570D01*
X114563174Y-53109000D01*
X111948524Y-53109000D01*
X111849080Y-53135646D01*
X111849078Y-53135647D01*
X111849077Y-53135647D01*
X111802567Y-53162500D01*
X111789896Y-53169815D01*
X111759920Y-53187121D01*
X109437124Y-55509917D01*
X109437122Y-55509920D01*
X109385645Y-55599079D01*
X109373239Y-55645376D01*
X109373240Y-55645377D01*
X109359000Y-55698522D01*
X109359000Y-58313174D01*
X109339315Y-58380213D01*
X109333383Y-58388650D01*
X109295950Y-58437434D01*
X109269137Y-58472377D01*
X109213671Y-58606287D01*
X109213670Y-58606291D01*
X109194750Y-58749999D01*
X109194750Y-58750000D01*
X89500000Y-58750000D01*
X89500000Y-56000787D01*
X89500009Y-55999267D01*
X89501525Y-55875639D01*
X89502343Y-55808922D01*
X89502930Y-55798320D01*
X89540312Y-55418772D01*
X89542097Y-55406744D01*
X89616345Y-55033474D01*
X89619301Y-55021670D01*
X89729785Y-54657455D01*
X89733885Y-54645997D01*
X89879532Y-54294372D01*
X89884730Y-54283380D01*
X90064152Y-53947708D01*
X90070390Y-53937300D01*
X90281852Y-53620825D01*
X90289091Y-53611064D01*
X90530555Y-53316838D01*
X90538707Y-53307844D01*
X90807844Y-53038707D01*
X90816838Y-53030555D01*
X91111064Y-52789091D01*
X91120825Y-52781852D01*
X91437300Y-52570390D01*
X91447708Y-52564152D01*
X91783380Y-52384730D01*
X91794363Y-52379535D01*
X92146004Y-52233882D01*
X92157447Y-52229787D01*
X92521677Y-52119299D01*
X92533468Y-52116346D01*
X92906753Y-52042095D01*
X92918772Y-52040312D01*
X93298320Y-52002930D01*
X93308922Y-52002343D01*
X93496784Y-52000039D01*
X93499267Y-52000009D01*
X93500787Y-52000000D01*
X129999213Y-52000000D01*
X130000733Y-52000008D01*
G37*
%TD.AperFunction*%
%TD*%
D13*
X96250000Y-62250000D03*
X109750000Y-58750000D03*
X115000000Y-53500000D03*
X109250000Y-68750000D03*
X111000000Y-56000000D03*
X112250000Y-59500000D03*
X116500000Y-60750000D03*
X113250000Y-56250000D03*
X131000000Y-60500000D03*
X127750000Y-67500000D03*
X130750000Y-67500000D03*
X113000000Y-64250000D03*
X109000000Y-61250000D03*
X103000000Y-59250000D03*
X101750000Y-61250000D03*
X125750000Y-70250000D03*
X113750000Y-63500000D03*
X93726000Y-65659000D03*
X96266000Y-63627000D03*
M02*
