%TF.GenerationSoftware,KiCad,Pcbnew,9.0.0*%
%TF.CreationDate,2025-02-25T12:17:53-05:00*%
%TF.ProjectId,kicad_pulse_supply-rev-C,6b696361-645f-4707-956c-73655f737570,rev?*%
%TF.SameCoordinates,Original*%
%TF.FileFunction,Profile,NP*%
%FSLAX46Y46*%
G04 Gerber Fmt 4.6, Leading zero omitted, Abs format (unit mm)*
G04 Created by KiCad (PCBNEW 9.0.0) date 2025-02-25 12:17:53*
%MOMM*%
%LPD*%
G01*
G04 APERTURE LIST*
%ADD10C,0.150000*%
%TA.AperFunction,Profile*%
%ADD11C,0.100000*%
%TD*%
%ADD12C,0.350000*%
%ADD13O,1.150000X0.500000*%
%ADD14O,0.550000X0.850000*%
G04 APERTURE END LIST*
D10*
X161472255Y-82825043D02*
X161662731Y-82825043D01*
X161662731Y-82825043D02*
X161757969Y-82872662D01*
X161757969Y-82872662D02*
X161853207Y-82967900D01*
X161853207Y-82967900D02*
X161900826Y-83158376D01*
X161900826Y-83158376D02*
X161900826Y-83491709D01*
X161900826Y-83491709D02*
X161853207Y-83682185D01*
X161853207Y-83682185D02*
X161757969Y-83777424D01*
X161757969Y-83777424D02*
X161662731Y-83825043D01*
X161662731Y-83825043D02*
X161472255Y-83825043D01*
X161472255Y-83825043D02*
X161377017Y-83777424D01*
X161377017Y-83777424D02*
X161281779Y-83682185D01*
X161281779Y-83682185D02*
X161234160Y-83491709D01*
X161234160Y-83491709D02*
X161234160Y-83158376D01*
X161234160Y-83158376D02*
X161281779Y-82967900D01*
X161281779Y-82967900D02*
X161377017Y-82872662D01*
X161377017Y-82872662D02*
X161472255Y-82825043D01*
X162329398Y-83825043D02*
X162329398Y-82825043D01*
X162329398Y-82825043D02*
X162900826Y-83825043D01*
X162900826Y-83825043D02*
X162900826Y-82825043D01*
X161472255Y-89264819D02*
X161662731Y-89264819D01*
X161662731Y-89264819D02*
X161757969Y-89312438D01*
X161757969Y-89312438D02*
X161853207Y-89407676D01*
X161853207Y-89407676D02*
X161900826Y-89598152D01*
X161900826Y-89598152D02*
X161900826Y-89931485D01*
X161900826Y-89931485D02*
X161853207Y-90121961D01*
X161853207Y-90121961D02*
X161757969Y-90217200D01*
X161757969Y-90217200D02*
X161662731Y-90264819D01*
X161662731Y-90264819D02*
X161472255Y-90264819D01*
X161472255Y-90264819D02*
X161377017Y-90217200D01*
X161377017Y-90217200D02*
X161281779Y-90121961D01*
X161281779Y-90121961D02*
X161234160Y-89931485D01*
X161234160Y-89931485D02*
X161234160Y-89598152D01*
X161234160Y-89598152D02*
X161281779Y-89407676D01*
X161281779Y-89407676D02*
X161377017Y-89312438D01*
X161377017Y-89312438D02*
X161472255Y-89264819D01*
X162662731Y-89741009D02*
X162329398Y-89741009D01*
X162329398Y-90264819D02*
X162329398Y-89264819D01*
X162329398Y-89264819D02*
X162805588Y-89264819D01*
X163519874Y-89741009D02*
X163186541Y-89741009D01*
X163186541Y-90264819D02*
X163186541Y-89264819D01*
X163186541Y-89264819D02*
X163662731Y-89264819D01*
D11*
X43945000Y-72095000D02*
G75*
G02*
X45945000Y-70095000I2000000J0D01*
G01*
X163445000Y-70095000D02*
G75*
G02*
X165445000Y-72095000I0J-2000000D01*
G01*
X45945000Y-156095000D02*
G75*
G02*
X43945000Y-154095000I0J2000000D01*
G01*
X45945000Y-70095000D02*
X163445000Y-70095000D01*
X43945000Y-154095000D02*
X43945000Y-72095000D01*
X165445000Y-72095000D02*
X165445000Y-154095000D01*
X163445000Y-156095000D02*
X45945000Y-156095000D01*
X165445000Y-154095000D02*
G75*
G02*
X163445000Y-156095000I-2000000J0D01*
G01*
D12*
X55286000Y-98513000D03*
X55286000Y-95743000D03*
X55286000Y-92973000D03*
X55286000Y-90203000D03*
X55286000Y-87433000D03*
X52446000Y-97128000D03*
X52446000Y-94358000D03*
X52446000Y-91588000D03*
X52446000Y-88818000D03*
X53866000Y-80478000D03*
X53866000Y-105468000D03*
D13*
X163566000Y-100978000D03*
D14*
X160866000Y-101978000D03*
X160866000Y-106978000D03*
D13*
X163566000Y-107978000D03*
D12*
X149616000Y-139978000D03*
X128866000Y-150728000D03*
X53166000Y-111978000D03*
X155366000Y-141778000D03*
X155366000Y-139238000D03*
X155366000Y-136698000D03*
X155366000Y-134158000D03*
X138116000Y-139978000D03*
X132366000Y-139978000D03*
X51036000Y-123648000D03*
X51036000Y-133808000D03*
X56116000Y-128728000D03*
X56116000Y-131268000D03*
X51116000Y-140648000D03*
X51116000Y-150808000D03*
X56196000Y-145728000D03*
X56196000Y-148268000D03*
X65616000Y-150478000D03*
X144116000Y-139978000D03*
X98616000Y-150478000D03*
X104116000Y-75528000D03*
X104116000Y-151928000D03*
X60291000Y-117978000D03*
X57751000Y-117978000D03*
X55211000Y-117978000D03*
X122966000Y-150578000D03*
X58066000Y-74578000D03*
X82116000Y-150478000D03*
X61866000Y-95478000D03*
X116766000Y-150378000D03*
X71966000Y-75528000D03*
X90616000Y-150478000D03*
X122866000Y-84918000D03*
X122866000Y-82378000D03*
X122866000Y-79838000D03*
X159866000Y-116708000D03*
X159866000Y-117978000D03*
X158366000Y-82978000D03*
X158366000Y-89778000D03*
X61766000Y-85478000D03*
X82166000Y-144378000D03*
X110766000Y-150478000D03*
X71966000Y-151928000D03*
X126616000Y-139978000D03*
M02*
